M48
; DRILL file KiCad 10.0.3-10.0.3~ubuntu26.04.1 date 2026-05-22T22:36:18
; FORMAT={-:-/ absolute / metric / decimal}
; #@! TF.CreationDate,2026-05-22T22:36:18-05:00
; #@! TF.GenerationSoftware,Kicad,Pcbnew,10.0.3-10.0.3~ubuntu26.04.1
; #@! TF.FileFunction,Plated,1,2,PTH
FMAT,2
METRIC
; #@! TA.AperFunction,Plated,PTH,ViaDrill
T1C0.300
; #@! TA.AperFunction,Plated,PTH,ComponentDrill
T2C0.800
; #@! TA.AperFunction,Plated,PTH,ComponentDrill
T3C2.200
%
G90
G05
T1
X21.81Y-50.976
X22.0Y-57.562
X23.1Y-28.862
X23.1Y-31.137
X24.0Y-54.0
X24.05Y-31.137
X25.0Y-28.862
X27.0Y-28.912
X27.0Y-31.188
X27.95Y-31.188
X28.9Y-28.912
X28.9Y-31.188
X29.5Y-55.0
X30.0Y-57.625
X30.5Y-51.0
X35.5Y-51.0
X36.0Y-57.562
X36.5Y-55.0
X37.05Y-28.862
X37.05Y-31.137
X38.0Y-31.137
X38.95Y-28.862
X38.95Y-31.137
X41.05Y-28.912
X42.0Y-31.188
X42.0Y-54.0
X42.95Y-28.912
X42.95Y-31.188
X44.0Y-57.562
X44.19Y-50.976
T2
X24.9Y-35.5
X24.9Y-37.7
X24.9Y-39.9
X24.9Y-42.1
X24.9Y-44.3
X24.9Y-46.5
X27.1Y-35.5
X27.1Y-37.7
X27.1Y-39.9
X27.1Y-42.1
X27.1Y-44.3
X27.1Y-46.5
X38.9Y-35.5
X38.9Y-37.7
X38.9Y-39.9
X38.9Y-42.1
X38.9Y-44.3
X38.9Y-46.5
X41.1Y-35.5
X41.1Y-37.7
X41.1Y-39.9
X41.1Y-42.1
X41.1Y-44.3
X41.1Y-46.5
T3
X26.0Y-22.5
X26.0Y-59.5
X40.0Y-22.5
X40.0Y-59.5
M30
