%TF.GenerationSoftware,KiCad,Pcbnew,10.0.3-10.0.3~ubuntu26.04.1*%
%TF.CreationDate,2026-05-22T22:36:29-05:00*%
%TF.ProjectId,magnetic-connector,6d61676e-6574-4696-932d-636f6e6e6563,rev?*%
%TF.SameCoordinates,Original*%
%TF.FileFunction,Soldermask,Top*%
%TF.FilePolarity,Negative*%
%FSLAX46Y46*%
G04 Gerber Fmt 4.6, Leading zero omitted, Abs format (unit mm)*
G04 Created by KiCad (PCBNEW 10.0.3-10.0.3~ubuntu26.04.1) date 2026-05-22 22:36:29*
%MOMM*%
%LPD*%
G01*
G04 APERTURE LIST*
G04 Aperture macros list*
%AMRoundRect*
0 Rectangle with rounded corners*
0 $1 Rounding radius*
0 $2 $3 $4 $5 $6 $7 $8 $9 X,Y pos of 4 corners*
0 Add a 4 corners polygon primitive as box body*
4,1,4,$2,$3,$4,$5,$6,$7,$8,$9,$2,$3,0*
0 Add four circle primitives for the rounded corners*
1,1,$1+$1,$2,$3*
1,1,$1+$1,$4,$5*
1,1,$1+$1,$6,$7*
1,1,$1+$1,$8,$9*
0 Add four rect primitives between the rounded corners*
20,1,$1+$1,$2,$3,$4,$5,0*
20,1,$1+$1,$4,$5,$6,$7,0*
20,1,$1+$1,$6,$7,$8,$9,0*
20,1,$1+$1,$8,$9,$2,$3,0*%
G04 Aperture macros list end*
%ADD10RoundRect,0.150000X-0.150000X0.512500X-0.150000X-0.512500X0.150000X-0.512500X0.150000X0.512500X0*%
%ADD11R,0.280000X1.250000*%
%ADD12R,1.800000X2.000000*%
%ADD13C,1.200000*%
%ADD14C,4.000000*%
%ADD15RoundRect,0.243750X-0.456250X0.243750X-0.456250X-0.243750X0.456250X-0.243750X0.456250X0.243750X0*%
%ADD16RoundRect,0.243750X0.456250X-0.243750X0.456250X0.243750X-0.456250X0.243750X-0.456250X-0.243750X0*%
%ADD17C,0.500000*%
G04 APERTURE END LIST*
D10*
%TO.C,D4*%
X28900000Y-28912500D03*
X27950000Y-28912500D03*
X27000000Y-28912500D03*
X27000000Y-31187500D03*
X27950000Y-31187500D03*
X28900000Y-31187500D03*
%TD*%
%TO.C,D3*%
X25000000Y-28862500D03*
X24050000Y-28862500D03*
X23100000Y-28862500D03*
X23100000Y-31137500D03*
X24050000Y-31137500D03*
X25000000Y-31137500D03*
%TD*%
D11*
%TO.C,J_VIK_HOST1*%
X23250000Y-49962000D03*
X23750000Y-49962000D03*
X24250000Y-49962000D03*
X24750000Y-49962000D03*
X25250000Y-49962000D03*
X25750000Y-49962000D03*
X26250000Y-49962000D03*
X26750000Y-49962000D03*
X27250000Y-49962000D03*
X27750000Y-49962000D03*
X28250000Y-49962000D03*
X28750000Y-49962000D03*
D12*
X30550000Y-52686000D03*
X21450000Y-52686000D03*
%TD*%
D11*
%TO.C,J_VIK_CLI1*%
X37250000Y-49962000D03*
X37750000Y-49962000D03*
X38250000Y-49962000D03*
X38750000Y-49962000D03*
X39250000Y-49962000D03*
X39750000Y-49962000D03*
X40250000Y-49962000D03*
X40750000Y-49962000D03*
X41250000Y-49962000D03*
X41750000Y-49962000D03*
X42250000Y-49962000D03*
X42750000Y-49962000D03*
D12*
X44550000Y-52686000D03*
X35450000Y-52686000D03*
%TD*%
D10*
%TO.C,D2*%
X42950000Y-28912500D03*
X42000000Y-28912500D03*
X41050000Y-28912500D03*
X41050000Y-31187500D03*
X42000000Y-31187500D03*
X42950000Y-31187500D03*
%TD*%
%TO.C,D1*%
X38950000Y-28862500D03*
X38000000Y-28862500D03*
X37050000Y-28862500D03*
X37050000Y-31137500D03*
X38000000Y-31137500D03*
X38950000Y-31137500D03*
%TD*%
D13*
%TO.C,J_MC_CLI1*%
X41100000Y-46500000D03*
X38900000Y-46500000D03*
X41100000Y-44300000D03*
X38900000Y-44300000D03*
X41100000Y-42100000D03*
X38900000Y-42100000D03*
X41100000Y-39900000D03*
X38900000Y-39900000D03*
X41100000Y-37700000D03*
X38900000Y-37700000D03*
X41100000Y-35500000D03*
X38900000Y-35500000D03*
%TD*%
D14*
%TO.C,H_CLI_1*%
X40000000Y-22500000D03*
%TD*%
D15*
%TO.C,F_5V_CLI_1*%
X44000000Y-57562500D03*
X44000000Y-59437500D03*
%TD*%
D14*
%TO.C,H_HOST_2*%
X26000000Y-59500000D03*
%TD*%
D16*
%TO.C,F_3V3_HOST_1*%
X30000000Y-59500000D03*
X30000000Y-57625000D03*
%TD*%
D14*
%TO.C,H_CLI_2*%
X40000000Y-59500000D03*
%TD*%
D17*
%TO.C,REF\u002A\u002A*%
X31750000Y-59200000D03*
X34250000Y-59200000D03*
X31750000Y-58350000D03*
X34250000Y-58350000D03*
X31750000Y-57500000D03*
X34250000Y-57500000D03*
X31750000Y-56650000D03*
X34250000Y-56650000D03*
X31750000Y-55800000D03*
X34250000Y-55800000D03*
%TD*%
D16*
%TO.C,F_5V_HOST_1*%
X22000000Y-59437500D03*
X22000000Y-57562500D03*
%TD*%
D17*
%TO.C,REF\u002A\u002A*%
X31750000Y-26200000D03*
X34250000Y-26200000D03*
X31750000Y-25350000D03*
X34250000Y-25350000D03*
X31750000Y-24500000D03*
X34250000Y-24500000D03*
X31750000Y-23650000D03*
X34250000Y-23650000D03*
X31750000Y-22800000D03*
X34250000Y-22800000D03*
%TD*%
D13*
%TO.C,J_MC_HOST1*%
X27100000Y-35500000D03*
X24900000Y-35500000D03*
X27100000Y-37700000D03*
X24900000Y-37700000D03*
X27100000Y-39900000D03*
X24900000Y-39900000D03*
X27100000Y-42100000D03*
X24900000Y-42100000D03*
X27100000Y-44300000D03*
X24900000Y-44300000D03*
X27100000Y-46500000D03*
X24900000Y-46500000D03*
%TD*%
D14*
%TO.C,H_HOST_1*%
X26000000Y-22500000D03*
%TD*%
D15*
%TO.C,F_3V3_CLI_1*%
X36000000Y-57562500D03*
X36000000Y-59437500D03*
%TD*%
M02*
