%TF.GenerationSoftware,KiCad,Pcbnew,10.0.3-10.0.3~ubuntu26.04.1*%
%TF.CreationDate,2026-05-22T22:36:29-05:00*%
%TF.ProjectId,magnetic-connector,6d61676e-6574-4696-932d-636f6e6e6563,rev?*%
%TF.SameCoordinates,Original*%
%TF.FileFunction,Copper,L2,Bot*%
%TF.FilePolarity,Positive*%
%FSLAX46Y46*%
G04 Gerber Fmt 4.6, Leading zero omitted, Abs format (unit mm)*
G04 Created by KiCad (PCBNEW 10.0.3-10.0.3~ubuntu26.04.1) date 2026-05-22 22:36:29*
%MOMM*%
%LPD*%
G01*
G04 APERTURE LIST*
%TA.AperFunction,ComponentPad*%
%ADD10C,1.200000*%
%TD*%
%TA.AperFunction,ComponentPad*%
%ADD11C,4.000000*%
%TD*%
%TA.AperFunction,ViaPad*%
%ADD12C,0.600000*%
%TD*%
%TA.AperFunction,Conductor*%
%ADD13C,0.300000*%
%TD*%
%TA.AperFunction,Conductor*%
%ADD14C,0.200000*%
%TD*%
%TA.AperFunction,Conductor*%
%ADD15C,0.500000*%
%TD*%
G04 APERTURE END LIST*
D10*
%TO.P,J_MC_CLI1,1,SCLK_1*%
%TO.N,/Client/SCLK*%
X41100000Y-46500000D03*
%TO.P,J_MC_CLI1,2,MISO_2*%
%TO.N,/Client/MISO*%
X38900000Y-46500000D03*
%TO.P,J_MC_CLI1,3,SPI_CS_3*%
%TO.N,/Client/CS*%
X41100000Y-44300000D03*
%TO.P,J_MC_CLI1,4,GP_AD2_4*%
%TO.N,/Client/GP2*%
X38900000Y-44300000D03*
%TO.P,J_MC_CLI1,5,MOSI_5*%
%TO.N,/Client/MOSI*%
X41100000Y-42100000D03*
%TO.P,J_MC_CLI1,6,GP_AD1_6*%
%TO.N,/Client/GP1*%
X38900000Y-42100000D03*
%TO.P,J_MC_CLI1,7,5V_7*%
%TO.N,/Client/5V_IN*%
X41100000Y-39900000D03*
%TO.P,J_MC_CLI1,8,RGB_DO_8*%
%TO.N,/Client/RGB_DO*%
X38900000Y-39900000D03*
%TO.P,J_MC_CLI1,9,SCL_9*%
%TO.N,/Client/SCL*%
X41100000Y-37700000D03*
%TO.P,J_MC_CLI1,10,SDA_10*%
%TO.N,/Client/SDA*%
X38900000Y-37700000D03*
%TO.P,J_MC_CLI1,11,GND_11*%
%TO.N,/Client/GND*%
X41100000Y-35500000D03*
%TO.P,J_MC_CLI1,12,3V3_12*%
%TO.N,/Client/3V3_IN*%
X38900000Y-35500000D03*
%TD*%
D11*
%TO.P,H_CLI_1,1,1_1*%
%TO.N,/Client/GND*%
X40000000Y-22500000D03*
%TD*%
%TO.P,H_HOST_2,1,1_1*%
%TO.N,/Host/GND*%
X26000000Y-59500000D03*
%TD*%
%TO.P,H_CLI_2,1,1_1*%
%TO.N,/Client/GND*%
X40000000Y-59500000D03*
%TD*%
D10*
%TO.P,J_MC_HOST1,1,3V3_1*%
%TO.N,/Host/3V3_OUT*%
X27100000Y-35500000D03*
%TO.P,J_MC_HOST1,2,GND_2*%
%TO.N,/Host/GND*%
X24900000Y-35500000D03*
%TO.P,J_MC_HOST1,3,SDA_3*%
%TO.N,/Host/SDA*%
X27100000Y-37700000D03*
%TO.P,J_MC_HOST1,4,SCL_4*%
%TO.N,/Host/SCL*%
X24900000Y-37700000D03*
%TO.P,J_MC_HOST1,5,RGB_DO_5*%
%TO.N,/Host/RGB_DO*%
X27100000Y-39900000D03*
%TO.P,J_MC_HOST1,6,5V_6*%
%TO.N,/Host/5V_OUT*%
X24900000Y-39900000D03*
%TO.P,J_MC_HOST1,7,GP_AD1_7*%
%TO.N,/Host/GP1*%
X27100000Y-42100000D03*
%TO.P,J_MC_HOST1,8,MOSI_8*%
%TO.N,/Host/MOSI*%
X24900000Y-42100000D03*
%TO.P,J_MC_HOST1,9,GP_AD2_9*%
%TO.N,/Host/GP2*%
X27100000Y-44300000D03*
%TO.P,J_MC_HOST1,10,SPI_CS_10*%
%TO.N,/Host/CS*%
X24900000Y-44300000D03*
%TO.P,J_MC_HOST1,11,MISO_11*%
%TO.N,/Host/MISO*%
X27100000Y-46500000D03*
%TO.P,J_MC_HOST1,12,SCLK_12*%
%TO.N,/Host/SCLK*%
X24900000Y-46500000D03*
%TD*%
D11*
%TO.P,H_HOST_1,1,1_1*%
%TO.N,/Host/GND*%
X26000000Y-22500000D03*
%TD*%
D12*
%TO.N,/Client/GND*%
X42000000Y-54000000D03*
%TO.N,/Host/GND*%
X24000000Y-54000000D03*
X29500000Y-55000000D03*
%TO.N,/Client/GND*%
X36500000Y-55000000D03*
%TO.N,/Host/3V3_OUT*%
X30500000Y-51000000D03*
X30000000Y-57625000D03*
%TO.N,/Client/3V3_IN*%
X35500000Y-51000000D03*
X36000000Y-57562500D03*
%TO.N,/Client/MISO*%
X38950000Y-28862500D03*
%TO.N,/Client/GP2*%
X37050000Y-28862500D03*
%TO.N,/Client/GP1*%
X37050000Y-31137500D03*
%TO.N,/Client/RGB_DO*%
X38000000Y-31137500D03*
%TO.N,/Client/SDA*%
X38950000Y-31137500D03*
%TO.N,/Client/SCLK*%
X41050000Y-28912500D03*
%TO.N,/Client/CS*%
X42950000Y-28912500D03*
%TO.N,/Client/MOSI*%
X42950000Y-31187500D03*
%TO.N,/Client/SCL*%
X42000000Y-31187500D03*
%TO.N,/Host/MISO*%
X27000000Y-28912500D03*
%TO.N,/Host/GP2*%
X28900000Y-28912500D03*
%TO.N,/Host/GP1*%
X28900000Y-31187500D03*
%TO.N,/Host/RGB_DO*%
X27950000Y-31187500D03*
%TO.N,/Host/SDA*%
X27000000Y-31187500D03*
%TO.N,/Host/SCLK*%
X25000000Y-28862500D03*
%TO.N,/Host/CS*%
X23100000Y-28862500D03*
%TO.N,/Host/MOSI*%
X23100000Y-31137500D03*
%TO.N,/Host/SCL*%
X24050000Y-31137500D03*
%TO.N,/Client/5V_IN*%
X44190000Y-50976214D03*
X44000000Y-57562500D03*
%TO.N,/Host/5V_OUT*%
X21810000Y-50976214D03*
X22000000Y-57562500D03*
%TD*%
%TO.N,/Host/3V3_OUT*%
D13*
X30500000Y-51000000D02*
X30500000Y-57125000D01*
X30500000Y-57125000D02*
X30000000Y-57625000D01*
%TO.N,/Host/5V_OUT*%
X22000000Y-57562500D02*
X22000000Y-53437500D01*
X21810000Y-53247500D02*
X21810000Y-50976214D01*
X22000000Y-53437500D02*
X21810000Y-53247500D01*
%TO.N,/Client/3V3_IN*%
X35500000Y-51000000D02*
X35500000Y-57062500D01*
X35500000Y-57062500D02*
X36000000Y-57562500D01*
%TO.N,/Client/5V_IN*%
X44000000Y-57562500D02*
X44000000Y-52937500D01*
X44000000Y-52937500D02*
X44190000Y-52747500D01*
X44190000Y-52747500D02*
X44190000Y-50976214D01*
%TO.N,/Client/MISO*%
D14*
X38900000Y-46500000D02*
X36050000Y-43650000D01*
X36050000Y-43650000D02*
X36050000Y-29013971D01*
X36801471Y-28262500D02*
X38350000Y-28262500D01*
X36050000Y-29013971D02*
X36801471Y-28262500D01*
X38350000Y-28262500D02*
X38950000Y-28862500D01*
%TO.N,/Client/GP2*%
X38900000Y-44300000D02*
X36450000Y-41850000D01*
X36450000Y-41850000D02*
X36450000Y-29462500D01*
X36450000Y-29462500D02*
X37050000Y-28862500D01*
%TO.N,/Client/GP1*%
X38900000Y-42100000D02*
X37050000Y-40250000D01*
X37050000Y-40250000D02*
X37050000Y-31137500D01*
%TO.N,/Client/RGB_DO*%
X38900000Y-39900000D02*
X37600000Y-38600000D01*
X37600000Y-38600000D02*
X37600000Y-31537500D01*
X37600000Y-31537500D02*
X38000000Y-31137500D01*
%TO.N,/Client/SDA*%
X38900000Y-37700000D02*
X38000000Y-36800000D01*
X38000000Y-36800000D02*
X38000000Y-32087500D01*
X38000000Y-32087500D02*
X38950000Y-31137500D01*
%TO.N,/Client/SCLK*%
X41100000Y-46500000D02*
X43950000Y-43650000D01*
X43950000Y-43650000D02*
X43950000Y-29063971D01*
X43950000Y-29063971D02*
X42886029Y-28000000D01*
X42886029Y-28000000D02*
X41962500Y-28000000D01*
X41962500Y-28000000D02*
X41050000Y-28912500D01*
%TO.N,/Client/CS*%
X41100000Y-44300000D02*
X43550000Y-41850000D01*
X43550000Y-41850000D02*
X43550000Y-29512500D01*
X43550000Y-29512500D02*
X42950000Y-28912500D01*
%TO.N,/Client/MOSI*%
X41100000Y-42100000D02*
X42950000Y-40250000D01*
X42950000Y-40250000D02*
X42950000Y-31187500D01*
%TO.N,/Client/SCL*%
X41100000Y-37700000D02*
X42000000Y-36800000D01*
X42000000Y-36800000D02*
X42000000Y-31187500D01*
%TO.N,/Host/MISO*%
X27100000Y-46500000D02*
X29900000Y-43700000D01*
X29900000Y-43700000D02*
X29900000Y-29063971D01*
X29900000Y-29063971D02*
X28836029Y-28000000D01*
X28836029Y-28000000D02*
X27912500Y-28000000D01*
X27912500Y-28000000D02*
X27000000Y-28912500D01*
%TO.N,/Host/GP2*%
X27100000Y-44300000D02*
X29500000Y-41900000D01*
X29500000Y-41900000D02*
X29500000Y-29512500D01*
X29500000Y-29512500D02*
X28900000Y-28912500D01*
%TO.N,/Host/GP1*%
X27100000Y-42100000D02*
X28900000Y-40300000D01*
X28900000Y-40300000D02*
X28900000Y-31187500D01*
%TO.N,/Host/RGB_DO*%
X27100000Y-39900000D02*
X28400000Y-38600000D01*
X28400000Y-38600000D02*
X28400000Y-31637500D01*
X28400000Y-31637500D02*
X27950000Y-31187500D01*
%TO.N,/Host/SDA*%
X27100000Y-37700000D02*
X28000000Y-36800000D01*
X28000000Y-36800000D02*
X28000000Y-32187500D01*
X28000000Y-32187500D02*
X27000000Y-31187500D01*
%TO.N,/Host/SCLK*%
X24900000Y-46500000D02*
X22100000Y-43700000D01*
X22100000Y-43700000D02*
X22100000Y-29013971D01*
X22100000Y-29013971D02*
X22851471Y-28262500D01*
X22851471Y-28262500D02*
X24400000Y-28262500D01*
X24400000Y-28262500D02*
X25000000Y-28862500D01*
%TO.N,/Host/CS*%
X24900000Y-44300000D02*
X22500000Y-41900000D01*
X22500000Y-41900000D02*
X22500000Y-29462500D01*
X22500000Y-29462500D02*
X23100000Y-28862500D01*
%TO.N,/Host/MOSI*%
X24900000Y-42100000D02*
X23100000Y-40300000D01*
X23100000Y-40300000D02*
X23100000Y-31137500D01*
%TO.N,/Host/SCL*%
X24900000Y-37700000D02*
X24000000Y-36800000D01*
X24000000Y-36800000D02*
X24000000Y-31187500D01*
X24000000Y-31187500D02*
X24050000Y-31137500D01*
%TO.N,/Client/GND*%
D15*
X40000000Y-59500000D02*
X40000000Y-22500000D01*
%TO.N,/Host/GND*%
X26000000Y-59500000D02*
X26000000Y-22500000D01*
%TD*%
%TA.AperFunction,Conductor*%
%TO.N,/Client/GND*%
G36*
X40071445Y-44736972D02*
G01*
X40110485Y-44782027D01*
X40158766Y-44876786D01*
X40189357Y-44918890D01*
X40260586Y-45016928D01*
X40383072Y-45139414D01*
X40523212Y-45241232D01*
X40583509Y-45271954D01*
X40617973Y-45289515D01*
X40668769Y-45337490D01*
X40685564Y-45405311D01*
X40663027Y-45471445D01*
X40617973Y-45510485D01*
X40523211Y-45558768D01*
X40443256Y-45616859D01*
X40383072Y-45660586D01*
X40383070Y-45660588D01*
X40383069Y-45660588D01*
X40260588Y-45783069D01*
X40260588Y-45783070D01*
X40260586Y-45783072D01*
X40216859Y-45843256D01*
X40158768Y-45923211D01*
X40110485Y-46017973D01*
X40062510Y-46068769D01*
X39994689Y-46085564D01*
X39928555Y-46063027D01*
X39889515Y-46017973D01*
X39841231Y-45923211D01*
X39739414Y-45783072D01*
X39616928Y-45660586D01*
X39546858Y-45609677D01*
X39476786Y-45558766D01*
X39382027Y-45510485D01*
X39331230Y-45462511D01*
X39314435Y-45394690D01*
X39336972Y-45328555D01*
X39382027Y-45289515D01*
X39476786Y-45241233D01*
X39476785Y-45241233D01*
X39476788Y-45241232D01*
X39616928Y-45139414D01*
X39739414Y-45016928D01*
X39841232Y-44876788D01*
X39889515Y-44782027D01*
X39937489Y-44731230D01*
X40005310Y-44714435D01*
X40071445Y-44736972D01*
G37*
%TD.AperFunction*%
%TA.AperFunction,Conductor*%
G36*
X40071445Y-42536972D02*
G01*
X40110485Y-42582027D01*
X40158766Y-42676786D01*
X40189357Y-42718890D01*
X40260586Y-42816928D01*
X40383072Y-42939414D01*
X40523212Y-43041232D01*
X40583509Y-43071954D01*
X40617973Y-43089515D01*
X40668769Y-43137490D01*
X40685564Y-43205311D01*
X40663027Y-43271445D01*
X40617973Y-43310485D01*
X40523211Y-43358768D01*
X40499136Y-43376260D01*
X40383072Y-43460586D01*
X40383070Y-43460588D01*
X40383069Y-43460588D01*
X40260588Y-43583069D01*
X40260588Y-43583070D01*
X40260586Y-43583072D01*
X40216859Y-43643256D01*
X40158768Y-43723211D01*
X40110485Y-43817973D01*
X40062510Y-43868769D01*
X39994689Y-43885564D01*
X39928555Y-43863027D01*
X39889515Y-43817973D01*
X39844209Y-43729055D01*
X39841232Y-43723212D01*
X39739414Y-43583072D01*
X39616928Y-43460586D01*
X39500864Y-43376260D01*
X39476786Y-43358766D01*
X39382027Y-43310485D01*
X39331230Y-43262511D01*
X39314435Y-43194690D01*
X39336972Y-43128555D01*
X39382027Y-43089515D01*
X39476786Y-43041233D01*
X39476785Y-43041233D01*
X39476788Y-43041232D01*
X39616928Y-42939414D01*
X39739414Y-42816928D01*
X39841232Y-42676788D01*
X39889515Y-42582027D01*
X39937489Y-42531230D01*
X40005310Y-42514435D01*
X40071445Y-42536972D01*
G37*
%TD.AperFunction*%
%TA.AperFunction,Conductor*%
G36*
X40071445Y-40336972D02*
G01*
X40110485Y-40382027D01*
X40158766Y-40476786D01*
X40189357Y-40518890D01*
X40260586Y-40616928D01*
X40383072Y-40739414D01*
X40523212Y-40841232D01*
X40583509Y-40871954D01*
X40617973Y-40889515D01*
X40668769Y-40937490D01*
X40685564Y-41005311D01*
X40663027Y-41071445D01*
X40617973Y-41110485D01*
X40523211Y-41158768D01*
X40443256Y-41216859D01*
X40383072Y-41260586D01*
X40383070Y-41260588D01*
X40383069Y-41260588D01*
X40260588Y-41383069D01*
X40260588Y-41383070D01*
X40260586Y-41383072D01*
X40216859Y-41443256D01*
X40158768Y-41523211D01*
X40110485Y-41617973D01*
X40062510Y-41668769D01*
X39994689Y-41685564D01*
X39928555Y-41663027D01*
X39889515Y-41617973D01*
X39868262Y-41576261D01*
X39841232Y-41523212D01*
X39739414Y-41383072D01*
X39616928Y-41260586D01*
X39546858Y-41209677D01*
X39476786Y-41158766D01*
X39382027Y-41110485D01*
X39331230Y-41062511D01*
X39314435Y-40994690D01*
X39336972Y-40928555D01*
X39382027Y-40889515D01*
X39476786Y-40841233D01*
X39476785Y-40841233D01*
X39476788Y-40841232D01*
X39616928Y-40739414D01*
X39739414Y-40616928D01*
X39841232Y-40476788D01*
X39889515Y-40382027D01*
X39937489Y-40331230D01*
X40005310Y-40314435D01*
X40071445Y-40336972D01*
G37*
%TD.AperFunction*%
%TA.AperFunction,Conductor*%
G36*
X40071445Y-38136972D02*
G01*
X40110485Y-38182027D01*
X40158766Y-38276786D01*
X40189357Y-38318890D01*
X40260586Y-38416928D01*
X40383072Y-38539414D01*
X40523212Y-38641232D01*
X40583509Y-38671954D01*
X40617973Y-38689515D01*
X40668769Y-38737490D01*
X40685564Y-38805311D01*
X40663027Y-38871445D01*
X40617973Y-38910485D01*
X40523211Y-38958768D01*
X40443256Y-39016859D01*
X40383072Y-39060586D01*
X40383070Y-39060588D01*
X40383069Y-39060588D01*
X40260588Y-39183069D01*
X40260588Y-39183070D01*
X40260586Y-39183072D01*
X40216859Y-39243256D01*
X40158768Y-39323211D01*
X40110485Y-39417973D01*
X40062510Y-39468769D01*
X39994689Y-39485564D01*
X39928555Y-39463027D01*
X39889515Y-39417973D01*
X39841231Y-39323211D01*
X39739414Y-39183072D01*
X39616928Y-39060586D01*
X39546858Y-39009677D01*
X39476786Y-38958766D01*
X39382027Y-38910485D01*
X39331230Y-38862511D01*
X39314435Y-38794690D01*
X39336972Y-38728555D01*
X39382027Y-38689515D01*
X39476786Y-38641233D01*
X39476785Y-38641233D01*
X39476788Y-38641232D01*
X39616928Y-38539414D01*
X39739414Y-38416928D01*
X39841232Y-38276788D01*
X39889515Y-38182027D01*
X39937489Y-38131230D01*
X40005310Y-38114435D01*
X40071445Y-38136972D01*
G37*
%TD.AperFunction*%
%TA.AperFunction,Conductor*%
G36*
X40700000Y-35552661D02*
G01*
X40727259Y-35654394D01*
X40779920Y-35745606D01*
X40854394Y-35820080D01*
X40945606Y-35872741D01*
X41047339Y-35900000D01*
X41053552Y-35900000D01*
X40517261Y-36436289D01*
X40517262Y-36436290D01*
X40523471Y-36440801D01*
X40618524Y-36489234D01*
X40669320Y-36537209D01*
X40686115Y-36605030D01*
X40663577Y-36671165D01*
X40618524Y-36710204D01*
X40523211Y-36758768D01*
X40443256Y-36816859D01*
X40383072Y-36860586D01*
X40383070Y-36860588D01*
X40383069Y-36860588D01*
X40260588Y-36983069D01*
X40260588Y-36983070D01*
X40260586Y-36983072D01*
X40216859Y-37043256D01*
X40158768Y-37123211D01*
X40110485Y-37217973D01*
X40062510Y-37268769D01*
X39994689Y-37285564D01*
X39928555Y-37263027D01*
X39889515Y-37217973D01*
X39841231Y-37123211D01*
X39739414Y-36983072D01*
X39616928Y-36860586D01*
X39546858Y-36809677D01*
X39476786Y-36758766D01*
X39382027Y-36710485D01*
X39331230Y-36662511D01*
X39314435Y-36594690D01*
X39336972Y-36528555D01*
X39382027Y-36489515D01*
X39476786Y-36441233D01*
X39476785Y-36441233D01*
X39476788Y-36441232D01*
X39616928Y-36339414D01*
X39739414Y-36216928D01*
X39841232Y-36076788D01*
X39889796Y-35981474D01*
X39937768Y-35930680D01*
X40005589Y-35913884D01*
X40071724Y-35936421D01*
X40110764Y-35981474D01*
X40159196Y-36076524D01*
X40163709Y-36082736D01*
X40163709Y-36082737D01*
X40700000Y-35546446D01*
X40700000Y-35552661D01*
G37*
%TD.AperFunction*%
%TA.AperFunction,Conductor*%
G36*
X44004418Y-20500816D02*
G01*
X44204561Y-20515130D01*
X44222063Y-20517647D01*
X44413795Y-20559355D01*
X44430760Y-20564336D01*
X44614611Y-20632909D01*
X44630694Y-20640253D01*
X44747495Y-20704032D01*
X44802908Y-20734290D01*
X44817791Y-20743855D01*
X44974864Y-20861438D01*
X44988235Y-20873024D01*
X45126975Y-21011764D01*
X45138561Y-21025135D01*
X45256144Y-21182208D01*
X45265709Y-21197091D01*
X45359743Y-21369300D01*
X45367093Y-21385394D01*
X45435661Y-21569234D01*
X45440645Y-21586209D01*
X45482351Y-21777931D01*
X45484869Y-21795442D01*
X45499184Y-21995580D01*
X45499500Y-22004427D01*
X45499500Y-59978821D01*
X45498761Y-59992337D01*
X45475097Y-60208145D01*
X45471685Y-60226445D01*
X45415951Y-60436394D01*
X45409838Y-60453976D01*
X45323304Y-60653215D01*
X45314627Y-60669684D01*
X45199242Y-60853725D01*
X45188198Y-60868711D01*
X45046564Y-61033402D01*
X45033402Y-61046564D01*
X44868711Y-61188198D01*
X44853725Y-61199242D01*
X44669684Y-61314627D01*
X44653215Y-61323304D01*
X44453976Y-61409838D01*
X44436394Y-61415951D01*
X44226445Y-61471685D01*
X44208145Y-61475097D01*
X43992339Y-61498761D01*
X43978823Y-61499500D01*
X36004428Y-61499500D01*
X35995582Y-61499184D01*
X35973622Y-61497613D01*
X35795442Y-61484869D01*
X35777931Y-61482351D01*
X35586209Y-61440645D01*
X35569234Y-61435661D01*
X35385394Y-61367093D01*
X35369300Y-61359743D01*
X35197091Y-61265709D01*
X35182208Y-61256144D01*
X35025135Y-61138561D01*
X35011764Y-61126975D01*
X34873024Y-60988235D01*
X34861438Y-60974864D01*
X34743855Y-60817791D01*
X34734290Y-60802908D01*
X34640256Y-60630699D01*
X34632909Y-60614611D01*
X34564336Y-60430760D01*
X34559354Y-60413790D01*
X34518600Y-60226445D01*
X34517647Y-60222063D01*
X34515130Y-60204556D01*
X34512358Y-60165802D01*
X34500816Y-60004418D01*
X34500500Y-59995572D01*
X34500500Y-59704893D01*
X34520185Y-59637854D01*
X34552261Y-59607272D01*
X34550863Y-59605450D01*
X34557307Y-59600503D01*
X34557314Y-59600500D01*
X34650500Y-59507314D01*
X34716392Y-59393186D01*
X34750500Y-59265892D01*
X34750500Y-59134108D01*
X34716392Y-59006814D01*
X34650500Y-58892686D01*
X34620495Y-58862681D01*
X34587010Y-58801358D01*
X34591994Y-58731666D01*
X34620495Y-58687319D01*
X34650500Y-58657314D01*
X34716392Y-58543186D01*
X34750500Y-58415892D01*
X34750500Y-58284108D01*
X34716392Y-58156814D01*
X34650500Y-58042686D01*
X34620495Y-58012681D01*
X34587010Y-57951358D01*
X34591994Y-57881666D01*
X34620495Y-57837319D01*
X34650500Y-57807314D01*
X34716392Y-57693186D01*
X34750500Y-57565892D01*
X34750500Y-57520435D01*
X34770185Y-57453396D01*
X34822989Y-57407641D01*
X34892147Y-57397697D01*
X34955703Y-57426722D01*
X34977603Y-57451546D01*
X34994723Y-57477169D01*
X34994727Y-57477174D01*
X35182984Y-57665430D01*
X35216469Y-57726753D01*
X35216920Y-57728920D01*
X35230261Y-57795989D01*
X35230264Y-57796001D01*
X35290602Y-57941672D01*
X35290609Y-57941685D01*
X35378210Y-58072788D01*
X35378213Y-58072792D01*
X35489707Y-58184286D01*
X35489711Y-58184289D01*
X35620814Y-58271890D01*
X35620827Y-58271897D01*
X35766498Y-58332235D01*
X35766503Y-58332237D01*
X35883368Y-58355483D01*
X35921153Y-58362999D01*
X35921156Y-58363000D01*
X35921158Y-58363000D01*
X36078844Y-58363000D01*
X36078845Y-58362999D01*
X36233497Y-58332237D01*
X36379179Y-58271894D01*
X36510289Y-58184289D01*
X36621789Y-58072789D01*
X36709394Y-57941679D01*
X36769737Y-57795997D01*
X36800500Y-57641342D01*
X36800500Y-57483658D01*
X36800500Y-57483655D01*
X36800499Y-57483653D01*
X43199500Y-57483653D01*
X43199500Y-57641346D01*
X43230261Y-57795989D01*
X43230264Y-57796001D01*
X43290602Y-57941672D01*
X43290609Y-57941685D01*
X43378210Y-58072788D01*
X43378213Y-58072792D01*
X43489707Y-58184286D01*
X43489711Y-58184289D01*
X43620814Y-58271890D01*
X43620827Y-58271897D01*
X43766498Y-58332235D01*
X43766503Y-58332237D01*
X43883368Y-58355483D01*
X43921153Y-58362999D01*
X43921156Y-58363000D01*
X43921158Y-58363000D01*
X44078844Y-58363000D01*
X44078845Y-58362999D01*
X44233497Y-58332237D01*
X44379179Y-58271894D01*
X44510289Y-58184289D01*
X44621789Y-58072789D01*
X44709394Y-57941679D01*
X44769737Y-57795997D01*
X44800500Y-57641342D01*
X44800500Y-57483658D01*
X44800500Y-57483655D01*
X44800499Y-57483653D01*
X44783401Y-57397697D01*
X44769737Y-57329003D01*
X44709394Y-57183321D01*
X44671396Y-57126453D01*
X44650520Y-57059776D01*
X44650500Y-57057564D01*
X44650500Y-53258308D01*
X44670185Y-53191269D01*
X44686817Y-53170628D01*
X44695277Y-53162169D01*
X44766466Y-53055626D01*
X44815501Y-52937243D01*
X44828195Y-52873431D01*
X44840500Y-52811569D01*
X44840500Y-51481149D01*
X44860185Y-51414110D01*
X44861366Y-51412304D01*
X44899394Y-51355393D01*
X44959737Y-51209711D01*
X44990500Y-51055056D01*
X44990500Y-50897372D01*
X44990500Y-50897369D01*
X44990499Y-50897367D01*
X44972017Y-50804451D01*
X44959737Y-50742717D01*
X44909249Y-50620827D01*
X44899397Y-50597041D01*
X44899390Y-50597028D01*
X44811789Y-50465925D01*
X44811786Y-50465921D01*
X44700292Y-50354427D01*
X44700288Y-50354424D01*
X44569185Y-50266823D01*
X44569172Y-50266816D01*
X44423501Y-50206478D01*
X44423489Y-50206475D01*
X44268845Y-50175714D01*
X44268842Y-50175714D01*
X44111158Y-50175714D01*
X44111155Y-50175714D01*
X43956510Y-50206475D01*
X43956498Y-50206478D01*
X43810827Y-50266816D01*
X43810814Y-50266823D01*
X43679711Y-50354424D01*
X43679707Y-50354427D01*
X43568213Y-50465921D01*
X43568210Y-50465925D01*
X43480609Y-50597028D01*
X43480602Y-50597041D01*
X43420264Y-50742712D01*
X43420261Y-50742724D01*
X43389500Y-50897367D01*
X43389500Y-51055060D01*
X43420261Y-51209703D01*
X43420264Y-51209715D01*
X43480602Y-51355386D01*
X43480606Y-51355393D01*
X43518602Y-51412258D01*
X43539480Y-51478935D01*
X43539500Y-51481149D01*
X43539500Y-52426691D01*
X43519815Y-52493730D01*
X43503181Y-52514372D01*
X43494727Y-52522825D01*
X43494726Y-52522826D01*
X43423534Y-52629374D01*
X43374499Y-52747755D01*
X43374497Y-52747761D01*
X43349500Y-52873428D01*
X43349500Y-57057564D01*
X43329815Y-57124603D01*
X43328603Y-57126454D01*
X43290608Y-57183317D01*
X43290602Y-57183328D01*
X43230264Y-57328998D01*
X43230261Y-57329010D01*
X43199500Y-57483653D01*
X36800499Y-57483653D01*
X36783401Y-57397697D01*
X36769737Y-57329003D01*
X36737943Y-57252244D01*
X36709397Y-57183327D01*
X36709390Y-57183314D01*
X36621789Y-57052211D01*
X36621786Y-57052207D01*
X36510292Y-56940713D01*
X36510288Y-56940710D01*
X36379185Y-56853109D01*
X36379172Y-56853102D01*
X36227870Y-56790432D01*
X36228879Y-56787994D01*
X36180008Y-56755916D01*
X36151598Y-56692083D01*
X36150500Y-56675621D01*
X36150500Y-51504935D01*
X36170185Y-51437896D01*
X36171366Y-51436090D01*
X36209394Y-51379179D01*
X36269737Y-51233497D01*
X36300500Y-51078842D01*
X36300500Y-50921158D01*
X36300500Y-50921155D01*
X36300499Y-50921153D01*
X36269738Y-50766510D01*
X36269737Y-50766503D01*
X36260938Y-50745261D01*
X36209397Y-50620827D01*
X36209390Y-50620814D01*
X36121789Y-50489711D01*
X36121786Y-50489707D01*
X36010292Y-50378213D01*
X36010288Y-50378210D01*
X35879185Y-50290609D01*
X35879172Y-50290602D01*
X35733501Y-50230264D01*
X35733489Y-50230261D01*
X35578845Y-50199500D01*
X35578842Y-50199500D01*
X35421158Y-50199500D01*
X35421155Y-50199500D01*
X35266510Y-50230261D01*
X35266498Y-50230264D01*
X35120827Y-50290602D01*
X35120814Y-50290609D01*
X34989711Y-50378210D01*
X34989707Y-50378213D01*
X34878213Y-50489707D01*
X34878210Y-50489711D01*
X34790609Y-50620814D01*
X34790602Y-50620827D01*
X34739061Y-50745261D01*
X34695220Y-50799665D01*
X34628926Y-50821730D01*
X34561227Y-50804451D01*
X34513616Y-50753314D01*
X34500500Y-50697809D01*
X34500500Y-43729054D01*
X35449498Y-43729054D01*
X35490423Y-43881785D01*
X35519000Y-43931280D01*
X35519001Y-43931284D01*
X35519002Y-43931284D01*
X35569479Y-44018714D01*
X35569481Y-44018717D01*
X35688349Y-44137585D01*
X35688355Y-44137590D01*
X37777336Y-46226572D01*
X37810821Y-46287895D01*
X37812128Y-46333650D01*
X37799500Y-46413383D01*
X37799500Y-46413389D01*
X37799500Y-46586611D01*
X37826598Y-46757701D01*
X37880127Y-46922445D01*
X37958768Y-47076788D01*
X38060586Y-47216928D01*
X38183072Y-47339414D01*
X38323212Y-47441232D01*
X38477555Y-47519873D01*
X38642299Y-47573402D01*
X38813389Y-47600500D01*
X38813390Y-47600500D01*
X38986610Y-47600500D01*
X38986611Y-47600500D01*
X39157701Y-47573402D01*
X39322445Y-47519873D01*
X39476788Y-47441232D01*
X39616928Y-47339414D01*
X39739414Y-47216928D01*
X39841232Y-47076788D01*
X39889515Y-46982027D01*
X39937489Y-46931230D01*
X40005310Y-46914435D01*
X40071445Y-46936972D01*
X40110485Y-46982027D01*
X40158766Y-47076786D01*
X40189357Y-47118890D01*
X40260586Y-47216928D01*
X40383072Y-47339414D01*
X40523212Y-47441232D01*
X40677555Y-47519873D01*
X40842299Y-47573402D01*
X41013389Y-47600500D01*
X41013390Y-47600500D01*
X41186610Y-47600500D01*
X41186611Y-47600500D01*
X41357701Y-47573402D01*
X41522445Y-47519873D01*
X41676788Y-47441232D01*
X41816928Y-47339414D01*
X41939414Y-47216928D01*
X42041232Y-47076788D01*
X42119873Y-46922445D01*
X42173402Y-46757701D01*
X42200500Y-46586611D01*
X42200500Y-46413389D01*
X42187870Y-46333649D01*
X42196824Y-46264358D01*
X42222659Y-46226575D01*
X44430520Y-44018716D01*
X44509577Y-43881784D01*
X44550501Y-43729057D01*
X44550501Y-43570942D01*
X44550501Y-43563339D01*
X44550500Y-43563329D01*
X44550500Y-28984916D01*
X44550499Y-28984912D01*
X44517834Y-28862998D01*
X44517834Y-28862997D01*
X44509579Y-28832190D01*
X44509577Y-28832187D01*
X44509577Y-28832186D01*
X44480639Y-28782066D01*
X44430520Y-28695255D01*
X44318716Y-28583451D01*
X44318715Y-28583450D01*
X44314385Y-28579120D01*
X44314374Y-28579110D01*
X43373619Y-27638355D01*
X43373617Y-27638352D01*
X43254746Y-27519481D01*
X43254745Y-27519480D01*
X43167933Y-27469360D01*
X43167933Y-27469359D01*
X43167929Y-27469358D01*
X43117814Y-27440423D01*
X42965086Y-27399499D01*
X42806972Y-27399499D01*
X42799376Y-27399499D01*
X42799360Y-27399500D01*
X42049169Y-27399500D01*
X42049153Y-27399499D01*
X42041557Y-27399499D01*
X41883443Y-27399499D01*
X41776087Y-27428265D01*
X41730710Y-27440424D01*
X41730709Y-27440425D01*
X41680596Y-27469359D01*
X41680595Y-27469360D01*
X41637189Y-27494420D01*
X41593785Y-27519479D01*
X41593782Y-27519481D01*
X41035339Y-28077925D01*
X40974016Y-28111410D01*
X40971850Y-28111861D01*
X40816508Y-28142761D01*
X40816498Y-28142764D01*
X40670827Y-28203102D01*
X40670814Y-28203109D01*
X40539711Y-28290710D01*
X40539707Y-28290713D01*
X40428213Y-28402207D01*
X40428210Y-28402211D01*
X40340609Y-28533314D01*
X40340602Y-28533327D01*
X40280264Y-28678998D01*
X40280261Y-28679010D01*
X40249500Y-28833653D01*
X40249500Y-28991346D01*
X40280261Y-29145989D01*
X40280264Y-29146001D01*
X40340602Y-29291672D01*
X40340609Y-29291685D01*
X40428210Y-29422788D01*
X40428213Y-29422792D01*
X40539707Y-29534286D01*
X40539711Y-29534289D01*
X40670814Y-29621890D01*
X40670827Y-29621897D01*
X40770060Y-29663000D01*
X40816503Y-29682237D01*
X40962285Y-29711235D01*
X40971153Y-29712999D01*
X40971156Y-29713000D01*
X40971158Y-29713000D01*
X41128844Y-29713000D01*
X41128845Y-29712999D01*
X41283497Y-29682237D01*
X41429179Y-29621894D01*
X41560289Y-29534289D01*
X41671789Y-29422789D01*
X41759394Y-29291679D01*
X41819737Y-29145997D01*
X41839113Y-29048585D01*
X41850638Y-28990650D01*
X41859402Y-28973894D01*
X41863423Y-28955413D01*
X41882166Y-28930375D01*
X41883023Y-28928739D01*
X41884519Y-28927215D01*
X41937820Y-28873915D01*
X41999143Y-28840431D01*
X42068835Y-28845416D01*
X42124768Y-28887288D01*
X42149184Y-28952752D01*
X42149500Y-28961597D01*
X42149500Y-28991346D01*
X42180261Y-29145989D01*
X42180264Y-29146001D01*
X42240602Y-29291672D01*
X42240609Y-29291685D01*
X42328210Y-29422788D01*
X42328213Y-29422792D01*
X42439707Y-29534286D01*
X42439711Y-29534289D01*
X42570814Y-29621890D01*
X42570827Y-29621897D01*
X42670060Y-29663000D01*
X42716503Y-29682237D01*
X42826987Y-29704213D01*
X42849691Y-29708730D01*
X42911602Y-29741115D01*
X42946176Y-29801830D01*
X42949500Y-29830347D01*
X42949500Y-30269652D01*
X42929815Y-30336691D01*
X42877011Y-30382446D01*
X42849692Y-30391269D01*
X42716508Y-30417761D01*
X42716498Y-30417764D01*
X42570828Y-30478102D01*
X42570814Y-30478110D01*
X42543888Y-30496101D01*
X42477210Y-30516977D01*
X42409831Y-30498491D01*
X42406112Y-30496101D01*
X42379185Y-30478110D01*
X42379184Y-30478109D01*
X42379179Y-30478106D01*
X42379175Y-30478104D01*
X42379171Y-30478102D01*
X42233501Y-30417764D01*
X42233489Y-30417761D01*
X42078845Y-30387000D01*
X42078842Y-30387000D01*
X41921158Y-30387000D01*
X41921155Y-30387000D01*
X41766510Y-30417761D01*
X41766498Y-30417764D01*
X41620827Y-30478102D01*
X41620814Y-30478109D01*
X41489711Y-30565710D01*
X41489707Y-30565713D01*
X41378213Y-30677207D01*
X41378210Y-30677211D01*
X41290609Y-30808314D01*
X41290602Y-30808327D01*
X41230264Y-30953998D01*
X41230261Y-30954010D01*
X41199500Y-31108653D01*
X41199500Y-31266346D01*
X41230261Y-31420989D01*
X41230264Y-31421001D01*
X41290602Y-31566672D01*
X41290609Y-31566685D01*
X41378602Y-31698374D01*
X41399480Y-31765051D01*
X41399500Y-31767265D01*
X41399500Y-34288539D01*
X41379815Y-34355578D01*
X41327011Y-34401333D01*
X41257853Y-34411277D01*
X41256103Y-34411013D01*
X41186566Y-34400000D01*
X41013429Y-34400000D01*
X40842415Y-34427085D01*
X40677740Y-34480592D01*
X40523480Y-34559193D01*
X40523463Y-34559203D01*
X40517261Y-34563708D01*
X40517261Y-34563709D01*
X41053553Y-35100000D01*
X41047339Y-35100000D01*
X40945606Y-35127259D01*
X40854394Y-35179920D01*
X40779920Y-35254394D01*
X40727259Y-35345606D01*
X40700000Y-35447339D01*
X40700000Y-35453552D01*
X40163709Y-34917261D01*
X40163708Y-34917261D01*
X40159203Y-34923463D01*
X40159192Y-34923481D01*
X40110764Y-35018525D01*
X40062789Y-35069321D01*
X39994968Y-35086115D01*
X39928833Y-35063577D01*
X39889795Y-35018523D01*
X39841233Y-34923213D01*
X39825937Y-34902160D01*
X39739414Y-34783072D01*
X39616928Y-34660586D01*
X39476788Y-34558768D01*
X39322445Y-34480127D01*
X39157701Y-34426598D01*
X39157699Y-34426597D01*
X39157698Y-34426597D01*
X39026271Y-34405781D01*
X38986611Y-34399500D01*
X38813389Y-34399500D01*
X38743897Y-34410506D01*
X38674604Y-34401551D01*
X38621152Y-34356555D01*
X38600513Y-34289803D01*
X38600500Y-34288033D01*
X38600500Y-32387597D01*
X38620185Y-32320558D01*
X38636819Y-32299916D01*
X38964662Y-31972072D01*
X39025983Y-31938589D01*
X39028150Y-31938138D01*
X39086085Y-31926613D01*
X39183497Y-31907237D01*
X39329179Y-31846894D01*
X39460289Y-31759289D01*
X39571789Y-31647789D01*
X39659394Y-31516679D01*
X39719737Y-31370997D01*
X39750500Y-31216342D01*
X39750500Y-31058658D01*
X39750500Y-31058655D01*
X39750499Y-31058653D01*
X39729684Y-30954010D01*
X39719737Y-30904003D01*
X39680102Y-30808314D01*
X39659397Y-30758327D01*
X39659390Y-30758314D01*
X39571789Y-30627211D01*
X39571786Y-30627207D01*
X39460292Y-30515713D01*
X39460288Y-30515710D01*
X39329185Y-30428109D01*
X39329172Y-30428102D01*
X39183501Y-30367764D01*
X39183489Y-30367761D01*
X39028845Y-30337000D01*
X39028842Y-30337000D01*
X38871158Y-30337000D01*
X38871155Y-30337000D01*
X38716510Y-30367761D01*
X38716498Y-30367764D01*
X38570828Y-30428102D01*
X38570814Y-30428110D01*
X38543888Y-30446101D01*
X38477210Y-30466977D01*
X38409831Y-30448491D01*
X38406112Y-30446101D01*
X38379185Y-30428110D01*
X38379184Y-30428109D01*
X38379179Y-30428106D01*
X38379175Y-30428104D01*
X38379171Y-30428102D01*
X38233501Y-30367764D01*
X38233489Y-30367761D01*
X38078845Y-30337000D01*
X38078842Y-30337000D01*
X37921158Y-30337000D01*
X37921155Y-30337000D01*
X37766510Y-30367761D01*
X37766498Y-30367764D01*
X37620828Y-30428102D01*
X37620814Y-30428110D01*
X37593888Y-30446101D01*
X37527210Y-30466977D01*
X37459831Y-30448491D01*
X37456112Y-30446101D01*
X37429185Y-30428110D01*
X37429184Y-30428109D01*
X37429179Y-30428106D01*
X37429175Y-30428104D01*
X37429171Y-30428102D01*
X37283501Y-30367764D01*
X37283491Y-30367761D01*
X37150308Y-30341269D01*
X37088397Y-30308884D01*
X37053823Y-30248168D01*
X37050500Y-30219652D01*
X37050500Y-29780347D01*
X37070185Y-29713308D01*
X37122989Y-29667553D01*
X37150309Y-29658730D01*
X37166291Y-29655550D01*
X37283497Y-29632237D01*
X37429179Y-29571894D01*
X37560289Y-29484289D01*
X37671789Y-29372789D01*
X37759394Y-29241679D01*
X37819737Y-29095997D01*
X37840554Y-28991346D01*
X37846231Y-28962808D01*
X37860945Y-28934677D01*
X37874135Y-28905797D01*
X37877024Y-28903940D01*
X37878616Y-28900897D01*
X37906208Y-28885184D01*
X37932913Y-28868023D01*
X37937506Y-28867362D01*
X37939332Y-28866323D01*
X37967848Y-28863000D01*
X38032152Y-28863000D01*
X38099191Y-28882685D01*
X38144946Y-28935489D01*
X38153769Y-28962808D01*
X38180261Y-29095991D01*
X38180264Y-29096001D01*
X38240602Y-29241672D01*
X38240609Y-29241685D01*
X38328210Y-29372788D01*
X38328213Y-29372792D01*
X38439707Y-29484286D01*
X38439711Y-29484289D01*
X38570814Y-29571890D01*
X38570827Y-29571897D01*
X38716498Y-29632235D01*
X38716503Y-29632237D01*
X38871153Y-29662999D01*
X38871156Y-29663000D01*
X38871158Y-29663000D01*
X39028844Y-29663000D01*
X39028845Y-29662999D01*
X39183497Y-29632237D01*
X39329179Y-29571894D01*
X39460289Y-29484289D01*
X39571789Y-29372789D01*
X39659394Y-29241679D01*
X39719737Y-29095997D01*
X39750500Y-28941342D01*
X39750500Y-28783658D01*
X39750500Y-28783655D01*
X39750499Y-28783653D01*
X39750183Y-28782063D01*
X39719737Y-28629003D01*
X39699071Y-28579110D01*
X39659397Y-28483327D01*
X39659390Y-28483314D01*
X39571789Y-28352211D01*
X39571786Y-28352207D01*
X39460292Y-28240713D01*
X39460288Y-28240710D01*
X39329185Y-28153109D01*
X39329172Y-28153102D01*
X39183501Y-28092764D01*
X39183491Y-28092761D01*
X39028149Y-28061861D01*
X39011392Y-28053095D01*
X38992914Y-28049076D01*
X38967877Y-28030333D01*
X38966238Y-28029476D01*
X38964660Y-28027925D01*
X38837590Y-27900855D01*
X38837588Y-27900852D01*
X38718717Y-27781981D01*
X38718716Y-27781980D01*
X38631904Y-27731860D01*
X38631904Y-27731859D01*
X38631900Y-27731858D01*
X38581785Y-27702923D01*
X38429057Y-27661999D01*
X38270943Y-27661999D01*
X38263347Y-27661999D01*
X38263331Y-27662000D01*
X36722411Y-27662000D01*
X36681490Y-27672964D01*
X36681490Y-27672965D01*
X36644222Y-27682951D01*
X36569685Y-27702923D01*
X36569680Y-27702926D01*
X36432761Y-27781975D01*
X36432753Y-27781981D01*
X35569479Y-28645255D01*
X35549999Y-28678998D01*
X35540613Y-28695255D01*
X35490423Y-28782186D01*
X35449499Y-28934914D01*
X35449499Y-29093028D01*
X35449499Y-29093030D01*
X35449500Y-29103024D01*
X35449500Y-43563330D01*
X35449499Y-43563348D01*
X35449499Y-43729054D01*
X35449498Y-43729054D01*
X34500500Y-43729054D01*
X34500500Y-26704893D01*
X34520185Y-26637854D01*
X34552261Y-26607272D01*
X34550863Y-26605450D01*
X34557307Y-26600503D01*
X34557314Y-26600500D01*
X34650500Y-26507314D01*
X34716392Y-26393186D01*
X34750500Y-26265892D01*
X34750500Y-26134108D01*
X34716392Y-26006814D01*
X34650500Y-25892686D01*
X34620495Y-25862681D01*
X34587010Y-25801358D01*
X34591994Y-25731666D01*
X34620495Y-25687319D01*
X34650500Y-25657314D01*
X34716392Y-25543186D01*
X34750500Y-25415892D01*
X34750500Y-25284108D01*
X34716392Y-25156814D01*
X34650500Y-25042686D01*
X34620495Y-25012681D01*
X34587010Y-24951358D01*
X34591994Y-24881666D01*
X34620495Y-24837319D01*
X34650500Y-24807314D01*
X34716392Y-24693186D01*
X34750500Y-24565892D01*
X34750500Y-24434108D01*
X34716392Y-24306814D01*
X34650500Y-24192686D01*
X34620495Y-24162681D01*
X34587010Y-24101358D01*
X34591994Y-24031666D01*
X34620495Y-23987319D01*
X34650500Y-23957314D01*
X34716392Y-23843186D01*
X34750500Y-23715892D01*
X34750500Y-23584108D01*
X34716392Y-23456814D01*
X34650500Y-23342686D01*
X34620495Y-23312681D01*
X34587010Y-23251358D01*
X34591994Y-23181666D01*
X34620495Y-23137319D01*
X34650500Y-23107314D01*
X34716392Y-22993186D01*
X34750500Y-22865892D01*
X34750500Y-22734108D01*
X34716392Y-22606814D01*
X34650500Y-22492686D01*
X34557314Y-22399500D01*
X34557311Y-22399498D01*
X34550865Y-22394552D01*
X34552675Y-22392192D01*
X34514280Y-22351920D01*
X34500500Y-22295107D01*
X34500500Y-22004427D01*
X34500816Y-21995581D01*
X34515130Y-21795443D01*
X34515131Y-21795434D01*
X34517646Y-21777938D01*
X34559356Y-21586200D01*
X34564335Y-21569242D01*
X34632911Y-21385382D01*
X34640251Y-21369310D01*
X34734294Y-21197083D01*
X34743850Y-21182214D01*
X34861443Y-21025128D01*
X34873017Y-21011771D01*
X35011771Y-20873017D01*
X35025128Y-20861443D01*
X35182214Y-20743850D01*
X35197083Y-20734294D01*
X35369310Y-20640251D01*
X35385382Y-20632911D01*
X35569242Y-20564335D01*
X35586200Y-20559356D01*
X35777938Y-20517646D01*
X35795436Y-20515130D01*
X35995582Y-20500816D01*
X36004428Y-20500500D01*
X36065892Y-20500500D01*
X43934108Y-20500500D01*
X43995572Y-20500500D01*
X44004418Y-20500816D01*
G37*
%TD.AperFunction*%
%TD*%
%TA.AperFunction,Conductor*%
%TO.N,/Host/GND*%
G36*
X26071445Y-44736972D02*
G01*
X26110485Y-44782027D01*
X26158766Y-44876786D01*
X26189357Y-44918890D01*
X26260586Y-45016928D01*
X26383072Y-45139414D01*
X26523212Y-45241232D01*
X26583509Y-45271954D01*
X26617973Y-45289515D01*
X26668769Y-45337490D01*
X26685564Y-45405311D01*
X26663027Y-45471445D01*
X26617973Y-45510485D01*
X26523211Y-45558768D01*
X26443256Y-45616859D01*
X26383072Y-45660586D01*
X26383070Y-45660588D01*
X26383069Y-45660588D01*
X26260588Y-45783069D01*
X26260588Y-45783070D01*
X26260586Y-45783072D01*
X26216859Y-45843256D01*
X26158768Y-45923211D01*
X26110485Y-46017973D01*
X26062510Y-46068769D01*
X25994689Y-46085564D01*
X25928555Y-46063027D01*
X25889515Y-46017973D01*
X25841231Y-45923211D01*
X25739414Y-45783072D01*
X25616928Y-45660586D01*
X25546858Y-45609677D01*
X25476786Y-45558766D01*
X25382027Y-45510485D01*
X25331230Y-45462511D01*
X25314435Y-45394690D01*
X25336972Y-45328555D01*
X25382027Y-45289515D01*
X25476786Y-45241233D01*
X25476785Y-45241233D01*
X25476788Y-45241232D01*
X25616928Y-45139414D01*
X25739414Y-45016928D01*
X25841232Y-44876788D01*
X25889515Y-44782027D01*
X25937489Y-44731230D01*
X26005310Y-44714435D01*
X26071445Y-44736972D01*
G37*
%TD.AperFunction*%
%TA.AperFunction,Conductor*%
G36*
X26071445Y-42536972D02*
G01*
X26110485Y-42582027D01*
X26158766Y-42676786D01*
X26189357Y-42718890D01*
X26260586Y-42816928D01*
X26383072Y-42939414D01*
X26523212Y-43041232D01*
X26583509Y-43071954D01*
X26617973Y-43089515D01*
X26668769Y-43137490D01*
X26685564Y-43205311D01*
X26663027Y-43271445D01*
X26617973Y-43310485D01*
X26523211Y-43358768D01*
X26443256Y-43416859D01*
X26383072Y-43460586D01*
X26383070Y-43460588D01*
X26383069Y-43460588D01*
X26260588Y-43583069D01*
X26260588Y-43583070D01*
X26260586Y-43583072D01*
X26238602Y-43613330D01*
X26158768Y-43723211D01*
X26110485Y-43817973D01*
X26062510Y-43868769D01*
X25994689Y-43885564D01*
X25928555Y-43863027D01*
X25889515Y-43817973D01*
X25841231Y-43723211D01*
X25739414Y-43583072D01*
X25616928Y-43460586D01*
X25533404Y-43399902D01*
X25476786Y-43358766D01*
X25382027Y-43310485D01*
X25331230Y-43262511D01*
X25314435Y-43194690D01*
X25336972Y-43128555D01*
X25382027Y-43089515D01*
X25476786Y-43041233D01*
X25476785Y-43041233D01*
X25476788Y-43041232D01*
X25616928Y-42939414D01*
X25739414Y-42816928D01*
X25841232Y-42676788D01*
X25889515Y-42582027D01*
X25937489Y-42531230D01*
X26005310Y-42514435D01*
X26071445Y-42536972D01*
G37*
%TD.AperFunction*%
%TA.AperFunction,Conductor*%
G36*
X26071445Y-40336972D02*
G01*
X26110485Y-40382027D01*
X26158766Y-40476786D01*
X26189357Y-40518890D01*
X26260586Y-40616928D01*
X26383072Y-40739414D01*
X26523212Y-40841232D01*
X26583509Y-40871954D01*
X26617973Y-40889515D01*
X26668769Y-40937490D01*
X26685564Y-41005311D01*
X26663027Y-41071445D01*
X26617973Y-41110485D01*
X26523211Y-41158768D01*
X26443256Y-41216859D01*
X26383072Y-41260586D01*
X26383070Y-41260588D01*
X26383069Y-41260588D01*
X26260588Y-41383069D01*
X26260588Y-41383070D01*
X26260586Y-41383072D01*
X26219044Y-41440250D01*
X26158768Y-41523211D01*
X26110485Y-41617973D01*
X26062510Y-41668769D01*
X25994689Y-41685564D01*
X25928555Y-41663027D01*
X25889515Y-41617973D01*
X25841231Y-41523211D01*
X25739414Y-41383072D01*
X25616928Y-41260586D01*
X25546858Y-41209677D01*
X25476786Y-41158766D01*
X25382027Y-41110485D01*
X25331230Y-41062511D01*
X25314435Y-40994690D01*
X25336972Y-40928555D01*
X25382027Y-40889515D01*
X25476786Y-40841233D01*
X25476785Y-40841233D01*
X25476788Y-40841232D01*
X25616928Y-40739414D01*
X25739414Y-40616928D01*
X25841232Y-40476788D01*
X25889515Y-40382027D01*
X25937489Y-40331230D01*
X26005310Y-40314435D01*
X26071445Y-40336972D01*
G37*
%TD.AperFunction*%
%TA.AperFunction,Conductor*%
G36*
X26017227Y-38118496D02*
G01*
X26029808Y-38117957D01*
X26049673Y-38129552D01*
X26071445Y-38136972D01*
X26080719Y-38147674D01*
X26090150Y-38153180D01*
X26110485Y-38182027D01*
X26158766Y-38276786D01*
X26165755Y-38286405D01*
X26260586Y-38416928D01*
X26383072Y-38539414D01*
X26523212Y-38641232D01*
X26583509Y-38671954D01*
X26617973Y-38689515D01*
X26668769Y-38737490D01*
X26685564Y-38805311D01*
X26663027Y-38871445D01*
X26617973Y-38910485D01*
X26523211Y-38958768D01*
X26443256Y-39016859D01*
X26383072Y-39060586D01*
X26383070Y-39060588D01*
X26383069Y-39060588D01*
X26260588Y-39183069D01*
X26260588Y-39183070D01*
X26260586Y-39183072D01*
X26216859Y-39243256D01*
X26158768Y-39323211D01*
X26110485Y-39417973D01*
X26062510Y-39468769D01*
X25994689Y-39485564D01*
X25928555Y-39463027D01*
X25889515Y-39417973D01*
X25841231Y-39323211D01*
X25834244Y-39313594D01*
X25739414Y-39183072D01*
X25616928Y-39060586D01*
X25546858Y-39009677D01*
X25476786Y-38958766D01*
X25382027Y-38910485D01*
X25331230Y-38862511D01*
X25314435Y-38794690D01*
X25336972Y-38728555D01*
X25382027Y-38689515D01*
X25476786Y-38641233D01*
X25476785Y-38641233D01*
X25476788Y-38641232D01*
X25616928Y-38539414D01*
X25739414Y-38416928D01*
X25841232Y-38276788D01*
X25889515Y-38182027D01*
X25898160Y-38172872D01*
X25902896Y-38161206D01*
X25921694Y-38147954D01*
X25937489Y-38131230D01*
X25949711Y-38128203D01*
X25960002Y-38120949D01*
X25982982Y-38119963D01*
X26005310Y-38114435D01*
X26017227Y-38118496D01*
G37*
%TD.AperFunction*%
%TA.AperFunction,Conductor*%
G36*
X25836289Y-36082737D02*
G01*
X25836289Y-36082736D01*
X25840803Y-36076525D01*
X25889234Y-35981475D01*
X25937208Y-35930679D01*
X26005029Y-35913884D01*
X26071164Y-35936421D01*
X26110204Y-35981475D01*
X26158768Y-36076788D01*
X26260586Y-36216928D01*
X26383072Y-36339414D01*
X26523212Y-36441232D01*
X26583509Y-36471954D01*
X26617973Y-36489515D01*
X26668769Y-36537490D01*
X26685564Y-36605311D01*
X26663027Y-36671445D01*
X26617973Y-36710485D01*
X26523211Y-36758768D01*
X26443256Y-36816859D01*
X26383072Y-36860586D01*
X26383070Y-36860588D01*
X26383069Y-36860588D01*
X26260588Y-36983069D01*
X26260588Y-36983070D01*
X26260586Y-36983072D01*
X26216859Y-37043256D01*
X26158768Y-37123211D01*
X26110485Y-37217973D01*
X26062510Y-37268769D01*
X25994689Y-37285564D01*
X25928555Y-37263027D01*
X25889515Y-37217973D01*
X25841231Y-37123211D01*
X25739414Y-36983072D01*
X25616928Y-36860586D01*
X25476788Y-36758768D01*
X25381475Y-36710204D01*
X25330679Y-36662230D01*
X25313884Y-36594409D01*
X25336421Y-36528274D01*
X25381475Y-36489234D01*
X25476525Y-36440803D01*
X25482736Y-36436289D01*
X24946447Y-35900000D01*
X24952661Y-35900000D01*
X25054394Y-35872741D01*
X25145606Y-35820080D01*
X25220080Y-35745606D01*
X25272741Y-35654394D01*
X25300000Y-35552661D01*
X25300000Y-35546448D01*
X25836289Y-36082737D01*
G37*
%TD.AperFunction*%
%TA.AperFunction,Conductor*%
G36*
X30004418Y-20500816D02*
G01*
X30204561Y-20515130D01*
X30222063Y-20517647D01*
X30413795Y-20559355D01*
X30430760Y-20564336D01*
X30614611Y-20632909D01*
X30630694Y-20640253D01*
X30747495Y-20704032D01*
X30802908Y-20734290D01*
X30817791Y-20743855D01*
X30974864Y-20861438D01*
X30988235Y-20873024D01*
X31126975Y-21011764D01*
X31138561Y-21025135D01*
X31256144Y-21182208D01*
X31265709Y-21197091D01*
X31359743Y-21369300D01*
X31367093Y-21385394D01*
X31435661Y-21569234D01*
X31440645Y-21586209D01*
X31482351Y-21777931D01*
X31484869Y-21795442D01*
X31499184Y-21995580D01*
X31499500Y-22004427D01*
X31499500Y-22295107D01*
X31479815Y-22362146D01*
X31447739Y-22392732D01*
X31449135Y-22394552D01*
X31442683Y-22399502D01*
X31349502Y-22492683D01*
X31349500Y-22492686D01*
X31283608Y-22606812D01*
X31249500Y-22734108D01*
X31249500Y-22865891D01*
X31283608Y-22993187D01*
X31287253Y-22999500D01*
X31349500Y-23107314D01*
X31349502Y-23107316D01*
X31379505Y-23137319D01*
X31412990Y-23198642D01*
X31408006Y-23268334D01*
X31379505Y-23312681D01*
X31349502Y-23342683D01*
X31349500Y-23342686D01*
X31283608Y-23456812D01*
X31249500Y-23584108D01*
X31249500Y-23715891D01*
X31283608Y-23843187D01*
X31310964Y-23890568D01*
X31349500Y-23957314D01*
X31349502Y-23957316D01*
X31379505Y-23987319D01*
X31412990Y-24048642D01*
X31408006Y-24118334D01*
X31379505Y-24162681D01*
X31349502Y-24192683D01*
X31349500Y-24192686D01*
X31283608Y-24306812D01*
X31249500Y-24434108D01*
X31249500Y-24565891D01*
X31283608Y-24693187D01*
X31316554Y-24750250D01*
X31349500Y-24807314D01*
X31349502Y-24807316D01*
X31379505Y-24837319D01*
X31412990Y-24898642D01*
X31408006Y-24968334D01*
X31379505Y-25012681D01*
X31349502Y-25042683D01*
X31349500Y-25042686D01*
X31283608Y-25156812D01*
X31249500Y-25284108D01*
X31249500Y-25415891D01*
X31283608Y-25543187D01*
X31316554Y-25600250D01*
X31349500Y-25657314D01*
X31349502Y-25657316D01*
X31379505Y-25687319D01*
X31412990Y-25748642D01*
X31408006Y-25818334D01*
X31379505Y-25862681D01*
X31349502Y-25892683D01*
X31349500Y-25892686D01*
X31283608Y-26006812D01*
X31249500Y-26134108D01*
X31249500Y-26265891D01*
X31283608Y-26393187D01*
X31316554Y-26450250D01*
X31349500Y-26507314D01*
X31442686Y-26600500D01*
X31442688Y-26600501D01*
X31449137Y-26605450D01*
X31447324Y-26607812D01*
X31485710Y-26648062D01*
X31499500Y-26704893D01*
X31499500Y-50697809D01*
X31479815Y-50764848D01*
X31427011Y-50810603D01*
X31357853Y-50820547D01*
X31294297Y-50791522D01*
X31260939Y-50745261D01*
X31209397Y-50620827D01*
X31209390Y-50620814D01*
X31121789Y-50489711D01*
X31121786Y-50489707D01*
X31010292Y-50378213D01*
X31010288Y-50378210D01*
X30879185Y-50290609D01*
X30879172Y-50290602D01*
X30733501Y-50230264D01*
X30733489Y-50230261D01*
X30578845Y-50199500D01*
X30578842Y-50199500D01*
X30421158Y-50199500D01*
X30421155Y-50199500D01*
X30266510Y-50230261D01*
X30266498Y-50230264D01*
X30120827Y-50290602D01*
X30120814Y-50290609D01*
X29989711Y-50378210D01*
X29989707Y-50378213D01*
X29878213Y-50489707D01*
X29878210Y-50489711D01*
X29790609Y-50620814D01*
X29790602Y-50620827D01*
X29730264Y-50766498D01*
X29730261Y-50766510D01*
X29699500Y-50921153D01*
X29699500Y-51078846D01*
X29730261Y-51233489D01*
X29730264Y-51233501D01*
X29790602Y-51379172D01*
X29790606Y-51379179D01*
X29828602Y-51436044D01*
X29849480Y-51502721D01*
X29849500Y-51504935D01*
X29849500Y-56738121D01*
X29829815Y-56805160D01*
X29777011Y-56850915D01*
X29772069Y-56852785D01*
X29772130Y-56852932D01*
X29620827Y-56915602D01*
X29620814Y-56915609D01*
X29489711Y-57003210D01*
X29489707Y-57003213D01*
X29378213Y-57114707D01*
X29378210Y-57114711D01*
X29290609Y-57245814D01*
X29290602Y-57245827D01*
X29230264Y-57391498D01*
X29230261Y-57391510D01*
X29199500Y-57546153D01*
X29199500Y-57703846D01*
X29230261Y-57858489D01*
X29230264Y-57858501D01*
X29290602Y-58004172D01*
X29290609Y-58004185D01*
X29378210Y-58135288D01*
X29378213Y-58135292D01*
X29489707Y-58246786D01*
X29489711Y-58246789D01*
X29620814Y-58334390D01*
X29620827Y-58334397D01*
X29766498Y-58394735D01*
X29766503Y-58394737D01*
X29872851Y-58415891D01*
X29921153Y-58425499D01*
X29921156Y-58425500D01*
X29921158Y-58425500D01*
X30078844Y-58425500D01*
X30078845Y-58425499D01*
X30233497Y-58394737D01*
X30379179Y-58334394D01*
X30510289Y-58246789D01*
X30621789Y-58135289D01*
X30709394Y-58004179D01*
X30769737Y-57858497D01*
X30783079Y-57791416D01*
X30815463Y-57729509D01*
X30816901Y-57728043D01*
X31005277Y-57539669D01*
X31023379Y-57512576D01*
X31076986Y-57467773D01*
X31146311Y-57459063D01*
X31209339Y-57489215D01*
X31246061Y-57548657D01*
X31249418Y-57565270D01*
X31249499Y-57565888D01*
X31283608Y-57693187D01*
X31303666Y-57727928D01*
X31349500Y-57807314D01*
X31349502Y-57807316D01*
X31379505Y-57837319D01*
X31412990Y-57898642D01*
X31408006Y-57968334D01*
X31379505Y-58012681D01*
X31349502Y-58042683D01*
X31349500Y-58042686D01*
X31283608Y-58156812D01*
X31252774Y-58271890D01*
X31249500Y-58284108D01*
X31249500Y-58415892D01*
X31266554Y-58479539D01*
X31283608Y-58543187D01*
X31316554Y-58600250D01*
X31349500Y-58657314D01*
X31349502Y-58657316D01*
X31379505Y-58687319D01*
X31412990Y-58748642D01*
X31408006Y-58818334D01*
X31379505Y-58862681D01*
X31349502Y-58892683D01*
X31349500Y-58892686D01*
X31283608Y-59006812D01*
X31249500Y-59134108D01*
X31249500Y-59265891D01*
X31283608Y-59393187D01*
X31316554Y-59450250D01*
X31349500Y-59507314D01*
X31442686Y-59600500D01*
X31442688Y-59600501D01*
X31449137Y-59605450D01*
X31447324Y-59607812D01*
X31485710Y-59648062D01*
X31499500Y-59704893D01*
X31499500Y-59978821D01*
X31498761Y-59992337D01*
X31475097Y-60208145D01*
X31471685Y-60226445D01*
X31415951Y-60436394D01*
X31409838Y-60453976D01*
X31323304Y-60653215D01*
X31314627Y-60669684D01*
X31199242Y-60853725D01*
X31188198Y-60868711D01*
X31046564Y-61033402D01*
X31033402Y-61046564D01*
X30868711Y-61188198D01*
X30853725Y-61199242D01*
X30669684Y-61314627D01*
X30653215Y-61323304D01*
X30453976Y-61409838D01*
X30436394Y-61415951D01*
X30226445Y-61471685D01*
X30208145Y-61475097D01*
X29992339Y-61498761D01*
X29978823Y-61499500D01*
X22004428Y-61499500D01*
X21995582Y-61499184D01*
X21973622Y-61497613D01*
X21795442Y-61484869D01*
X21777931Y-61482351D01*
X21586209Y-61440645D01*
X21569234Y-61435661D01*
X21385394Y-61367093D01*
X21369300Y-61359743D01*
X21197091Y-61265709D01*
X21182208Y-61256144D01*
X21025135Y-61138561D01*
X21011764Y-61126975D01*
X20873024Y-60988235D01*
X20861438Y-60974864D01*
X20743855Y-60817791D01*
X20734290Y-60802908D01*
X20640256Y-60630699D01*
X20632909Y-60614611D01*
X20564336Y-60430760D01*
X20559354Y-60413790D01*
X20518600Y-60226445D01*
X20517647Y-60222063D01*
X20515130Y-60204556D01*
X20512358Y-60165802D01*
X20500816Y-60004418D01*
X20500500Y-59995572D01*
X20500500Y-50897367D01*
X21009500Y-50897367D01*
X21009500Y-51055060D01*
X21040261Y-51209703D01*
X21040264Y-51209715D01*
X21100602Y-51355386D01*
X21100606Y-51355393D01*
X21138602Y-51412258D01*
X21159480Y-51478935D01*
X21159500Y-51481149D01*
X21159500Y-53311569D01*
X21159500Y-53311571D01*
X21159499Y-53311571D01*
X21184497Y-53437238D01*
X21184499Y-53437244D01*
X21233535Y-53555627D01*
X21304723Y-53662169D01*
X21313179Y-53670625D01*
X21346665Y-53731945D01*
X21349500Y-53758308D01*
X21349500Y-57057564D01*
X21329815Y-57124603D01*
X21328603Y-57126454D01*
X21290608Y-57183317D01*
X21290602Y-57183328D01*
X21230264Y-57328998D01*
X21230261Y-57329010D01*
X21199500Y-57483653D01*
X21199500Y-57641346D01*
X21230261Y-57795989D01*
X21230264Y-57796001D01*
X21290602Y-57941672D01*
X21290609Y-57941685D01*
X21378210Y-58072788D01*
X21378213Y-58072792D01*
X21489707Y-58184286D01*
X21489711Y-58184289D01*
X21620814Y-58271890D01*
X21620827Y-58271897D01*
X21766498Y-58332235D01*
X21766503Y-58332237D01*
X21883368Y-58355483D01*
X21921153Y-58362999D01*
X21921156Y-58363000D01*
X21921158Y-58363000D01*
X22078844Y-58363000D01*
X22078845Y-58362999D01*
X22233497Y-58332237D01*
X22379179Y-58271894D01*
X22510289Y-58184289D01*
X22621789Y-58072789D01*
X22709394Y-57941679D01*
X22769737Y-57795997D01*
X22800500Y-57641342D01*
X22800500Y-57483658D01*
X22800500Y-57483655D01*
X22800499Y-57483653D01*
X22769738Y-57329010D01*
X22769737Y-57329003D01*
X22709394Y-57183321D01*
X22671396Y-57126453D01*
X22650520Y-57059776D01*
X22650500Y-57057564D01*
X22650500Y-53373428D01*
X22625502Y-53247761D01*
X22625501Y-53247760D01*
X22625501Y-53247756D01*
X22598857Y-53183431D01*
X22576466Y-53129374D01*
X22505277Y-53022831D01*
X22486545Y-53004099D01*
X22478923Y-52991725D01*
X22473394Y-52971473D01*
X22463334Y-52953049D01*
X22460500Y-52926691D01*
X22460500Y-51481149D01*
X22480185Y-51414110D01*
X22481366Y-51412304D01*
X22519394Y-51355393D01*
X22579737Y-51209711D01*
X22610500Y-51055056D01*
X22610500Y-50897372D01*
X22610500Y-50897369D01*
X22610499Y-50897367D01*
X22589445Y-50791522D01*
X22579737Y-50742717D01*
X22529249Y-50620827D01*
X22519397Y-50597041D01*
X22519390Y-50597028D01*
X22431789Y-50465925D01*
X22431786Y-50465921D01*
X22320292Y-50354427D01*
X22320288Y-50354424D01*
X22189185Y-50266823D01*
X22189172Y-50266816D01*
X22043501Y-50206478D01*
X22043489Y-50206475D01*
X21888845Y-50175714D01*
X21888842Y-50175714D01*
X21731158Y-50175714D01*
X21731155Y-50175714D01*
X21576510Y-50206475D01*
X21576498Y-50206478D01*
X21430827Y-50266816D01*
X21430814Y-50266823D01*
X21299711Y-50354424D01*
X21299707Y-50354427D01*
X21188213Y-50465921D01*
X21188210Y-50465925D01*
X21100609Y-50597028D01*
X21100602Y-50597041D01*
X21040264Y-50742712D01*
X21040261Y-50742724D01*
X21009500Y-50897367D01*
X20500500Y-50897367D01*
X20500500Y-43779054D01*
X21499498Y-43779054D01*
X21540423Y-43931785D01*
X21569358Y-43981900D01*
X21569359Y-43981904D01*
X21569360Y-43981904D01*
X21604228Y-44042299D01*
X21619479Y-44068714D01*
X21619481Y-44068717D01*
X21738349Y-44187585D01*
X21738355Y-44187590D01*
X23777336Y-46226571D01*
X23810821Y-46287894D01*
X23812128Y-46333648D01*
X23799500Y-46413389D01*
X23799500Y-46586611D01*
X23826598Y-46757701D01*
X23880127Y-46922445D01*
X23958768Y-47076788D01*
X24060586Y-47216928D01*
X24183072Y-47339414D01*
X24323212Y-47441232D01*
X24477555Y-47519873D01*
X24642299Y-47573402D01*
X24813389Y-47600500D01*
X24813390Y-47600500D01*
X24986610Y-47600500D01*
X24986611Y-47600500D01*
X25157701Y-47573402D01*
X25322445Y-47519873D01*
X25476788Y-47441232D01*
X25616928Y-47339414D01*
X25739414Y-47216928D01*
X25841232Y-47076788D01*
X25889515Y-46982027D01*
X25937489Y-46931230D01*
X26005310Y-46914435D01*
X26071445Y-46936972D01*
X26110485Y-46982027D01*
X26158766Y-47076786D01*
X26189357Y-47118890D01*
X26260586Y-47216928D01*
X26383072Y-47339414D01*
X26523212Y-47441232D01*
X26677555Y-47519873D01*
X26842299Y-47573402D01*
X27013389Y-47600500D01*
X27013390Y-47600500D01*
X27186610Y-47600500D01*
X27186611Y-47600500D01*
X27357701Y-47573402D01*
X27522445Y-47519873D01*
X27676788Y-47441232D01*
X27816928Y-47339414D01*
X27939414Y-47216928D01*
X28041232Y-47076788D01*
X28119873Y-46922445D01*
X28173402Y-46757701D01*
X28200500Y-46586611D01*
X28200500Y-46413389D01*
X28187870Y-46333648D01*
X28196824Y-46264358D01*
X28222659Y-46226574D01*
X30268713Y-44180521D01*
X30268716Y-44180520D01*
X30380520Y-44068716D01*
X30430639Y-43981904D01*
X30459577Y-43931785D01*
X30500501Y-43779057D01*
X30500501Y-43620943D01*
X30500501Y-43613348D01*
X30500500Y-43613330D01*
X30500500Y-28984916D01*
X30500499Y-28984912D01*
X30467834Y-28862998D01*
X30467834Y-28862997D01*
X30459579Y-28832190D01*
X30459577Y-28832187D01*
X30459577Y-28832186D01*
X30430639Y-28782066D01*
X30380520Y-28695255D01*
X30268716Y-28583451D01*
X30268715Y-28583450D01*
X30264385Y-28579120D01*
X30264374Y-28579110D01*
X29323619Y-27638355D01*
X29323617Y-27638352D01*
X29204746Y-27519481D01*
X29204745Y-27519480D01*
X29117933Y-27469360D01*
X29117933Y-27469359D01*
X29117929Y-27469358D01*
X29067814Y-27440423D01*
X28915086Y-27399499D01*
X28756972Y-27399499D01*
X28749376Y-27399499D01*
X28749360Y-27399500D01*
X27999169Y-27399500D01*
X27999153Y-27399499D01*
X27991557Y-27399499D01*
X27833443Y-27399499D01*
X27726087Y-27428265D01*
X27680710Y-27440424D01*
X27680709Y-27440425D01*
X27630596Y-27469359D01*
X27630595Y-27469360D01*
X27587189Y-27494420D01*
X27543785Y-27519479D01*
X27543782Y-27519481D01*
X26985339Y-28077925D01*
X26924016Y-28111410D01*
X26921850Y-28111861D01*
X26766508Y-28142761D01*
X26766498Y-28142764D01*
X26620827Y-28203102D01*
X26620814Y-28203109D01*
X26489711Y-28290710D01*
X26489707Y-28290713D01*
X26378213Y-28402207D01*
X26378210Y-28402211D01*
X26290609Y-28533314D01*
X26290602Y-28533327D01*
X26230264Y-28678998D01*
X26230261Y-28679010D01*
X26199500Y-28833653D01*
X26199500Y-28991346D01*
X26230261Y-29145989D01*
X26230264Y-29146001D01*
X26290602Y-29291672D01*
X26290609Y-29291685D01*
X26378210Y-29422788D01*
X26378213Y-29422792D01*
X26489707Y-29534286D01*
X26489711Y-29534289D01*
X26620814Y-29621890D01*
X26620827Y-29621897D01*
X26720060Y-29663000D01*
X26766503Y-29682237D01*
X26912285Y-29711235D01*
X26921153Y-29712999D01*
X26921156Y-29713000D01*
X26921158Y-29713000D01*
X27078844Y-29713000D01*
X27078845Y-29712999D01*
X27233497Y-29682237D01*
X27379179Y-29621894D01*
X27510289Y-29534289D01*
X27621789Y-29422789D01*
X27709394Y-29291679D01*
X27769737Y-29145997D01*
X27789113Y-29048585D01*
X27800638Y-28990650D01*
X27809402Y-28973894D01*
X27813423Y-28955413D01*
X27832166Y-28930375D01*
X27833023Y-28928739D01*
X27834519Y-28927215D01*
X27887820Y-28873915D01*
X27949143Y-28840431D01*
X28018835Y-28845416D01*
X28074768Y-28887288D01*
X28099184Y-28952752D01*
X28099500Y-28961597D01*
X28099500Y-28991346D01*
X28130261Y-29145989D01*
X28130264Y-29146001D01*
X28190602Y-29291672D01*
X28190609Y-29291685D01*
X28278210Y-29422788D01*
X28278213Y-29422792D01*
X28389707Y-29534286D01*
X28389711Y-29534289D01*
X28520814Y-29621890D01*
X28520827Y-29621897D01*
X28620060Y-29663000D01*
X28666503Y-29682237D01*
X28776987Y-29704213D01*
X28799691Y-29708730D01*
X28861602Y-29741115D01*
X28896176Y-29801830D01*
X28899500Y-29830347D01*
X28899500Y-30269652D01*
X28879815Y-30336691D01*
X28827011Y-30382446D01*
X28799692Y-30391269D01*
X28666508Y-30417761D01*
X28666498Y-30417764D01*
X28520828Y-30478102D01*
X28520814Y-30478110D01*
X28493888Y-30496101D01*
X28427210Y-30516977D01*
X28359831Y-30498491D01*
X28356112Y-30496101D01*
X28329185Y-30478110D01*
X28329184Y-30478109D01*
X28329179Y-30478106D01*
X28329175Y-30478104D01*
X28329171Y-30478102D01*
X28183501Y-30417764D01*
X28183489Y-30417761D01*
X28028845Y-30387000D01*
X28028842Y-30387000D01*
X27871158Y-30387000D01*
X27871155Y-30387000D01*
X27716510Y-30417761D01*
X27716498Y-30417764D01*
X27570828Y-30478102D01*
X27570814Y-30478110D01*
X27543888Y-30496101D01*
X27477210Y-30516977D01*
X27409831Y-30498491D01*
X27406112Y-30496101D01*
X27379185Y-30478110D01*
X27379184Y-30478109D01*
X27379179Y-30478106D01*
X27379175Y-30478104D01*
X27379171Y-30478102D01*
X27233501Y-30417764D01*
X27233489Y-30417761D01*
X27078845Y-30387000D01*
X27078842Y-30387000D01*
X26921158Y-30387000D01*
X26921155Y-30387000D01*
X26766510Y-30417761D01*
X26766498Y-30417764D01*
X26620827Y-30478102D01*
X26620814Y-30478109D01*
X26489711Y-30565710D01*
X26489707Y-30565713D01*
X26378213Y-30677207D01*
X26378210Y-30677211D01*
X26290609Y-30808314D01*
X26290602Y-30808327D01*
X26230264Y-30953998D01*
X26230261Y-30954010D01*
X26199500Y-31108653D01*
X26199500Y-31266346D01*
X26230261Y-31420989D01*
X26230264Y-31421001D01*
X26290602Y-31566672D01*
X26290609Y-31566685D01*
X26378210Y-31697788D01*
X26378213Y-31697792D01*
X26489707Y-31809286D01*
X26489711Y-31809289D01*
X26620814Y-31896890D01*
X26620827Y-31896897D01*
X26766498Y-31957235D01*
X26766503Y-31957237D01*
X26831147Y-31970095D01*
X26921849Y-31988138D01*
X26983760Y-32020523D01*
X26985339Y-32022074D01*
X27363181Y-32399916D01*
X27396666Y-32461239D01*
X27399500Y-32487597D01*
X27399500Y-34288033D01*
X27379815Y-34355072D01*
X27327011Y-34400827D01*
X27257853Y-34410771D01*
X27256103Y-34410506D01*
X27186611Y-34399500D01*
X27013389Y-34399500D01*
X27005011Y-34400827D01*
X26842302Y-34426597D01*
X26677552Y-34480128D01*
X26523211Y-34558768D01*
X26443256Y-34616859D01*
X26383072Y-34660586D01*
X26383070Y-34660588D01*
X26383069Y-34660588D01*
X26260588Y-34783069D01*
X26260588Y-34783070D01*
X26260586Y-34783072D01*
X26216859Y-34843256D01*
X26158768Y-34923211D01*
X26110204Y-35018524D01*
X26062229Y-35069320D01*
X25994408Y-35086115D01*
X25928273Y-35063577D01*
X25889234Y-35018524D01*
X25840801Y-34923471D01*
X25836290Y-34917262D01*
X25836289Y-34917261D01*
X25300000Y-35453551D01*
X25300000Y-35447339D01*
X25272741Y-35345606D01*
X25220080Y-35254394D01*
X25145606Y-35179920D01*
X25054394Y-35127259D01*
X24952661Y-35100000D01*
X24946446Y-35100000D01*
X25482737Y-34563709D01*
X25476525Y-34559196D01*
X25322259Y-34480592D01*
X25157584Y-34427085D01*
X24986571Y-34400000D01*
X24813434Y-34400000D01*
X24743897Y-34411013D01*
X24674604Y-34402057D01*
X24621152Y-34357060D01*
X24600513Y-34290309D01*
X24600500Y-34288539D01*
X24600500Y-31770440D01*
X24620185Y-31703401D01*
X24636820Y-31682758D01*
X24671786Y-31647792D01*
X24671789Y-31647789D01*
X24759394Y-31516679D01*
X24819737Y-31370997D01*
X24850500Y-31216342D01*
X24850500Y-31058658D01*
X24850500Y-31058655D01*
X24850499Y-31058653D01*
X24829684Y-30954010D01*
X24819737Y-30904003D01*
X24780102Y-30808314D01*
X24759397Y-30758327D01*
X24759390Y-30758314D01*
X24671789Y-30627211D01*
X24671786Y-30627207D01*
X24560292Y-30515713D01*
X24560288Y-30515710D01*
X24429185Y-30428109D01*
X24429172Y-30428102D01*
X24283501Y-30367764D01*
X24283489Y-30367761D01*
X24128845Y-30337000D01*
X24128842Y-30337000D01*
X23971158Y-30337000D01*
X23971155Y-30337000D01*
X23816510Y-30367761D01*
X23816498Y-30367764D01*
X23670828Y-30428102D01*
X23670814Y-30428110D01*
X23643888Y-30446101D01*
X23577210Y-30466977D01*
X23509831Y-30448491D01*
X23506112Y-30446101D01*
X23479185Y-30428110D01*
X23479184Y-30428109D01*
X23479179Y-30428106D01*
X23479175Y-30428104D01*
X23479171Y-30428102D01*
X23333501Y-30367764D01*
X23333491Y-30367761D01*
X23200308Y-30341269D01*
X23138397Y-30308884D01*
X23103823Y-30248168D01*
X23100500Y-30219652D01*
X23100500Y-29780347D01*
X23120185Y-29713308D01*
X23172989Y-29667553D01*
X23200309Y-29658730D01*
X23216291Y-29655550D01*
X23333497Y-29632237D01*
X23479179Y-29571894D01*
X23610289Y-29484289D01*
X23721789Y-29372789D01*
X23809394Y-29241679D01*
X23869737Y-29095997D01*
X23890554Y-28991346D01*
X23896231Y-28962808D01*
X23910945Y-28934677D01*
X23924135Y-28905797D01*
X23927024Y-28903940D01*
X23928616Y-28900897D01*
X23956208Y-28885184D01*
X23982913Y-28868023D01*
X23987506Y-28867362D01*
X23989332Y-28866323D01*
X24017848Y-28863000D01*
X24082152Y-28863000D01*
X24149191Y-28882685D01*
X24194946Y-28935489D01*
X24203769Y-28962808D01*
X24230261Y-29095991D01*
X24230264Y-29096001D01*
X24290602Y-29241672D01*
X24290609Y-29241685D01*
X24378210Y-29372788D01*
X24378213Y-29372792D01*
X24489707Y-29484286D01*
X24489711Y-29484289D01*
X24620814Y-29571890D01*
X24620827Y-29571897D01*
X24766498Y-29632235D01*
X24766503Y-29632237D01*
X24921153Y-29662999D01*
X24921156Y-29663000D01*
X24921158Y-29663000D01*
X25078844Y-29663000D01*
X25078845Y-29662999D01*
X25233497Y-29632237D01*
X25379179Y-29571894D01*
X25510289Y-29484289D01*
X25621789Y-29372789D01*
X25709394Y-29241679D01*
X25769737Y-29095997D01*
X25800500Y-28941342D01*
X25800500Y-28783658D01*
X25800500Y-28783655D01*
X25800499Y-28783653D01*
X25800183Y-28782063D01*
X25769737Y-28629003D01*
X25749071Y-28579110D01*
X25709397Y-28483327D01*
X25709390Y-28483314D01*
X25621789Y-28352211D01*
X25621786Y-28352207D01*
X25510292Y-28240713D01*
X25510288Y-28240710D01*
X25379185Y-28153109D01*
X25379172Y-28153102D01*
X25233501Y-28092764D01*
X25233491Y-28092761D01*
X25078149Y-28061861D01*
X25061392Y-28053095D01*
X25042914Y-28049076D01*
X25017877Y-28030333D01*
X25016238Y-28029476D01*
X25014660Y-28027925D01*
X24887590Y-27900855D01*
X24887588Y-27900852D01*
X24768717Y-27781981D01*
X24768716Y-27781980D01*
X24681904Y-27731860D01*
X24681904Y-27731859D01*
X24681900Y-27731858D01*
X24631785Y-27702923D01*
X24479057Y-27661999D01*
X24320943Y-27661999D01*
X24313347Y-27661999D01*
X24313331Y-27662000D01*
X22772411Y-27662000D01*
X22731490Y-27672964D01*
X22731490Y-27672965D01*
X22694222Y-27682951D01*
X22619685Y-27702923D01*
X22619680Y-27702926D01*
X22482761Y-27781975D01*
X22482753Y-27781981D01*
X21619479Y-28645255D01*
X21599999Y-28678998D01*
X21590613Y-28695255D01*
X21540423Y-28782186D01*
X21499499Y-28934914D01*
X21499499Y-29093028D01*
X21499499Y-29093030D01*
X21499500Y-29103024D01*
X21499500Y-43613330D01*
X21499499Y-43613348D01*
X21499499Y-43779054D01*
X21499498Y-43779054D01*
X20500500Y-43779054D01*
X20500500Y-22004427D01*
X20500816Y-21995581D01*
X20515130Y-21795443D01*
X20515131Y-21795434D01*
X20517646Y-21777938D01*
X20559356Y-21586200D01*
X20564335Y-21569242D01*
X20632911Y-21385382D01*
X20640251Y-21369310D01*
X20734294Y-21197083D01*
X20743850Y-21182214D01*
X20861443Y-21025128D01*
X20873017Y-21011771D01*
X21011771Y-20873017D01*
X21025128Y-20861443D01*
X21182214Y-20743850D01*
X21197083Y-20734294D01*
X21369310Y-20640251D01*
X21385382Y-20632911D01*
X21569242Y-20564335D01*
X21586200Y-20559356D01*
X21777938Y-20517646D01*
X21795436Y-20515130D01*
X21995582Y-20500816D01*
X22004428Y-20500500D01*
X22065892Y-20500500D01*
X29934108Y-20500500D01*
X29995572Y-20500500D01*
X30004418Y-20500816D01*
G37*
%TD.AperFunction*%
%TD*%
M02*
