%TF.GenerationSoftware,KiCad,Pcbnew,10.0.3-10.0.3~ubuntu26.04.1*%
%TF.CreationDate,2026-05-22T22:36:22-05:00*%
%TF.ProjectId,magnetic-connector,6d61676e-6574-4696-932d-636f6e6e6563,rev?*%
%TF.SameCoordinates,Original*%
%TF.FileFunction,Copper,L1,Top*%
%TF.FilePolarity,Positive*%
%FSLAX46Y46*%
G04 Gerber Fmt 4.6, Leading zero omitted, Abs format (unit mm)*
G04 Created by KiCad (PCBNEW 10.0.3-10.0.3~ubuntu26.04.1) date 2026-05-22 22:36:22*
%MOMM*%
%LPD*%
G01*
G04 APERTURE LIST*
G04 Aperture macros list*
%AMRoundRect*
0 Rectangle with rounded corners*
0 $1 Rounding radius*
0 $2 $3 $4 $5 $6 $7 $8 $9 X,Y pos of 4 corners*
0 Add a 4 corners polygon primitive as box body*
4,1,4,$2,$3,$4,$5,$6,$7,$8,$9,$2,$3,0*
0 Add four circle primitives for the rounded corners*
1,1,$1+$1,$2,$3*
1,1,$1+$1,$4,$5*
1,1,$1+$1,$6,$7*
1,1,$1+$1,$8,$9*
0 Add four rect primitives between the rounded corners*
20,1,$1+$1,$2,$3,$4,$5,0*
20,1,$1+$1,$4,$5,$6,$7,0*
20,1,$1+$1,$6,$7,$8,$9,0*
20,1,$1+$1,$8,$9,$2,$3,0*%
G04 Aperture macros list end*
%TA.AperFunction,SMDPad,CuDef*%
%ADD10RoundRect,0.150000X-0.150000X0.512500X-0.150000X-0.512500X0.150000X-0.512500X0.150000X0.512500X0*%
%TD*%
%TA.AperFunction,SMDPad,CuDef*%
%ADD11R,0.280000X1.250000*%
%TD*%
%TA.AperFunction,SMDPad,CuDef*%
%ADD12R,1.800000X2.000000*%
%TD*%
%TA.AperFunction,ComponentPad*%
%ADD13C,1.200000*%
%TD*%
%TA.AperFunction,ComponentPad*%
%ADD14C,4.000000*%
%TD*%
%TA.AperFunction,SMDPad,CuDef*%
%ADD15RoundRect,0.243750X-0.456250X0.243750X-0.456250X-0.243750X0.456250X-0.243750X0.456250X0.243750X0*%
%TD*%
%TA.AperFunction,SMDPad,CuDef*%
%ADD16RoundRect,0.243750X0.456250X-0.243750X0.456250X0.243750X-0.456250X0.243750X-0.456250X-0.243750X0*%
%TD*%
%TA.AperFunction,ViaPad*%
%ADD17C,0.600000*%
%TD*%
%TA.AperFunction,Conductor*%
%ADD18C,0.300000*%
%TD*%
%TA.AperFunction,Conductor*%
%ADD19C,0.200000*%
%TD*%
G04 APERTURE END LIST*
D10*
%TO.P,D4,1,IO1_1*%
%TO.N,/Host/GP2*%
X28900000Y-28912500D03*
%TO.P,D4,2,GND_2*%
%TO.N,/Host/GND*%
X27950000Y-28912500D03*
%TO.P,D4,3,IO2_3*%
%TO.N,/Host/MISO*%
X27000000Y-28912500D03*
%TO.P,D4,4,IO3_4*%
%TO.N,/Host/SDA*%
X27000000Y-31187500D03*
%TO.P,D4,5,IO4_5*%
%TO.N,/Host/RGB_DO*%
X27950000Y-31187500D03*
%TO.P,D4,6,IO5_6*%
%TO.N,/Host/GP1*%
X28900000Y-31187500D03*
%TD*%
%TO.P,D3,1,IO1_1*%
%TO.N,/Host/SCLK*%
X25000000Y-28862500D03*
%TO.P,D3,2,GND_2*%
%TO.N,/Host/GND*%
X24050000Y-28862500D03*
%TO.P,D3,3,IO2_3*%
%TO.N,/Host/CS*%
X23100000Y-28862500D03*
%TO.P,D3,4,IO3_4*%
%TO.N,/Host/MOSI*%
X23100000Y-31137500D03*
%TO.P,D3,5,IO4_5*%
%TO.N,/Host/SCL*%
X24050000Y-31137500D03*
%TO.P,D3,6,IO5_6*%
%TO.N,unconnected-(D3-IO5-Pad6)*%
X25000000Y-31137500D03*
%TD*%
D11*
%TO.P,J_VIK_HOST1,1,SCLK_1*%
%TO.N,/Host/SCLK*%
X23250000Y-49962000D03*
%TO.P,J_VIK_HOST1,2,MISO_2*%
%TO.N,/Host/MISO*%
X23750000Y-49962000D03*
%TO.P,J_VIK_HOST1,3,SPI_CS_3*%
%TO.N,/Host/CS*%
X24250000Y-49962000D03*
%TO.P,J_VIK_HOST1,4,GP_AD2_4*%
%TO.N,/Host/GP2*%
X24750000Y-49962000D03*
%TO.P,J_VIK_HOST1,5,MOSI_5*%
%TO.N,/Host/MOSI*%
X25250000Y-49962000D03*
%TO.P,J_VIK_HOST1,6,GP_AD1_6*%
%TO.N,/Host/GP1*%
X25750000Y-49962000D03*
%TO.P,J_VIK_HOST1,7,5V_7*%
%TO.N,/Host/5V_IN*%
X26250000Y-49962000D03*
%TO.P,J_VIK_HOST1,8,RGB_DO_8*%
%TO.N,/Host/RGB_DO*%
X26750000Y-49962000D03*
%TO.P,J_VIK_HOST1,9,SCL_9*%
%TO.N,/Host/SCL*%
X27250000Y-49962000D03*
%TO.P,J_VIK_HOST1,10,SDA_10*%
%TO.N,/Host/SDA*%
X27750000Y-49962000D03*
%TO.P,J_VIK_HOST1,11,GND_11*%
%TO.N,/Host/GND*%
X28250000Y-49962000D03*
%TO.P,J_VIK_HOST1,12,3V3_12*%
%TO.N,/Host/3V3_IN*%
X28750000Y-49962000D03*
D12*
%TO.P,J_VIK_HOST1,13*%
%TO.N,/Host/GND*%
X30550000Y-52686000D03*
%TO.P,J_VIK_HOST1,14*%
X21450000Y-52686000D03*
%TD*%
D11*
%TO.P,J_VIK_CLI1,1,3V3_1*%
%TO.N,/Client/3V3_OUT*%
X37250000Y-49962000D03*
%TO.P,J_VIK_CLI1,2,GND_2*%
%TO.N,/Client/GND*%
X37750000Y-49962000D03*
%TO.P,J_VIK_CLI1,3,SDA_3*%
%TO.N,/Client/SDA*%
X38250000Y-49962000D03*
%TO.P,J_VIK_CLI1,4,SCL_4*%
%TO.N,/Client/SCL*%
X38750000Y-49962000D03*
%TO.P,J_VIK_CLI1,5,RGB_DO_5*%
%TO.N,/Client/RGB_DO*%
X39250000Y-49962000D03*
%TO.P,J_VIK_CLI1,6,5V_6*%
%TO.N,/Client/5V_OUT*%
X39750000Y-49962000D03*
%TO.P,J_VIK_CLI1,7,GP_AD1_7*%
%TO.N,/Client/GP1*%
X40250000Y-49962000D03*
%TO.P,J_VIK_CLI1,8,MOSI_8*%
%TO.N,/Client/MOSI*%
X40750000Y-49962000D03*
%TO.P,J_VIK_CLI1,9,GP_AD2_9*%
%TO.N,/Client/GP2*%
X41250000Y-49962000D03*
%TO.P,J_VIK_CLI1,10,SPI_CS_10*%
%TO.N,/Client/CS*%
X41750000Y-49962000D03*
%TO.P,J_VIK_CLI1,11,MISO_11*%
%TO.N,/Client/MISO*%
X42250000Y-49962000D03*
%TO.P,J_VIK_CLI1,12,SCLK_12*%
%TO.N,/Client/SCLK*%
X42750000Y-49962000D03*
D12*
%TO.P,J_VIK_CLI1,13*%
%TO.N,/Client/GND*%
X44550000Y-52686000D03*
%TO.P,J_VIK_CLI1,14*%
X35450000Y-52686000D03*
%TD*%
D10*
%TO.P,D2,1,IO1_1*%
%TO.N,/Client/CS*%
X42950000Y-28912500D03*
%TO.P,D2,2,GND_2*%
%TO.N,/Client/GND*%
X42000000Y-28912500D03*
%TO.P,D2,3,IO2_3*%
%TO.N,/Client/SCLK*%
X41050000Y-28912500D03*
%TO.P,D2,4,IO3_4*%
%TO.N,unconnected-(D2-IO3-Pad4)*%
X41050000Y-31187500D03*
%TO.P,D2,5,IO4_5*%
%TO.N,/Client/SCL*%
X42000000Y-31187500D03*
%TO.P,D2,6,IO5_6*%
%TO.N,/Client/MOSI*%
X42950000Y-31187500D03*
%TD*%
%TO.P,D1,1,IO1_1*%
%TO.N,/Client/MISO*%
X38950000Y-28862500D03*
%TO.P,D1,2,GND_2*%
%TO.N,/Client/GND*%
X38000000Y-28862500D03*
%TO.P,D1,3,IO2_3*%
%TO.N,/Client/GP2*%
X37050000Y-28862500D03*
%TO.P,D1,4,IO3_4*%
%TO.N,/Client/GP1*%
X37050000Y-31137500D03*
%TO.P,D1,5,IO4_5*%
%TO.N,/Client/RGB_DO*%
X38000000Y-31137500D03*
%TO.P,D1,6,IO5_6*%
%TO.N,/Client/SDA*%
X38950000Y-31137500D03*
%TD*%
D13*
%TO.P,J_MC_CLI1,1,SCLK_1*%
%TO.N,/Client/SCLK*%
X41100000Y-46500000D03*
%TO.P,J_MC_CLI1,2,MISO_2*%
%TO.N,/Client/MISO*%
X38900000Y-46500000D03*
%TO.P,J_MC_CLI1,3,SPI_CS_3*%
%TO.N,/Client/CS*%
X41100000Y-44300000D03*
%TO.P,J_MC_CLI1,4,GP_AD2_4*%
%TO.N,/Client/GP2*%
X38900000Y-44300000D03*
%TO.P,J_MC_CLI1,5,MOSI_5*%
%TO.N,/Client/MOSI*%
X41100000Y-42100000D03*
%TO.P,J_MC_CLI1,6,GP_AD1_6*%
%TO.N,/Client/GP1*%
X38900000Y-42100000D03*
%TO.P,J_MC_CLI1,7,5V_7*%
%TO.N,/Client/5V_IN*%
X41100000Y-39900000D03*
%TO.P,J_MC_CLI1,8,RGB_DO_8*%
%TO.N,/Client/RGB_DO*%
X38900000Y-39900000D03*
%TO.P,J_MC_CLI1,9,SCL_9*%
%TO.N,/Client/SCL*%
X41100000Y-37700000D03*
%TO.P,J_MC_CLI1,10,SDA_10*%
%TO.N,/Client/SDA*%
X38900000Y-37700000D03*
%TO.P,J_MC_CLI1,11,GND_11*%
%TO.N,/Client/GND*%
X41100000Y-35500000D03*
%TO.P,J_MC_CLI1,12,3V3_12*%
%TO.N,/Client/3V3_IN*%
X38900000Y-35500000D03*
%TD*%
D14*
%TO.P,H_CLI_1,1,1_1*%
%TO.N,/Client/GND*%
X40000000Y-22500000D03*
%TD*%
D15*
%TO.P,F_5V_CLI_1,1*%
%TO.N,/Client/5V_IN*%
X44000000Y-57562500D03*
%TO.P,F_5V_CLI_1,2*%
%TO.N,/Client/5V_OUT*%
X44000000Y-59437500D03*
%TD*%
D14*
%TO.P,H_HOST_2,1,1_1*%
%TO.N,/Host/GND*%
X26000000Y-59500000D03*
%TD*%
D16*
%TO.P,F_3V3_HOST_1,1*%
%TO.N,/Host/3V3_IN*%
X30000000Y-59500000D03*
%TO.P,F_3V3_HOST_1,2*%
%TO.N,/Host/3V3_OUT*%
X30000000Y-57625000D03*
%TD*%
D14*
%TO.P,H_CLI_2,1,1_1*%
%TO.N,/Client/GND*%
X40000000Y-59500000D03*
%TD*%
D16*
%TO.P,F_5V_HOST_1,1*%
%TO.N,/Host/5V_IN*%
X22000000Y-59437500D03*
%TO.P,F_5V_HOST_1,2*%
%TO.N,/Host/5V_OUT*%
X22000000Y-57562500D03*
%TD*%
D13*
%TO.P,J_MC_HOST1,1,3V3_1*%
%TO.N,/Host/3V3_OUT*%
X27100000Y-35500000D03*
%TO.P,J_MC_HOST1,2,GND_2*%
%TO.N,/Host/GND*%
X24900000Y-35500000D03*
%TO.P,J_MC_HOST1,3,SDA_3*%
%TO.N,/Host/SDA*%
X27100000Y-37700000D03*
%TO.P,J_MC_HOST1,4,SCL_4*%
%TO.N,/Host/SCL*%
X24900000Y-37700000D03*
%TO.P,J_MC_HOST1,5,RGB_DO_5*%
%TO.N,/Host/RGB_DO*%
X27100000Y-39900000D03*
%TO.P,J_MC_HOST1,6,5V_6*%
%TO.N,/Host/5V_OUT*%
X24900000Y-39900000D03*
%TO.P,J_MC_HOST1,7,GP_AD1_7*%
%TO.N,/Host/GP1*%
X27100000Y-42100000D03*
%TO.P,J_MC_HOST1,8,MOSI_8*%
%TO.N,/Host/MOSI*%
X24900000Y-42100000D03*
%TO.P,J_MC_HOST1,9,GP_AD2_9*%
%TO.N,/Host/GP2*%
X27100000Y-44300000D03*
%TO.P,J_MC_HOST1,10,SPI_CS_10*%
%TO.N,/Host/CS*%
X24900000Y-44300000D03*
%TO.P,J_MC_HOST1,11,MISO_11*%
%TO.N,/Host/MISO*%
X27100000Y-46500000D03*
%TO.P,J_MC_HOST1,12,SCLK_12*%
%TO.N,/Host/SCLK*%
X24900000Y-46500000D03*
%TD*%
D14*
%TO.P,H_HOST_1,1,1_1*%
%TO.N,/Host/GND*%
X26000000Y-22500000D03*
%TD*%
D15*
%TO.P,F_3V3_CLI_1,1*%
%TO.N,/Client/3V3_IN*%
X36000000Y-57562500D03*
%TO.P,F_3V3_CLI_1,2*%
%TO.N,/Client/3V3_OUT*%
X36000000Y-59437500D03*
%TD*%
D17*
%TO.N,/Client/GND*%
X42000000Y-54000000D03*
%TO.N,/Host/GND*%
X24000000Y-54000000D03*
X29500000Y-55000000D03*
%TO.N,/Client/GND*%
X36500000Y-55000000D03*
%TO.N,/Host/3V3_OUT*%
X30500000Y-51000000D03*
X30000000Y-57625000D03*
%TO.N,/Client/3V3_IN*%
X35500000Y-51000000D03*
X36000000Y-57562500D03*
%TO.N,/Client/MISO*%
X38950000Y-28862500D03*
%TO.N,/Client/GP2*%
X37050000Y-28862500D03*
%TO.N,/Client/GP1*%
X37050000Y-31137500D03*
%TO.N,/Client/RGB_DO*%
X38000000Y-31137500D03*
%TO.N,/Client/SDA*%
X38950000Y-31137500D03*
%TO.N,/Client/SCLK*%
X41050000Y-28912500D03*
%TO.N,/Client/CS*%
X42950000Y-28912500D03*
%TO.N,/Client/MOSI*%
X42950000Y-31187500D03*
%TO.N,/Client/SCL*%
X42000000Y-31187500D03*
%TO.N,/Host/MISO*%
X27000000Y-28912500D03*
%TO.N,/Host/GP2*%
X28900000Y-28912500D03*
%TO.N,/Host/GP1*%
X28900000Y-31187500D03*
%TO.N,/Host/RGB_DO*%
X27950000Y-31187500D03*
%TO.N,/Host/SDA*%
X27000000Y-31187500D03*
%TO.N,/Host/SCLK*%
X25000000Y-28862500D03*
%TO.N,/Host/CS*%
X23100000Y-28862500D03*
%TO.N,/Host/MOSI*%
X23100000Y-31137500D03*
%TO.N,/Host/SCL*%
X24050000Y-31137500D03*
%TO.N,/Client/5V_IN*%
X44190000Y-50976214D03*
X44000000Y-57562500D03*
%TO.N,/Host/5V_OUT*%
X21810000Y-50976214D03*
X22000000Y-57562500D03*
%TD*%
%TO.N,/Client/3V3_OUT*%
D18*
X37250000Y-49962000D02*
X37250000Y-58187500D01*
X37250000Y-58187500D02*
X36000000Y-59437500D01*
%TO.N,/Client/GND*%
X37750000Y-49962000D02*
X37750000Y-57250000D01*
X37750000Y-57250000D02*
X40000000Y-59500000D01*
%TO.N,/Host/GND*%
X28250000Y-49962000D02*
X28250000Y-57250000D01*
X28250000Y-57250000D02*
X26000000Y-59500000D01*
%TO.N,/Host/3V3_IN*%
X28750000Y-49962000D02*
X28750000Y-58250000D01*
X28750000Y-58250000D02*
X30000000Y-59500000D01*
%TO.N,/Host/3V3_OUT*%
X27100000Y-35500000D02*
X30500000Y-38900000D01*
X30500000Y-38900000D02*
X30500000Y-51000000D01*
%TO.N,/Host/5V_IN*%
X26250000Y-49962000D02*
X26250000Y-55187500D01*
X26250000Y-55187500D02*
X22000000Y-59437500D01*
%TO.N,/Client/3V3_IN*%
X35500000Y-38900000D02*
X35500000Y-51000000D01*
X38900000Y-35500000D02*
X35500000Y-38900000D01*
%TO.N,/Client/5V_OUT*%
X39750000Y-49962000D02*
X39750000Y-55187500D01*
X39750000Y-55187500D02*
X44000000Y-59437500D01*
%TO.N,/Client/5V_IN*%
X44190000Y-42990000D02*
X44190000Y-50976214D01*
X41100000Y-39900000D02*
X44190000Y-42990000D01*
%TO.N,/Client/SDA*%
D19*
X38250000Y-49962000D02*
X38250000Y-49137000D01*
X38250000Y-49137000D02*
X38113000Y-49000000D01*
X38113000Y-49000000D02*
X37864464Y-48999999D01*
X37864464Y-48999999D02*
X36400000Y-47535533D01*
X36400000Y-47535533D02*
X36400000Y-40200000D01*
X36400000Y-40200000D02*
X38900000Y-37700000D01*
%TO.N,/Client/SCL*%
X38750000Y-49962000D02*
X38750000Y-48815686D01*
X38750000Y-48815686D02*
X38534314Y-48600000D01*
X38534314Y-48600000D02*
X38030150Y-48600000D01*
X39800000Y-39000000D02*
X41100000Y-37700000D01*
X38030150Y-48600000D02*
X36800000Y-47369848D01*
X36800000Y-47369848D02*
X36800000Y-40727207D01*
X36800000Y-40727207D02*
X38527207Y-39000000D01*
X38527207Y-39000000D02*
X39800000Y-39000000D01*
%TO.N,/Client/RGB_DO*%
X39250000Y-49962000D02*
X39250000Y-48750000D01*
X39250000Y-48750000D02*
X38700000Y-48200000D01*
X38700000Y-48200000D02*
X38195836Y-48200000D01*
X37200000Y-47204163D02*
X37200000Y-41600000D01*
X38195836Y-48200000D02*
X37200000Y-47204163D01*
X37200000Y-41600000D02*
X38900000Y-39900000D01*
%TO.N,/Client/GP1*%
X39300000Y-47800000D02*
X38361522Y-47800000D01*
X38361522Y-47800000D02*
X37600000Y-47038478D01*
X40250000Y-49962000D02*
X40250000Y-48750000D01*
X40250000Y-48750000D02*
X39300000Y-47800000D01*
X37600000Y-43400000D02*
X38900000Y-42100000D01*
X37600000Y-47038478D02*
X37600000Y-43400000D01*
%TO.N,/Client/GP2*%
X38900000Y-44300000D02*
X38000000Y-45200000D01*
X38000000Y-45200000D02*
X38000000Y-46872793D01*
X38000000Y-46872793D02*
X38527207Y-47400000D01*
X38527207Y-47400000D02*
X39553000Y-47400000D01*
X39553000Y-47400000D02*
X41250000Y-49097000D01*
X41250000Y-49097000D02*
X41250000Y-49962000D01*
%TO.N,/Client/MOSI*%
X40750000Y-49962000D02*
X40750000Y-50827000D01*
X40750000Y-50827000D02*
X41210000Y-51287000D01*
X43590000Y-44590000D02*
X41100000Y-42100000D01*
X41210000Y-51287000D02*
X43355685Y-51287000D01*
X43355685Y-51287000D02*
X43590000Y-51052685D01*
X43590000Y-51052685D02*
X43590000Y-44590000D01*
%TO.N,/Client/CS*%
X41750000Y-49962000D02*
X41750000Y-50827000D01*
X41750000Y-50827000D02*
X41810000Y-50887000D01*
X41810000Y-50887000D02*
X43190000Y-50887000D01*
X43190000Y-50887000D02*
X43190000Y-46390000D01*
X43190000Y-46390000D02*
X41100000Y-44300000D01*
%TO.N,/Client/MISO*%
X42250000Y-49962000D02*
X42250000Y-49097000D01*
X42250000Y-49097000D02*
X39653000Y-46500000D01*
X39653000Y-46500000D02*
X38900000Y-46500000D01*
%TO.N,/Client/SCLK*%
X42750000Y-49962000D02*
X42750000Y-48150000D01*
X42750000Y-48150000D02*
X41100000Y-46500000D01*
%TO.N,/Client/3V3_OUT*%
X37225500Y-49937500D02*
X37250000Y-49962000D01*
%TO.N,/Host/5V_OUT*%
D18*
X21810000Y-50976214D02*
X21810000Y-42990000D01*
X21810000Y-42990000D02*
X24900000Y-39900000D01*
%TO.N,/Host/SDA*%
D19*
X27100000Y-37700000D02*
X30000000Y-40600000D01*
X30000000Y-40600000D02*
X30000000Y-47149268D01*
X30000000Y-47149268D02*
X28149268Y-49000000D01*
X28149268Y-49000000D02*
X27847000Y-49000000D01*
X27847000Y-49000000D02*
X27750000Y-49097000D01*
X27750000Y-49097000D02*
X27750000Y-49962000D01*
%TO.N,/Host/SCL*%
X27250000Y-49962000D02*
X27250000Y-48959315D01*
X27250000Y-48959315D02*
X27609315Y-48600000D01*
X27609315Y-48600000D02*
X27969851Y-48599999D01*
X27969851Y-48599999D02*
X29200000Y-47369848D01*
X24900000Y-37700000D02*
X26200000Y-39000000D01*
X26200000Y-39000000D02*
X27472793Y-39000000D01*
X27472793Y-39000000D02*
X29200000Y-40727207D01*
X29200000Y-40727207D02*
X29200000Y-47369848D01*
%TO.N,/Host/RGB_DO*%
X26750000Y-49962000D02*
X26750000Y-48450000D01*
X26750000Y-48450000D02*
X27000000Y-48200000D01*
X28800000Y-41600000D02*
X27100000Y-39900000D01*
X27000000Y-48200000D02*
X27804165Y-48200000D01*
X27804165Y-48200000D02*
X28800000Y-47204163D01*
X28800000Y-47204163D02*
X28800000Y-41600000D01*
%TO.N,/Host/GP1*%
X25750000Y-48702686D02*
X26652686Y-47800000D01*
X26652686Y-47800000D02*
X27638479Y-47800000D01*
X27638479Y-47800000D02*
X28400000Y-47038478D01*
X25750000Y-49962000D02*
X25750000Y-48702686D01*
X28400000Y-47038478D02*
X28400000Y-43400000D01*
X28400000Y-43400000D02*
X27100000Y-42100000D01*
%TO.N,/Host/MOSI*%
X25250000Y-49962000D02*
X25250000Y-50827000D01*
X25250000Y-50827000D02*
X24790000Y-51287000D01*
X24790000Y-51287000D02*
X22644315Y-51287000D01*
X22644315Y-51287000D02*
X22410000Y-51052685D01*
X22410000Y-51052685D02*
X22410000Y-44590000D01*
X22410000Y-44590000D02*
X24900000Y-42100000D01*
%TO.N,/Host/GP2*%
X24750000Y-49962000D02*
X24750000Y-49137000D01*
X24750000Y-49137000D02*
X26487000Y-47400000D01*
X26487000Y-47400000D02*
X27472793Y-47400000D01*
X27472793Y-47400000D02*
X28000000Y-46872793D01*
X28000000Y-46872793D02*
X28000000Y-45200000D01*
X28000000Y-45200000D02*
X27100000Y-44300000D01*
%TO.N,/Host/CS*%
X24250000Y-49962000D02*
X24250000Y-50827000D01*
X24250000Y-50827000D02*
X24190000Y-50887000D01*
X22810000Y-46390000D02*
X24900000Y-44300000D01*
X24190000Y-50887000D02*
X22810000Y-50887000D01*
X22810000Y-50887000D02*
X22810000Y-46390000D01*
%TO.N,/Host/MISO*%
X23750000Y-49962000D02*
X23750000Y-49001472D01*
X23750000Y-49001472D02*
X26251472Y-46500000D01*
X26251472Y-46500000D02*
X27100000Y-46500000D01*
%TO.N,/Host/SCLK*%
X23250000Y-49962000D02*
X23250000Y-48150000D01*
X23250000Y-48150000D02*
X24900000Y-46500000D01*
%TD*%
%TA.AperFunction,Conductor*%
%TO.N,/Client/GND*%
G36*
X38562127Y-51087500D02*
G01*
X38937872Y-51087499D01*
X38937876Y-51087498D01*
X38937885Y-51087498D01*
X38954305Y-51085732D01*
X38962243Y-51084879D01*
X39031002Y-51097283D01*
X39082141Y-51144893D01*
X39099500Y-51208168D01*
X39099500Y-55251571D01*
X39115819Y-55333608D01*
X39115819Y-55333609D01*
X39124497Y-55377236D01*
X39124499Y-55377244D01*
X39173534Y-55495625D01*
X39244726Y-55602173D01*
X39244727Y-55602174D01*
X42763181Y-59120627D01*
X42796666Y-59181950D01*
X42799500Y-59208308D01*
X42799500Y-59730855D01*
X42809913Y-59832776D01*
X42864637Y-59997922D01*
X42864642Y-59997933D01*
X42955971Y-60145999D01*
X42955974Y-60146003D01*
X43078996Y-60269025D01*
X43079000Y-60269028D01*
X43227066Y-60360357D01*
X43227069Y-60360358D01*
X43227075Y-60360362D01*
X43392225Y-60415087D01*
X43494152Y-60425500D01*
X43494157Y-60425500D01*
X44505843Y-60425500D01*
X44505848Y-60425500D01*
X44607775Y-60415087D01*
X44772925Y-60360362D01*
X44921003Y-60269026D01*
X45044026Y-60146003D01*
X45135362Y-59997925D01*
X45190087Y-59832775D01*
X45200500Y-59730848D01*
X45200500Y-59144152D01*
X45190087Y-59042225D01*
X45135362Y-58877075D01*
X45135358Y-58877069D01*
X45135357Y-58877066D01*
X45044028Y-58729000D01*
X45044025Y-58728996D01*
X44921004Y-58605975D01*
X44921003Y-58605974D01*
X44920301Y-58605541D01*
X44919921Y-58605118D01*
X44915336Y-58601493D01*
X44915955Y-58600709D01*
X44873575Y-58553598D01*
X44862349Y-58484636D01*
X44890188Y-58420552D01*
X44915455Y-58398657D01*
X44915336Y-58398507D01*
X44918687Y-58395856D01*
X44920299Y-58394459D01*
X44921003Y-58394026D01*
X45044026Y-58271003D01*
X45135362Y-58122925D01*
X45190087Y-57957775D01*
X45200500Y-57855848D01*
X45200500Y-57269152D01*
X45190087Y-57167225D01*
X45135362Y-57002075D01*
X45135358Y-57002069D01*
X45135357Y-57002066D01*
X45044028Y-56854000D01*
X45044025Y-56853996D01*
X44921003Y-56730974D01*
X44920999Y-56730971D01*
X44772933Y-56639642D01*
X44772927Y-56639639D01*
X44772925Y-56639638D01*
X44772922Y-56639637D01*
X44607776Y-56584913D01*
X44505855Y-56574500D01*
X44505848Y-56574500D01*
X43494152Y-56574500D01*
X43494144Y-56574500D01*
X43392223Y-56584913D01*
X43227077Y-56639637D01*
X43227066Y-56639642D01*
X43079000Y-56730971D01*
X43078996Y-56730974D01*
X42955974Y-56853996D01*
X42955971Y-56854000D01*
X42864642Y-57002066D01*
X42864638Y-57002075D01*
X42833264Y-57096755D01*
X42793491Y-57154199D01*
X42728975Y-57181022D01*
X42660199Y-57168707D01*
X42627877Y-57145431D01*
X40436819Y-54954373D01*
X40403334Y-54893050D01*
X40400500Y-54866692D01*
X40400500Y-53733844D01*
X43150000Y-53733844D01*
X43156401Y-53793372D01*
X43156403Y-53793379D01*
X43206645Y-53928086D01*
X43206649Y-53928093D01*
X43292809Y-54043187D01*
X43292812Y-54043190D01*
X43407906Y-54129350D01*
X43407913Y-54129354D01*
X43542620Y-54179596D01*
X43542627Y-54179598D01*
X43602155Y-54185999D01*
X43602172Y-54186000D01*
X44300000Y-54186000D01*
X44300000Y-52936000D01*
X43150000Y-52936000D01*
X43150000Y-53733844D01*
X40400500Y-53733844D01*
X40400500Y-51626097D01*
X40406738Y-51604851D01*
X40408318Y-51582763D01*
X40416390Y-51571979D01*
X40420185Y-51559058D01*
X40436918Y-51544558D01*
X40450190Y-51526830D01*
X40462810Y-51522122D01*
X40472989Y-51513303D01*
X40494906Y-51510151D01*
X40515654Y-51502413D01*
X40528814Y-51505275D01*
X40542147Y-51503359D01*
X40562290Y-51512558D01*
X40583927Y-51517265D01*
X40601652Y-51530533D01*
X40605703Y-51532384D01*
X40612181Y-51538416D01*
X40725139Y-51651374D01*
X40725149Y-51651385D01*
X40729479Y-51655715D01*
X40729480Y-51655716D01*
X40841284Y-51767520D01*
X40841286Y-51767521D01*
X40898408Y-51800500D01*
X40898407Y-51800500D01*
X40898410Y-51800501D01*
X40978209Y-51846574D01*
X40978210Y-51846574D01*
X40978215Y-51846577D01*
X41130942Y-51887500D01*
X41130943Y-51887500D01*
X43026000Y-51887500D01*
X43093039Y-51907185D01*
X43138794Y-51959989D01*
X43150000Y-52011500D01*
X43150000Y-52436000D01*
X44426000Y-52436000D01*
X44493039Y-52455685D01*
X44538794Y-52508489D01*
X44550000Y-52560000D01*
X44550000Y-52686000D01*
X44676000Y-52686000D01*
X44743039Y-52705685D01*
X44788794Y-52758489D01*
X44800000Y-52810000D01*
X44800000Y-54186000D01*
X45375500Y-54186000D01*
X45442539Y-54205685D01*
X45488294Y-54258489D01*
X45499500Y-54310000D01*
X45499500Y-59978821D01*
X45498761Y-59992337D01*
X45475097Y-60208145D01*
X45471685Y-60226445D01*
X45415951Y-60436394D01*
X45409838Y-60453976D01*
X45323304Y-60653215D01*
X45314627Y-60669684D01*
X45199242Y-60853725D01*
X45188198Y-60868711D01*
X45046564Y-61033402D01*
X45033402Y-61046564D01*
X44868711Y-61188198D01*
X44853725Y-61199242D01*
X44669684Y-61314627D01*
X44653215Y-61323304D01*
X44453976Y-61409838D01*
X44436394Y-61415951D01*
X44226445Y-61471685D01*
X44208145Y-61475097D01*
X43992339Y-61498761D01*
X43978823Y-61499500D01*
X36004428Y-61499500D01*
X35995582Y-61499184D01*
X35973622Y-61497613D01*
X35795442Y-61484869D01*
X35777931Y-61482351D01*
X35586209Y-61440645D01*
X35569234Y-61435661D01*
X35385394Y-61367093D01*
X35369300Y-61359743D01*
X35197091Y-61265709D01*
X35182208Y-61256144D01*
X35025135Y-61138561D01*
X35011764Y-61126975D01*
X34873024Y-60988235D01*
X34861438Y-60974864D01*
X34743855Y-60817791D01*
X34734290Y-60802908D01*
X34640256Y-60630699D01*
X34632909Y-60614611D01*
X34564336Y-60430760D01*
X34559354Y-60413790D01*
X34527863Y-60269028D01*
X34517647Y-60222063D01*
X34515130Y-60204556D01*
X34512358Y-60165802D01*
X34500816Y-60004418D01*
X34500500Y-59995572D01*
X34500500Y-59704893D01*
X34520185Y-59637854D01*
X34552261Y-59607272D01*
X34550863Y-59605450D01*
X34557307Y-59600503D01*
X34557314Y-59600500D01*
X34587819Y-59569995D01*
X34649142Y-59536510D01*
X34718834Y-59541494D01*
X34774767Y-59583366D01*
X34799184Y-59648830D01*
X34799500Y-59657676D01*
X34799500Y-59730855D01*
X34809913Y-59832776D01*
X34864637Y-59997922D01*
X34864642Y-59997933D01*
X34955971Y-60145999D01*
X34955974Y-60146003D01*
X35078996Y-60269025D01*
X35079000Y-60269028D01*
X35227066Y-60360357D01*
X35227069Y-60360358D01*
X35227075Y-60360362D01*
X35392225Y-60415087D01*
X35494152Y-60425500D01*
X35494157Y-60425500D01*
X36505843Y-60425500D01*
X36505848Y-60425500D01*
X36607775Y-60415087D01*
X36772925Y-60360362D01*
X36921003Y-60269026D01*
X37044026Y-60146003D01*
X37135362Y-59997925D01*
X37190087Y-59832775D01*
X37200500Y-59730848D01*
X37200500Y-59208308D01*
X37220185Y-59141269D01*
X37236819Y-59120627D01*
X37755273Y-58602173D01*
X37755277Y-58602169D01*
X37826465Y-58495627D01*
X37875501Y-58377244D01*
X37878334Y-58363000D01*
X37900500Y-58251569D01*
X37900500Y-51208168D01*
X37920185Y-51141129D01*
X37972989Y-51095374D01*
X38037754Y-51084879D01*
X38062127Y-51087500D01*
X38437872Y-51087499D01*
X38437875Y-51087498D01*
X38437887Y-51087498D01*
X38464376Y-51084649D01*
X38486748Y-51082245D01*
X38513250Y-51082245D01*
X38562127Y-51087500D01*
G37*
%TD.AperFunction*%
%TA.AperFunction,Conductor*%
G36*
X35643039Y-52705685D02*
G01*
X35688794Y-52758489D01*
X35700000Y-52810000D01*
X35700000Y-54186000D01*
X36397828Y-54186000D01*
X36397839Y-54185999D01*
X36462242Y-54179074D01*
X36531002Y-54191478D01*
X36582140Y-54239087D01*
X36599500Y-54302363D01*
X36599500Y-56450500D01*
X36579815Y-56517539D01*
X36527011Y-56563294D01*
X36475500Y-56574500D01*
X35494144Y-56574500D01*
X35392223Y-56584913D01*
X35227077Y-56639637D01*
X35227066Y-56639642D01*
X35079000Y-56730971D01*
X34951971Y-56858000D01*
X34890648Y-56891484D01*
X34820956Y-56886500D01*
X34765023Y-56844628D01*
X34740606Y-56779164D01*
X34744516Y-56738223D01*
X34750500Y-56715892D01*
X34750500Y-56584108D01*
X34716392Y-56456814D01*
X34650500Y-56342686D01*
X34620495Y-56312681D01*
X34587010Y-56251358D01*
X34591994Y-56181666D01*
X34620495Y-56137319D01*
X34650500Y-56107314D01*
X34716392Y-55993186D01*
X34750500Y-55865892D01*
X34750500Y-55734108D01*
X34716392Y-55606814D01*
X34650500Y-55492686D01*
X34557314Y-55399500D01*
X34557311Y-55399498D01*
X34550865Y-55394552D01*
X34552675Y-55392192D01*
X34514280Y-55351920D01*
X34500500Y-55295107D01*
X34500500Y-54310000D01*
X34520185Y-54242961D01*
X34572989Y-54197206D01*
X34624500Y-54186000D01*
X35200000Y-54186000D01*
X35200000Y-52810000D01*
X35219685Y-52742961D01*
X35272489Y-52697206D01*
X35324000Y-52686000D01*
X35576000Y-52686000D01*
X35643039Y-52705685D01*
G37*
%TD.AperFunction*%
%TA.AperFunction,Conductor*%
G36*
X44004418Y-20500816D02*
G01*
X44204561Y-20515130D01*
X44222063Y-20517647D01*
X44413795Y-20559355D01*
X44430760Y-20564336D01*
X44614611Y-20632909D01*
X44630694Y-20640253D01*
X44747495Y-20704032D01*
X44802908Y-20734290D01*
X44817791Y-20743855D01*
X44974864Y-20861438D01*
X44988235Y-20873024D01*
X45126975Y-21011764D01*
X45138561Y-21025135D01*
X45256144Y-21182208D01*
X45265709Y-21197091D01*
X45359743Y-21369300D01*
X45367093Y-21385394D01*
X45435661Y-21569234D01*
X45440645Y-21586209D01*
X45482351Y-21777931D01*
X45484869Y-21795442D01*
X45499184Y-21995580D01*
X45499500Y-22004427D01*
X45499500Y-51062000D01*
X45479815Y-51129039D01*
X45427011Y-51174794D01*
X45375500Y-51186000D01*
X45114416Y-51186000D01*
X45047377Y-51166315D01*
X45001622Y-51113511D01*
X44992899Y-51061148D01*
X44990500Y-51061148D01*
X44990500Y-50897369D01*
X44990499Y-50897367D01*
X44959737Y-50742717D01*
X44909249Y-50620828D01*
X44899397Y-50597042D01*
X44899396Y-50597041D01*
X44899394Y-50597035D01*
X44861396Y-50540167D01*
X44840520Y-50473490D01*
X44840500Y-50471278D01*
X44840500Y-42925928D01*
X44815502Y-42800261D01*
X44815501Y-42800260D01*
X44815501Y-42800256D01*
X44766465Y-42681873D01*
X44761228Y-42674035D01*
X44761224Y-42674029D01*
X44761224Y-42674028D01*
X44695275Y-42575328D01*
X44695272Y-42575325D01*
X42232330Y-40112384D01*
X42198845Y-40051061D01*
X42197538Y-40005310D01*
X42200500Y-39986611D01*
X42200500Y-39813389D01*
X42173402Y-39642299D01*
X42119873Y-39477555D01*
X42041232Y-39323212D01*
X41939414Y-39183072D01*
X41816928Y-39060586D01*
X41746858Y-39009677D01*
X41676786Y-38958766D01*
X41582027Y-38910485D01*
X41531230Y-38862511D01*
X41514435Y-38794690D01*
X41536972Y-38728555D01*
X41582027Y-38689515D01*
X41676786Y-38641233D01*
X41676785Y-38641233D01*
X41676788Y-38641232D01*
X41816928Y-38539414D01*
X41939414Y-38416928D01*
X42041232Y-38276788D01*
X42119873Y-38122445D01*
X42173402Y-37957701D01*
X42200500Y-37786611D01*
X42200500Y-37613389D01*
X42173402Y-37442299D01*
X42119873Y-37277555D01*
X42041232Y-37123212D01*
X41939414Y-36983072D01*
X41816928Y-36860586D01*
X41676788Y-36758768D01*
X41581475Y-36710204D01*
X41530679Y-36662230D01*
X41513884Y-36594409D01*
X41536421Y-36528274D01*
X41581475Y-36489234D01*
X41676525Y-36440803D01*
X41682736Y-36436289D01*
X41682737Y-36436289D01*
X41146448Y-35900000D01*
X41152661Y-35900000D01*
X41254394Y-35872741D01*
X41345606Y-35820080D01*
X41420080Y-35745606D01*
X41472741Y-35654394D01*
X41500000Y-35552661D01*
X41500000Y-35546448D01*
X42036289Y-36082737D01*
X42036289Y-36082736D01*
X42040803Y-36076525D01*
X42119408Y-35922257D01*
X42172914Y-35757584D01*
X42200000Y-35586571D01*
X42200000Y-35413428D01*
X42172914Y-35242415D01*
X42119408Y-35077742D01*
X42040801Y-34923471D01*
X42036290Y-34917262D01*
X42036289Y-34917261D01*
X41500000Y-35453551D01*
X41500000Y-35447339D01*
X41472741Y-35345606D01*
X41420080Y-35254394D01*
X41345606Y-35179920D01*
X41254394Y-35127259D01*
X41152661Y-35100000D01*
X41146447Y-35100000D01*
X41682737Y-34563709D01*
X41676525Y-34559196D01*
X41522259Y-34480592D01*
X41357584Y-34427085D01*
X41186571Y-34400000D01*
X41013429Y-34400000D01*
X40842415Y-34427085D01*
X40677740Y-34480592D01*
X40523480Y-34559193D01*
X40523463Y-34559203D01*
X40517261Y-34563708D01*
X40517261Y-34563709D01*
X41053554Y-35100000D01*
X41047339Y-35100000D01*
X40945606Y-35127259D01*
X40854394Y-35179920D01*
X40779920Y-35254394D01*
X40727259Y-35345606D01*
X40700000Y-35447339D01*
X40700000Y-35453552D01*
X40163709Y-34917261D01*
X40163708Y-34917261D01*
X40159203Y-34923463D01*
X40159192Y-34923481D01*
X40110764Y-35018525D01*
X40062789Y-35069321D01*
X39994968Y-35086115D01*
X39928833Y-35063577D01*
X39889795Y-35018523D01*
X39841233Y-34923213D01*
X39825937Y-34902160D01*
X39739414Y-34783072D01*
X39616928Y-34660586D01*
X39476788Y-34558768D01*
X39322445Y-34480127D01*
X39157701Y-34426598D01*
X39157699Y-34426597D01*
X39157698Y-34426597D01*
X39026271Y-34405781D01*
X38986611Y-34399500D01*
X38813389Y-34399500D01*
X38773728Y-34405781D01*
X38642302Y-34426597D01*
X38477552Y-34480128D01*
X38323211Y-34558768D01*
X38243256Y-34616859D01*
X38183072Y-34660586D01*
X38183070Y-34660588D01*
X38183069Y-34660588D01*
X38060588Y-34783069D01*
X38060588Y-34783070D01*
X38060586Y-34783072D01*
X38016859Y-34843256D01*
X37958768Y-34923211D01*
X37880128Y-35077552D01*
X37826597Y-35242302D01*
X37799500Y-35413389D01*
X37799500Y-35586616D01*
X37802460Y-35605306D01*
X37793505Y-35674599D01*
X37767668Y-35712384D01*
X34994726Y-38485326D01*
X34923534Y-38591874D01*
X34874499Y-38710255D01*
X34874497Y-38710261D01*
X34849500Y-38835928D01*
X34849500Y-50495064D01*
X34846556Y-50507572D01*
X34847572Y-50516846D01*
X34839881Y-50535944D01*
X34836491Y-50550355D01*
X34832979Y-50557403D01*
X34790606Y-50620821D01*
X34737409Y-50749250D01*
X34735491Y-50753101D01*
X34714540Y-50775691D01*
X34695220Y-50799666D01*
X34691002Y-50801069D01*
X34687979Y-50804330D01*
X34658148Y-50812004D01*
X34628926Y-50821731D01*
X34624617Y-50820631D01*
X34620313Y-50821739D01*
X34591073Y-50812069D01*
X34561227Y-50804452D01*
X34558197Y-50801197D01*
X34553976Y-50799802D01*
X34534603Y-50775856D01*
X34513616Y-50753315D01*
X34512481Y-50748512D01*
X34510030Y-50745483D01*
X34508532Y-50731803D01*
X34500500Y-50697810D01*
X34500500Y-28284298D01*
X36249500Y-28284298D01*
X36249500Y-29440701D01*
X36252401Y-29477567D01*
X36252402Y-29477573D01*
X36298254Y-29635393D01*
X36298255Y-29635396D01*
X36381917Y-29776862D01*
X36381923Y-29776870D01*
X36498129Y-29893076D01*
X36498140Y-29893085D01*
X36498455Y-29893271D01*
X36498650Y-29893480D01*
X36504298Y-29897861D01*
X36503591Y-29898772D01*
X36546136Y-29944343D01*
X36558637Y-30013085D01*
X36531988Y-30077673D01*
X36504078Y-30101856D01*
X36504298Y-30102139D01*
X36499092Y-30106176D01*
X36498455Y-30106729D01*
X36498140Y-30106914D01*
X36498129Y-30106923D01*
X36381923Y-30223129D01*
X36381917Y-30223137D01*
X36298255Y-30364603D01*
X36298254Y-30364606D01*
X36252402Y-30522426D01*
X36252401Y-30522432D01*
X36249500Y-30559298D01*
X36249500Y-31715701D01*
X36252401Y-31752567D01*
X36252402Y-31752573D01*
X36298254Y-31910393D01*
X36298255Y-31910396D01*
X36381917Y-32051862D01*
X36381923Y-32051870D01*
X36498129Y-32168076D01*
X36498133Y-32168079D01*
X36498135Y-32168081D01*
X36639602Y-32251744D01*
X36680197Y-32263538D01*
X36797426Y-32297597D01*
X36797429Y-32297597D01*
X36797431Y-32297598D01*
X36834306Y-32300500D01*
X36834314Y-32300500D01*
X37265686Y-32300500D01*
X37265694Y-32300500D01*
X37302569Y-32297598D01*
X37302571Y-32297597D01*
X37302573Y-32297597D01*
X37350457Y-32283685D01*
X37460398Y-32251744D01*
X37461874Y-32250870D01*
X37463183Y-32250538D01*
X37467557Y-32248646D01*
X37467862Y-32249351D01*
X37529597Y-32233685D01*
X37582229Y-32249139D01*
X37582443Y-32248646D01*
X37586441Y-32250376D01*
X37588125Y-32250870D01*
X37589602Y-32251744D01*
X37630197Y-32263538D01*
X37747426Y-32297597D01*
X37747429Y-32297597D01*
X37747431Y-32297598D01*
X37784306Y-32300500D01*
X37784314Y-32300500D01*
X38215686Y-32300500D01*
X38215694Y-32300500D01*
X38252569Y-32297598D01*
X38252571Y-32297597D01*
X38252573Y-32297597D01*
X38300457Y-32283685D01*
X38410398Y-32251744D01*
X38411874Y-32250870D01*
X38413183Y-32250538D01*
X38417557Y-32248646D01*
X38417862Y-32249351D01*
X38479597Y-32233685D01*
X38532229Y-32249139D01*
X38532443Y-32248646D01*
X38536441Y-32250376D01*
X38538125Y-32250870D01*
X38539602Y-32251744D01*
X38580197Y-32263538D01*
X38697426Y-32297597D01*
X38697429Y-32297597D01*
X38697431Y-32297598D01*
X38734306Y-32300500D01*
X38734314Y-32300500D01*
X39165686Y-32300500D01*
X39165694Y-32300500D01*
X39202569Y-32297598D01*
X39202571Y-32297597D01*
X39202573Y-32297597D01*
X39250457Y-32283685D01*
X39360398Y-32251744D01*
X39501865Y-32168081D01*
X39618081Y-32051865D01*
X39701744Y-31910398D01*
X39747598Y-31752569D01*
X39750500Y-31715694D01*
X39750500Y-30559306D01*
X39747598Y-30522431D01*
X39716270Y-30414602D01*
X39701745Y-30364606D01*
X39701744Y-30364603D01*
X39701744Y-30364602D01*
X39618081Y-30223135D01*
X39618079Y-30223133D01*
X39618076Y-30223129D01*
X39501870Y-30106923D01*
X39501867Y-30106921D01*
X39501865Y-30106919D01*
X39501549Y-30106732D01*
X39501353Y-30106522D01*
X39495702Y-30102139D01*
X39496409Y-30101227D01*
X39453866Y-30055664D01*
X39441362Y-29986923D01*
X39468006Y-29922333D01*
X39495921Y-29898144D01*
X39495702Y-29897861D01*
X39500911Y-29893820D01*
X39501550Y-29893267D01*
X39501865Y-29893081D01*
X39618081Y-29776865D01*
X39701744Y-29635398D01*
X39747598Y-29477569D01*
X39750500Y-29440694D01*
X39750500Y-28334298D01*
X40249500Y-28334298D01*
X40249500Y-29490701D01*
X40252401Y-29527567D01*
X40252402Y-29527573D01*
X40298254Y-29685393D01*
X40298255Y-29685396D01*
X40381917Y-29826862D01*
X40381923Y-29826870D01*
X40498129Y-29943076D01*
X40498140Y-29943085D01*
X40498455Y-29943271D01*
X40498650Y-29943480D01*
X40504298Y-29947861D01*
X40503591Y-29948772D01*
X40546136Y-29994343D01*
X40558637Y-30063085D01*
X40531988Y-30127673D01*
X40504078Y-30151856D01*
X40504298Y-30152139D01*
X40499092Y-30156176D01*
X40498455Y-30156729D01*
X40498140Y-30156914D01*
X40498129Y-30156923D01*
X40381923Y-30273129D01*
X40381917Y-30273137D01*
X40298255Y-30414603D01*
X40298254Y-30414606D01*
X40252402Y-30572426D01*
X40252401Y-30572432D01*
X40249500Y-30609298D01*
X40249500Y-31765701D01*
X40252401Y-31802567D01*
X40252402Y-31802573D01*
X40298254Y-31960393D01*
X40298255Y-31960396D01*
X40381917Y-32101862D01*
X40381923Y-32101870D01*
X40498129Y-32218076D01*
X40498133Y-32218079D01*
X40498135Y-32218081D01*
X40639602Y-32301744D01*
X40681224Y-32313836D01*
X40797426Y-32347597D01*
X40797429Y-32347597D01*
X40797431Y-32347598D01*
X40834306Y-32350500D01*
X40834314Y-32350500D01*
X41265686Y-32350500D01*
X41265694Y-32350500D01*
X41302569Y-32347598D01*
X41302571Y-32347597D01*
X41302573Y-32347597D01*
X41344191Y-32335505D01*
X41460398Y-32301744D01*
X41461874Y-32300870D01*
X41463183Y-32300538D01*
X41467557Y-32298646D01*
X41467862Y-32299351D01*
X41529597Y-32283685D01*
X41582229Y-32299139D01*
X41582443Y-32298646D01*
X41586441Y-32300376D01*
X41588125Y-32300870D01*
X41589602Y-32301744D01*
X41631224Y-32313836D01*
X41747426Y-32347597D01*
X41747429Y-32347597D01*
X41747431Y-32347598D01*
X41784306Y-32350500D01*
X41784314Y-32350500D01*
X42215686Y-32350500D01*
X42215694Y-32350500D01*
X42252569Y-32347598D01*
X42252571Y-32347597D01*
X42252573Y-32347597D01*
X42294191Y-32335505D01*
X42410398Y-32301744D01*
X42411874Y-32300870D01*
X42413183Y-32300538D01*
X42417557Y-32298646D01*
X42417862Y-32299351D01*
X42479597Y-32283685D01*
X42532229Y-32299139D01*
X42532443Y-32298646D01*
X42536441Y-32300376D01*
X42538125Y-32300870D01*
X42539602Y-32301744D01*
X42581224Y-32313836D01*
X42697426Y-32347597D01*
X42697429Y-32347597D01*
X42697431Y-32347598D01*
X42734306Y-32350500D01*
X42734314Y-32350500D01*
X43165686Y-32350500D01*
X43165694Y-32350500D01*
X43202569Y-32347598D01*
X43202571Y-32347597D01*
X43202573Y-32347597D01*
X43244191Y-32335505D01*
X43360398Y-32301744D01*
X43501865Y-32218081D01*
X43618081Y-32101865D01*
X43701744Y-31960398D01*
X43747598Y-31802569D01*
X43750500Y-31765694D01*
X43750500Y-30609306D01*
X43747598Y-30572431D01*
X43743782Y-30559298D01*
X43701745Y-30414606D01*
X43701744Y-30414603D01*
X43701744Y-30414602D01*
X43618081Y-30273135D01*
X43618079Y-30273133D01*
X43618076Y-30273129D01*
X43501870Y-30156923D01*
X43501867Y-30156921D01*
X43501865Y-30156919D01*
X43501549Y-30156732D01*
X43501353Y-30156522D01*
X43495702Y-30152139D01*
X43496409Y-30151227D01*
X43453866Y-30105664D01*
X43441362Y-30036923D01*
X43468006Y-29972333D01*
X43495921Y-29948144D01*
X43495702Y-29947861D01*
X43500911Y-29943820D01*
X43501550Y-29943267D01*
X43501865Y-29943081D01*
X43618081Y-29826865D01*
X43701744Y-29685398D01*
X43747598Y-29527569D01*
X43750500Y-29490694D01*
X43750500Y-28334306D01*
X43747598Y-28297431D01*
X43743782Y-28284298D01*
X43701745Y-28139606D01*
X43701744Y-28139603D01*
X43701744Y-28139602D01*
X43618081Y-27998135D01*
X43618079Y-27998133D01*
X43618076Y-27998129D01*
X43501870Y-27881923D01*
X43501862Y-27881917D01*
X43366419Y-27801817D01*
X43360398Y-27798256D01*
X43360397Y-27798255D01*
X43360396Y-27798255D01*
X43360393Y-27798254D01*
X43202573Y-27752402D01*
X43202567Y-27752401D01*
X43165701Y-27749500D01*
X43165694Y-27749500D01*
X42734306Y-27749500D01*
X42734298Y-27749500D01*
X42697432Y-27752401D01*
X42697426Y-27752402D01*
X42539607Y-27798254D01*
X42539594Y-27798259D01*
X42537620Y-27799427D01*
X42535872Y-27799870D01*
X42532441Y-27801355D01*
X42532201Y-27800801D01*
X42469895Y-27816603D01*
X42417601Y-27801248D01*
X42417356Y-27801816D01*
X42412758Y-27799826D01*
X42411398Y-27799427D01*
X42410203Y-27798720D01*
X42410193Y-27798716D01*
X42252494Y-27752900D01*
X42252497Y-27752900D01*
X42250000Y-27752703D01*
X42250000Y-28018184D01*
X42232733Y-28081304D01*
X42198254Y-28139605D01*
X42198254Y-28139606D01*
X42152402Y-28297426D01*
X42152401Y-28297432D01*
X42149500Y-28334298D01*
X42149500Y-28788500D01*
X42146949Y-28797185D01*
X42148238Y-28806147D01*
X42137259Y-28830187D01*
X42129815Y-28855539D01*
X42122974Y-28861466D01*
X42119213Y-28869703D01*
X42096978Y-28883992D01*
X42077011Y-28901294D01*
X42066496Y-28903581D01*
X42060435Y-28907477D01*
X42025500Y-28912500D01*
X41974500Y-28912500D01*
X41907461Y-28892815D01*
X41861706Y-28840011D01*
X41850500Y-28788500D01*
X41850500Y-28334313D01*
X41850499Y-28334298D01*
X41847598Y-28297432D01*
X41847597Y-28297426D01*
X41801745Y-28139606D01*
X41801745Y-28139605D01*
X41801744Y-28139603D01*
X41801744Y-28139602D01*
X41767267Y-28081304D01*
X41750000Y-28018184D01*
X41750000Y-27752703D01*
X41747504Y-27752900D01*
X41589806Y-27798716D01*
X41589791Y-27798722D01*
X41588599Y-27799428D01*
X41587543Y-27799695D01*
X41582641Y-27801817D01*
X41582298Y-27801025D01*
X41520873Y-27816603D01*
X41467710Y-27800992D01*
X41467554Y-27801353D01*
X41464630Y-27800087D01*
X41462377Y-27799426D01*
X41460399Y-27798256D01*
X41460393Y-27798254D01*
X41302573Y-27752402D01*
X41302567Y-27752401D01*
X41265701Y-27749500D01*
X41265694Y-27749500D01*
X40834306Y-27749500D01*
X40834298Y-27749500D01*
X40797432Y-27752401D01*
X40797426Y-27752402D01*
X40639606Y-27798254D01*
X40639603Y-27798255D01*
X40498137Y-27881917D01*
X40498129Y-27881923D01*
X40381923Y-27998129D01*
X40381917Y-27998137D01*
X40298255Y-28139603D01*
X40298254Y-28139606D01*
X40252402Y-28297426D01*
X40252401Y-28297432D01*
X40249500Y-28334298D01*
X39750500Y-28334298D01*
X39750500Y-28284306D01*
X39747598Y-28247431D01*
X39716270Y-28139602D01*
X39701745Y-28089606D01*
X39701744Y-28089603D01*
X39701744Y-28089602D01*
X39618081Y-27948135D01*
X39618079Y-27948133D01*
X39618076Y-27948129D01*
X39501870Y-27831923D01*
X39501862Y-27831917D01*
X39391421Y-27766603D01*
X39360398Y-27748256D01*
X39360397Y-27748255D01*
X39360396Y-27748255D01*
X39360393Y-27748254D01*
X39202573Y-27702402D01*
X39202567Y-27702401D01*
X39165701Y-27699500D01*
X39165694Y-27699500D01*
X38734306Y-27699500D01*
X38734298Y-27699500D01*
X38697432Y-27702401D01*
X38697426Y-27702402D01*
X38539607Y-27748254D01*
X38539594Y-27748259D01*
X38537620Y-27749427D01*
X38535872Y-27749870D01*
X38532441Y-27751355D01*
X38532201Y-27750801D01*
X38469895Y-27766603D01*
X38417601Y-27751248D01*
X38417356Y-27751816D01*
X38412758Y-27749826D01*
X38411398Y-27749427D01*
X38410203Y-27748720D01*
X38410193Y-27748716D01*
X38252494Y-27702900D01*
X38252497Y-27702900D01*
X38250000Y-27702703D01*
X38250000Y-27968184D01*
X38232733Y-28031304D01*
X38198254Y-28089605D01*
X38198254Y-28089606D01*
X38152402Y-28247426D01*
X38152401Y-28247432D01*
X38149500Y-28284298D01*
X38149500Y-28738500D01*
X38146949Y-28747185D01*
X38148238Y-28756147D01*
X38137259Y-28780187D01*
X38129815Y-28805539D01*
X38122974Y-28811466D01*
X38119213Y-28819703D01*
X38096978Y-28833992D01*
X38077011Y-28851294D01*
X38066496Y-28853581D01*
X38060435Y-28857477D01*
X38025500Y-28862500D01*
X37974500Y-28862500D01*
X37907461Y-28842815D01*
X37861706Y-28790011D01*
X37850500Y-28738500D01*
X37850500Y-28284313D01*
X37850499Y-28284298D01*
X37847598Y-28247432D01*
X37847597Y-28247426D01*
X37801745Y-28089606D01*
X37801745Y-28089605D01*
X37801744Y-28089603D01*
X37801744Y-28089602D01*
X37767267Y-28031304D01*
X37750000Y-27968184D01*
X37750000Y-27702703D01*
X37747504Y-27702900D01*
X37589806Y-27748716D01*
X37589791Y-27748722D01*
X37588599Y-27749428D01*
X37587543Y-27749695D01*
X37582641Y-27751817D01*
X37582298Y-27751025D01*
X37520873Y-27766603D01*
X37467710Y-27750992D01*
X37467554Y-27751353D01*
X37464630Y-27750087D01*
X37462377Y-27749426D01*
X37460399Y-27748256D01*
X37460393Y-27748254D01*
X37302573Y-27702402D01*
X37302567Y-27702401D01*
X37265701Y-27699500D01*
X37265694Y-27699500D01*
X36834306Y-27699500D01*
X36834298Y-27699500D01*
X36797432Y-27702401D01*
X36797426Y-27702402D01*
X36639606Y-27748254D01*
X36639603Y-27748255D01*
X36498137Y-27831917D01*
X36498129Y-27831923D01*
X36381923Y-27948129D01*
X36381917Y-27948137D01*
X36298255Y-28089603D01*
X36298254Y-28089606D01*
X36252402Y-28247426D01*
X36252401Y-28247432D01*
X36249500Y-28284298D01*
X34500500Y-28284298D01*
X34500500Y-26704893D01*
X34520185Y-26637854D01*
X34552261Y-26607272D01*
X34550863Y-26605450D01*
X34557307Y-26600503D01*
X34557314Y-26600500D01*
X34650500Y-26507314D01*
X34716392Y-26393186D01*
X34750500Y-26265892D01*
X34750500Y-26134108D01*
X34716392Y-26006814D01*
X34650500Y-25892686D01*
X34620495Y-25862681D01*
X34587010Y-25801358D01*
X34591994Y-25731666D01*
X34620495Y-25687319D01*
X34650500Y-25657314D01*
X34716392Y-25543186D01*
X34750500Y-25415892D01*
X34750500Y-25284108D01*
X34716392Y-25156814D01*
X34650500Y-25042686D01*
X34620495Y-25012681D01*
X34587010Y-24951358D01*
X34591994Y-24881666D01*
X34620495Y-24837319D01*
X34650500Y-24807314D01*
X34716392Y-24693186D01*
X34750500Y-24565892D01*
X34750500Y-24434108D01*
X34716392Y-24306814D01*
X34650500Y-24192686D01*
X34620495Y-24162681D01*
X34587010Y-24101358D01*
X34591994Y-24031666D01*
X34620495Y-23987319D01*
X34650500Y-23957314D01*
X34716392Y-23843186D01*
X34750500Y-23715892D01*
X34750500Y-23584108D01*
X34716392Y-23456814D01*
X34650500Y-23342686D01*
X34620495Y-23312681D01*
X34587010Y-23251358D01*
X34591994Y-23181666D01*
X34620495Y-23137319D01*
X34650500Y-23107314D01*
X34716392Y-22993186D01*
X34750500Y-22865892D01*
X34750500Y-22734108D01*
X34716392Y-22606814D01*
X34650500Y-22492686D01*
X34557314Y-22399500D01*
X34557311Y-22399498D01*
X34550865Y-22394552D01*
X34552675Y-22392192D01*
X34514280Y-22351920D01*
X34500500Y-22295107D01*
X34500500Y-22004427D01*
X34500816Y-21995581D01*
X34515130Y-21795443D01*
X34515131Y-21795434D01*
X34517646Y-21777938D01*
X34559356Y-21586200D01*
X34564335Y-21569242D01*
X34632911Y-21385382D01*
X34640251Y-21369310D01*
X34734294Y-21197083D01*
X34743850Y-21182214D01*
X34861443Y-21025128D01*
X34873017Y-21011771D01*
X35011771Y-20873017D01*
X35025128Y-20861443D01*
X35182214Y-20743850D01*
X35197083Y-20734294D01*
X35369310Y-20640251D01*
X35385382Y-20632911D01*
X35569242Y-20564335D01*
X35586200Y-20559356D01*
X35777938Y-20517646D01*
X35795436Y-20515130D01*
X35995582Y-20500816D01*
X36004428Y-20500500D01*
X36065892Y-20500500D01*
X43934108Y-20500500D01*
X43995572Y-20500500D01*
X44004418Y-20500816D01*
G37*
%TD.AperFunction*%
%TA.AperFunction,Conductor*%
G36*
X40700000Y-35552661D02*
G01*
X40727259Y-35654394D01*
X40779920Y-35745606D01*
X40854394Y-35820080D01*
X40945606Y-35872741D01*
X41047339Y-35900000D01*
X41053553Y-35900000D01*
X40517261Y-36436289D01*
X40517262Y-36436290D01*
X40523471Y-36440801D01*
X40618524Y-36489234D01*
X40669320Y-36537209D01*
X40686115Y-36605030D01*
X40663577Y-36671165D01*
X40618524Y-36710204D01*
X40523211Y-36758768D01*
X40443256Y-36816859D01*
X40383072Y-36860586D01*
X40383070Y-36860588D01*
X40383069Y-36860588D01*
X40260588Y-36983069D01*
X40260588Y-36983070D01*
X40260586Y-36983072D01*
X40216859Y-37043256D01*
X40158768Y-37123211D01*
X40110485Y-37217973D01*
X40062510Y-37268769D01*
X39994689Y-37285564D01*
X39928555Y-37263027D01*
X39889515Y-37217973D01*
X39841231Y-37123211D01*
X39739414Y-36983072D01*
X39616928Y-36860586D01*
X39546858Y-36809677D01*
X39476786Y-36758766D01*
X39382027Y-36710485D01*
X39331230Y-36662511D01*
X39314435Y-36594690D01*
X39336972Y-36528555D01*
X39382027Y-36489515D01*
X39476786Y-36441233D01*
X39476785Y-36441233D01*
X39476788Y-36441232D01*
X39616928Y-36339414D01*
X39739414Y-36216928D01*
X39841232Y-36076788D01*
X39889796Y-35981474D01*
X39937768Y-35930680D01*
X40005589Y-35913884D01*
X40071724Y-35936421D01*
X40110764Y-35981474D01*
X40159196Y-36076524D01*
X40163709Y-36082736D01*
X40163709Y-36082737D01*
X40700000Y-35546446D01*
X40700000Y-35552661D01*
G37*
%TD.AperFunction*%
%TD*%
%TA.AperFunction,Conductor*%
%TO.N,/Host/GND*%
G36*
X27562127Y-51087500D02*
G01*
X27937872Y-51087499D01*
X27937876Y-51087498D01*
X27937885Y-51087498D01*
X27954305Y-51085732D01*
X27962243Y-51084879D01*
X28031002Y-51097283D01*
X28082141Y-51144893D01*
X28099500Y-51208168D01*
X28099500Y-58314071D01*
X28121665Y-58425496D01*
X28121665Y-58425497D01*
X28124497Y-58439736D01*
X28124501Y-58439749D01*
X28173532Y-58558123D01*
X28205503Y-58605971D01*
X28244271Y-58663993D01*
X28244726Y-58664673D01*
X28244727Y-58664674D01*
X28763181Y-59183127D01*
X28796666Y-59244450D01*
X28799500Y-59270808D01*
X28799500Y-59793355D01*
X28809913Y-59895276D01*
X28864637Y-60060422D01*
X28864642Y-60060433D01*
X28955971Y-60208499D01*
X28955974Y-60208503D01*
X29078996Y-60331525D01*
X29079000Y-60331528D01*
X29227066Y-60422857D01*
X29227069Y-60422858D01*
X29227075Y-60422862D01*
X29392225Y-60477587D01*
X29494152Y-60488000D01*
X29494157Y-60488000D01*
X30505843Y-60488000D01*
X30505848Y-60488000D01*
X30607775Y-60477587D01*
X30772925Y-60422862D01*
X30921003Y-60331526D01*
X31044026Y-60208503D01*
X31135362Y-60060425D01*
X31190087Y-59895275D01*
X31200500Y-59793348D01*
X31200500Y-59657676D01*
X31206083Y-59638659D01*
X31206736Y-59618846D01*
X31215726Y-59605819D01*
X31220185Y-59590637D01*
X31235163Y-59577657D01*
X31246424Y-59561343D01*
X31261029Y-59555245D01*
X31272989Y-59544882D01*
X31292607Y-59542061D01*
X31310900Y-59534424D01*
X31326482Y-59537190D01*
X31342147Y-59534938D01*
X31360177Y-59543172D01*
X31379694Y-59546637D01*
X31400463Y-59561570D01*
X31405703Y-59563963D01*
X31408742Y-59566685D01*
X31410481Y-59568295D01*
X31442686Y-59600500D01*
X31449540Y-59604457D01*
X31459742Y-59613902D01*
X31470811Y-59632439D01*
X31485710Y-59648062D01*
X31489523Y-59663778D01*
X31495562Y-59673891D01*
X31495133Y-59686899D01*
X31499500Y-59704893D01*
X31499500Y-59978821D01*
X31498761Y-59992337D01*
X31475097Y-60208145D01*
X31471685Y-60226445D01*
X31415951Y-60436394D01*
X31409838Y-60453976D01*
X31323304Y-60653215D01*
X31314627Y-60669684D01*
X31199242Y-60853725D01*
X31188198Y-60868711D01*
X31046564Y-61033402D01*
X31033402Y-61046564D01*
X30868711Y-61188198D01*
X30853725Y-61199242D01*
X30669684Y-61314627D01*
X30653215Y-61323304D01*
X30453976Y-61409838D01*
X30436394Y-61415951D01*
X30226445Y-61471685D01*
X30208145Y-61475097D01*
X29992339Y-61498761D01*
X29978823Y-61499500D01*
X22004428Y-61499500D01*
X21995582Y-61499184D01*
X21973622Y-61497613D01*
X21795442Y-61484869D01*
X21777931Y-61482351D01*
X21586209Y-61440645D01*
X21569234Y-61435661D01*
X21385394Y-61367093D01*
X21369300Y-61359743D01*
X21197091Y-61265709D01*
X21182208Y-61256144D01*
X21025135Y-61138561D01*
X21011764Y-61126975D01*
X20873024Y-60988235D01*
X20861438Y-60974864D01*
X20743855Y-60817791D01*
X20734290Y-60802908D01*
X20640256Y-60630699D01*
X20632909Y-60614611D01*
X20564336Y-60430760D01*
X20559354Y-60413790D01*
X20541459Y-60331528D01*
X20517647Y-60222063D01*
X20515130Y-60204556D01*
X20512358Y-60165802D01*
X20500816Y-60004418D01*
X20500500Y-59995572D01*
X20500500Y-54310000D01*
X20520185Y-54242961D01*
X20572989Y-54197206D01*
X20624500Y-54186000D01*
X21200000Y-54186000D01*
X21700000Y-54186000D01*
X22397828Y-54186000D01*
X22397844Y-54185999D01*
X22457372Y-54179598D01*
X22457379Y-54179596D01*
X22592086Y-54129354D01*
X22592093Y-54129350D01*
X22707187Y-54043190D01*
X22707190Y-54043187D01*
X22793350Y-53928093D01*
X22793354Y-53928086D01*
X22843596Y-53793379D01*
X22843598Y-53793372D01*
X22849999Y-53733844D01*
X22850000Y-53733827D01*
X22850000Y-52936000D01*
X21700000Y-52936000D01*
X21700000Y-54186000D01*
X21200000Y-54186000D01*
X21200000Y-52810000D01*
X21219685Y-52742961D01*
X21272489Y-52697206D01*
X21324000Y-52686000D01*
X21450000Y-52686000D01*
X21450000Y-52560000D01*
X21469685Y-52492961D01*
X21522489Y-52447206D01*
X21574000Y-52436000D01*
X22850000Y-52436000D01*
X22850000Y-52011500D01*
X22869685Y-51944461D01*
X22922489Y-51898706D01*
X22974000Y-51887500D01*
X24703331Y-51887500D01*
X24703347Y-51887501D01*
X24710943Y-51887501D01*
X24869054Y-51887501D01*
X24869057Y-51887501D01*
X25021785Y-51846577D01*
X25101592Y-51800500D01*
X25158716Y-51767520D01*
X25270520Y-51655716D01*
X25270520Y-51655714D01*
X25280720Y-51645515D01*
X25280723Y-51645510D01*
X25387821Y-51538412D01*
X25449142Y-51504930D01*
X25518834Y-51509914D01*
X25574767Y-51551786D01*
X25599184Y-51617251D01*
X25599500Y-51626096D01*
X25599500Y-54866692D01*
X25579815Y-54933731D01*
X25563181Y-54954373D01*
X23372122Y-57145431D01*
X23310799Y-57178916D01*
X23241107Y-57173932D01*
X23185174Y-57132060D01*
X23166735Y-57096754D01*
X23135362Y-57002075D01*
X23135358Y-57002069D01*
X23135357Y-57002066D01*
X23044028Y-56854000D01*
X23044025Y-56853996D01*
X22921003Y-56730974D01*
X22920999Y-56730971D01*
X22772933Y-56639642D01*
X22772927Y-56639639D01*
X22772925Y-56639638D01*
X22764964Y-56637000D01*
X22607776Y-56584913D01*
X22505855Y-56574500D01*
X22505848Y-56574500D01*
X21494152Y-56574500D01*
X21494144Y-56574500D01*
X21392223Y-56584913D01*
X21227077Y-56639637D01*
X21227066Y-56639642D01*
X21079000Y-56730971D01*
X21078996Y-56730974D01*
X20955974Y-56853996D01*
X20955971Y-56854000D01*
X20864642Y-57002066D01*
X20864637Y-57002077D01*
X20809913Y-57167223D01*
X20799500Y-57269144D01*
X20799500Y-57855855D01*
X20809913Y-57957776D01*
X20864637Y-58122922D01*
X20864642Y-58122933D01*
X20955971Y-58270999D01*
X20955974Y-58271003D01*
X21078996Y-58394025D01*
X21079000Y-58394028D01*
X21079703Y-58394462D01*
X21080083Y-58394885D01*
X21084664Y-58398507D01*
X21084045Y-58399289D01*
X21126428Y-58446410D01*
X21137649Y-58515372D01*
X21109806Y-58579454D01*
X21084544Y-58601342D01*
X21084664Y-58601493D01*
X21081315Y-58604140D01*
X21079703Y-58605538D01*
X21079000Y-58605971D01*
X21078996Y-58605974D01*
X20955974Y-58728996D01*
X20955971Y-58729000D01*
X20864642Y-58877066D01*
X20864637Y-58877077D01*
X20809913Y-59042223D01*
X20799500Y-59144144D01*
X20799500Y-59730855D01*
X20809913Y-59832776D01*
X20864637Y-59997922D01*
X20864642Y-59997933D01*
X20955971Y-60145999D01*
X20955974Y-60146003D01*
X21078996Y-60269025D01*
X21079000Y-60269028D01*
X21227066Y-60360357D01*
X21227069Y-60360358D01*
X21227075Y-60360362D01*
X21392225Y-60415087D01*
X21494152Y-60425500D01*
X21494157Y-60425500D01*
X22505843Y-60425500D01*
X22505848Y-60425500D01*
X22607775Y-60415087D01*
X22772925Y-60360362D01*
X22921003Y-60269026D01*
X23044026Y-60146003D01*
X23135362Y-59997925D01*
X23190087Y-59832775D01*
X23200500Y-59730848D01*
X23200500Y-59208308D01*
X23220185Y-59141269D01*
X23236819Y-59120627D01*
X26755272Y-55602174D01*
X26755277Y-55602169D01*
X26826466Y-55495626D01*
X26875501Y-55377243D01*
X26889511Y-55306814D01*
X26900500Y-55251571D01*
X26900500Y-51208168D01*
X26920185Y-51141129D01*
X26972989Y-51095374D01*
X27037754Y-51084879D01*
X27062127Y-51087500D01*
X27437872Y-51087499D01*
X27437875Y-51087498D01*
X27437887Y-51087498D01*
X27464376Y-51084649D01*
X27486748Y-51082245D01*
X27513250Y-51082245D01*
X27562127Y-51087500D01*
G37*
%TD.AperFunction*%
%TA.AperFunction,Conductor*%
G36*
X30743039Y-52705685D02*
G01*
X30788794Y-52758489D01*
X30800000Y-52810000D01*
X30800000Y-54186000D01*
X31375500Y-54186000D01*
X31442539Y-54205685D01*
X31488294Y-54258489D01*
X31499500Y-54310000D01*
X31499500Y-55295107D01*
X31479815Y-55362146D01*
X31447739Y-55392732D01*
X31449135Y-55394552D01*
X31442683Y-55399502D01*
X31349502Y-55492683D01*
X31349500Y-55492686D01*
X31283608Y-55606812D01*
X31249500Y-55734108D01*
X31249500Y-55865891D01*
X31283608Y-55993187D01*
X31287253Y-55999500D01*
X31349500Y-56107314D01*
X31349502Y-56107316D01*
X31379505Y-56137319D01*
X31412990Y-56198642D01*
X31408006Y-56268334D01*
X31379505Y-56312681D01*
X31349502Y-56342683D01*
X31349500Y-56342686D01*
X31283608Y-56456812D01*
X31268553Y-56513000D01*
X31249500Y-56584108D01*
X31249500Y-56715892D01*
X31267573Y-56783343D01*
X31283255Y-56841867D01*
X31281592Y-56911717D01*
X31242429Y-56969579D01*
X31178201Y-56997083D01*
X31109299Y-56985496D01*
X31057942Y-56939058D01*
X31044026Y-56916497D01*
X30921003Y-56793474D01*
X30920999Y-56793471D01*
X30772933Y-56702142D01*
X30772927Y-56702139D01*
X30772925Y-56702138D01*
X30772922Y-56702137D01*
X30607776Y-56647413D01*
X30505855Y-56637000D01*
X30505848Y-56637000D01*
X29524500Y-56637000D01*
X29457461Y-56617315D01*
X29411706Y-56564511D01*
X29400500Y-56513000D01*
X29400500Y-54302363D01*
X29420185Y-54235324D01*
X29472989Y-54189569D01*
X29537758Y-54179074D01*
X29602160Y-54185999D01*
X29602172Y-54186000D01*
X30300000Y-54186000D01*
X30300000Y-52810000D01*
X30319685Y-52742961D01*
X30372489Y-52697206D01*
X30424000Y-52686000D01*
X30676000Y-52686000D01*
X30743039Y-52705685D01*
G37*
%TD.AperFunction*%
%TA.AperFunction,Conductor*%
G36*
X30004418Y-20500816D02*
G01*
X30204561Y-20515130D01*
X30222063Y-20517647D01*
X30413795Y-20559355D01*
X30430760Y-20564336D01*
X30614611Y-20632909D01*
X30630694Y-20640253D01*
X30747495Y-20704032D01*
X30802908Y-20734290D01*
X30817791Y-20743855D01*
X30974864Y-20861438D01*
X30988235Y-20873024D01*
X31126975Y-21011764D01*
X31138561Y-21025135D01*
X31256144Y-21182208D01*
X31265709Y-21197091D01*
X31359743Y-21369300D01*
X31367093Y-21385394D01*
X31435661Y-21569234D01*
X31440645Y-21586209D01*
X31482351Y-21777931D01*
X31484869Y-21795442D01*
X31499184Y-21995580D01*
X31499500Y-22004427D01*
X31499500Y-22295107D01*
X31479815Y-22362146D01*
X31447739Y-22392732D01*
X31449135Y-22394552D01*
X31442683Y-22399502D01*
X31349502Y-22492683D01*
X31349500Y-22492686D01*
X31283608Y-22606812D01*
X31249500Y-22734108D01*
X31249500Y-22865891D01*
X31283608Y-22993187D01*
X31287253Y-22999500D01*
X31349500Y-23107314D01*
X31349502Y-23107316D01*
X31379505Y-23137319D01*
X31412990Y-23198642D01*
X31408006Y-23268334D01*
X31379505Y-23312681D01*
X31349502Y-23342683D01*
X31349500Y-23342686D01*
X31283608Y-23456812D01*
X31249500Y-23584108D01*
X31249500Y-23715891D01*
X31283608Y-23843187D01*
X31310964Y-23890568D01*
X31349500Y-23957314D01*
X31349502Y-23957316D01*
X31379505Y-23987319D01*
X31412990Y-24048642D01*
X31408006Y-24118334D01*
X31379505Y-24162681D01*
X31349502Y-24192683D01*
X31349500Y-24192686D01*
X31283608Y-24306812D01*
X31249500Y-24434108D01*
X31249500Y-24565891D01*
X31283608Y-24693187D01*
X31316554Y-24750250D01*
X31349500Y-24807314D01*
X31349502Y-24807316D01*
X31379505Y-24837319D01*
X31412990Y-24898642D01*
X31408006Y-24968334D01*
X31379505Y-25012681D01*
X31349502Y-25042683D01*
X31349500Y-25042686D01*
X31283608Y-25156812D01*
X31249500Y-25284108D01*
X31249500Y-25415891D01*
X31283608Y-25543187D01*
X31316554Y-25600250D01*
X31349500Y-25657314D01*
X31349502Y-25657316D01*
X31379505Y-25687319D01*
X31412990Y-25748642D01*
X31408006Y-25818334D01*
X31379505Y-25862681D01*
X31349502Y-25892683D01*
X31349500Y-25892686D01*
X31283608Y-26006812D01*
X31249500Y-26134108D01*
X31249500Y-26265891D01*
X31283608Y-26393187D01*
X31316554Y-26450250D01*
X31349500Y-26507314D01*
X31442686Y-26600500D01*
X31442688Y-26600501D01*
X31449137Y-26605450D01*
X31447324Y-26607812D01*
X31485710Y-26648062D01*
X31499500Y-26704893D01*
X31499500Y-50697810D01*
X31497544Y-50704468D01*
X31498764Y-50711302D01*
X31487826Y-50737563D01*
X31479815Y-50764849D01*
X31474571Y-50769392D01*
X31471902Y-50775802D01*
X31448499Y-50791984D01*
X31427011Y-50810604D01*
X31420143Y-50811591D01*
X31414433Y-50815540D01*
X31386002Y-50816500D01*
X31357853Y-50820548D01*
X31351539Y-50817664D01*
X31344603Y-50817899D01*
X31320171Y-50803339D01*
X31294297Y-50791523D01*
X31289104Y-50784825D01*
X31284583Y-50782131D01*
X31272940Y-50763976D01*
X31264509Y-50753101D01*
X31262590Y-50749250D01*
X31209394Y-50620821D01*
X31167020Y-50557403D01*
X31163509Y-50550355D01*
X31158699Y-50523399D01*
X31150520Y-50497276D01*
X31150500Y-50495064D01*
X31150500Y-38835928D01*
X31125502Y-38710261D01*
X31125501Y-38710260D01*
X31125501Y-38710256D01*
X31076465Y-38591873D01*
X31005277Y-38485331D01*
X31005275Y-38485329D01*
X31005273Y-38485326D01*
X31005272Y-38485325D01*
X28232330Y-35712384D01*
X28198845Y-35651061D01*
X28197538Y-35605310D01*
X28200500Y-35586611D01*
X28200500Y-35413389D01*
X28173402Y-35242299D01*
X28119873Y-35077555D01*
X28041232Y-34923212D01*
X27939414Y-34783072D01*
X27816928Y-34660586D01*
X27676788Y-34558768D01*
X27522445Y-34480127D01*
X27357701Y-34426598D01*
X27357699Y-34426597D01*
X27357698Y-34426597D01*
X27226271Y-34405781D01*
X27186611Y-34399500D01*
X27013389Y-34399500D01*
X26973728Y-34405781D01*
X26842302Y-34426597D01*
X26677552Y-34480128D01*
X26523211Y-34558768D01*
X26443256Y-34616859D01*
X26383072Y-34660586D01*
X26383070Y-34660588D01*
X26383069Y-34660588D01*
X26260588Y-34783069D01*
X26260588Y-34783070D01*
X26260586Y-34783072D01*
X26216859Y-34843256D01*
X26158768Y-34923211D01*
X26110204Y-35018524D01*
X26062229Y-35069320D01*
X25994408Y-35086115D01*
X25928273Y-35063577D01*
X25889234Y-35018524D01*
X25840801Y-34923471D01*
X25836290Y-34917262D01*
X25836289Y-34917261D01*
X25300000Y-35453551D01*
X25300000Y-35447339D01*
X25272741Y-35345606D01*
X25220080Y-35254394D01*
X25145606Y-35179920D01*
X25054394Y-35127259D01*
X24952661Y-35100000D01*
X24946447Y-35100000D01*
X25482737Y-34563709D01*
X25476525Y-34559196D01*
X25322259Y-34480592D01*
X25157584Y-34427085D01*
X24986571Y-34400000D01*
X24813429Y-34400000D01*
X24642415Y-34427085D01*
X24477740Y-34480592D01*
X24323480Y-34559193D01*
X24323463Y-34559203D01*
X24317261Y-34563708D01*
X24317261Y-34563709D01*
X24853554Y-35100000D01*
X24847339Y-35100000D01*
X24745606Y-35127259D01*
X24654394Y-35179920D01*
X24579920Y-35254394D01*
X24527259Y-35345606D01*
X24500000Y-35447339D01*
X24500000Y-35453552D01*
X23963709Y-34917261D01*
X23963708Y-34917261D01*
X23959203Y-34923463D01*
X23959193Y-34923480D01*
X23880592Y-35077740D01*
X23827085Y-35242415D01*
X23800000Y-35413428D01*
X23800000Y-35586571D01*
X23827085Y-35757584D01*
X23880592Y-35922259D01*
X23959196Y-36076525D01*
X23963709Y-36082736D01*
X23963709Y-36082737D01*
X24500000Y-35546446D01*
X24500000Y-35552661D01*
X24527259Y-35654394D01*
X24579920Y-35745606D01*
X24654394Y-35820080D01*
X24745606Y-35872741D01*
X24847339Y-35900000D01*
X24853553Y-35900000D01*
X24317261Y-36436289D01*
X24317262Y-36436290D01*
X24323471Y-36440801D01*
X24418524Y-36489234D01*
X24469320Y-36537209D01*
X24486115Y-36605030D01*
X24463577Y-36671165D01*
X24418524Y-36710204D01*
X24323211Y-36758768D01*
X24243256Y-36816859D01*
X24183072Y-36860586D01*
X24183070Y-36860588D01*
X24183069Y-36860588D01*
X24060588Y-36983069D01*
X24060588Y-36983070D01*
X24060586Y-36983072D01*
X24016859Y-37043256D01*
X23958768Y-37123211D01*
X23880128Y-37277552D01*
X23826597Y-37442302D01*
X23799500Y-37613389D01*
X23799500Y-37786610D01*
X23822012Y-37928751D01*
X23826598Y-37957701D01*
X23880127Y-38122445D01*
X23958768Y-38276788D01*
X24060586Y-38416928D01*
X24183072Y-38539414D01*
X24323212Y-38641232D01*
X24383509Y-38671954D01*
X24417973Y-38689515D01*
X24468769Y-38737490D01*
X24485564Y-38805311D01*
X24463027Y-38871445D01*
X24417973Y-38910485D01*
X24323211Y-38958768D01*
X24243256Y-39016859D01*
X24183072Y-39060586D01*
X24183070Y-39060588D01*
X24183069Y-39060588D01*
X24060588Y-39183069D01*
X24060588Y-39183070D01*
X24060586Y-39183072D01*
X24033169Y-39220808D01*
X23958768Y-39323211D01*
X23880128Y-39477552D01*
X23826597Y-39642302D01*
X23799500Y-39813389D01*
X23799500Y-39986616D01*
X23802460Y-40005306D01*
X23793505Y-40074599D01*
X23767668Y-40112384D01*
X21304724Y-42575328D01*
X21238775Y-42674028D01*
X21238776Y-42674029D01*
X21233534Y-42681874D01*
X21184499Y-42800255D01*
X21184497Y-42800261D01*
X21159500Y-42925928D01*
X21159500Y-50471278D01*
X21139815Y-50538317D01*
X21138603Y-50540168D01*
X21100608Y-50597031D01*
X21100602Y-50597042D01*
X21040264Y-50742712D01*
X21040261Y-50742724D01*
X21009500Y-50897367D01*
X21009500Y-51061148D01*
X21006841Y-51061148D01*
X20995974Y-51118481D01*
X20947914Y-51169196D01*
X20885584Y-51186000D01*
X20624500Y-51186000D01*
X20557461Y-51166315D01*
X20511706Y-51113511D01*
X20500500Y-51062000D01*
X20500500Y-28284298D01*
X22299500Y-28284298D01*
X22299500Y-29440701D01*
X22302401Y-29477567D01*
X22302402Y-29477573D01*
X22348254Y-29635393D01*
X22348255Y-29635396D01*
X22431917Y-29776862D01*
X22431923Y-29776870D01*
X22548129Y-29893076D01*
X22548140Y-29893085D01*
X22548455Y-29893271D01*
X22548650Y-29893480D01*
X22554298Y-29897861D01*
X22553591Y-29898772D01*
X22596136Y-29944343D01*
X22608637Y-30013085D01*
X22581988Y-30077673D01*
X22554078Y-30101856D01*
X22554298Y-30102139D01*
X22549092Y-30106176D01*
X22548455Y-30106729D01*
X22548140Y-30106914D01*
X22548129Y-30106923D01*
X22431923Y-30223129D01*
X22431917Y-30223137D01*
X22348255Y-30364603D01*
X22348254Y-30364606D01*
X22302402Y-30522426D01*
X22302401Y-30522432D01*
X22299500Y-30559298D01*
X22299500Y-31715701D01*
X22302401Y-31752567D01*
X22302402Y-31752573D01*
X22348254Y-31910393D01*
X22348255Y-31910396D01*
X22431917Y-32051862D01*
X22431923Y-32051870D01*
X22548129Y-32168076D01*
X22548133Y-32168079D01*
X22548135Y-32168081D01*
X22689602Y-32251744D01*
X22730197Y-32263538D01*
X22847426Y-32297597D01*
X22847429Y-32297597D01*
X22847431Y-32297598D01*
X22884306Y-32300500D01*
X22884314Y-32300500D01*
X23315686Y-32300500D01*
X23315694Y-32300500D01*
X23352569Y-32297598D01*
X23352571Y-32297597D01*
X23352573Y-32297597D01*
X23400457Y-32283685D01*
X23510398Y-32251744D01*
X23511874Y-32250870D01*
X23513183Y-32250538D01*
X23517557Y-32248646D01*
X23517862Y-32249351D01*
X23579597Y-32233685D01*
X23632229Y-32249139D01*
X23632443Y-32248646D01*
X23636441Y-32250376D01*
X23638125Y-32250870D01*
X23639602Y-32251744D01*
X23680197Y-32263538D01*
X23797426Y-32297597D01*
X23797429Y-32297597D01*
X23797431Y-32297598D01*
X23834306Y-32300500D01*
X23834314Y-32300500D01*
X24265686Y-32300500D01*
X24265694Y-32300500D01*
X24302569Y-32297598D01*
X24302571Y-32297597D01*
X24302573Y-32297597D01*
X24350457Y-32283685D01*
X24460398Y-32251744D01*
X24461874Y-32250870D01*
X24463183Y-32250538D01*
X24467557Y-32248646D01*
X24467862Y-32249351D01*
X24529597Y-32233685D01*
X24582229Y-32249139D01*
X24582443Y-32248646D01*
X24586441Y-32250376D01*
X24588125Y-32250870D01*
X24589602Y-32251744D01*
X24630197Y-32263538D01*
X24747426Y-32297597D01*
X24747429Y-32297597D01*
X24747431Y-32297598D01*
X24784306Y-32300500D01*
X24784314Y-32300500D01*
X25215686Y-32300500D01*
X25215694Y-32300500D01*
X25252569Y-32297598D01*
X25252571Y-32297597D01*
X25252573Y-32297597D01*
X25300457Y-32283685D01*
X25410398Y-32251744D01*
X25551865Y-32168081D01*
X25668081Y-32051865D01*
X25751744Y-31910398D01*
X25797598Y-31752569D01*
X25800500Y-31715694D01*
X25800500Y-30559306D01*
X25797598Y-30522431D01*
X25766270Y-30414602D01*
X25751745Y-30364606D01*
X25751744Y-30364603D01*
X25751744Y-30364602D01*
X25668081Y-30223135D01*
X25668079Y-30223133D01*
X25668076Y-30223129D01*
X25551870Y-30106923D01*
X25551867Y-30106921D01*
X25551865Y-30106919D01*
X25551549Y-30106732D01*
X25551353Y-30106522D01*
X25545702Y-30102139D01*
X25546409Y-30101227D01*
X25503866Y-30055664D01*
X25491362Y-29986923D01*
X25518006Y-29922333D01*
X25545921Y-29898144D01*
X25545702Y-29897861D01*
X25550911Y-29893820D01*
X25551550Y-29893267D01*
X25551865Y-29893081D01*
X25668081Y-29776865D01*
X25751744Y-29635398D01*
X25797598Y-29477569D01*
X25800500Y-29440694D01*
X25800500Y-28334298D01*
X26199500Y-28334298D01*
X26199500Y-29490701D01*
X26202401Y-29527567D01*
X26202402Y-29527573D01*
X26248254Y-29685393D01*
X26248255Y-29685396D01*
X26331917Y-29826862D01*
X26331923Y-29826870D01*
X26448129Y-29943076D01*
X26448140Y-29943085D01*
X26448455Y-29943271D01*
X26448650Y-29943480D01*
X26454298Y-29947861D01*
X26453591Y-29948772D01*
X26496136Y-29994343D01*
X26508637Y-30063085D01*
X26481988Y-30127673D01*
X26454078Y-30151856D01*
X26454298Y-30152139D01*
X26449092Y-30156176D01*
X26448455Y-30156729D01*
X26448140Y-30156914D01*
X26448129Y-30156923D01*
X26331923Y-30273129D01*
X26331917Y-30273137D01*
X26248255Y-30414603D01*
X26248254Y-30414606D01*
X26202402Y-30572426D01*
X26202401Y-30572432D01*
X26199500Y-30609298D01*
X26199500Y-31765701D01*
X26202401Y-31802567D01*
X26202402Y-31802573D01*
X26248254Y-31960393D01*
X26248255Y-31960396D01*
X26331917Y-32101862D01*
X26331923Y-32101870D01*
X26448129Y-32218076D01*
X26448133Y-32218079D01*
X26448135Y-32218081D01*
X26589602Y-32301744D01*
X26631224Y-32313836D01*
X26747426Y-32347597D01*
X26747429Y-32347597D01*
X26747431Y-32347598D01*
X26784306Y-32350500D01*
X26784314Y-32350500D01*
X27215686Y-32350500D01*
X27215694Y-32350500D01*
X27252569Y-32347598D01*
X27252571Y-32347597D01*
X27252573Y-32347597D01*
X27294191Y-32335505D01*
X27410398Y-32301744D01*
X27411874Y-32300870D01*
X27413183Y-32300538D01*
X27417557Y-32298646D01*
X27417862Y-32299351D01*
X27479597Y-32283685D01*
X27532229Y-32299139D01*
X27532443Y-32298646D01*
X27536441Y-32300376D01*
X27538125Y-32300870D01*
X27539602Y-32301744D01*
X27581224Y-32313836D01*
X27697426Y-32347597D01*
X27697429Y-32347597D01*
X27697431Y-32347598D01*
X27734306Y-32350500D01*
X27734314Y-32350500D01*
X28165686Y-32350500D01*
X28165694Y-32350500D01*
X28202569Y-32347598D01*
X28202571Y-32347597D01*
X28202573Y-32347597D01*
X28244191Y-32335505D01*
X28360398Y-32301744D01*
X28361874Y-32300870D01*
X28363183Y-32300538D01*
X28367557Y-32298646D01*
X28367862Y-32299351D01*
X28429597Y-32283685D01*
X28482229Y-32299139D01*
X28482443Y-32298646D01*
X28486441Y-32300376D01*
X28488125Y-32300870D01*
X28489602Y-32301744D01*
X28531224Y-32313836D01*
X28647426Y-32347597D01*
X28647429Y-32347597D01*
X28647431Y-32347598D01*
X28684306Y-32350500D01*
X28684314Y-32350500D01*
X29115686Y-32350500D01*
X29115694Y-32350500D01*
X29152569Y-32347598D01*
X29152571Y-32347597D01*
X29152573Y-32347597D01*
X29194191Y-32335505D01*
X29310398Y-32301744D01*
X29451865Y-32218081D01*
X29568081Y-32101865D01*
X29651744Y-31960398D01*
X29697598Y-31802569D01*
X29700500Y-31765694D01*
X29700500Y-30609306D01*
X29697598Y-30572431D01*
X29693782Y-30559298D01*
X29651745Y-30414606D01*
X29651744Y-30414603D01*
X29651744Y-30414602D01*
X29568081Y-30273135D01*
X29568079Y-30273133D01*
X29568076Y-30273129D01*
X29451870Y-30156923D01*
X29451867Y-30156921D01*
X29451865Y-30156919D01*
X29451549Y-30156732D01*
X29451353Y-30156522D01*
X29445702Y-30152139D01*
X29446409Y-30151227D01*
X29403866Y-30105664D01*
X29391362Y-30036923D01*
X29418006Y-29972333D01*
X29445921Y-29948144D01*
X29445702Y-29947861D01*
X29450911Y-29943820D01*
X29451550Y-29943267D01*
X29451865Y-29943081D01*
X29568081Y-29826865D01*
X29651744Y-29685398D01*
X29697598Y-29527569D01*
X29700500Y-29490694D01*
X29700500Y-28334306D01*
X29697598Y-28297431D01*
X29693782Y-28284298D01*
X29651745Y-28139606D01*
X29651744Y-28139603D01*
X29651744Y-28139602D01*
X29568081Y-27998135D01*
X29568079Y-27998133D01*
X29568076Y-27998129D01*
X29451870Y-27881923D01*
X29451862Y-27881917D01*
X29316419Y-27801817D01*
X29310398Y-27798256D01*
X29310397Y-27798255D01*
X29310396Y-27798255D01*
X29310393Y-27798254D01*
X29152573Y-27752402D01*
X29152567Y-27752401D01*
X29115701Y-27749500D01*
X29115694Y-27749500D01*
X28684306Y-27749500D01*
X28684298Y-27749500D01*
X28647432Y-27752401D01*
X28647426Y-27752402D01*
X28489607Y-27798254D01*
X28489594Y-27798259D01*
X28487620Y-27799427D01*
X28485872Y-27799870D01*
X28482441Y-27801355D01*
X28482201Y-27800801D01*
X28419895Y-27816603D01*
X28367601Y-27801248D01*
X28367356Y-27801816D01*
X28362758Y-27799826D01*
X28361398Y-27799427D01*
X28360203Y-27798720D01*
X28360193Y-27798716D01*
X28202494Y-27752900D01*
X28202497Y-27752900D01*
X28200000Y-27752703D01*
X28200000Y-28018184D01*
X28182733Y-28081304D01*
X28148254Y-28139605D01*
X28148254Y-28139606D01*
X28102402Y-28297426D01*
X28102401Y-28297432D01*
X28099500Y-28334298D01*
X28099500Y-28788500D01*
X28096949Y-28797185D01*
X28098238Y-28806147D01*
X28087259Y-28830187D01*
X28079815Y-28855539D01*
X28072974Y-28861466D01*
X28069213Y-28869703D01*
X28046978Y-28883992D01*
X28027011Y-28901294D01*
X28016496Y-28903581D01*
X28010435Y-28907477D01*
X27975500Y-28912500D01*
X27924500Y-28912500D01*
X27857461Y-28892815D01*
X27811706Y-28840011D01*
X27800500Y-28788500D01*
X27800500Y-28334313D01*
X27800499Y-28334298D01*
X27797598Y-28297432D01*
X27797597Y-28297426D01*
X27751745Y-28139606D01*
X27751745Y-28139605D01*
X27751744Y-28139603D01*
X27751744Y-28139602D01*
X27717267Y-28081304D01*
X27700000Y-28018184D01*
X27700000Y-27752703D01*
X27697504Y-27752900D01*
X27539806Y-27798716D01*
X27539791Y-27798722D01*
X27538599Y-27799428D01*
X27537543Y-27799695D01*
X27532641Y-27801817D01*
X27532298Y-27801025D01*
X27470873Y-27816603D01*
X27417710Y-27800992D01*
X27417554Y-27801353D01*
X27414630Y-27800087D01*
X27412377Y-27799426D01*
X27410399Y-27798256D01*
X27410393Y-27798254D01*
X27252573Y-27752402D01*
X27252567Y-27752401D01*
X27215701Y-27749500D01*
X27215694Y-27749500D01*
X26784306Y-27749500D01*
X26784298Y-27749500D01*
X26747432Y-27752401D01*
X26747426Y-27752402D01*
X26589606Y-27798254D01*
X26589603Y-27798255D01*
X26448137Y-27881917D01*
X26448129Y-27881923D01*
X26331923Y-27998129D01*
X26331917Y-27998137D01*
X26248255Y-28139603D01*
X26248254Y-28139606D01*
X26202402Y-28297426D01*
X26202401Y-28297432D01*
X26199500Y-28334298D01*
X25800500Y-28334298D01*
X25800500Y-28284306D01*
X25797598Y-28247431D01*
X25766270Y-28139602D01*
X25751745Y-28089606D01*
X25751744Y-28089603D01*
X25751744Y-28089602D01*
X25668081Y-27948135D01*
X25668079Y-27948133D01*
X25668076Y-27948129D01*
X25551870Y-27831923D01*
X25551862Y-27831917D01*
X25441421Y-27766603D01*
X25410398Y-27748256D01*
X25410397Y-27748255D01*
X25410396Y-27748255D01*
X25410393Y-27748254D01*
X25252573Y-27702402D01*
X25252567Y-27702401D01*
X25215701Y-27699500D01*
X25215694Y-27699500D01*
X24784306Y-27699500D01*
X24784298Y-27699500D01*
X24747432Y-27702401D01*
X24747426Y-27702402D01*
X24589607Y-27748254D01*
X24589594Y-27748259D01*
X24587620Y-27749427D01*
X24585872Y-27749870D01*
X24582441Y-27751355D01*
X24582201Y-27750801D01*
X24519895Y-27766603D01*
X24467601Y-27751248D01*
X24467356Y-27751816D01*
X24462758Y-27749826D01*
X24461398Y-27749427D01*
X24460203Y-27748720D01*
X24460193Y-27748716D01*
X24302494Y-27702900D01*
X24302497Y-27702900D01*
X24300000Y-27702703D01*
X24300000Y-27968184D01*
X24282733Y-28031304D01*
X24248254Y-28089605D01*
X24248254Y-28089606D01*
X24202402Y-28247426D01*
X24202401Y-28247432D01*
X24199500Y-28284298D01*
X24199500Y-28738500D01*
X24196949Y-28747185D01*
X24198238Y-28756147D01*
X24187259Y-28780187D01*
X24179815Y-28805539D01*
X24172974Y-28811466D01*
X24169213Y-28819703D01*
X24146978Y-28833992D01*
X24127011Y-28851294D01*
X24116496Y-28853581D01*
X24110435Y-28857477D01*
X24075500Y-28862500D01*
X24024500Y-28862500D01*
X23957461Y-28842815D01*
X23911706Y-28790011D01*
X23900500Y-28738500D01*
X23900500Y-28284313D01*
X23900499Y-28284298D01*
X23897598Y-28247432D01*
X23897597Y-28247426D01*
X23851745Y-28089606D01*
X23851745Y-28089605D01*
X23851744Y-28089603D01*
X23851744Y-28089602D01*
X23817267Y-28031304D01*
X23800000Y-27968184D01*
X23800000Y-27702703D01*
X23797504Y-27702900D01*
X23639806Y-27748716D01*
X23639791Y-27748722D01*
X23638599Y-27749428D01*
X23637543Y-27749695D01*
X23632641Y-27751817D01*
X23632298Y-27751025D01*
X23570873Y-27766603D01*
X23517710Y-27750992D01*
X23517554Y-27751353D01*
X23514630Y-27750087D01*
X23512377Y-27749426D01*
X23510399Y-27748256D01*
X23510393Y-27748254D01*
X23352573Y-27702402D01*
X23352567Y-27702401D01*
X23315701Y-27699500D01*
X23315694Y-27699500D01*
X22884306Y-27699500D01*
X22884298Y-27699500D01*
X22847432Y-27702401D01*
X22847426Y-27702402D01*
X22689606Y-27748254D01*
X22689603Y-27748255D01*
X22548137Y-27831917D01*
X22548129Y-27831923D01*
X22431923Y-27948129D01*
X22431917Y-27948137D01*
X22348255Y-28089603D01*
X22348254Y-28089606D01*
X22302402Y-28247426D01*
X22302401Y-28247432D01*
X22299500Y-28284298D01*
X20500500Y-28284298D01*
X20500500Y-22004427D01*
X20500816Y-21995581D01*
X20515130Y-21795443D01*
X20515131Y-21795434D01*
X20517646Y-21777938D01*
X20559356Y-21586200D01*
X20564335Y-21569242D01*
X20632911Y-21385382D01*
X20640251Y-21369310D01*
X20734294Y-21197083D01*
X20743850Y-21182214D01*
X20861443Y-21025128D01*
X20873017Y-21011771D01*
X21011771Y-20873017D01*
X21025128Y-20861443D01*
X21182214Y-20743850D01*
X21197083Y-20734294D01*
X21369310Y-20640251D01*
X21385382Y-20632911D01*
X21569242Y-20564335D01*
X21586200Y-20559356D01*
X21777938Y-20517646D01*
X21795436Y-20515130D01*
X21995582Y-20500816D01*
X22004428Y-20500500D01*
X22065892Y-20500500D01*
X29934108Y-20500500D01*
X29995572Y-20500500D01*
X30004418Y-20500816D01*
G37*
%TD.AperFunction*%
%TA.AperFunction,Conductor*%
G36*
X25836289Y-36082737D02*
G01*
X25836289Y-36082736D01*
X25840803Y-36076525D01*
X25889234Y-35981475D01*
X25937208Y-35930679D01*
X26005029Y-35913884D01*
X26071164Y-35936421D01*
X26110204Y-35981475D01*
X26158768Y-36076788D01*
X26260586Y-36216928D01*
X26383072Y-36339414D01*
X26523212Y-36441232D01*
X26583509Y-36471954D01*
X26617973Y-36489515D01*
X26668769Y-36537490D01*
X26685564Y-36605311D01*
X26663027Y-36671445D01*
X26617973Y-36710485D01*
X26523211Y-36758768D01*
X26443256Y-36816859D01*
X26383072Y-36860586D01*
X26383070Y-36860588D01*
X26383069Y-36860588D01*
X26260588Y-36983069D01*
X26260588Y-36983070D01*
X26260586Y-36983072D01*
X26216859Y-37043256D01*
X26158768Y-37123211D01*
X26110485Y-37217973D01*
X26062510Y-37268769D01*
X25994689Y-37285564D01*
X25928555Y-37263027D01*
X25889515Y-37217973D01*
X25841231Y-37123211D01*
X25739414Y-36983072D01*
X25616928Y-36860586D01*
X25476788Y-36758768D01*
X25381475Y-36710204D01*
X25330679Y-36662230D01*
X25313884Y-36594409D01*
X25336421Y-36528274D01*
X25381475Y-36489234D01*
X25476525Y-36440803D01*
X25482736Y-36436289D01*
X25482737Y-36436289D01*
X24946448Y-35900000D01*
X24952661Y-35900000D01*
X25054394Y-35872741D01*
X25145606Y-35820080D01*
X25220080Y-35745606D01*
X25272741Y-35654394D01*
X25300000Y-35552661D01*
X25300000Y-35546448D01*
X25836289Y-36082737D01*
G37*
%TD.AperFunction*%
%TD*%
M02*
