%TF.GenerationSoftware,KiCad,Pcbnew,10.0.4-10.0.4~ubuntu26.04.1*%
%TF.CreationDate,2026-07-08T21:54:32-05:00*%
%TF.ProjectId,magnetic-connector,6d61676e-6574-4696-932d-636f6e6e6563,rev?*%
%TF.SameCoordinates,Original*%
%TF.FileFunction,Paste,Top*%
%TF.FilePolarity,Positive*%
%FSLAX46Y46*%
G04 Gerber Fmt 4.6, Leading zero omitted, Abs format (unit mm)*
G04 Created by KiCad (PCBNEW 10.0.4-10.0.4~ubuntu26.04.1) date 2026-07-08 21:54:32*
%MOMM*%
%LPD*%
G01*
G04 APERTURE LIST*
G04 Aperture macros list*
%AMRoundRect*
0 Rectangle with rounded corners*
0 $1 Rounding radius*
0 $2 $3 $4 $5 $6 $7 $8 $9 X,Y pos of 4 corners*
0 Add a 4 corners polygon primitive as box body*
4,1,4,$2,$3,$4,$5,$6,$7,$8,$9,$2,$3,0*
0 Add four circle primitives for the rounded corners*
1,1,$1+$1,$2,$3*
1,1,$1+$1,$4,$5*
1,1,$1+$1,$6,$7*
1,1,$1+$1,$8,$9*
0 Add four rect primitives between the rounded corners*
20,1,$1+$1,$2,$3,$4,$5,0*
20,1,$1+$1,$4,$5,$6,$7,0*
20,1,$1+$1,$6,$7,$8,$9,0*
20,1,$1+$1,$8,$9,$2,$3,0*%
G04 Aperture macros list end*
%ADD10R,1.800000X2.000000*%
%ADD11R,0.280000X1.250000*%
%ADD12RoundRect,0.150000X-0.512500X-0.150000X0.512500X-0.150000X0.512500X0.150000X-0.512500X0.150000X0*%
%ADD13RoundRect,0.150000X0.512500X0.150000X-0.512500X0.150000X-0.512500X-0.150000X0.512500X-0.150000X0*%
%ADD14RoundRect,0.243750X-0.456250X0.243750X-0.456250X-0.243750X0.456250X-0.243750X0.456250X0.243750X0*%
%ADD15RoundRect,0.243750X0.456250X-0.243750X0.456250X0.243750X-0.456250X0.243750X-0.456250X-0.243750X0*%
G04 APERTURE END LIST*
D10*
%TO.C,J_VIK_CLI1*%
X35450000Y-52686000D03*
X44550000Y-52686000D03*
D11*
X42750000Y-49962000D03*
X42250000Y-49962000D03*
X41750000Y-49962000D03*
X41250000Y-49962000D03*
X40750000Y-49962000D03*
X40250000Y-49962000D03*
X39750000Y-49962000D03*
X39250000Y-49962000D03*
X38750000Y-49962000D03*
X38250000Y-49962000D03*
X37750000Y-49962000D03*
X37250000Y-49962000D03*
%TD*%
D10*
%TO.C,J_VIK_HOST1*%
X21450000Y-52686000D03*
X30550000Y-52686000D03*
D11*
X28750000Y-49962000D03*
X28250000Y-49962000D03*
X27750000Y-49962000D03*
X27250000Y-49962000D03*
X26750000Y-49962000D03*
X26250000Y-49962000D03*
X25750000Y-49962000D03*
X25250000Y-49962000D03*
X24750000Y-49962000D03*
X24250000Y-49962000D03*
X23750000Y-49962000D03*
X23250000Y-49962000D03*
%TD*%
D12*
%TO.C,U6*%
X36362500Y-30050000D03*
X36362500Y-31000000D03*
X36362500Y-31950000D03*
X38637500Y-31950000D03*
X38637500Y-31000000D03*
X38637500Y-30050000D03*
%TD*%
D13*
%TO.C,U5*%
X43637500Y-32000000D03*
X43637500Y-31050000D03*
X43637500Y-30100000D03*
X41362500Y-30100000D03*
X41362500Y-31050000D03*
X41362500Y-32000000D03*
%TD*%
%TO.C,U4*%
X43637500Y-27950000D03*
X43637500Y-27000000D03*
X43637500Y-26050000D03*
X41362500Y-26050000D03*
X41362500Y-27000000D03*
X41362500Y-27950000D03*
%TD*%
%TO.C,U3*%
X29500000Y-32000000D03*
X29500000Y-31050000D03*
X29500000Y-30100000D03*
X27225000Y-30100000D03*
X27225000Y-31050000D03*
X27225000Y-32000000D03*
%TD*%
D12*
%TO.C,U2*%
X22500000Y-30100000D03*
X22500000Y-31050000D03*
X22500000Y-32000000D03*
X24775000Y-32000000D03*
X24775000Y-31050000D03*
X24775000Y-30100000D03*
%TD*%
%TO.C,U1*%
X22500000Y-26100000D03*
X22500000Y-27050000D03*
X22500000Y-28000000D03*
X24775000Y-28000000D03*
X24775000Y-27050000D03*
X24775000Y-26100000D03*
%TD*%
D14*
%TO.C,F3*%
X36000000Y-57562500D03*
X36000000Y-59437500D03*
%TD*%
D15*
%TO.C,F2*%
X22000000Y-59437500D03*
X22000000Y-57562500D03*
%TD*%
D14*
%TO.C,F4*%
X44000000Y-57562500D03*
X44000000Y-59437500D03*
%TD*%
D15*
%TO.C,F1*%
X30000000Y-57562500D03*
X30000000Y-59437500D03*
%TD*%
M02*
