M48
; DRILL file KiCad 10.0.4-10.0.4~ubuntu26.04.1 date 2026-07-08T21:54:08
; FORMAT={-:-/ absolute / metric / decimal}
; #@! TF.CreationDate,2026-07-08T21:54:08-05:00
; #@! TF.GenerationSoftware,Kicad,Pcbnew,10.0.4-10.0.4~ubuntu26.04.1
; #@! TF.FileFunction,Plated,1,2,PTH
FMAT,2
METRIC
; #@! TA.AperFunction,Plated,PTH,ViaDrill
T1C0.300
; #@! TA.AperFunction,Plated,PTH,ComponentDrill
T2C0.800
; #@! TA.AperFunction,Plated,PTH,ComponentDrill
T3C2.200
%
G90
G05
T1
X21.0Y-48.0
X21.81Y-50.976
X22.0Y-57.562
X22.5Y-26.1
X22.5Y-28.0
X22.5Y-30.1
X24.0Y-54.0
X24.775Y-26.1
X24.775Y-28.0
X27.225Y-30.1
X29.5Y-30.1
X29.5Y-31.05
X29.5Y-32.0
X30.0Y-48.5
X30.0Y-57.625
X31.0Y-36.0
X35.5Y-51.0
X36.0Y-24.0
X36.0Y-28.0
X36.0Y-57.562
X36.0Y-59.438
X36.362Y-30.05
X36.362Y-31.95
X36.5Y-55.0
X38.637Y-31.95
X41.362Y-26.05
X41.362Y-27.95
X42.0Y-54.0
X43.637Y-26.05
X43.637Y-27.95
X44.0Y-57.562
X44.0Y-59.438
X44.19Y-48.0
T2
X24.9Y-35.5
X24.9Y-37.7
X24.9Y-39.9
X24.9Y-42.1
X24.9Y-44.3
X24.9Y-46.5
X27.1Y-35.5
X27.1Y-37.7
X27.1Y-39.9
X27.1Y-42.1
X27.1Y-44.3
X27.1Y-46.5
X38.9Y-35.5
X38.9Y-37.7
X38.9Y-39.9
X38.9Y-42.1
X38.9Y-44.3
X38.9Y-46.5
X41.1Y-35.5
X41.1Y-37.7
X41.1Y-39.9
X41.1Y-42.1
X41.1Y-44.3
X41.1Y-46.5
T3
X26.0Y-22.5
X26.0Y-59.5
X40.0Y-22.5
X40.0Y-59.5
M30
