%TF.GenerationSoftware,KiCad,Pcbnew,10.0.3-10.0.3~ubuntu26.04.1*%
%TF.CreationDate,2026-05-22T22:36:29-05:00*%
%TF.ProjectId,magnetic-connector,6d61676e-6574-4696-932d-636f6e6e6563,rev?*%
%TF.SameCoordinates,Original*%
%TF.FileFunction,Legend,Top*%
%TF.FilePolarity,Positive*%
%FSLAX46Y46*%
G04 Gerber Fmt 4.6, Leading zero omitted, Abs format (unit mm)*
G04 Created by KiCad (PCBNEW 10.0.3-10.0.3~ubuntu26.04.1) date 2026-05-22 22:36:29*
%MOMM*%
%LPD*%
G01*
G04 APERTURE LIST*
%ADD10C,0.150000*%
%ADD11C,0.120000*%
%ADD12C,0.254000*%
G04 APERTURE END LIST*
D10*
X30804819Y-30788094D02*
X29804819Y-30788094D01*
X29804819Y-30788094D02*
X29804819Y-30549999D01*
X29804819Y-30549999D02*
X29852438Y-30407142D01*
X29852438Y-30407142D02*
X29947676Y-30311904D01*
X29947676Y-30311904D02*
X30042914Y-30264285D01*
X30042914Y-30264285D02*
X30233390Y-30216666D01*
X30233390Y-30216666D02*
X30376247Y-30216666D01*
X30376247Y-30216666D02*
X30566723Y-30264285D01*
X30566723Y-30264285D02*
X30661961Y-30311904D01*
X30661961Y-30311904D02*
X30757200Y-30407142D01*
X30757200Y-30407142D02*
X30804819Y-30549999D01*
X30804819Y-30549999D02*
X30804819Y-30788094D01*
X30138152Y-29359523D02*
X30804819Y-29359523D01*
X29757200Y-29597618D02*
X30471485Y-29835713D01*
X30471485Y-29835713D02*
X30471485Y-29216666D01*
X26904819Y-30738094D02*
X25904819Y-30738094D01*
X25904819Y-30738094D02*
X25904819Y-30499999D01*
X25904819Y-30499999D02*
X25952438Y-30357142D01*
X25952438Y-30357142D02*
X26047676Y-30261904D01*
X26047676Y-30261904D02*
X26142914Y-30214285D01*
X26142914Y-30214285D02*
X26333390Y-30166666D01*
X26333390Y-30166666D02*
X26476247Y-30166666D01*
X26476247Y-30166666D02*
X26666723Y-30214285D01*
X26666723Y-30214285D02*
X26761961Y-30261904D01*
X26761961Y-30261904D02*
X26857200Y-30357142D01*
X26857200Y-30357142D02*
X26904819Y-30499999D01*
X26904819Y-30499999D02*
X26904819Y-30738094D01*
X25904819Y-29833332D02*
X25904819Y-29214285D01*
X25904819Y-29214285D02*
X26285771Y-29547618D01*
X26285771Y-29547618D02*
X26285771Y-29404761D01*
X26285771Y-29404761D02*
X26333390Y-29309523D01*
X26333390Y-29309523D02*
X26381009Y-29261904D01*
X26381009Y-29261904D02*
X26476247Y-29214285D01*
X26476247Y-29214285D02*
X26714342Y-29214285D01*
X26714342Y-29214285D02*
X26809580Y-29261904D01*
X26809580Y-29261904D02*
X26857200Y-29309523D01*
X26857200Y-29309523D02*
X26904819Y-29404761D01*
X26904819Y-29404761D02*
X26904819Y-29690475D01*
X26904819Y-29690475D02*
X26857200Y-29785713D01*
X26857200Y-29785713D02*
X26809580Y-29833332D01*
X29505826Y-48450414D02*
X29970112Y-48450414D01*
X29970112Y-48450414D02*
X29720112Y-48736128D01*
X29720112Y-48736128D02*
X29827255Y-48736128D01*
X29827255Y-48736128D02*
X29898684Y-48771842D01*
X29898684Y-48771842D02*
X29934398Y-48807557D01*
X29934398Y-48807557D02*
X29970112Y-48878985D01*
X29970112Y-48878985D02*
X29970112Y-49057557D01*
X29970112Y-49057557D02*
X29934398Y-49128985D01*
X29934398Y-49128985D02*
X29898684Y-49164700D01*
X29898684Y-49164700D02*
X29827255Y-49200414D01*
X29827255Y-49200414D02*
X29612969Y-49200414D01*
X29612969Y-49200414D02*
X29541541Y-49164700D01*
X29541541Y-49164700D02*
X29505826Y-49128985D01*
X30220112Y-48700414D02*
X30398684Y-49200414D01*
X30398684Y-49200414D02*
X30577255Y-48700414D01*
X30791541Y-48450414D02*
X31255827Y-48450414D01*
X31255827Y-48450414D02*
X31005827Y-48736128D01*
X31005827Y-48736128D02*
X31112970Y-48736128D01*
X31112970Y-48736128D02*
X31184399Y-48771842D01*
X31184399Y-48771842D02*
X31220113Y-48807557D01*
X31220113Y-48807557D02*
X31255827Y-48878985D01*
X31255827Y-48878985D02*
X31255827Y-49057557D01*
X31255827Y-49057557D02*
X31220113Y-49128985D01*
X31220113Y-49128985D02*
X31184399Y-49164700D01*
X31184399Y-49164700D02*
X31112970Y-49200414D01*
X31112970Y-49200414D02*
X30898684Y-49200414D01*
X30898684Y-49200414D02*
X30827256Y-49164700D01*
X30827256Y-49164700D02*
X30791541Y-49128985D01*
G36*
X28305746Y-48635819D02*
G01*
X23648400Y-48635819D01*
X23648400Y-47459199D01*
X23759511Y-47459199D01*
X23762771Y-47473536D01*
X24096104Y-48473536D01*
X24102098Y-48486961D01*
X24105608Y-48491008D01*
X24108005Y-48495802D01*
X24115113Y-48501967D01*
X24121272Y-48509068D01*
X24126061Y-48511462D01*
X24130112Y-48514976D01*
X24139037Y-48517950D01*
X24147445Y-48522155D01*
X24152789Y-48522534D01*
X24157875Y-48524230D01*
X24167255Y-48523563D01*
X24176635Y-48524230D01*
X24181720Y-48522534D01*
X24187065Y-48522155D01*
X24195475Y-48517949D01*
X24204397Y-48514976D01*
X24208444Y-48511465D01*
X24213238Y-48509069D01*
X24219401Y-48501963D01*
X24226505Y-48495802D01*
X24228900Y-48491010D01*
X24232412Y-48486962D01*
X24238406Y-48473536D01*
X24571739Y-47473536D01*
X24574999Y-47459200D01*
X24574332Y-47449819D01*
X24758922Y-47449819D01*
X24758922Y-48449819D01*
X24760363Y-48464451D01*
X24771562Y-48491487D01*
X24792254Y-48512179D01*
X24819290Y-48523378D01*
X24848554Y-48523378D01*
X24875590Y-48512179D01*
X24896282Y-48491487D01*
X24907481Y-48464451D01*
X24908922Y-48449819D01*
X24908922Y-47449819D01*
X25235112Y-47449819D01*
X25235112Y-48449819D01*
X25236553Y-48464451D01*
X25247752Y-48491487D01*
X25268444Y-48512179D01*
X25295480Y-48523378D01*
X25324744Y-48523378D01*
X25351780Y-48512179D01*
X25372472Y-48491487D01*
X25383671Y-48464451D01*
X25385112Y-48449819D01*
X25385112Y-48052313D01*
X25444854Y-47992570D01*
X25821540Y-48494819D01*
X25831472Y-48505660D01*
X25856653Y-48520570D01*
X25885622Y-48524708D01*
X25913970Y-48517446D01*
X25937381Y-48499887D01*
X25952290Y-48474706D01*
X25956429Y-48445738D01*
X25949167Y-48417389D01*
X25941540Y-48404819D01*
X25551997Y-47885427D01*
X25934573Y-47502852D01*
X25943900Y-47491487D01*
X25955099Y-47464451D01*
X25955099Y-47449819D01*
X26997017Y-47449819D01*
X26997017Y-48449819D01*
X26998458Y-48464451D01*
X27009657Y-48491487D01*
X27030349Y-48512179D01*
X27057385Y-48523378D01*
X27086649Y-48523378D01*
X27113685Y-48512179D01*
X27134377Y-48491487D01*
X27145576Y-48464451D01*
X27147017Y-48449819D01*
X27147017Y-47449819D01*
X27473207Y-47449819D01*
X27473207Y-48449819D01*
X27474648Y-48464451D01*
X27485847Y-48491487D01*
X27506539Y-48512179D01*
X27533575Y-48523378D01*
X27562839Y-48523378D01*
X27589875Y-48512179D01*
X27610567Y-48491487D01*
X27621766Y-48464451D01*
X27623207Y-48449819D01*
X27623207Y-47732235D01*
X28054517Y-48487030D01*
X28056706Y-48490114D01*
X28057275Y-48491487D01*
X28058672Y-48492884D01*
X28063027Y-48499019D01*
X28070915Y-48505127D01*
X28077967Y-48512179D01*
X28082385Y-48514009D01*
X28086165Y-48516936D01*
X28095786Y-48519560D01*
X28105003Y-48523378D01*
X28109784Y-48523378D01*
X28114396Y-48524636D01*
X28124293Y-48523378D01*
X28134267Y-48523378D01*
X28138682Y-48521548D01*
X28143426Y-48520946D01*
X28152090Y-48515995D01*
X28161303Y-48512179D01*
X28164681Y-48508800D01*
X28168835Y-48506427D01*
X28174944Y-48498537D01*
X28181995Y-48491487D01*
X28183824Y-48487070D01*
X28186752Y-48483290D01*
X28189376Y-48473666D01*
X28193194Y-48464451D01*
X28193930Y-48456968D01*
X28194452Y-48455058D01*
X28194264Y-48453582D01*
X28194635Y-48449819D01*
X28194635Y-47449819D01*
X28193194Y-47435187D01*
X28181995Y-47408151D01*
X28161303Y-47387459D01*
X28134267Y-47376260D01*
X28105003Y-47376260D01*
X28077967Y-47387459D01*
X28057275Y-47408151D01*
X28046076Y-47435187D01*
X28044635Y-47449819D01*
X28044635Y-48167402D01*
X27613325Y-47412609D01*
X27611136Y-47409525D01*
X27610567Y-47408151D01*
X27609167Y-47406751D01*
X27604815Y-47400619D01*
X27596925Y-47394509D01*
X27589875Y-47387459D01*
X27585458Y-47385629D01*
X27581678Y-47382702D01*
X27572054Y-47380077D01*
X27562839Y-47376260D01*
X27558058Y-47376260D01*
X27553446Y-47375002D01*
X27543549Y-47376260D01*
X27533575Y-47376260D01*
X27529159Y-47378089D01*
X27524416Y-47378692D01*
X27515751Y-47383642D01*
X27506539Y-47387459D01*
X27503160Y-47390837D01*
X27499007Y-47393211D01*
X27492897Y-47401100D01*
X27485847Y-47408151D01*
X27484017Y-47412567D01*
X27481090Y-47416348D01*
X27478465Y-47425971D01*
X27474648Y-47435187D01*
X27473911Y-47442669D01*
X27473390Y-47444580D01*
X27473577Y-47446055D01*
X27473207Y-47449819D01*
X27147017Y-47449819D01*
X27145576Y-47435187D01*
X27134377Y-47408151D01*
X27113685Y-47387459D01*
X27086649Y-47376260D01*
X27057385Y-47376260D01*
X27030349Y-47387459D01*
X27009657Y-47408151D01*
X26998458Y-47435187D01*
X26997017Y-47449819D01*
X25955099Y-47449819D01*
X25955099Y-47435188D01*
X25943900Y-47408151D01*
X25923208Y-47387459D01*
X25896171Y-47376260D01*
X25866908Y-47376260D01*
X25839872Y-47387459D01*
X25828507Y-47396786D01*
X25385112Y-47840181D01*
X25385112Y-47449819D01*
X25383671Y-47435187D01*
X25372472Y-47408151D01*
X25351780Y-47387459D01*
X25324744Y-47376260D01*
X25295480Y-47376260D01*
X25268444Y-47387459D01*
X25247752Y-47408151D01*
X25236553Y-47435187D01*
X25235112Y-47449819D01*
X24908922Y-47449819D01*
X24907481Y-47435187D01*
X24896282Y-47408151D01*
X24875590Y-47387459D01*
X24848554Y-47376260D01*
X24819290Y-47376260D01*
X24792254Y-47387459D01*
X24771562Y-47408151D01*
X24760363Y-47435187D01*
X24758922Y-47449819D01*
X24574332Y-47449819D01*
X24572924Y-47430010D01*
X24559838Y-47403836D01*
X24537730Y-47384662D01*
X24509968Y-47375408D01*
X24480778Y-47377483D01*
X24454605Y-47390570D01*
X24435431Y-47412677D01*
X24429437Y-47426102D01*
X24167255Y-48212648D01*
X23905073Y-47426102D01*
X23899079Y-47412676D01*
X23879905Y-47390569D01*
X23853732Y-47377483D01*
X23824542Y-47375408D01*
X23796779Y-47384662D01*
X23774672Y-47403836D01*
X23761586Y-47430009D01*
X23759511Y-47459199D01*
X23648400Y-47459199D01*
X23648400Y-47263891D01*
X28305746Y-47263891D01*
X28305746Y-48635819D01*
G37*
X34305826Y-48450414D02*
X34770112Y-48450414D01*
X34770112Y-48450414D02*
X34520112Y-48736128D01*
X34520112Y-48736128D02*
X34627255Y-48736128D01*
X34627255Y-48736128D02*
X34698684Y-48771842D01*
X34698684Y-48771842D02*
X34734398Y-48807557D01*
X34734398Y-48807557D02*
X34770112Y-48878985D01*
X34770112Y-48878985D02*
X34770112Y-49057557D01*
X34770112Y-49057557D02*
X34734398Y-49128985D01*
X34734398Y-49128985D02*
X34698684Y-49164700D01*
X34698684Y-49164700D02*
X34627255Y-49200414D01*
X34627255Y-49200414D02*
X34412969Y-49200414D01*
X34412969Y-49200414D02*
X34341541Y-49164700D01*
X34341541Y-49164700D02*
X34305826Y-49128985D01*
X35020112Y-48700414D02*
X35198684Y-49200414D01*
X35198684Y-49200414D02*
X35377255Y-48700414D01*
X35591541Y-48450414D02*
X36055827Y-48450414D01*
X36055827Y-48450414D02*
X35805827Y-48736128D01*
X35805827Y-48736128D02*
X35912970Y-48736128D01*
X35912970Y-48736128D02*
X35984399Y-48771842D01*
X35984399Y-48771842D02*
X36020113Y-48807557D01*
X36020113Y-48807557D02*
X36055827Y-48878985D01*
X36055827Y-48878985D02*
X36055827Y-49057557D01*
X36055827Y-49057557D02*
X36020113Y-49128985D01*
X36020113Y-49128985D02*
X35984399Y-49164700D01*
X35984399Y-49164700D02*
X35912970Y-49200414D01*
X35912970Y-49200414D02*
X35698684Y-49200414D01*
X35698684Y-49200414D02*
X35627256Y-49164700D01*
X35627256Y-49164700D02*
X35591541Y-49128985D01*
G36*
X40813780Y-47499077D02*
G01*
X40885722Y-47571019D01*
X40926064Y-47732386D01*
X40926064Y-48047251D01*
X40885722Y-48208617D01*
X40813779Y-48280561D01*
X40745264Y-48314819D01*
X40590198Y-48314819D01*
X40521682Y-48280561D01*
X40449739Y-48208617D01*
X40409398Y-48047251D01*
X40409398Y-47732386D01*
X40449739Y-47571019D01*
X40521682Y-47499077D01*
X40590198Y-47464819D01*
X40745264Y-47464819D01*
X40813780Y-47499077D01*
G37*
G36*
X43090496Y-48575930D02*
G01*
X36958400Y-48575930D01*
X36958400Y-47399199D01*
X37069511Y-47399199D01*
X37072771Y-47413536D01*
X37406104Y-48413536D01*
X37412098Y-48426961D01*
X37415608Y-48431008D01*
X37418005Y-48435802D01*
X37425113Y-48441967D01*
X37431272Y-48449068D01*
X37436061Y-48451462D01*
X37440112Y-48454976D01*
X37449037Y-48457950D01*
X37457445Y-48462155D01*
X37462789Y-48462534D01*
X37467875Y-48464230D01*
X37477255Y-48463563D01*
X37486635Y-48464230D01*
X37491720Y-48462534D01*
X37497065Y-48462155D01*
X37505475Y-48457949D01*
X37514397Y-48454976D01*
X37518444Y-48451465D01*
X37523238Y-48449069D01*
X37529401Y-48441963D01*
X37536505Y-48435802D01*
X37538900Y-48431010D01*
X37542412Y-48426962D01*
X37548406Y-48413536D01*
X37881739Y-47413536D01*
X37884999Y-47399200D01*
X37884332Y-47389819D01*
X38068922Y-47389819D01*
X38068922Y-48389819D01*
X38070363Y-48404451D01*
X38081562Y-48431487D01*
X38102254Y-48452179D01*
X38129290Y-48463378D01*
X38158554Y-48463378D01*
X38185590Y-48452179D01*
X38206282Y-48431487D01*
X38217481Y-48404451D01*
X38218922Y-48389819D01*
X38218922Y-47389819D01*
X38545112Y-47389819D01*
X38545112Y-48389819D01*
X38546553Y-48404451D01*
X38557752Y-48431487D01*
X38578444Y-48452179D01*
X38605480Y-48463378D01*
X38634744Y-48463378D01*
X38661780Y-48452179D01*
X38682472Y-48431487D01*
X38693671Y-48404451D01*
X38695112Y-48389819D01*
X38695112Y-47992313D01*
X38754854Y-47932570D01*
X39131540Y-48434819D01*
X39141472Y-48445660D01*
X39166653Y-48460570D01*
X39195622Y-48464708D01*
X39223970Y-48457446D01*
X39247381Y-48439887D01*
X39262290Y-48414706D01*
X39266429Y-48385738D01*
X39259167Y-48357389D01*
X39251540Y-48344819D01*
X38861997Y-47825427D01*
X38964272Y-47723152D01*
X40259398Y-47723152D01*
X40259398Y-48056485D01*
X40259649Y-48059038D01*
X40259487Y-48060131D01*
X40260296Y-48065604D01*
X40260839Y-48071117D01*
X40261261Y-48072138D01*
X40261637Y-48074675D01*
X40309256Y-48265151D01*
X40314203Y-48278997D01*
X40317522Y-48283476D01*
X40319656Y-48288628D01*
X40328984Y-48299994D01*
X40424222Y-48395233D01*
X40429972Y-48399953D01*
X40431271Y-48401450D01*
X40433525Y-48402869D01*
X40435587Y-48404561D01*
X40437419Y-48405319D01*
X40443714Y-48409282D01*
X40538952Y-48456901D01*
X40552683Y-48462156D01*
X40555372Y-48462347D01*
X40557861Y-48463378D01*
X40572493Y-48464819D01*
X40762969Y-48464819D01*
X40777601Y-48463378D01*
X40780090Y-48462346D01*
X40782778Y-48462156D01*
X40796510Y-48456901D01*
X40891748Y-48409282D01*
X40898047Y-48405317D01*
X40899875Y-48404560D01*
X40901931Y-48402871D01*
X40904191Y-48401450D01*
X40905490Y-48399951D01*
X40911240Y-48395233D01*
X41006479Y-48299993D01*
X41015806Y-48288628D01*
X41017939Y-48283476D01*
X41021259Y-48278997D01*
X41026206Y-48265151D01*
X41073825Y-48074675D01*
X41074200Y-48072138D01*
X41074623Y-48071117D01*
X41075165Y-48065604D01*
X41075975Y-48060131D01*
X41075812Y-48059038D01*
X41076064Y-48056485D01*
X41076064Y-47723152D01*
X41075812Y-47720598D01*
X41075975Y-47719506D01*
X41075165Y-47714032D01*
X41074623Y-47708520D01*
X41074200Y-47707498D01*
X41073825Y-47704962D01*
X41026206Y-47514486D01*
X41021259Y-47500640D01*
X41017940Y-47496161D01*
X41015806Y-47491008D01*
X41006478Y-47479643D01*
X40916654Y-47389819D01*
X41354636Y-47389819D01*
X41354636Y-48199342D01*
X41356077Y-48213974D01*
X41357108Y-48216463D01*
X41357299Y-48219151D01*
X41362554Y-48232883D01*
X41410173Y-48328121D01*
X41414136Y-48334417D01*
X41414894Y-48336247D01*
X41416583Y-48338305D01*
X41418005Y-48340564D01*
X41419503Y-48341863D01*
X41424221Y-48347612D01*
X41471840Y-48395232D01*
X41477589Y-48399950D01*
X41478890Y-48401450D01*
X41481149Y-48402872D01*
X41483206Y-48404560D01*
X41485033Y-48405317D01*
X41491333Y-48409282D01*
X41586571Y-48456901D01*
X41600302Y-48462156D01*
X41602991Y-48462347D01*
X41605480Y-48463378D01*
X41620112Y-48464819D01*
X41810588Y-48464819D01*
X41825220Y-48463378D01*
X41827709Y-48462346D01*
X41830397Y-48462156D01*
X41844129Y-48456901D01*
X41939367Y-48409282D01*
X41945666Y-48405317D01*
X41947494Y-48404560D01*
X41949550Y-48402872D01*
X41951810Y-48401450D01*
X41953110Y-48399950D01*
X41958860Y-48395232D01*
X42006478Y-48347613D01*
X42011196Y-48341863D01*
X42012695Y-48340564D01*
X42014116Y-48338305D01*
X42015806Y-48336247D01*
X42016563Y-48334417D01*
X42020527Y-48328121D01*
X42068146Y-48232883D01*
X42073401Y-48219152D01*
X42073592Y-48216462D01*
X42074623Y-48213974D01*
X42076064Y-48199342D01*
X42076064Y-47389819D01*
X42074623Y-47375187D01*
X42260839Y-47375187D01*
X42260839Y-47404451D01*
X42272038Y-47431487D01*
X42292730Y-47452179D01*
X42319766Y-47463378D01*
X42334398Y-47464819D01*
X42545112Y-47464819D01*
X42545112Y-48389819D01*
X42546553Y-48404451D01*
X42557752Y-48431487D01*
X42578444Y-48452179D01*
X42605480Y-48463378D01*
X42634744Y-48463378D01*
X42661780Y-48452179D01*
X42682472Y-48431487D01*
X42693671Y-48404451D01*
X42695112Y-48389819D01*
X42695112Y-47464819D01*
X42905826Y-47464819D01*
X42920458Y-47463378D01*
X42947494Y-47452179D01*
X42968186Y-47431487D01*
X42979385Y-47404451D01*
X42979385Y-47375187D01*
X42968186Y-47348151D01*
X42947494Y-47327459D01*
X42920458Y-47316260D01*
X42905826Y-47314819D01*
X42334398Y-47314819D01*
X42319766Y-47316260D01*
X42292730Y-47327459D01*
X42272038Y-47348151D01*
X42260839Y-47375187D01*
X42074623Y-47375187D01*
X42063424Y-47348151D01*
X42042732Y-47327459D01*
X42015696Y-47316260D01*
X41986432Y-47316260D01*
X41959396Y-47327459D01*
X41938704Y-47348151D01*
X41927505Y-47375187D01*
X41926064Y-47389819D01*
X41926064Y-48181637D01*
X41891805Y-48250153D01*
X41861398Y-48280561D01*
X41792883Y-48314819D01*
X41637817Y-48314819D01*
X41569301Y-48280561D01*
X41538894Y-48250153D01*
X41504636Y-48181637D01*
X41504636Y-47389819D01*
X41503195Y-47375187D01*
X41491996Y-47348151D01*
X41471304Y-47327459D01*
X41444268Y-47316260D01*
X41415004Y-47316260D01*
X41387968Y-47327459D01*
X41367276Y-47348151D01*
X41356077Y-47375187D01*
X41354636Y-47389819D01*
X40916654Y-47389819D01*
X40911240Y-47384405D01*
X40905490Y-47379686D01*
X40904191Y-47378188D01*
X40901931Y-47376766D01*
X40899875Y-47375078D01*
X40898047Y-47374320D01*
X40891748Y-47370356D01*
X40796510Y-47322737D01*
X40782778Y-47317482D01*
X40780090Y-47317291D01*
X40777601Y-47316260D01*
X40762969Y-47314819D01*
X40572493Y-47314819D01*
X40557861Y-47316260D01*
X40555372Y-47317290D01*
X40552683Y-47317482D01*
X40538952Y-47322737D01*
X40443714Y-47370356D01*
X40437419Y-47374318D01*
X40435587Y-47375077D01*
X40433525Y-47376768D01*
X40431271Y-47378188D01*
X40429972Y-47379684D01*
X40424222Y-47384405D01*
X40328984Y-47479643D01*
X40319657Y-47491008D01*
X40317523Y-47496158D01*
X40314203Y-47500640D01*
X40309256Y-47514486D01*
X40261637Y-47704962D01*
X40261261Y-47707498D01*
X40260839Y-47708520D01*
X40260296Y-47714032D01*
X40259487Y-47719506D01*
X40259649Y-47720598D01*
X40259398Y-47723152D01*
X38964272Y-47723152D01*
X39244573Y-47442852D01*
X39253900Y-47431487D01*
X39265099Y-47404451D01*
X39265099Y-47375188D01*
X39253900Y-47348151D01*
X39233208Y-47327459D01*
X39206171Y-47316260D01*
X39176908Y-47316260D01*
X39149872Y-47327459D01*
X39138507Y-47336786D01*
X38695112Y-47780181D01*
X38695112Y-47389819D01*
X38693671Y-47375187D01*
X38682472Y-47348151D01*
X38661780Y-47327459D01*
X38634744Y-47316260D01*
X38605480Y-47316260D01*
X38578444Y-47327459D01*
X38557752Y-47348151D01*
X38546553Y-47375187D01*
X38545112Y-47389819D01*
X38218922Y-47389819D01*
X38217481Y-47375187D01*
X38206282Y-47348151D01*
X38185590Y-47327459D01*
X38158554Y-47316260D01*
X38129290Y-47316260D01*
X38102254Y-47327459D01*
X38081562Y-47348151D01*
X38070363Y-47375187D01*
X38068922Y-47389819D01*
X37884332Y-47389819D01*
X37882924Y-47370010D01*
X37869838Y-47343836D01*
X37847730Y-47324662D01*
X37819968Y-47315408D01*
X37790778Y-47317483D01*
X37764605Y-47330570D01*
X37745431Y-47352677D01*
X37739437Y-47366102D01*
X37477255Y-48152648D01*
X37215073Y-47366102D01*
X37209079Y-47352676D01*
X37189905Y-47330569D01*
X37163732Y-47317483D01*
X37134542Y-47315408D01*
X37106779Y-47324662D01*
X37084672Y-47343836D01*
X37071586Y-47370009D01*
X37069511Y-47399199D01*
X36958400Y-47399199D01*
X36958400Y-47203708D01*
X43090496Y-47203708D01*
X43090496Y-48575930D01*
G37*
X44854819Y-30788094D02*
X43854819Y-30788094D01*
X43854819Y-30788094D02*
X43854819Y-30549999D01*
X43854819Y-30549999D02*
X43902438Y-30407142D01*
X43902438Y-30407142D02*
X43997676Y-30311904D01*
X43997676Y-30311904D02*
X44092914Y-30264285D01*
X44092914Y-30264285D02*
X44283390Y-30216666D01*
X44283390Y-30216666D02*
X44426247Y-30216666D01*
X44426247Y-30216666D02*
X44616723Y-30264285D01*
X44616723Y-30264285D02*
X44711961Y-30311904D01*
X44711961Y-30311904D02*
X44807200Y-30407142D01*
X44807200Y-30407142D02*
X44854819Y-30549999D01*
X44854819Y-30549999D02*
X44854819Y-30788094D01*
X43950057Y-29835713D02*
X43902438Y-29788094D01*
X43902438Y-29788094D02*
X43854819Y-29692856D01*
X43854819Y-29692856D02*
X43854819Y-29454761D01*
X43854819Y-29454761D02*
X43902438Y-29359523D01*
X43902438Y-29359523D02*
X43950057Y-29311904D01*
X43950057Y-29311904D02*
X44045295Y-29264285D01*
X44045295Y-29264285D02*
X44140533Y-29264285D01*
X44140533Y-29264285D02*
X44283390Y-29311904D01*
X44283390Y-29311904D02*
X44854819Y-29883332D01*
X44854819Y-29883332D02*
X44854819Y-29264285D01*
X40854819Y-30738094D02*
X39854819Y-30738094D01*
X39854819Y-30738094D02*
X39854819Y-30499999D01*
X39854819Y-30499999D02*
X39902438Y-30357142D01*
X39902438Y-30357142D02*
X39997676Y-30261904D01*
X39997676Y-30261904D02*
X40092914Y-30214285D01*
X40092914Y-30214285D02*
X40283390Y-30166666D01*
X40283390Y-30166666D02*
X40426247Y-30166666D01*
X40426247Y-30166666D02*
X40616723Y-30214285D01*
X40616723Y-30214285D02*
X40711961Y-30261904D01*
X40711961Y-30261904D02*
X40807200Y-30357142D01*
X40807200Y-30357142D02*
X40854819Y-30499999D01*
X40854819Y-30499999D02*
X40854819Y-30738094D01*
X40854819Y-29214285D02*
X40854819Y-29785713D01*
X40854819Y-29499999D02*
X39854819Y-29499999D01*
X39854819Y-29499999D02*
X39997676Y-29595237D01*
X39997676Y-29595237D02*
X40092914Y-29690475D01*
X40092914Y-29690475D02*
X40140533Y-29785713D01*
X34806078Y-34954819D02*
X35425125Y-34954819D01*
X35425125Y-34954819D02*
X35091792Y-35335771D01*
X35091792Y-35335771D02*
X35234649Y-35335771D01*
X35234649Y-35335771D02*
X35329887Y-35383390D01*
X35329887Y-35383390D02*
X35377506Y-35431009D01*
X35377506Y-35431009D02*
X35425125Y-35526247D01*
X35425125Y-35526247D02*
X35425125Y-35764342D01*
X35425125Y-35764342D02*
X35377506Y-35859580D01*
X35377506Y-35859580D02*
X35329887Y-35907200D01*
X35329887Y-35907200D02*
X35234649Y-35954819D01*
X35234649Y-35954819D02*
X34948935Y-35954819D01*
X34948935Y-35954819D02*
X34853697Y-35907200D01*
X34853697Y-35907200D02*
X34806078Y-35859580D01*
X35853697Y-35859580D02*
X35901316Y-35907200D01*
X35901316Y-35907200D02*
X35853697Y-35954819D01*
X35853697Y-35954819D02*
X35806078Y-35907200D01*
X35806078Y-35907200D02*
X35853697Y-35859580D01*
X35853697Y-35859580D02*
X35853697Y-35954819D01*
X36234649Y-34954819D02*
X36853696Y-34954819D01*
X36853696Y-34954819D02*
X36520363Y-35335771D01*
X36520363Y-35335771D02*
X36663220Y-35335771D01*
X36663220Y-35335771D02*
X36758458Y-35383390D01*
X36758458Y-35383390D02*
X36806077Y-35431009D01*
X36806077Y-35431009D02*
X36853696Y-35526247D01*
X36853696Y-35526247D02*
X36853696Y-35764342D01*
X36853696Y-35764342D02*
X36806077Y-35859580D01*
X36806077Y-35859580D02*
X36758458Y-35907200D01*
X36758458Y-35907200D02*
X36663220Y-35954819D01*
X36663220Y-35954819D02*
X36377506Y-35954819D01*
X36377506Y-35954819D02*
X36282268Y-35907200D01*
X36282268Y-35907200D02*
X36234649Y-35859580D01*
X37139411Y-34954819D02*
X37472744Y-35954819D01*
X37472744Y-35954819D02*
X37806077Y-34954819D01*
X35282268Y-38107200D02*
X35425125Y-38154819D01*
X35425125Y-38154819D02*
X35663220Y-38154819D01*
X35663220Y-38154819D02*
X35758458Y-38107200D01*
X35758458Y-38107200D02*
X35806077Y-38059580D01*
X35806077Y-38059580D02*
X35853696Y-37964342D01*
X35853696Y-37964342D02*
X35853696Y-37869104D01*
X35853696Y-37869104D02*
X35806077Y-37773866D01*
X35806077Y-37773866D02*
X35758458Y-37726247D01*
X35758458Y-37726247D02*
X35663220Y-37678628D01*
X35663220Y-37678628D02*
X35472744Y-37631009D01*
X35472744Y-37631009D02*
X35377506Y-37583390D01*
X35377506Y-37583390D02*
X35329887Y-37535771D01*
X35329887Y-37535771D02*
X35282268Y-37440533D01*
X35282268Y-37440533D02*
X35282268Y-37345295D01*
X35282268Y-37345295D02*
X35329887Y-37250057D01*
X35329887Y-37250057D02*
X35377506Y-37202438D01*
X35377506Y-37202438D02*
X35472744Y-37154819D01*
X35472744Y-37154819D02*
X35710839Y-37154819D01*
X35710839Y-37154819D02*
X35853696Y-37202438D01*
X36282268Y-38154819D02*
X36282268Y-37154819D01*
X36282268Y-37154819D02*
X36520363Y-37154819D01*
X36520363Y-37154819D02*
X36663220Y-37202438D01*
X36663220Y-37202438D02*
X36758458Y-37297676D01*
X36758458Y-37297676D02*
X36806077Y-37392914D01*
X36806077Y-37392914D02*
X36853696Y-37583390D01*
X36853696Y-37583390D02*
X36853696Y-37726247D01*
X36853696Y-37726247D02*
X36806077Y-37916723D01*
X36806077Y-37916723D02*
X36758458Y-38011961D01*
X36758458Y-38011961D02*
X36663220Y-38107200D01*
X36663220Y-38107200D02*
X36520363Y-38154819D01*
X36520363Y-38154819D02*
X36282268Y-38154819D01*
X37234649Y-37869104D02*
X37710839Y-37869104D01*
X37139411Y-38154819D02*
X37472744Y-37154819D01*
X37472744Y-37154819D02*
X37806077Y-38154819D01*
X35710839Y-40354819D02*
X35377506Y-39878628D01*
X35139411Y-40354819D02*
X35139411Y-39354819D01*
X35139411Y-39354819D02*
X35520363Y-39354819D01*
X35520363Y-39354819D02*
X35615601Y-39402438D01*
X35615601Y-39402438D02*
X35663220Y-39450057D01*
X35663220Y-39450057D02*
X35710839Y-39545295D01*
X35710839Y-39545295D02*
X35710839Y-39688152D01*
X35710839Y-39688152D02*
X35663220Y-39783390D01*
X35663220Y-39783390D02*
X35615601Y-39831009D01*
X35615601Y-39831009D02*
X35520363Y-39878628D01*
X35520363Y-39878628D02*
X35139411Y-39878628D01*
X36663220Y-39402438D02*
X36567982Y-39354819D01*
X36567982Y-39354819D02*
X36425125Y-39354819D01*
X36425125Y-39354819D02*
X36282268Y-39402438D01*
X36282268Y-39402438D02*
X36187030Y-39497676D01*
X36187030Y-39497676D02*
X36139411Y-39592914D01*
X36139411Y-39592914D02*
X36091792Y-39783390D01*
X36091792Y-39783390D02*
X36091792Y-39926247D01*
X36091792Y-39926247D02*
X36139411Y-40116723D01*
X36139411Y-40116723D02*
X36187030Y-40211961D01*
X36187030Y-40211961D02*
X36282268Y-40307200D01*
X36282268Y-40307200D02*
X36425125Y-40354819D01*
X36425125Y-40354819D02*
X36520363Y-40354819D01*
X36520363Y-40354819D02*
X36663220Y-40307200D01*
X36663220Y-40307200D02*
X36710839Y-40259580D01*
X36710839Y-40259580D02*
X36710839Y-39926247D01*
X36710839Y-39926247D02*
X36520363Y-39926247D01*
X37472744Y-39831009D02*
X37615601Y-39878628D01*
X37615601Y-39878628D02*
X37663220Y-39926247D01*
X37663220Y-39926247D02*
X37710839Y-40021485D01*
X37710839Y-40021485D02*
X37710839Y-40164342D01*
X37710839Y-40164342D02*
X37663220Y-40259580D01*
X37663220Y-40259580D02*
X37615601Y-40307200D01*
X37615601Y-40307200D02*
X37520363Y-40354819D01*
X37520363Y-40354819D02*
X37139411Y-40354819D01*
X37139411Y-40354819D02*
X37139411Y-39354819D01*
X37139411Y-39354819D02*
X37472744Y-39354819D01*
X37472744Y-39354819D02*
X37567982Y-39402438D01*
X37567982Y-39402438D02*
X37615601Y-39450057D01*
X37615601Y-39450057D02*
X37663220Y-39545295D01*
X37663220Y-39545295D02*
X37663220Y-39640533D01*
X37663220Y-39640533D02*
X37615601Y-39735771D01*
X37615601Y-39735771D02*
X37567982Y-39783390D01*
X37567982Y-39783390D02*
X37472744Y-39831009D01*
X37472744Y-39831009D02*
X37139411Y-39831009D01*
X35710839Y-41602438D02*
X35615601Y-41554819D01*
X35615601Y-41554819D02*
X35472744Y-41554819D01*
X35472744Y-41554819D02*
X35329887Y-41602438D01*
X35329887Y-41602438D02*
X35234649Y-41697676D01*
X35234649Y-41697676D02*
X35187030Y-41792914D01*
X35187030Y-41792914D02*
X35139411Y-41983390D01*
X35139411Y-41983390D02*
X35139411Y-42126247D01*
X35139411Y-42126247D02*
X35187030Y-42316723D01*
X35187030Y-42316723D02*
X35234649Y-42411961D01*
X35234649Y-42411961D02*
X35329887Y-42507200D01*
X35329887Y-42507200D02*
X35472744Y-42554819D01*
X35472744Y-42554819D02*
X35567982Y-42554819D01*
X35567982Y-42554819D02*
X35710839Y-42507200D01*
X35710839Y-42507200D02*
X35758458Y-42459580D01*
X35758458Y-42459580D02*
X35758458Y-42126247D01*
X35758458Y-42126247D02*
X35567982Y-42126247D01*
X36187030Y-42554819D02*
X36187030Y-41554819D01*
X36187030Y-41554819D02*
X36567982Y-41554819D01*
X36567982Y-41554819D02*
X36663220Y-41602438D01*
X36663220Y-41602438D02*
X36710839Y-41650057D01*
X36710839Y-41650057D02*
X36758458Y-41745295D01*
X36758458Y-41745295D02*
X36758458Y-41888152D01*
X36758458Y-41888152D02*
X36710839Y-41983390D01*
X36710839Y-41983390D02*
X36663220Y-42031009D01*
X36663220Y-42031009D02*
X36567982Y-42078628D01*
X36567982Y-42078628D02*
X36187030Y-42078628D01*
X37710839Y-42554819D02*
X37139411Y-42554819D01*
X37425125Y-42554819D02*
X37425125Y-41554819D01*
X37425125Y-41554819D02*
X37329887Y-41697676D01*
X37329887Y-41697676D02*
X37234649Y-41792914D01*
X37234649Y-41792914D02*
X37139411Y-41840533D01*
X35710839Y-43802438D02*
X35615601Y-43754819D01*
X35615601Y-43754819D02*
X35472744Y-43754819D01*
X35472744Y-43754819D02*
X35329887Y-43802438D01*
X35329887Y-43802438D02*
X35234649Y-43897676D01*
X35234649Y-43897676D02*
X35187030Y-43992914D01*
X35187030Y-43992914D02*
X35139411Y-44183390D01*
X35139411Y-44183390D02*
X35139411Y-44326247D01*
X35139411Y-44326247D02*
X35187030Y-44516723D01*
X35187030Y-44516723D02*
X35234649Y-44611961D01*
X35234649Y-44611961D02*
X35329887Y-44707200D01*
X35329887Y-44707200D02*
X35472744Y-44754819D01*
X35472744Y-44754819D02*
X35567982Y-44754819D01*
X35567982Y-44754819D02*
X35710839Y-44707200D01*
X35710839Y-44707200D02*
X35758458Y-44659580D01*
X35758458Y-44659580D02*
X35758458Y-44326247D01*
X35758458Y-44326247D02*
X35567982Y-44326247D01*
X36187030Y-44754819D02*
X36187030Y-43754819D01*
X36187030Y-43754819D02*
X36567982Y-43754819D01*
X36567982Y-43754819D02*
X36663220Y-43802438D01*
X36663220Y-43802438D02*
X36710839Y-43850057D01*
X36710839Y-43850057D02*
X36758458Y-43945295D01*
X36758458Y-43945295D02*
X36758458Y-44088152D01*
X36758458Y-44088152D02*
X36710839Y-44183390D01*
X36710839Y-44183390D02*
X36663220Y-44231009D01*
X36663220Y-44231009D02*
X36567982Y-44278628D01*
X36567982Y-44278628D02*
X36187030Y-44278628D01*
X37139411Y-43850057D02*
X37187030Y-43802438D01*
X37187030Y-43802438D02*
X37282268Y-43754819D01*
X37282268Y-43754819D02*
X37520363Y-43754819D01*
X37520363Y-43754819D02*
X37615601Y-43802438D01*
X37615601Y-43802438D02*
X37663220Y-43850057D01*
X37663220Y-43850057D02*
X37710839Y-43945295D01*
X37710839Y-43945295D02*
X37710839Y-44040533D01*
X37710839Y-44040533D02*
X37663220Y-44183390D01*
X37663220Y-44183390D02*
X37091792Y-44754819D01*
X37091792Y-44754819D02*
X37710839Y-44754819D01*
X34520364Y-46954819D02*
X34520364Y-45954819D01*
X34520364Y-45954819D02*
X34853697Y-46669104D01*
X34853697Y-46669104D02*
X35187030Y-45954819D01*
X35187030Y-45954819D02*
X35187030Y-46954819D01*
X35663221Y-46954819D02*
X35663221Y-45954819D01*
X36091792Y-46907200D02*
X36234649Y-46954819D01*
X36234649Y-46954819D02*
X36472744Y-46954819D01*
X36472744Y-46954819D02*
X36567982Y-46907200D01*
X36567982Y-46907200D02*
X36615601Y-46859580D01*
X36615601Y-46859580D02*
X36663220Y-46764342D01*
X36663220Y-46764342D02*
X36663220Y-46669104D01*
X36663220Y-46669104D02*
X36615601Y-46573866D01*
X36615601Y-46573866D02*
X36567982Y-46526247D01*
X36567982Y-46526247D02*
X36472744Y-46478628D01*
X36472744Y-46478628D02*
X36282268Y-46431009D01*
X36282268Y-46431009D02*
X36187030Y-46383390D01*
X36187030Y-46383390D02*
X36139411Y-46335771D01*
X36139411Y-46335771D02*
X36091792Y-46240533D01*
X36091792Y-46240533D02*
X36091792Y-46145295D01*
X36091792Y-46145295D02*
X36139411Y-46050057D01*
X36139411Y-46050057D02*
X36187030Y-46002438D01*
X36187030Y-46002438D02*
X36282268Y-45954819D01*
X36282268Y-45954819D02*
X36520363Y-45954819D01*
X36520363Y-45954819D02*
X36663220Y-46002438D01*
X37282268Y-45954819D02*
X37472744Y-45954819D01*
X37472744Y-45954819D02*
X37567982Y-46002438D01*
X37567982Y-46002438D02*
X37663220Y-46097676D01*
X37663220Y-46097676D02*
X37710839Y-46288152D01*
X37710839Y-46288152D02*
X37710839Y-46621485D01*
X37710839Y-46621485D02*
X37663220Y-46811961D01*
X37663220Y-46811961D02*
X37567982Y-46907200D01*
X37567982Y-46907200D02*
X37472744Y-46954819D01*
X37472744Y-46954819D02*
X37282268Y-46954819D01*
X37282268Y-46954819D02*
X37187030Y-46907200D01*
X37187030Y-46907200D02*
X37091792Y-46811961D01*
X37091792Y-46811961D02*
X37044173Y-46621485D01*
X37044173Y-46621485D02*
X37044173Y-46288152D01*
X37044173Y-46288152D02*
X37091792Y-46097676D01*
X37091792Y-46097676D02*
X37187030Y-46002438D01*
X37187030Y-46002438D02*
X37282268Y-45954819D01*
G36*
X42257539Y-33955819D02*
G01*
X37600193Y-33955819D01*
X37600193Y-32779199D01*
X37711304Y-32779199D01*
X37714564Y-32793536D01*
X38047897Y-33793536D01*
X38053891Y-33806961D01*
X38057401Y-33811008D01*
X38059798Y-33815802D01*
X38066906Y-33821967D01*
X38073065Y-33829068D01*
X38077854Y-33831462D01*
X38081905Y-33834976D01*
X38090830Y-33837950D01*
X38099238Y-33842155D01*
X38104582Y-33842534D01*
X38109668Y-33844230D01*
X38119048Y-33843563D01*
X38128428Y-33844230D01*
X38133513Y-33842534D01*
X38138858Y-33842155D01*
X38147268Y-33837949D01*
X38156190Y-33834976D01*
X38160237Y-33831465D01*
X38165031Y-33829069D01*
X38171194Y-33821963D01*
X38178298Y-33815802D01*
X38180693Y-33811010D01*
X38184205Y-33806962D01*
X38190199Y-33793536D01*
X38523532Y-32793536D01*
X38526792Y-32779200D01*
X38526125Y-32769819D01*
X38710715Y-32769819D01*
X38710715Y-33769819D01*
X38712156Y-33784451D01*
X38723355Y-33811487D01*
X38744047Y-33832179D01*
X38771083Y-33843378D01*
X38800347Y-33843378D01*
X38827383Y-33832179D01*
X38848075Y-33811487D01*
X38859274Y-33784451D01*
X38860715Y-33769819D01*
X38860715Y-32769819D01*
X39186905Y-32769819D01*
X39186905Y-33769819D01*
X39188346Y-33784451D01*
X39199545Y-33811487D01*
X39220237Y-33832179D01*
X39247273Y-33843378D01*
X39276537Y-33843378D01*
X39303573Y-33832179D01*
X39324265Y-33811487D01*
X39335464Y-33784451D01*
X39336905Y-33769819D01*
X39336905Y-33372313D01*
X39396647Y-33312570D01*
X39773333Y-33814819D01*
X39783265Y-33825660D01*
X39808446Y-33840570D01*
X39837415Y-33844708D01*
X39865763Y-33837446D01*
X39889174Y-33819887D01*
X39904083Y-33794706D01*
X39908222Y-33765738D01*
X39900960Y-33737389D01*
X39893333Y-33724819D01*
X39503790Y-33205427D01*
X39886366Y-32822852D01*
X39895693Y-32811487D01*
X39906892Y-32784451D01*
X39906892Y-32769819D01*
X40948810Y-32769819D01*
X40948810Y-33769819D01*
X40950251Y-33784451D01*
X40961450Y-33811487D01*
X40982142Y-33832179D01*
X41009178Y-33843378D01*
X41038442Y-33843378D01*
X41065478Y-33832179D01*
X41086170Y-33811487D01*
X41097369Y-33784451D01*
X41098810Y-33769819D01*
X41098810Y-32769819D01*
X41425000Y-32769819D01*
X41425000Y-33769819D01*
X41426441Y-33784451D01*
X41437640Y-33811487D01*
X41458332Y-33832179D01*
X41485368Y-33843378D01*
X41514632Y-33843378D01*
X41541668Y-33832179D01*
X41562360Y-33811487D01*
X41573559Y-33784451D01*
X41575000Y-33769819D01*
X41575000Y-33052235D01*
X42006310Y-33807030D01*
X42008499Y-33810114D01*
X42009068Y-33811487D01*
X42010465Y-33812884D01*
X42014820Y-33819019D01*
X42022708Y-33825127D01*
X42029760Y-33832179D01*
X42034178Y-33834009D01*
X42037958Y-33836936D01*
X42047579Y-33839560D01*
X42056796Y-33843378D01*
X42061577Y-33843378D01*
X42066189Y-33844636D01*
X42076086Y-33843378D01*
X42086060Y-33843378D01*
X42090475Y-33841548D01*
X42095219Y-33840946D01*
X42103883Y-33835995D01*
X42113096Y-33832179D01*
X42116474Y-33828800D01*
X42120628Y-33826427D01*
X42126737Y-33818537D01*
X42133788Y-33811487D01*
X42135617Y-33807070D01*
X42138545Y-33803290D01*
X42141169Y-33793666D01*
X42144987Y-33784451D01*
X42145723Y-33776968D01*
X42146245Y-33775058D01*
X42146057Y-33773582D01*
X42146428Y-33769819D01*
X42146428Y-32769819D01*
X42144987Y-32755187D01*
X42133788Y-32728151D01*
X42113096Y-32707459D01*
X42086060Y-32696260D01*
X42056796Y-32696260D01*
X42029760Y-32707459D01*
X42009068Y-32728151D01*
X41997869Y-32755187D01*
X41996428Y-32769819D01*
X41996428Y-33487402D01*
X41565118Y-32732609D01*
X41562929Y-32729525D01*
X41562360Y-32728151D01*
X41560960Y-32726751D01*
X41556608Y-32720619D01*
X41548718Y-32714509D01*
X41541668Y-32707459D01*
X41537251Y-32705629D01*
X41533471Y-32702702D01*
X41523847Y-32700077D01*
X41514632Y-32696260D01*
X41509851Y-32696260D01*
X41505239Y-32695002D01*
X41495342Y-32696260D01*
X41485368Y-32696260D01*
X41480952Y-32698089D01*
X41476209Y-32698692D01*
X41467544Y-32703642D01*
X41458332Y-32707459D01*
X41454953Y-32710837D01*
X41450800Y-32713211D01*
X41444690Y-32721100D01*
X41437640Y-32728151D01*
X41435810Y-32732567D01*
X41432883Y-32736348D01*
X41430258Y-32745971D01*
X41426441Y-32755187D01*
X41425704Y-32762669D01*
X41425183Y-32764580D01*
X41425370Y-32766055D01*
X41425000Y-32769819D01*
X41098810Y-32769819D01*
X41097369Y-32755187D01*
X41086170Y-32728151D01*
X41065478Y-32707459D01*
X41038442Y-32696260D01*
X41009178Y-32696260D01*
X40982142Y-32707459D01*
X40961450Y-32728151D01*
X40950251Y-32755187D01*
X40948810Y-32769819D01*
X39906892Y-32769819D01*
X39906892Y-32755188D01*
X39895693Y-32728151D01*
X39875001Y-32707459D01*
X39847964Y-32696260D01*
X39818701Y-32696260D01*
X39791665Y-32707459D01*
X39780300Y-32716786D01*
X39336905Y-33160181D01*
X39336905Y-32769819D01*
X39335464Y-32755187D01*
X39324265Y-32728151D01*
X39303573Y-32707459D01*
X39276537Y-32696260D01*
X39247273Y-32696260D01*
X39220237Y-32707459D01*
X39199545Y-32728151D01*
X39188346Y-32755187D01*
X39186905Y-32769819D01*
X38860715Y-32769819D01*
X38859274Y-32755187D01*
X38848075Y-32728151D01*
X38827383Y-32707459D01*
X38800347Y-32696260D01*
X38771083Y-32696260D01*
X38744047Y-32707459D01*
X38723355Y-32728151D01*
X38712156Y-32755187D01*
X38710715Y-32769819D01*
X38526125Y-32769819D01*
X38524717Y-32750010D01*
X38511631Y-32723836D01*
X38489523Y-32704662D01*
X38461761Y-32695408D01*
X38432571Y-32697483D01*
X38406398Y-32710570D01*
X38387224Y-32732677D01*
X38381230Y-32746102D01*
X38119048Y-33532648D01*
X37856866Y-32746102D01*
X37850872Y-32732676D01*
X37831698Y-32710569D01*
X37805525Y-32697483D01*
X37776335Y-32695408D01*
X37748572Y-32704662D01*
X37726465Y-32723836D01*
X37713379Y-32750009D01*
X37711304Y-32779199D01*
X37600193Y-32779199D01*
X37600193Y-32583891D01*
X42257539Y-32583891D01*
X42257539Y-33955819D01*
G37*
X42860588Y-35002438D02*
X42765350Y-34954819D01*
X42765350Y-34954819D02*
X42622493Y-34954819D01*
X42622493Y-34954819D02*
X42479636Y-35002438D01*
X42479636Y-35002438D02*
X42384398Y-35097676D01*
X42384398Y-35097676D02*
X42336779Y-35192914D01*
X42336779Y-35192914D02*
X42289160Y-35383390D01*
X42289160Y-35383390D02*
X42289160Y-35526247D01*
X42289160Y-35526247D02*
X42336779Y-35716723D01*
X42336779Y-35716723D02*
X42384398Y-35811961D01*
X42384398Y-35811961D02*
X42479636Y-35907200D01*
X42479636Y-35907200D02*
X42622493Y-35954819D01*
X42622493Y-35954819D02*
X42717731Y-35954819D01*
X42717731Y-35954819D02*
X42860588Y-35907200D01*
X42860588Y-35907200D02*
X42908207Y-35859580D01*
X42908207Y-35859580D02*
X42908207Y-35526247D01*
X42908207Y-35526247D02*
X42717731Y-35526247D01*
X43336779Y-35954819D02*
X43336779Y-34954819D01*
X43336779Y-34954819D02*
X43908207Y-35954819D01*
X43908207Y-35954819D02*
X43908207Y-34954819D01*
X44384398Y-35954819D02*
X44384398Y-34954819D01*
X44384398Y-34954819D02*
X44622493Y-34954819D01*
X44622493Y-34954819D02*
X44765350Y-35002438D01*
X44765350Y-35002438D02*
X44860588Y-35097676D01*
X44860588Y-35097676D02*
X44908207Y-35192914D01*
X44908207Y-35192914D02*
X44955826Y-35383390D01*
X44955826Y-35383390D02*
X44955826Y-35526247D01*
X44955826Y-35526247D02*
X44908207Y-35716723D01*
X44908207Y-35716723D02*
X44860588Y-35811961D01*
X44860588Y-35811961D02*
X44765350Y-35907200D01*
X44765350Y-35907200D02*
X44622493Y-35954819D01*
X44622493Y-35954819D02*
X44384398Y-35954819D01*
X42289160Y-38107200D02*
X42432017Y-38154819D01*
X42432017Y-38154819D02*
X42670112Y-38154819D01*
X42670112Y-38154819D02*
X42765350Y-38107200D01*
X42765350Y-38107200D02*
X42812969Y-38059580D01*
X42812969Y-38059580D02*
X42860588Y-37964342D01*
X42860588Y-37964342D02*
X42860588Y-37869104D01*
X42860588Y-37869104D02*
X42812969Y-37773866D01*
X42812969Y-37773866D02*
X42765350Y-37726247D01*
X42765350Y-37726247D02*
X42670112Y-37678628D01*
X42670112Y-37678628D02*
X42479636Y-37631009D01*
X42479636Y-37631009D02*
X42384398Y-37583390D01*
X42384398Y-37583390D02*
X42336779Y-37535771D01*
X42336779Y-37535771D02*
X42289160Y-37440533D01*
X42289160Y-37440533D02*
X42289160Y-37345295D01*
X42289160Y-37345295D02*
X42336779Y-37250057D01*
X42336779Y-37250057D02*
X42384398Y-37202438D01*
X42384398Y-37202438D02*
X42479636Y-37154819D01*
X42479636Y-37154819D02*
X42717731Y-37154819D01*
X42717731Y-37154819D02*
X42860588Y-37202438D01*
X43860588Y-38059580D02*
X43812969Y-38107200D01*
X43812969Y-38107200D02*
X43670112Y-38154819D01*
X43670112Y-38154819D02*
X43574874Y-38154819D01*
X43574874Y-38154819D02*
X43432017Y-38107200D01*
X43432017Y-38107200D02*
X43336779Y-38011961D01*
X43336779Y-38011961D02*
X43289160Y-37916723D01*
X43289160Y-37916723D02*
X43241541Y-37726247D01*
X43241541Y-37726247D02*
X43241541Y-37583390D01*
X43241541Y-37583390D02*
X43289160Y-37392914D01*
X43289160Y-37392914D02*
X43336779Y-37297676D01*
X43336779Y-37297676D02*
X43432017Y-37202438D01*
X43432017Y-37202438D02*
X43574874Y-37154819D01*
X43574874Y-37154819D02*
X43670112Y-37154819D01*
X43670112Y-37154819D02*
X43812969Y-37202438D01*
X43812969Y-37202438D02*
X43860588Y-37250057D01*
X44765350Y-38154819D02*
X44289160Y-38154819D01*
X44289160Y-38154819D02*
X44289160Y-37154819D01*
X42812969Y-39354819D02*
X42336779Y-39354819D01*
X42336779Y-39354819D02*
X42289160Y-39831009D01*
X42289160Y-39831009D02*
X42336779Y-39783390D01*
X42336779Y-39783390D02*
X42432017Y-39735771D01*
X42432017Y-39735771D02*
X42670112Y-39735771D01*
X42670112Y-39735771D02*
X42765350Y-39783390D01*
X42765350Y-39783390D02*
X42812969Y-39831009D01*
X42812969Y-39831009D02*
X42860588Y-39926247D01*
X42860588Y-39926247D02*
X42860588Y-40164342D01*
X42860588Y-40164342D02*
X42812969Y-40259580D01*
X42812969Y-40259580D02*
X42765350Y-40307200D01*
X42765350Y-40307200D02*
X42670112Y-40354819D01*
X42670112Y-40354819D02*
X42432017Y-40354819D01*
X42432017Y-40354819D02*
X42336779Y-40307200D01*
X42336779Y-40307200D02*
X42289160Y-40259580D01*
X43146303Y-39354819D02*
X43479636Y-40354819D01*
X43479636Y-40354819D02*
X43812969Y-39354819D01*
X42336779Y-42554819D02*
X42336779Y-41554819D01*
X42336779Y-41554819D02*
X42670112Y-42269104D01*
X42670112Y-42269104D02*
X43003445Y-41554819D01*
X43003445Y-41554819D02*
X43003445Y-42554819D01*
X43670112Y-41554819D02*
X43860588Y-41554819D01*
X43860588Y-41554819D02*
X43955826Y-41602438D01*
X43955826Y-41602438D02*
X44051064Y-41697676D01*
X44051064Y-41697676D02*
X44098683Y-41888152D01*
X44098683Y-41888152D02*
X44098683Y-42221485D01*
X44098683Y-42221485D02*
X44051064Y-42411961D01*
X44051064Y-42411961D02*
X43955826Y-42507200D01*
X43955826Y-42507200D02*
X43860588Y-42554819D01*
X43860588Y-42554819D02*
X43670112Y-42554819D01*
X43670112Y-42554819D02*
X43574874Y-42507200D01*
X43574874Y-42507200D02*
X43479636Y-42411961D01*
X43479636Y-42411961D02*
X43432017Y-42221485D01*
X43432017Y-42221485D02*
X43432017Y-41888152D01*
X43432017Y-41888152D02*
X43479636Y-41697676D01*
X43479636Y-41697676D02*
X43574874Y-41602438D01*
X43574874Y-41602438D02*
X43670112Y-41554819D01*
X44479636Y-42507200D02*
X44622493Y-42554819D01*
X44622493Y-42554819D02*
X44860588Y-42554819D01*
X44860588Y-42554819D02*
X44955826Y-42507200D01*
X44955826Y-42507200D02*
X45003445Y-42459580D01*
X45003445Y-42459580D02*
X45051064Y-42364342D01*
X45051064Y-42364342D02*
X45051064Y-42269104D01*
X45051064Y-42269104D02*
X45003445Y-42173866D01*
X45003445Y-42173866D02*
X44955826Y-42126247D01*
X44955826Y-42126247D02*
X44860588Y-42078628D01*
X44860588Y-42078628D02*
X44670112Y-42031009D01*
X44670112Y-42031009D02*
X44574874Y-41983390D01*
X44574874Y-41983390D02*
X44527255Y-41935771D01*
X44527255Y-41935771D02*
X44479636Y-41840533D01*
X44479636Y-41840533D02*
X44479636Y-41745295D01*
X44479636Y-41745295D02*
X44527255Y-41650057D01*
X44527255Y-41650057D02*
X44574874Y-41602438D01*
X44574874Y-41602438D02*
X44670112Y-41554819D01*
X44670112Y-41554819D02*
X44908207Y-41554819D01*
X44908207Y-41554819D02*
X45051064Y-41602438D01*
X45479636Y-42554819D02*
X45479636Y-41554819D01*
X42908207Y-44659580D02*
X42860588Y-44707200D01*
X42860588Y-44707200D02*
X42717731Y-44754819D01*
X42717731Y-44754819D02*
X42622493Y-44754819D01*
X42622493Y-44754819D02*
X42479636Y-44707200D01*
X42479636Y-44707200D02*
X42384398Y-44611961D01*
X42384398Y-44611961D02*
X42336779Y-44516723D01*
X42336779Y-44516723D02*
X42289160Y-44326247D01*
X42289160Y-44326247D02*
X42289160Y-44183390D01*
X42289160Y-44183390D02*
X42336779Y-43992914D01*
X42336779Y-43992914D02*
X42384398Y-43897676D01*
X42384398Y-43897676D02*
X42479636Y-43802438D01*
X42479636Y-43802438D02*
X42622493Y-43754819D01*
X42622493Y-43754819D02*
X42717731Y-43754819D01*
X42717731Y-43754819D02*
X42860588Y-43802438D01*
X42860588Y-43802438D02*
X42908207Y-43850057D01*
X43289160Y-44707200D02*
X43432017Y-44754819D01*
X43432017Y-44754819D02*
X43670112Y-44754819D01*
X43670112Y-44754819D02*
X43765350Y-44707200D01*
X43765350Y-44707200D02*
X43812969Y-44659580D01*
X43812969Y-44659580D02*
X43860588Y-44564342D01*
X43860588Y-44564342D02*
X43860588Y-44469104D01*
X43860588Y-44469104D02*
X43812969Y-44373866D01*
X43812969Y-44373866D02*
X43765350Y-44326247D01*
X43765350Y-44326247D02*
X43670112Y-44278628D01*
X43670112Y-44278628D02*
X43479636Y-44231009D01*
X43479636Y-44231009D02*
X43384398Y-44183390D01*
X43384398Y-44183390D02*
X43336779Y-44135771D01*
X43336779Y-44135771D02*
X43289160Y-44040533D01*
X43289160Y-44040533D02*
X43289160Y-43945295D01*
X43289160Y-43945295D02*
X43336779Y-43850057D01*
X43336779Y-43850057D02*
X43384398Y-43802438D01*
X43384398Y-43802438D02*
X43479636Y-43754819D01*
X43479636Y-43754819D02*
X43717731Y-43754819D01*
X43717731Y-43754819D02*
X43860588Y-43802438D01*
X42289160Y-46907200D02*
X42432017Y-46954819D01*
X42432017Y-46954819D02*
X42670112Y-46954819D01*
X42670112Y-46954819D02*
X42765350Y-46907200D01*
X42765350Y-46907200D02*
X42812969Y-46859580D01*
X42812969Y-46859580D02*
X42860588Y-46764342D01*
X42860588Y-46764342D02*
X42860588Y-46669104D01*
X42860588Y-46669104D02*
X42812969Y-46573866D01*
X42812969Y-46573866D02*
X42765350Y-46526247D01*
X42765350Y-46526247D02*
X42670112Y-46478628D01*
X42670112Y-46478628D02*
X42479636Y-46431009D01*
X42479636Y-46431009D02*
X42384398Y-46383390D01*
X42384398Y-46383390D02*
X42336779Y-46335771D01*
X42336779Y-46335771D02*
X42289160Y-46240533D01*
X42289160Y-46240533D02*
X42289160Y-46145295D01*
X42289160Y-46145295D02*
X42336779Y-46050057D01*
X42336779Y-46050057D02*
X42384398Y-46002438D01*
X42384398Y-46002438D02*
X42479636Y-45954819D01*
X42479636Y-45954819D02*
X42717731Y-45954819D01*
X42717731Y-45954819D02*
X42860588Y-46002438D01*
X43860588Y-46859580D02*
X43812969Y-46907200D01*
X43812969Y-46907200D02*
X43670112Y-46954819D01*
X43670112Y-46954819D02*
X43574874Y-46954819D01*
X43574874Y-46954819D02*
X43432017Y-46907200D01*
X43432017Y-46907200D02*
X43336779Y-46811961D01*
X43336779Y-46811961D02*
X43289160Y-46716723D01*
X43289160Y-46716723D02*
X43241541Y-46526247D01*
X43241541Y-46526247D02*
X43241541Y-46383390D01*
X43241541Y-46383390D02*
X43289160Y-46192914D01*
X43289160Y-46192914D02*
X43336779Y-46097676D01*
X43336779Y-46097676D02*
X43432017Y-46002438D01*
X43432017Y-46002438D02*
X43574874Y-45954819D01*
X43574874Y-45954819D02*
X43670112Y-45954819D01*
X43670112Y-45954819D02*
X43812969Y-46002438D01*
X43812969Y-46002438D02*
X43860588Y-46050057D01*
X44765350Y-46954819D02*
X44289160Y-46954819D01*
X44289160Y-46954819D02*
X44289160Y-45954819D01*
X45098684Y-46954819D02*
X45098684Y-45954819D01*
X45670112Y-46954819D02*
X45241541Y-46383390D01*
X45670112Y-45954819D02*
X45098684Y-46526247D01*
X37333333Y-19804819D02*
X37333333Y-18804819D01*
X37333333Y-19281009D02*
X37904761Y-19281009D01*
X37904761Y-19804819D02*
X37904761Y-18804819D01*
X38142857Y-19900057D02*
X38904761Y-19900057D01*
X39714285Y-19709580D02*
X39666666Y-19757200D01*
X39666666Y-19757200D02*
X39523809Y-19804819D01*
X39523809Y-19804819D02*
X39428571Y-19804819D01*
X39428571Y-19804819D02*
X39285714Y-19757200D01*
X39285714Y-19757200D02*
X39190476Y-19661961D01*
X39190476Y-19661961D02*
X39142857Y-19566723D01*
X39142857Y-19566723D02*
X39095238Y-19376247D01*
X39095238Y-19376247D02*
X39095238Y-19233390D01*
X39095238Y-19233390D02*
X39142857Y-19042914D01*
X39142857Y-19042914D02*
X39190476Y-18947676D01*
X39190476Y-18947676D02*
X39285714Y-18852438D01*
X39285714Y-18852438D02*
X39428571Y-18804819D01*
X39428571Y-18804819D02*
X39523809Y-18804819D01*
X39523809Y-18804819D02*
X39666666Y-18852438D01*
X39666666Y-18852438D02*
X39714285Y-18900057D01*
X40619047Y-19804819D02*
X40142857Y-19804819D01*
X40142857Y-19804819D02*
X40142857Y-18804819D01*
X40952381Y-19804819D02*
X40952381Y-18804819D01*
X41190476Y-19900057D02*
X41952380Y-19900057D01*
X42714285Y-19804819D02*
X42142857Y-19804819D01*
X42428571Y-19804819D02*
X42428571Y-18804819D01*
X42428571Y-18804819D02*
X42333333Y-18947676D01*
X42333333Y-18947676D02*
X42238095Y-19042914D01*
X42238095Y-19042914D02*
X42142857Y-19090533D01*
X45581009Y-62023809D02*
X45581009Y-62357142D01*
X46104819Y-62357142D02*
X45104819Y-62357142D01*
X45104819Y-62357142D02*
X45104819Y-61880952D01*
X46200057Y-61738095D02*
X46200057Y-60976190D01*
X45104819Y-60261904D02*
X45104819Y-60738094D01*
X45104819Y-60738094D02*
X45581009Y-60785713D01*
X45581009Y-60785713D02*
X45533390Y-60738094D01*
X45533390Y-60738094D02*
X45485771Y-60642856D01*
X45485771Y-60642856D02*
X45485771Y-60404761D01*
X45485771Y-60404761D02*
X45533390Y-60309523D01*
X45533390Y-60309523D02*
X45581009Y-60261904D01*
X45581009Y-60261904D02*
X45676247Y-60214285D01*
X45676247Y-60214285D02*
X45914342Y-60214285D01*
X45914342Y-60214285D02*
X46009580Y-60261904D01*
X46009580Y-60261904D02*
X46057200Y-60309523D01*
X46057200Y-60309523D02*
X46104819Y-60404761D01*
X46104819Y-60404761D02*
X46104819Y-60642856D01*
X46104819Y-60642856D02*
X46057200Y-60738094D01*
X46057200Y-60738094D02*
X46009580Y-60785713D01*
X45104819Y-59928570D02*
X46104819Y-59595237D01*
X46104819Y-59595237D02*
X45104819Y-59261904D01*
X46200057Y-59166666D02*
X46200057Y-58404761D01*
X46009580Y-57595237D02*
X46057200Y-57642856D01*
X46057200Y-57642856D02*
X46104819Y-57785713D01*
X46104819Y-57785713D02*
X46104819Y-57880951D01*
X46104819Y-57880951D02*
X46057200Y-58023808D01*
X46057200Y-58023808D02*
X45961961Y-58119046D01*
X45961961Y-58119046D02*
X45866723Y-58166665D01*
X45866723Y-58166665D02*
X45676247Y-58214284D01*
X45676247Y-58214284D02*
X45533390Y-58214284D01*
X45533390Y-58214284D02*
X45342914Y-58166665D01*
X45342914Y-58166665D02*
X45247676Y-58119046D01*
X45247676Y-58119046D02*
X45152438Y-58023808D01*
X45152438Y-58023808D02*
X45104819Y-57880951D01*
X45104819Y-57880951D02*
X45104819Y-57785713D01*
X45104819Y-57785713D02*
X45152438Y-57642856D01*
X45152438Y-57642856D02*
X45200057Y-57595237D01*
X46104819Y-56690475D02*
X46104819Y-57166665D01*
X46104819Y-57166665D02*
X45104819Y-57166665D01*
X46104819Y-56357141D02*
X45104819Y-56357141D01*
X46200057Y-56119047D02*
X46200057Y-55357142D01*
X46104819Y-54595237D02*
X46104819Y-55166665D01*
X46104819Y-54880951D02*
X45104819Y-54880951D01*
X45104819Y-54880951D02*
X45247676Y-54976189D01*
X45247676Y-54976189D02*
X45342914Y-55071427D01*
X45342914Y-55071427D02*
X45390533Y-55166665D01*
X22571428Y-56804819D02*
X22571428Y-55804819D01*
X22571428Y-56281009D02*
X23142856Y-56281009D01*
X23142856Y-56804819D02*
X23142856Y-55804819D01*
X23380952Y-56900057D02*
X24142856Y-56900057D01*
X24380952Y-56804819D02*
X24380952Y-55804819D01*
X24380952Y-56281009D02*
X24952380Y-56281009D01*
X24952380Y-56804819D02*
X24952380Y-55804819D01*
X25619047Y-55804819D02*
X25809523Y-55804819D01*
X25809523Y-55804819D02*
X25904761Y-55852438D01*
X25904761Y-55852438D02*
X25999999Y-55947676D01*
X25999999Y-55947676D02*
X26047618Y-56138152D01*
X26047618Y-56138152D02*
X26047618Y-56471485D01*
X26047618Y-56471485D02*
X25999999Y-56661961D01*
X25999999Y-56661961D02*
X25904761Y-56757200D01*
X25904761Y-56757200D02*
X25809523Y-56804819D01*
X25809523Y-56804819D02*
X25619047Y-56804819D01*
X25619047Y-56804819D02*
X25523809Y-56757200D01*
X25523809Y-56757200D02*
X25428571Y-56661961D01*
X25428571Y-56661961D02*
X25380952Y-56471485D01*
X25380952Y-56471485D02*
X25380952Y-56138152D01*
X25380952Y-56138152D02*
X25428571Y-55947676D01*
X25428571Y-55947676D02*
X25523809Y-55852438D01*
X25523809Y-55852438D02*
X25619047Y-55804819D01*
X26428571Y-56757200D02*
X26571428Y-56804819D01*
X26571428Y-56804819D02*
X26809523Y-56804819D01*
X26809523Y-56804819D02*
X26904761Y-56757200D01*
X26904761Y-56757200D02*
X26952380Y-56709580D01*
X26952380Y-56709580D02*
X26999999Y-56614342D01*
X26999999Y-56614342D02*
X26999999Y-56519104D01*
X26999999Y-56519104D02*
X26952380Y-56423866D01*
X26952380Y-56423866D02*
X26904761Y-56376247D01*
X26904761Y-56376247D02*
X26809523Y-56328628D01*
X26809523Y-56328628D02*
X26619047Y-56281009D01*
X26619047Y-56281009D02*
X26523809Y-56233390D01*
X26523809Y-56233390D02*
X26476190Y-56185771D01*
X26476190Y-56185771D02*
X26428571Y-56090533D01*
X26428571Y-56090533D02*
X26428571Y-55995295D01*
X26428571Y-55995295D02*
X26476190Y-55900057D01*
X26476190Y-55900057D02*
X26523809Y-55852438D01*
X26523809Y-55852438D02*
X26619047Y-55804819D01*
X26619047Y-55804819D02*
X26857142Y-55804819D01*
X26857142Y-55804819D02*
X26999999Y-55852438D01*
X27285714Y-55804819D02*
X27857142Y-55804819D01*
X27571428Y-56804819D02*
X27571428Y-55804819D01*
X27952381Y-56900057D02*
X28714285Y-56900057D01*
X28904762Y-55900057D02*
X28952381Y-55852438D01*
X28952381Y-55852438D02*
X29047619Y-55804819D01*
X29047619Y-55804819D02*
X29285714Y-55804819D01*
X29285714Y-55804819D02*
X29380952Y-55852438D01*
X29380952Y-55852438D02*
X29428571Y-55900057D01*
X29428571Y-55900057D02*
X29476190Y-55995295D01*
X29476190Y-55995295D02*
X29476190Y-56090533D01*
X29476190Y-56090533D02*
X29428571Y-56233390D01*
X29428571Y-56233390D02*
X28857143Y-56804819D01*
X28857143Y-56804819D02*
X29476190Y-56804819D01*
X28281009Y-63324405D02*
X28281009Y-63657738D01*
X28804819Y-63657738D02*
X27804819Y-63657738D01*
X27804819Y-63657738D02*
X27804819Y-63181548D01*
X28900057Y-63038691D02*
X28900057Y-62276786D01*
X27804819Y-62133928D02*
X27804819Y-61514881D01*
X27804819Y-61514881D02*
X28185771Y-61848214D01*
X28185771Y-61848214D02*
X28185771Y-61705357D01*
X28185771Y-61705357D02*
X28233390Y-61610119D01*
X28233390Y-61610119D02*
X28281009Y-61562500D01*
X28281009Y-61562500D02*
X28376247Y-61514881D01*
X28376247Y-61514881D02*
X28614342Y-61514881D01*
X28614342Y-61514881D02*
X28709580Y-61562500D01*
X28709580Y-61562500D02*
X28757200Y-61610119D01*
X28757200Y-61610119D02*
X28804819Y-61705357D01*
X28804819Y-61705357D02*
X28804819Y-61991071D01*
X28804819Y-61991071D02*
X28757200Y-62086309D01*
X28757200Y-62086309D02*
X28709580Y-62133928D01*
X27804819Y-61229166D02*
X28804819Y-60895833D01*
X28804819Y-60895833D02*
X27804819Y-60562500D01*
X27804819Y-60324404D02*
X27804819Y-59705357D01*
X27804819Y-59705357D02*
X28185771Y-60038690D01*
X28185771Y-60038690D02*
X28185771Y-59895833D01*
X28185771Y-59895833D02*
X28233390Y-59800595D01*
X28233390Y-59800595D02*
X28281009Y-59752976D01*
X28281009Y-59752976D02*
X28376247Y-59705357D01*
X28376247Y-59705357D02*
X28614342Y-59705357D01*
X28614342Y-59705357D02*
X28709580Y-59752976D01*
X28709580Y-59752976D02*
X28757200Y-59800595D01*
X28757200Y-59800595D02*
X28804819Y-59895833D01*
X28804819Y-59895833D02*
X28804819Y-60181547D01*
X28804819Y-60181547D02*
X28757200Y-60276785D01*
X28757200Y-60276785D02*
X28709580Y-60324404D01*
X28900057Y-59514881D02*
X28900057Y-58752976D01*
X28804819Y-58514880D02*
X27804819Y-58514880D01*
X28281009Y-58514880D02*
X28281009Y-57943452D01*
X28804819Y-57943452D02*
X27804819Y-57943452D01*
X27804819Y-57276785D02*
X27804819Y-57086309D01*
X27804819Y-57086309D02*
X27852438Y-56991071D01*
X27852438Y-56991071D02*
X27947676Y-56895833D01*
X27947676Y-56895833D02*
X28138152Y-56848214D01*
X28138152Y-56848214D02*
X28471485Y-56848214D01*
X28471485Y-56848214D02*
X28661961Y-56895833D01*
X28661961Y-56895833D02*
X28757200Y-56991071D01*
X28757200Y-56991071D02*
X28804819Y-57086309D01*
X28804819Y-57086309D02*
X28804819Y-57276785D01*
X28804819Y-57276785D02*
X28757200Y-57372023D01*
X28757200Y-57372023D02*
X28661961Y-57467261D01*
X28661961Y-57467261D02*
X28471485Y-57514880D01*
X28471485Y-57514880D02*
X28138152Y-57514880D01*
X28138152Y-57514880D02*
X27947676Y-57467261D01*
X27947676Y-57467261D02*
X27852438Y-57372023D01*
X27852438Y-57372023D02*
X27804819Y-57276785D01*
X28757200Y-56467261D02*
X28804819Y-56324404D01*
X28804819Y-56324404D02*
X28804819Y-56086309D01*
X28804819Y-56086309D02*
X28757200Y-55991071D01*
X28757200Y-55991071D02*
X28709580Y-55943452D01*
X28709580Y-55943452D02*
X28614342Y-55895833D01*
X28614342Y-55895833D02*
X28519104Y-55895833D01*
X28519104Y-55895833D02*
X28423866Y-55943452D01*
X28423866Y-55943452D02*
X28376247Y-55991071D01*
X28376247Y-55991071D02*
X28328628Y-56086309D01*
X28328628Y-56086309D02*
X28281009Y-56276785D01*
X28281009Y-56276785D02*
X28233390Y-56372023D01*
X28233390Y-56372023D02*
X28185771Y-56419642D01*
X28185771Y-56419642D02*
X28090533Y-56467261D01*
X28090533Y-56467261D02*
X27995295Y-56467261D01*
X27995295Y-56467261D02*
X27900057Y-56419642D01*
X27900057Y-56419642D02*
X27852438Y-56372023D01*
X27852438Y-56372023D02*
X27804819Y-56276785D01*
X27804819Y-56276785D02*
X27804819Y-56038690D01*
X27804819Y-56038690D02*
X27852438Y-55895833D01*
X27804819Y-55610118D02*
X27804819Y-55038690D01*
X28804819Y-55324404D02*
X27804819Y-55324404D01*
X28900057Y-54943452D02*
X28900057Y-54181547D01*
X28804819Y-53419642D02*
X28804819Y-53991070D01*
X28804819Y-53705356D02*
X27804819Y-53705356D01*
X27804819Y-53705356D02*
X27947676Y-53800594D01*
X27947676Y-53800594D02*
X28042914Y-53895832D01*
X28042914Y-53895832D02*
X28090533Y-53991070D01*
X37333333Y-56804819D02*
X37333333Y-55804819D01*
X37333333Y-56281009D02*
X37904761Y-56281009D01*
X37904761Y-56804819D02*
X37904761Y-55804819D01*
X38142857Y-56900057D02*
X38904761Y-56900057D01*
X39714285Y-56709580D02*
X39666666Y-56757200D01*
X39666666Y-56757200D02*
X39523809Y-56804819D01*
X39523809Y-56804819D02*
X39428571Y-56804819D01*
X39428571Y-56804819D02*
X39285714Y-56757200D01*
X39285714Y-56757200D02*
X39190476Y-56661961D01*
X39190476Y-56661961D02*
X39142857Y-56566723D01*
X39142857Y-56566723D02*
X39095238Y-56376247D01*
X39095238Y-56376247D02*
X39095238Y-56233390D01*
X39095238Y-56233390D02*
X39142857Y-56042914D01*
X39142857Y-56042914D02*
X39190476Y-55947676D01*
X39190476Y-55947676D02*
X39285714Y-55852438D01*
X39285714Y-55852438D02*
X39428571Y-55804819D01*
X39428571Y-55804819D02*
X39523809Y-55804819D01*
X39523809Y-55804819D02*
X39666666Y-55852438D01*
X39666666Y-55852438D02*
X39714285Y-55900057D01*
X40619047Y-56804819D02*
X40142857Y-56804819D01*
X40142857Y-56804819D02*
X40142857Y-55804819D01*
X40952381Y-56804819D02*
X40952381Y-55804819D01*
X41190476Y-56900057D02*
X41952380Y-56900057D01*
X42142857Y-55900057D02*
X42190476Y-55852438D01*
X42190476Y-55852438D02*
X42285714Y-55804819D01*
X42285714Y-55804819D02*
X42523809Y-55804819D01*
X42523809Y-55804819D02*
X42619047Y-55852438D01*
X42619047Y-55852438D02*
X42666666Y-55900057D01*
X42666666Y-55900057D02*
X42714285Y-55995295D01*
X42714285Y-55995295D02*
X42714285Y-56090533D01*
X42714285Y-56090533D02*
X42666666Y-56233390D01*
X42666666Y-56233390D02*
X42095238Y-56804819D01*
X42095238Y-56804819D02*
X42714285Y-56804819D01*
X20281009Y-62785714D02*
X20281009Y-63119047D01*
X20804819Y-63119047D02*
X19804819Y-63119047D01*
X19804819Y-63119047D02*
X19804819Y-62642857D01*
X20900057Y-62500000D02*
X20900057Y-61738095D01*
X19804819Y-61023809D02*
X19804819Y-61499999D01*
X19804819Y-61499999D02*
X20281009Y-61547618D01*
X20281009Y-61547618D02*
X20233390Y-61499999D01*
X20233390Y-61499999D02*
X20185771Y-61404761D01*
X20185771Y-61404761D02*
X20185771Y-61166666D01*
X20185771Y-61166666D02*
X20233390Y-61071428D01*
X20233390Y-61071428D02*
X20281009Y-61023809D01*
X20281009Y-61023809D02*
X20376247Y-60976190D01*
X20376247Y-60976190D02*
X20614342Y-60976190D01*
X20614342Y-60976190D02*
X20709580Y-61023809D01*
X20709580Y-61023809D02*
X20757200Y-61071428D01*
X20757200Y-61071428D02*
X20804819Y-61166666D01*
X20804819Y-61166666D02*
X20804819Y-61404761D01*
X20804819Y-61404761D02*
X20757200Y-61499999D01*
X20757200Y-61499999D02*
X20709580Y-61547618D01*
X19804819Y-60690475D02*
X20804819Y-60357142D01*
X20804819Y-60357142D02*
X19804819Y-60023809D01*
X20900057Y-59928571D02*
X20900057Y-59166666D01*
X20804819Y-58928570D02*
X19804819Y-58928570D01*
X20281009Y-58928570D02*
X20281009Y-58357142D01*
X20804819Y-58357142D02*
X19804819Y-58357142D01*
X19804819Y-57690475D02*
X19804819Y-57499999D01*
X19804819Y-57499999D02*
X19852438Y-57404761D01*
X19852438Y-57404761D02*
X19947676Y-57309523D01*
X19947676Y-57309523D02*
X20138152Y-57261904D01*
X20138152Y-57261904D02*
X20471485Y-57261904D01*
X20471485Y-57261904D02*
X20661961Y-57309523D01*
X20661961Y-57309523D02*
X20757200Y-57404761D01*
X20757200Y-57404761D02*
X20804819Y-57499999D01*
X20804819Y-57499999D02*
X20804819Y-57690475D01*
X20804819Y-57690475D02*
X20757200Y-57785713D01*
X20757200Y-57785713D02*
X20661961Y-57880951D01*
X20661961Y-57880951D02*
X20471485Y-57928570D01*
X20471485Y-57928570D02*
X20138152Y-57928570D01*
X20138152Y-57928570D02*
X19947676Y-57880951D01*
X19947676Y-57880951D02*
X19852438Y-57785713D01*
X19852438Y-57785713D02*
X19804819Y-57690475D01*
X20757200Y-56880951D02*
X20804819Y-56738094D01*
X20804819Y-56738094D02*
X20804819Y-56499999D01*
X20804819Y-56499999D02*
X20757200Y-56404761D01*
X20757200Y-56404761D02*
X20709580Y-56357142D01*
X20709580Y-56357142D02*
X20614342Y-56309523D01*
X20614342Y-56309523D02*
X20519104Y-56309523D01*
X20519104Y-56309523D02*
X20423866Y-56357142D01*
X20423866Y-56357142D02*
X20376247Y-56404761D01*
X20376247Y-56404761D02*
X20328628Y-56499999D01*
X20328628Y-56499999D02*
X20281009Y-56690475D01*
X20281009Y-56690475D02*
X20233390Y-56785713D01*
X20233390Y-56785713D02*
X20185771Y-56833332D01*
X20185771Y-56833332D02*
X20090533Y-56880951D01*
X20090533Y-56880951D02*
X19995295Y-56880951D01*
X19995295Y-56880951D02*
X19900057Y-56833332D01*
X19900057Y-56833332D02*
X19852438Y-56785713D01*
X19852438Y-56785713D02*
X19804819Y-56690475D01*
X19804819Y-56690475D02*
X19804819Y-56452380D01*
X19804819Y-56452380D02*
X19852438Y-56309523D01*
X19804819Y-56023808D02*
X19804819Y-55452380D01*
X20804819Y-55738094D02*
X19804819Y-55738094D01*
X20900057Y-55357142D02*
X20900057Y-54595237D01*
X20804819Y-53833332D02*
X20804819Y-54404760D01*
X20804819Y-54119046D02*
X19804819Y-54119046D01*
X19804819Y-54119046D02*
X19947676Y-54214284D01*
X19947676Y-54214284D02*
X20042914Y-54309522D01*
X20042914Y-54309522D02*
X20090533Y-54404760D01*
X21415601Y-35017438D02*
X21320363Y-34969819D01*
X21320363Y-34969819D02*
X21177506Y-34969819D01*
X21177506Y-34969819D02*
X21034649Y-35017438D01*
X21034649Y-35017438D02*
X20939411Y-35112676D01*
X20939411Y-35112676D02*
X20891792Y-35207914D01*
X20891792Y-35207914D02*
X20844173Y-35398390D01*
X20844173Y-35398390D02*
X20844173Y-35541247D01*
X20844173Y-35541247D02*
X20891792Y-35731723D01*
X20891792Y-35731723D02*
X20939411Y-35826961D01*
X20939411Y-35826961D02*
X21034649Y-35922200D01*
X21034649Y-35922200D02*
X21177506Y-35969819D01*
X21177506Y-35969819D02*
X21272744Y-35969819D01*
X21272744Y-35969819D02*
X21415601Y-35922200D01*
X21415601Y-35922200D02*
X21463220Y-35874580D01*
X21463220Y-35874580D02*
X21463220Y-35541247D01*
X21463220Y-35541247D02*
X21272744Y-35541247D01*
X21891792Y-35969819D02*
X21891792Y-34969819D01*
X21891792Y-34969819D02*
X22463220Y-35969819D01*
X22463220Y-35969819D02*
X22463220Y-34969819D01*
X22939411Y-35969819D02*
X22939411Y-34969819D01*
X22939411Y-34969819D02*
X23177506Y-34969819D01*
X23177506Y-34969819D02*
X23320363Y-35017438D01*
X23320363Y-35017438D02*
X23415601Y-35112676D01*
X23415601Y-35112676D02*
X23463220Y-35207914D01*
X23463220Y-35207914D02*
X23510839Y-35398390D01*
X23510839Y-35398390D02*
X23510839Y-35541247D01*
X23510839Y-35541247D02*
X23463220Y-35731723D01*
X23463220Y-35731723D02*
X23415601Y-35826961D01*
X23415601Y-35826961D02*
X23320363Y-35922200D01*
X23320363Y-35922200D02*
X23177506Y-35969819D01*
X23177506Y-35969819D02*
X22939411Y-35969819D01*
X21129887Y-38122200D02*
X21272744Y-38169819D01*
X21272744Y-38169819D02*
X21510839Y-38169819D01*
X21510839Y-38169819D02*
X21606077Y-38122200D01*
X21606077Y-38122200D02*
X21653696Y-38074580D01*
X21653696Y-38074580D02*
X21701315Y-37979342D01*
X21701315Y-37979342D02*
X21701315Y-37884104D01*
X21701315Y-37884104D02*
X21653696Y-37788866D01*
X21653696Y-37788866D02*
X21606077Y-37741247D01*
X21606077Y-37741247D02*
X21510839Y-37693628D01*
X21510839Y-37693628D02*
X21320363Y-37646009D01*
X21320363Y-37646009D02*
X21225125Y-37598390D01*
X21225125Y-37598390D02*
X21177506Y-37550771D01*
X21177506Y-37550771D02*
X21129887Y-37455533D01*
X21129887Y-37455533D02*
X21129887Y-37360295D01*
X21129887Y-37360295D02*
X21177506Y-37265057D01*
X21177506Y-37265057D02*
X21225125Y-37217438D01*
X21225125Y-37217438D02*
X21320363Y-37169819D01*
X21320363Y-37169819D02*
X21558458Y-37169819D01*
X21558458Y-37169819D02*
X21701315Y-37217438D01*
X22701315Y-38074580D02*
X22653696Y-38122200D01*
X22653696Y-38122200D02*
X22510839Y-38169819D01*
X22510839Y-38169819D02*
X22415601Y-38169819D01*
X22415601Y-38169819D02*
X22272744Y-38122200D01*
X22272744Y-38122200D02*
X22177506Y-38026961D01*
X22177506Y-38026961D02*
X22129887Y-37931723D01*
X22129887Y-37931723D02*
X22082268Y-37741247D01*
X22082268Y-37741247D02*
X22082268Y-37598390D01*
X22082268Y-37598390D02*
X22129887Y-37407914D01*
X22129887Y-37407914D02*
X22177506Y-37312676D01*
X22177506Y-37312676D02*
X22272744Y-37217438D01*
X22272744Y-37217438D02*
X22415601Y-37169819D01*
X22415601Y-37169819D02*
X22510839Y-37169819D01*
X22510839Y-37169819D02*
X22653696Y-37217438D01*
X22653696Y-37217438D02*
X22701315Y-37265057D01*
X23606077Y-38169819D02*
X23129887Y-38169819D01*
X23129887Y-38169819D02*
X23129887Y-37169819D01*
X22606077Y-39369819D02*
X22129887Y-39369819D01*
X22129887Y-39369819D02*
X22082268Y-39846009D01*
X22082268Y-39846009D02*
X22129887Y-39798390D01*
X22129887Y-39798390D02*
X22225125Y-39750771D01*
X22225125Y-39750771D02*
X22463220Y-39750771D01*
X22463220Y-39750771D02*
X22558458Y-39798390D01*
X22558458Y-39798390D02*
X22606077Y-39846009D01*
X22606077Y-39846009D02*
X22653696Y-39941247D01*
X22653696Y-39941247D02*
X22653696Y-40179342D01*
X22653696Y-40179342D02*
X22606077Y-40274580D01*
X22606077Y-40274580D02*
X22558458Y-40322200D01*
X22558458Y-40322200D02*
X22463220Y-40369819D01*
X22463220Y-40369819D02*
X22225125Y-40369819D01*
X22225125Y-40369819D02*
X22129887Y-40322200D01*
X22129887Y-40322200D02*
X22082268Y-40274580D01*
X22939411Y-39369819D02*
X23272744Y-40369819D01*
X23272744Y-40369819D02*
X23606077Y-39369819D01*
X20320364Y-42569819D02*
X20320364Y-41569819D01*
X20320364Y-41569819D02*
X20653697Y-42284104D01*
X20653697Y-42284104D02*
X20987030Y-41569819D01*
X20987030Y-41569819D02*
X20987030Y-42569819D01*
X21653697Y-41569819D02*
X21844173Y-41569819D01*
X21844173Y-41569819D02*
X21939411Y-41617438D01*
X21939411Y-41617438D02*
X22034649Y-41712676D01*
X22034649Y-41712676D02*
X22082268Y-41903152D01*
X22082268Y-41903152D02*
X22082268Y-42236485D01*
X22082268Y-42236485D02*
X22034649Y-42426961D01*
X22034649Y-42426961D02*
X21939411Y-42522200D01*
X21939411Y-42522200D02*
X21844173Y-42569819D01*
X21844173Y-42569819D02*
X21653697Y-42569819D01*
X21653697Y-42569819D02*
X21558459Y-42522200D01*
X21558459Y-42522200D02*
X21463221Y-42426961D01*
X21463221Y-42426961D02*
X21415602Y-42236485D01*
X21415602Y-42236485D02*
X21415602Y-41903152D01*
X21415602Y-41903152D02*
X21463221Y-41712676D01*
X21463221Y-41712676D02*
X21558459Y-41617438D01*
X21558459Y-41617438D02*
X21653697Y-41569819D01*
X22463221Y-42522200D02*
X22606078Y-42569819D01*
X22606078Y-42569819D02*
X22844173Y-42569819D01*
X22844173Y-42569819D02*
X22939411Y-42522200D01*
X22939411Y-42522200D02*
X22987030Y-42474580D01*
X22987030Y-42474580D02*
X23034649Y-42379342D01*
X23034649Y-42379342D02*
X23034649Y-42284104D01*
X23034649Y-42284104D02*
X22987030Y-42188866D01*
X22987030Y-42188866D02*
X22939411Y-42141247D01*
X22939411Y-42141247D02*
X22844173Y-42093628D01*
X22844173Y-42093628D02*
X22653697Y-42046009D01*
X22653697Y-42046009D02*
X22558459Y-41998390D01*
X22558459Y-41998390D02*
X22510840Y-41950771D01*
X22510840Y-41950771D02*
X22463221Y-41855533D01*
X22463221Y-41855533D02*
X22463221Y-41760295D01*
X22463221Y-41760295D02*
X22510840Y-41665057D01*
X22510840Y-41665057D02*
X22558459Y-41617438D01*
X22558459Y-41617438D02*
X22653697Y-41569819D01*
X22653697Y-41569819D02*
X22891792Y-41569819D01*
X22891792Y-41569819D02*
X23034649Y-41617438D01*
X23463221Y-42569819D02*
X23463221Y-41569819D01*
X22558458Y-44674580D02*
X22510839Y-44722200D01*
X22510839Y-44722200D02*
X22367982Y-44769819D01*
X22367982Y-44769819D02*
X22272744Y-44769819D01*
X22272744Y-44769819D02*
X22129887Y-44722200D01*
X22129887Y-44722200D02*
X22034649Y-44626961D01*
X22034649Y-44626961D02*
X21987030Y-44531723D01*
X21987030Y-44531723D02*
X21939411Y-44341247D01*
X21939411Y-44341247D02*
X21939411Y-44198390D01*
X21939411Y-44198390D02*
X21987030Y-44007914D01*
X21987030Y-44007914D02*
X22034649Y-43912676D01*
X22034649Y-43912676D02*
X22129887Y-43817438D01*
X22129887Y-43817438D02*
X22272744Y-43769819D01*
X22272744Y-43769819D02*
X22367982Y-43769819D01*
X22367982Y-43769819D02*
X22510839Y-43817438D01*
X22510839Y-43817438D02*
X22558458Y-43865057D01*
X22939411Y-44722200D02*
X23082268Y-44769819D01*
X23082268Y-44769819D02*
X23320363Y-44769819D01*
X23320363Y-44769819D02*
X23415601Y-44722200D01*
X23415601Y-44722200D02*
X23463220Y-44674580D01*
X23463220Y-44674580D02*
X23510839Y-44579342D01*
X23510839Y-44579342D02*
X23510839Y-44484104D01*
X23510839Y-44484104D02*
X23463220Y-44388866D01*
X23463220Y-44388866D02*
X23415601Y-44341247D01*
X23415601Y-44341247D02*
X23320363Y-44293628D01*
X23320363Y-44293628D02*
X23129887Y-44246009D01*
X23129887Y-44246009D02*
X23034649Y-44198390D01*
X23034649Y-44198390D02*
X22987030Y-44150771D01*
X22987030Y-44150771D02*
X22939411Y-44055533D01*
X22939411Y-44055533D02*
X22939411Y-43960295D01*
X22939411Y-43960295D02*
X22987030Y-43865057D01*
X22987030Y-43865057D02*
X23034649Y-43817438D01*
X23034649Y-43817438D02*
X23129887Y-43769819D01*
X23129887Y-43769819D02*
X23367982Y-43769819D01*
X23367982Y-43769819D02*
X23510839Y-43817438D01*
X20129887Y-46922200D02*
X20272744Y-46969819D01*
X20272744Y-46969819D02*
X20510839Y-46969819D01*
X20510839Y-46969819D02*
X20606077Y-46922200D01*
X20606077Y-46922200D02*
X20653696Y-46874580D01*
X20653696Y-46874580D02*
X20701315Y-46779342D01*
X20701315Y-46779342D02*
X20701315Y-46684104D01*
X20701315Y-46684104D02*
X20653696Y-46588866D01*
X20653696Y-46588866D02*
X20606077Y-46541247D01*
X20606077Y-46541247D02*
X20510839Y-46493628D01*
X20510839Y-46493628D02*
X20320363Y-46446009D01*
X20320363Y-46446009D02*
X20225125Y-46398390D01*
X20225125Y-46398390D02*
X20177506Y-46350771D01*
X20177506Y-46350771D02*
X20129887Y-46255533D01*
X20129887Y-46255533D02*
X20129887Y-46160295D01*
X20129887Y-46160295D02*
X20177506Y-46065057D01*
X20177506Y-46065057D02*
X20225125Y-46017438D01*
X20225125Y-46017438D02*
X20320363Y-45969819D01*
X20320363Y-45969819D02*
X20558458Y-45969819D01*
X20558458Y-45969819D02*
X20701315Y-46017438D01*
X21701315Y-46874580D02*
X21653696Y-46922200D01*
X21653696Y-46922200D02*
X21510839Y-46969819D01*
X21510839Y-46969819D02*
X21415601Y-46969819D01*
X21415601Y-46969819D02*
X21272744Y-46922200D01*
X21272744Y-46922200D02*
X21177506Y-46826961D01*
X21177506Y-46826961D02*
X21129887Y-46731723D01*
X21129887Y-46731723D02*
X21082268Y-46541247D01*
X21082268Y-46541247D02*
X21082268Y-46398390D01*
X21082268Y-46398390D02*
X21129887Y-46207914D01*
X21129887Y-46207914D02*
X21177506Y-46112676D01*
X21177506Y-46112676D02*
X21272744Y-46017438D01*
X21272744Y-46017438D02*
X21415601Y-45969819D01*
X21415601Y-45969819D02*
X21510839Y-45969819D01*
X21510839Y-45969819D02*
X21653696Y-46017438D01*
X21653696Y-46017438D02*
X21701315Y-46065057D01*
X22606077Y-46969819D02*
X22129887Y-46969819D01*
X22129887Y-46969819D02*
X22129887Y-45969819D01*
X22939411Y-46969819D02*
X22939411Y-45969819D01*
X23510839Y-46969819D02*
X23082268Y-46398390D01*
X23510839Y-45969819D02*
X22939411Y-46541247D01*
G36*
X26788906Y-32879077D02*
G01*
X26860848Y-32951019D01*
X26901190Y-33112386D01*
X26901190Y-33427251D01*
X26860848Y-33588617D01*
X26788905Y-33660561D01*
X26720390Y-33694819D01*
X26565324Y-33694819D01*
X26496808Y-33660561D01*
X26424865Y-33588617D01*
X26384524Y-33427251D01*
X26384524Y-33112386D01*
X26424865Y-32951019D01*
X26496808Y-32879077D01*
X26565324Y-32844819D01*
X26720390Y-32844819D01*
X26788906Y-32879077D01*
G37*
G36*
X29065622Y-33955930D02*
G01*
X22933526Y-33955930D01*
X22933526Y-32779199D01*
X23044637Y-32779199D01*
X23047897Y-32793536D01*
X23381230Y-33793536D01*
X23387224Y-33806961D01*
X23390734Y-33811008D01*
X23393131Y-33815802D01*
X23400239Y-33821967D01*
X23406398Y-33829068D01*
X23411187Y-33831462D01*
X23415238Y-33834976D01*
X23424163Y-33837950D01*
X23432571Y-33842155D01*
X23437915Y-33842534D01*
X23443001Y-33844230D01*
X23452381Y-33843563D01*
X23461761Y-33844230D01*
X23466846Y-33842534D01*
X23472191Y-33842155D01*
X23480601Y-33837949D01*
X23489523Y-33834976D01*
X23493570Y-33831465D01*
X23498364Y-33829069D01*
X23504527Y-33821963D01*
X23511631Y-33815802D01*
X23514026Y-33811010D01*
X23517538Y-33806962D01*
X23523532Y-33793536D01*
X23856865Y-32793536D01*
X23860125Y-32779200D01*
X23859458Y-32769819D01*
X24044048Y-32769819D01*
X24044048Y-33769819D01*
X24045489Y-33784451D01*
X24056688Y-33811487D01*
X24077380Y-33832179D01*
X24104416Y-33843378D01*
X24133680Y-33843378D01*
X24160716Y-33832179D01*
X24181408Y-33811487D01*
X24192607Y-33784451D01*
X24194048Y-33769819D01*
X24194048Y-32769819D01*
X24520238Y-32769819D01*
X24520238Y-33769819D01*
X24521679Y-33784451D01*
X24532878Y-33811487D01*
X24553570Y-33832179D01*
X24580606Y-33843378D01*
X24609870Y-33843378D01*
X24636906Y-33832179D01*
X24657598Y-33811487D01*
X24668797Y-33784451D01*
X24670238Y-33769819D01*
X24670238Y-33372313D01*
X24729980Y-33312570D01*
X25106666Y-33814819D01*
X25116598Y-33825660D01*
X25141779Y-33840570D01*
X25170748Y-33844708D01*
X25199096Y-33837446D01*
X25222507Y-33819887D01*
X25237416Y-33794706D01*
X25241555Y-33765738D01*
X25234293Y-33737389D01*
X25226666Y-33724819D01*
X24837123Y-33205427D01*
X24939398Y-33103152D01*
X26234524Y-33103152D01*
X26234524Y-33436485D01*
X26234775Y-33439038D01*
X26234613Y-33440131D01*
X26235422Y-33445604D01*
X26235965Y-33451117D01*
X26236387Y-33452138D01*
X26236763Y-33454675D01*
X26284382Y-33645151D01*
X26289329Y-33658997D01*
X26292648Y-33663476D01*
X26294782Y-33668628D01*
X26304110Y-33679994D01*
X26399348Y-33775233D01*
X26405098Y-33779953D01*
X26406397Y-33781450D01*
X26408651Y-33782869D01*
X26410713Y-33784561D01*
X26412545Y-33785319D01*
X26418840Y-33789282D01*
X26514078Y-33836901D01*
X26527809Y-33842156D01*
X26530498Y-33842347D01*
X26532987Y-33843378D01*
X26547619Y-33844819D01*
X26738095Y-33844819D01*
X26752727Y-33843378D01*
X26755216Y-33842346D01*
X26757904Y-33842156D01*
X26771636Y-33836901D01*
X26866874Y-33789282D01*
X26873173Y-33785317D01*
X26875001Y-33784560D01*
X26877057Y-33782871D01*
X26879317Y-33781450D01*
X26880616Y-33779951D01*
X26886366Y-33775233D01*
X26981605Y-33679993D01*
X26990932Y-33668628D01*
X26993065Y-33663476D01*
X26996385Y-33658997D01*
X27001332Y-33645151D01*
X27048951Y-33454675D01*
X27049326Y-33452138D01*
X27049749Y-33451117D01*
X27050291Y-33445604D01*
X27051101Y-33440131D01*
X27050938Y-33439038D01*
X27051190Y-33436485D01*
X27051190Y-33103152D01*
X27050938Y-33100598D01*
X27051101Y-33099506D01*
X27050291Y-33094032D01*
X27049749Y-33088520D01*
X27049326Y-33087498D01*
X27048951Y-33084962D01*
X27001332Y-32894486D01*
X26996385Y-32880640D01*
X26993066Y-32876161D01*
X26990932Y-32871008D01*
X26981604Y-32859643D01*
X26891780Y-32769819D01*
X27329762Y-32769819D01*
X27329762Y-33579342D01*
X27331203Y-33593974D01*
X27332234Y-33596463D01*
X27332425Y-33599151D01*
X27337680Y-33612883D01*
X27385299Y-33708121D01*
X27389262Y-33714417D01*
X27390020Y-33716247D01*
X27391709Y-33718305D01*
X27393131Y-33720564D01*
X27394629Y-33721863D01*
X27399347Y-33727612D01*
X27446966Y-33775232D01*
X27452715Y-33779950D01*
X27454016Y-33781450D01*
X27456275Y-33782872D01*
X27458332Y-33784560D01*
X27460159Y-33785317D01*
X27466459Y-33789282D01*
X27561697Y-33836901D01*
X27575428Y-33842156D01*
X27578117Y-33842347D01*
X27580606Y-33843378D01*
X27595238Y-33844819D01*
X27785714Y-33844819D01*
X27800346Y-33843378D01*
X27802835Y-33842346D01*
X27805523Y-33842156D01*
X27819255Y-33836901D01*
X27914493Y-33789282D01*
X27920792Y-33785317D01*
X27922620Y-33784560D01*
X27924676Y-33782872D01*
X27926936Y-33781450D01*
X27928236Y-33779950D01*
X27933986Y-33775232D01*
X27981604Y-33727613D01*
X27986322Y-33721863D01*
X27987821Y-33720564D01*
X27989242Y-33718305D01*
X27990932Y-33716247D01*
X27991689Y-33714417D01*
X27995653Y-33708121D01*
X28043272Y-33612883D01*
X28048527Y-33599152D01*
X28048718Y-33596462D01*
X28049749Y-33593974D01*
X28051190Y-33579342D01*
X28051190Y-32769819D01*
X28049749Y-32755187D01*
X28235965Y-32755187D01*
X28235965Y-32784451D01*
X28247164Y-32811487D01*
X28267856Y-32832179D01*
X28294892Y-32843378D01*
X28309524Y-32844819D01*
X28520238Y-32844819D01*
X28520238Y-33769819D01*
X28521679Y-33784451D01*
X28532878Y-33811487D01*
X28553570Y-33832179D01*
X28580606Y-33843378D01*
X28609870Y-33843378D01*
X28636906Y-33832179D01*
X28657598Y-33811487D01*
X28668797Y-33784451D01*
X28670238Y-33769819D01*
X28670238Y-32844819D01*
X28880952Y-32844819D01*
X28895584Y-32843378D01*
X28922620Y-32832179D01*
X28943312Y-32811487D01*
X28954511Y-32784451D01*
X28954511Y-32755187D01*
X28943312Y-32728151D01*
X28922620Y-32707459D01*
X28895584Y-32696260D01*
X28880952Y-32694819D01*
X28309524Y-32694819D01*
X28294892Y-32696260D01*
X28267856Y-32707459D01*
X28247164Y-32728151D01*
X28235965Y-32755187D01*
X28049749Y-32755187D01*
X28038550Y-32728151D01*
X28017858Y-32707459D01*
X27990822Y-32696260D01*
X27961558Y-32696260D01*
X27934522Y-32707459D01*
X27913830Y-32728151D01*
X27902631Y-32755187D01*
X27901190Y-32769819D01*
X27901190Y-33561637D01*
X27866931Y-33630153D01*
X27836524Y-33660561D01*
X27768009Y-33694819D01*
X27612943Y-33694819D01*
X27544427Y-33660561D01*
X27514020Y-33630153D01*
X27479762Y-33561637D01*
X27479762Y-32769819D01*
X27478321Y-32755187D01*
X27467122Y-32728151D01*
X27446430Y-32707459D01*
X27419394Y-32696260D01*
X27390130Y-32696260D01*
X27363094Y-32707459D01*
X27342402Y-32728151D01*
X27331203Y-32755187D01*
X27329762Y-32769819D01*
X26891780Y-32769819D01*
X26886366Y-32764405D01*
X26880616Y-32759686D01*
X26879317Y-32758188D01*
X26877057Y-32756766D01*
X26875001Y-32755078D01*
X26873173Y-32754320D01*
X26866874Y-32750356D01*
X26771636Y-32702737D01*
X26757904Y-32697482D01*
X26755216Y-32697291D01*
X26752727Y-32696260D01*
X26738095Y-32694819D01*
X26547619Y-32694819D01*
X26532987Y-32696260D01*
X26530498Y-32697290D01*
X26527809Y-32697482D01*
X26514078Y-32702737D01*
X26418840Y-32750356D01*
X26412545Y-32754318D01*
X26410713Y-32755077D01*
X26408651Y-32756768D01*
X26406397Y-32758188D01*
X26405098Y-32759684D01*
X26399348Y-32764405D01*
X26304110Y-32859643D01*
X26294783Y-32871008D01*
X26292649Y-32876158D01*
X26289329Y-32880640D01*
X26284382Y-32894486D01*
X26236763Y-33084962D01*
X26236387Y-33087498D01*
X26235965Y-33088520D01*
X26235422Y-33094032D01*
X26234613Y-33099506D01*
X26234775Y-33100598D01*
X26234524Y-33103152D01*
X24939398Y-33103152D01*
X25219699Y-32822852D01*
X25229026Y-32811487D01*
X25240225Y-32784451D01*
X25240225Y-32755188D01*
X25229026Y-32728151D01*
X25208334Y-32707459D01*
X25181297Y-32696260D01*
X25152034Y-32696260D01*
X25124998Y-32707459D01*
X25113633Y-32716786D01*
X24670238Y-33160181D01*
X24670238Y-32769819D01*
X24668797Y-32755187D01*
X24657598Y-32728151D01*
X24636906Y-32707459D01*
X24609870Y-32696260D01*
X24580606Y-32696260D01*
X24553570Y-32707459D01*
X24532878Y-32728151D01*
X24521679Y-32755187D01*
X24520238Y-32769819D01*
X24194048Y-32769819D01*
X24192607Y-32755187D01*
X24181408Y-32728151D01*
X24160716Y-32707459D01*
X24133680Y-32696260D01*
X24104416Y-32696260D01*
X24077380Y-32707459D01*
X24056688Y-32728151D01*
X24045489Y-32755187D01*
X24044048Y-32769819D01*
X23859458Y-32769819D01*
X23858050Y-32750010D01*
X23844964Y-32723836D01*
X23822856Y-32704662D01*
X23795094Y-32695408D01*
X23765904Y-32697483D01*
X23739731Y-32710570D01*
X23720557Y-32732677D01*
X23714563Y-32746102D01*
X23452381Y-33532648D01*
X23190199Y-32746102D01*
X23184205Y-32732676D01*
X23165031Y-32710569D01*
X23138858Y-32697483D01*
X23109668Y-32695408D01*
X23081905Y-32704662D01*
X23059798Y-32723836D01*
X23046712Y-32750009D01*
X23044637Y-32779199D01*
X22933526Y-32779199D01*
X22933526Y-32583708D01*
X29065622Y-32583708D01*
X29065622Y-33955930D01*
G37*
X28441541Y-34969819D02*
X29060588Y-34969819D01*
X29060588Y-34969819D02*
X28727255Y-35350771D01*
X28727255Y-35350771D02*
X28870112Y-35350771D01*
X28870112Y-35350771D02*
X28965350Y-35398390D01*
X28965350Y-35398390D02*
X29012969Y-35446009D01*
X29012969Y-35446009D02*
X29060588Y-35541247D01*
X29060588Y-35541247D02*
X29060588Y-35779342D01*
X29060588Y-35779342D02*
X29012969Y-35874580D01*
X29012969Y-35874580D02*
X28965350Y-35922200D01*
X28965350Y-35922200D02*
X28870112Y-35969819D01*
X28870112Y-35969819D02*
X28584398Y-35969819D01*
X28584398Y-35969819D02*
X28489160Y-35922200D01*
X28489160Y-35922200D02*
X28441541Y-35874580D01*
X29489160Y-35874580D02*
X29536779Y-35922200D01*
X29536779Y-35922200D02*
X29489160Y-35969819D01*
X29489160Y-35969819D02*
X29441541Y-35922200D01*
X29441541Y-35922200D02*
X29489160Y-35874580D01*
X29489160Y-35874580D02*
X29489160Y-35969819D01*
X29870112Y-34969819D02*
X30489159Y-34969819D01*
X30489159Y-34969819D02*
X30155826Y-35350771D01*
X30155826Y-35350771D02*
X30298683Y-35350771D01*
X30298683Y-35350771D02*
X30393921Y-35398390D01*
X30393921Y-35398390D02*
X30441540Y-35446009D01*
X30441540Y-35446009D02*
X30489159Y-35541247D01*
X30489159Y-35541247D02*
X30489159Y-35779342D01*
X30489159Y-35779342D02*
X30441540Y-35874580D01*
X30441540Y-35874580D02*
X30393921Y-35922200D01*
X30393921Y-35922200D02*
X30298683Y-35969819D01*
X30298683Y-35969819D02*
X30012969Y-35969819D01*
X30012969Y-35969819D02*
X29917731Y-35922200D01*
X29917731Y-35922200D02*
X29870112Y-35874580D01*
X30774874Y-34969819D02*
X31108207Y-35969819D01*
X31108207Y-35969819D02*
X31441540Y-34969819D01*
X28489160Y-38122200D02*
X28632017Y-38169819D01*
X28632017Y-38169819D02*
X28870112Y-38169819D01*
X28870112Y-38169819D02*
X28965350Y-38122200D01*
X28965350Y-38122200D02*
X29012969Y-38074580D01*
X29012969Y-38074580D02*
X29060588Y-37979342D01*
X29060588Y-37979342D02*
X29060588Y-37884104D01*
X29060588Y-37884104D02*
X29012969Y-37788866D01*
X29012969Y-37788866D02*
X28965350Y-37741247D01*
X28965350Y-37741247D02*
X28870112Y-37693628D01*
X28870112Y-37693628D02*
X28679636Y-37646009D01*
X28679636Y-37646009D02*
X28584398Y-37598390D01*
X28584398Y-37598390D02*
X28536779Y-37550771D01*
X28536779Y-37550771D02*
X28489160Y-37455533D01*
X28489160Y-37455533D02*
X28489160Y-37360295D01*
X28489160Y-37360295D02*
X28536779Y-37265057D01*
X28536779Y-37265057D02*
X28584398Y-37217438D01*
X28584398Y-37217438D02*
X28679636Y-37169819D01*
X28679636Y-37169819D02*
X28917731Y-37169819D01*
X28917731Y-37169819D02*
X29060588Y-37217438D01*
X29489160Y-38169819D02*
X29489160Y-37169819D01*
X29489160Y-37169819D02*
X29727255Y-37169819D01*
X29727255Y-37169819D02*
X29870112Y-37217438D01*
X29870112Y-37217438D02*
X29965350Y-37312676D01*
X29965350Y-37312676D02*
X30012969Y-37407914D01*
X30012969Y-37407914D02*
X30060588Y-37598390D01*
X30060588Y-37598390D02*
X30060588Y-37741247D01*
X30060588Y-37741247D02*
X30012969Y-37931723D01*
X30012969Y-37931723D02*
X29965350Y-38026961D01*
X29965350Y-38026961D02*
X29870112Y-38122200D01*
X29870112Y-38122200D02*
X29727255Y-38169819D01*
X29727255Y-38169819D02*
X29489160Y-38169819D01*
X30441541Y-37884104D02*
X30917731Y-37884104D01*
X30346303Y-38169819D02*
X30679636Y-37169819D01*
X30679636Y-37169819D02*
X31012969Y-38169819D01*
X29108207Y-40369819D02*
X28774874Y-39893628D01*
X28536779Y-40369819D02*
X28536779Y-39369819D01*
X28536779Y-39369819D02*
X28917731Y-39369819D01*
X28917731Y-39369819D02*
X29012969Y-39417438D01*
X29012969Y-39417438D02*
X29060588Y-39465057D01*
X29060588Y-39465057D02*
X29108207Y-39560295D01*
X29108207Y-39560295D02*
X29108207Y-39703152D01*
X29108207Y-39703152D02*
X29060588Y-39798390D01*
X29060588Y-39798390D02*
X29012969Y-39846009D01*
X29012969Y-39846009D02*
X28917731Y-39893628D01*
X28917731Y-39893628D02*
X28536779Y-39893628D01*
X30060588Y-39417438D02*
X29965350Y-39369819D01*
X29965350Y-39369819D02*
X29822493Y-39369819D01*
X29822493Y-39369819D02*
X29679636Y-39417438D01*
X29679636Y-39417438D02*
X29584398Y-39512676D01*
X29584398Y-39512676D02*
X29536779Y-39607914D01*
X29536779Y-39607914D02*
X29489160Y-39798390D01*
X29489160Y-39798390D02*
X29489160Y-39941247D01*
X29489160Y-39941247D02*
X29536779Y-40131723D01*
X29536779Y-40131723D02*
X29584398Y-40226961D01*
X29584398Y-40226961D02*
X29679636Y-40322200D01*
X29679636Y-40322200D02*
X29822493Y-40369819D01*
X29822493Y-40369819D02*
X29917731Y-40369819D01*
X29917731Y-40369819D02*
X30060588Y-40322200D01*
X30060588Y-40322200D02*
X30108207Y-40274580D01*
X30108207Y-40274580D02*
X30108207Y-39941247D01*
X30108207Y-39941247D02*
X29917731Y-39941247D01*
X30870112Y-39846009D02*
X31012969Y-39893628D01*
X31012969Y-39893628D02*
X31060588Y-39941247D01*
X31060588Y-39941247D02*
X31108207Y-40036485D01*
X31108207Y-40036485D02*
X31108207Y-40179342D01*
X31108207Y-40179342D02*
X31060588Y-40274580D01*
X31060588Y-40274580D02*
X31012969Y-40322200D01*
X31012969Y-40322200D02*
X30917731Y-40369819D01*
X30917731Y-40369819D02*
X30536779Y-40369819D01*
X30536779Y-40369819D02*
X30536779Y-39369819D01*
X30536779Y-39369819D02*
X30870112Y-39369819D01*
X30870112Y-39369819D02*
X30965350Y-39417438D01*
X30965350Y-39417438D02*
X31012969Y-39465057D01*
X31012969Y-39465057D02*
X31060588Y-39560295D01*
X31060588Y-39560295D02*
X31060588Y-39655533D01*
X31060588Y-39655533D02*
X31012969Y-39750771D01*
X31012969Y-39750771D02*
X30965350Y-39798390D01*
X30965350Y-39798390D02*
X30870112Y-39846009D01*
X30870112Y-39846009D02*
X30536779Y-39846009D01*
X29060588Y-41617438D02*
X28965350Y-41569819D01*
X28965350Y-41569819D02*
X28822493Y-41569819D01*
X28822493Y-41569819D02*
X28679636Y-41617438D01*
X28679636Y-41617438D02*
X28584398Y-41712676D01*
X28584398Y-41712676D02*
X28536779Y-41807914D01*
X28536779Y-41807914D02*
X28489160Y-41998390D01*
X28489160Y-41998390D02*
X28489160Y-42141247D01*
X28489160Y-42141247D02*
X28536779Y-42331723D01*
X28536779Y-42331723D02*
X28584398Y-42426961D01*
X28584398Y-42426961D02*
X28679636Y-42522200D01*
X28679636Y-42522200D02*
X28822493Y-42569819D01*
X28822493Y-42569819D02*
X28917731Y-42569819D01*
X28917731Y-42569819D02*
X29060588Y-42522200D01*
X29060588Y-42522200D02*
X29108207Y-42474580D01*
X29108207Y-42474580D02*
X29108207Y-42141247D01*
X29108207Y-42141247D02*
X28917731Y-42141247D01*
X29536779Y-42569819D02*
X29536779Y-41569819D01*
X29536779Y-41569819D02*
X29917731Y-41569819D01*
X29917731Y-41569819D02*
X30012969Y-41617438D01*
X30012969Y-41617438D02*
X30060588Y-41665057D01*
X30060588Y-41665057D02*
X30108207Y-41760295D01*
X30108207Y-41760295D02*
X30108207Y-41903152D01*
X30108207Y-41903152D02*
X30060588Y-41998390D01*
X30060588Y-41998390D02*
X30012969Y-42046009D01*
X30012969Y-42046009D02*
X29917731Y-42093628D01*
X29917731Y-42093628D02*
X29536779Y-42093628D01*
X31060588Y-42569819D02*
X30489160Y-42569819D01*
X30774874Y-42569819D02*
X30774874Y-41569819D01*
X30774874Y-41569819D02*
X30679636Y-41712676D01*
X30679636Y-41712676D02*
X30584398Y-41807914D01*
X30584398Y-41807914D02*
X30489160Y-41855533D01*
X29060588Y-43817438D02*
X28965350Y-43769819D01*
X28965350Y-43769819D02*
X28822493Y-43769819D01*
X28822493Y-43769819D02*
X28679636Y-43817438D01*
X28679636Y-43817438D02*
X28584398Y-43912676D01*
X28584398Y-43912676D02*
X28536779Y-44007914D01*
X28536779Y-44007914D02*
X28489160Y-44198390D01*
X28489160Y-44198390D02*
X28489160Y-44341247D01*
X28489160Y-44341247D02*
X28536779Y-44531723D01*
X28536779Y-44531723D02*
X28584398Y-44626961D01*
X28584398Y-44626961D02*
X28679636Y-44722200D01*
X28679636Y-44722200D02*
X28822493Y-44769819D01*
X28822493Y-44769819D02*
X28917731Y-44769819D01*
X28917731Y-44769819D02*
X29060588Y-44722200D01*
X29060588Y-44722200D02*
X29108207Y-44674580D01*
X29108207Y-44674580D02*
X29108207Y-44341247D01*
X29108207Y-44341247D02*
X28917731Y-44341247D01*
X29536779Y-44769819D02*
X29536779Y-43769819D01*
X29536779Y-43769819D02*
X29917731Y-43769819D01*
X29917731Y-43769819D02*
X30012969Y-43817438D01*
X30012969Y-43817438D02*
X30060588Y-43865057D01*
X30060588Y-43865057D02*
X30108207Y-43960295D01*
X30108207Y-43960295D02*
X30108207Y-44103152D01*
X30108207Y-44103152D02*
X30060588Y-44198390D01*
X30060588Y-44198390D02*
X30012969Y-44246009D01*
X30012969Y-44246009D02*
X29917731Y-44293628D01*
X29917731Y-44293628D02*
X29536779Y-44293628D01*
X30489160Y-43865057D02*
X30536779Y-43817438D01*
X30536779Y-43817438D02*
X30632017Y-43769819D01*
X30632017Y-43769819D02*
X30870112Y-43769819D01*
X30870112Y-43769819D02*
X30965350Y-43817438D01*
X30965350Y-43817438D02*
X31012969Y-43865057D01*
X31012969Y-43865057D02*
X31060588Y-43960295D01*
X31060588Y-43960295D02*
X31060588Y-44055533D01*
X31060588Y-44055533D02*
X31012969Y-44198390D01*
X31012969Y-44198390D02*
X30441541Y-44769819D01*
X30441541Y-44769819D02*
X31060588Y-44769819D01*
X28536779Y-46969819D02*
X28536779Y-45969819D01*
X28536779Y-45969819D02*
X28870112Y-46684104D01*
X28870112Y-46684104D02*
X29203445Y-45969819D01*
X29203445Y-45969819D02*
X29203445Y-46969819D01*
X29679636Y-46969819D02*
X29679636Y-45969819D01*
X30108207Y-46922200D02*
X30251064Y-46969819D01*
X30251064Y-46969819D02*
X30489159Y-46969819D01*
X30489159Y-46969819D02*
X30584397Y-46922200D01*
X30584397Y-46922200D02*
X30632016Y-46874580D01*
X30632016Y-46874580D02*
X30679635Y-46779342D01*
X30679635Y-46779342D02*
X30679635Y-46684104D01*
X30679635Y-46684104D02*
X30632016Y-46588866D01*
X30632016Y-46588866D02*
X30584397Y-46541247D01*
X30584397Y-46541247D02*
X30489159Y-46493628D01*
X30489159Y-46493628D02*
X30298683Y-46446009D01*
X30298683Y-46446009D02*
X30203445Y-46398390D01*
X30203445Y-46398390D02*
X30155826Y-46350771D01*
X30155826Y-46350771D02*
X30108207Y-46255533D01*
X30108207Y-46255533D02*
X30108207Y-46160295D01*
X30108207Y-46160295D02*
X30155826Y-46065057D01*
X30155826Y-46065057D02*
X30203445Y-46017438D01*
X30203445Y-46017438D02*
X30298683Y-45969819D01*
X30298683Y-45969819D02*
X30536778Y-45969819D01*
X30536778Y-45969819D02*
X30679635Y-46017438D01*
X31298683Y-45969819D02*
X31489159Y-45969819D01*
X31489159Y-45969819D02*
X31584397Y-46017438D01*
X31584397Y-46017438D02*
X31679635Y-46112676D01*
X31679635Y-46112676D02*
X31727254Y-46303152D01*
X31727254Y-46303152D02*
X31727254Y-46636485D01*
X31727254Y-46636485D02*
X31679635Y-46826961D01*
X31679635Y-46826961D02*
X31584397Y-46922200D01*
X31584397Y-46922200D02*
X31489159Y-46969819D01*
X31489159Y-46969819D02*
X31298683Y-46969819D01*
X31298683Y-46969819D02*
X31203445Y-46922200D01*
X31203445Y-46922200D02*
X31108207Y-46826961D01*
X31108207Y-46826961D02*
X31060588Y-46636485D01*
X31060588Y-46636485D02*
X31060588Y-46303152D01*
X31060588Y-46303152D02*
X31108207Y-46112676D01*
X31108207Y-46112676D02*
X31203445Y-46017438D01*
X31203445Y-46017438D02*
X31298683Y-45969819D01*
X22571428Y-19804819D02*
X22571428Y-18804819D01*
X22571428Y-19281009D02*
X23142856Y-19281009D01*
X23142856Y-19804819D02*
X23142856Y-18804819D01*
X23380952Y-19900057D02*
X24142856Y-19900057D01*
X24380952Y-19804819D02*
X24380952Y-18804819D01*
X24380952Y-19281009D02*
X24952380Y-19281009D01*
X24952380Y-19804819D02*
X24952380Y-18804819D01*
X25619047Y-18804819D02*
X25809523Y-18804819D01*
X25809523Y-18804819D02*
X25904761Y-18852438D01*
X25904761Y-18852438D02*
X25999999Y-18947676D01*
X25999999Y-18947676D02*
X26047618Y-19138152D01*
X26047618Y-19138152D02*
X26047618Y-19471485D01*
X26047618Y-19471485D02*
X25999999Y-19661961D01*
X25999999Y-19661961D02*
X25904761Y-19757200D01*
X25904761Y-19757200D02*
X25809523Y-19804819D01*
X25809523Y-19804819D02*
X25619047Y-19804819D01*
X25619047Y-19804819D02*
X25523809Y-19757200D01*
X25523809Y-19757200D02*
X25428571Y-19661961D01*
X25428571Y-19661961D02*
X25380952Y-19471485D01*
X25380952Y-19471485D02*
X25380952Y-19138152D01*
X25380952Y-19138152D02*
X25428571Y-18947676D01*
X25428571Y-18947676D02*
X25523809Y-18852438D01*
X25523809Y-18852438D02*
X25619047Y-18804819D01*
X26428571Y-19757200D02*
X26571428Y-19804819D01*
X26571428Y-19804819D02*
X26809523Y-19804819D01*
X26809523Y-19804819D02*
X26904761Y-19757200D01*
X26904761Y-19757200D02*
X26952380Y-19709580D01*
X26952380Y-19709580D02*
X26999999Y-19614342D01*
X26999999Y-19614342D02*
X26999999Y-19519104D01*
X26999999Y-19519104D02*
X26952380Y-19423866D01*
X26952380Y-19423866D02*
X26904761Y-19376247D01*
X26904761Y-19376247D02*
X26809523Y-19328628D01*
X26809523Y-19328628D02*
X26619047Y-19281009D01*
X26619047Y-19281009D02*
X26523809Y-19233390D01*
X26523809Y-19233390D02*
X26476190Y-19185771D01*
X26476190Y-19185771D02*
X26428571Y-19090533D01*
X26428571Y-19090533D02*
X26428571Y-18995295D01*
X26428571Y-18995295D02*
X26476190Y-18900057D01*
X26476190Y-18900057D02*
X26523809Y-18852438D01*
X26523809Y-18852438D02*
X26619047Y-18804819D01*
X26619047Y-18804819D02*
X26857142Y-18804819D01*
X26857142Y-18804819D02*
X26999999Y-18852438D01*
X27285714Y-18804819D02*
X27857142Y-18804819D01*
X27571428Y-19804819D02*
X27571428Y-18804819D01*
X27952381Y-19900057D02*
X28714285Y-19900057D01*
X29476190Y-19804819D02*
X28904762Y-19804819D01*
X29190476Y-19804819D02*
X29190476Y-18804819D01*
X29190476Y-18804819D02*
X29095238Y-18947676D01*
X29095238Y-18947676D02*
X29000000Y-19042914D01*
X29000000Y-19042914D02*
X28904762Y-19090533D01*
X37581009Y-62500000D02*
X37581009Y-62833333D01*
X38104819Y-62833333D02*
X37104819Y-62833333D01*
X37104819Y-62833333D02*
X37104819Y-62357143D01*
X38200057Y-62214286D02*
X38200057Y-61452381D01*
X37104819Y-61309523D02*
X37104819Y-60690476D01*
X37104819Y-60690476D02*
X37485771Y-61023809D01*
X37485771Y-61023809D02*
X37485771Y-60880952D01*
X37485771Y-60880952D02*
X37533390Y-60785714D01*
X37533390Y-60785714D02*
X37581009Y-60738095D01*
X37581009Y-60738095D02*
X37676247Y-60690476D01*
X37676247Y-60690476D02*
X37914342Y-60690476D01*
X37914342Y-60690476D02*
X38009580Y-60738095D01*
X38009580Y-60738095D02*
X38057200Y-60785714D01*
X38057200Y-60785714D02*
X38104819Y-60880952D01*
X38104819Y-60880952D02*
X38104819Y-61166666D01*
X38104819Y-61166666D02*
X38057200Y-61261904D01*
X38057200Y-61261904D02*
X38009580Y-61309523D01*
X37104819Y-60404761D02*
X38104819Y-60071428D01*
X38104819Y-60071428D02*
X37104819Y-59738095D01*
X37104819Y-59499999D02*
X37104819Y-58880952D01*
X37104819Y-58880952D02*
X37485771Y-59214285D01*
X37485771Y-59214285D02*
X37485771Y-59071428D01*
X37485771Y-59071428D02*
X37533390Y-58976190D01*
X37533390Y-58976190D02*
X37581009Y-58928571D01*
X37581009Y-58928571D02*
X37676247Y-58880952D01*
X37676247Y-58880952D02*
X37914342Y-58880952D01*
X37914342Y-58880952D02*
X38009580Y-58928571D01*
X38009580Y-58928571D02*
X38057200Y-58976190D01*
X38057200Y-58976190D02*
X38104819Y-59071428D01*
X38104819Y-59071428D02*
X38104819Y-59357142D01*
X38104819Y-59357142D02*
X38057200Y-59452380D01*
X38057200Y-59452380D02*
X38009580Y-59499999D01*
X38200057Y-58690476D02*
X38200057Y-57928571D01*
X38009580Y-57119047D02*
X38057200Y-57166666D01*
X38057200Y-57166666D02*
X38104819Y-57309523D01*
X38104819Y-57309523D02*
X38104819Y-57404761D01*
X38104819Y-57404761D02*
X38057200Y-57547618D01*
X38057200Y-57547618D02*
X37961961Y-57642856D01*
X37961961Y-57642856D02*
X37866723Y-57690475D01*
X37866723Y-57690475D02*
X37676247Y-57738094D01*
X37676247Y-57738094D02*
X37533390Y-57738094D01*
X37533390Y-57738094D02*
X37342914Y-57690475D01*
X37342914Y-57690475D02*
X37247676Y-57642856D01*
X37247676Y-57642856D02*
X37152438Y-57547618D01*
X37152438Y-57547618D02*
X37104819Y-57404761D01*
X37104819Y-57404761D02*
X37104819Y-57309523D01*
X37104819Y-57309523D02*
X37152438Y-57166666D01*
X37152438Y-57166666D02*
X37200057Y-57119047D01*
X38104819Y-56214285D02*
X38104819Y-56690475D01*
X38104819Y-56690475D02*
X37104819Y-56690475D01*
X38104819Y-55880951D02*
X37104819Y-55880951D01*
X38200057Y-55642857D02*
X38200057Y-54880952D01*
X38104819Y-54119047D02*
X38104819Y-54690475D01*
X38104819Y-54404761D02*
X37104819Y-54404761D01*
X37104819Y-54404761D02*
X37247676Y-54499999D01*
X37247676Y-54499999D02*
X37342914Y-54595237D01*
X37342914Y-54595237D02*
X37390533Y-54690475D01*
%TO.C,D4*%
D11*
X29510000Y-29140000D02*
X29510000Y-30960000D01*
X29460000Y-29140000D02*
X29510000Y-29140000D01*
X26390000Y-29140000D02*
X26440000Y-29140000D01*
X29510000Y-30960000D02*
X29460000Y-30960000D01*
X26440000Y-30960000D02*
X26390000Y-30960000D01*
X26390000Y-30960000D02*
X26390000Y-29140000D01*
X29460000Y-28600000D02*
X29790000Y-28360000D01*
X29790000Y-28840000D01*
X29460000Y-28600000D01*
G36*
X29790000Y-28840000D02*
G01*
X29460000Y-28600000D01*
X29790000Y-28360000D01*
X29790000Y-28840000D01*
G37*
%TO.C,D3*%
X25610000Y-29090000D02*
X25610000Y-30910000D01*
X25560000Y-29090000D02*
X25610000Y-29090000D01*
X22490000Y-29090000D02*
X22540000Y-29090000D01*
X25610000Y-30910000D02*
X25560000Y-30910000D01*
X22540000Y-30910000D02*
X22490000Y-30910000D01*
X22490000Y-30910000D02*
X22490000Y-29090000D01*
X25560000Y-28550000D02*
X25890000Y-28310000D01*
X25890000Y-28790000D01*
X25560000Y-28550000D01*
G36*
X25890000Y-28790000D02*
G01*
X25560000Y-28550000D01*
X25890000Y-28310000D01*
X25890000Y-28790000D01*
G37*
%TO.C,J_VIK_HOST1*%
D12*
X20500000Y-49800000D02*
X22869000Y-49800000D01*
X20500000Y-51461000D02*
X20500000Y-49800000D01*
X20500000Y-56295000D02*
X20500000Y-53912000D01*
X31500000Y-49800000D02*
X29131000Y-49800000D01*
X31500000Y-51461000D02*
X31500000Y-49800000D01*
X31500000Y-56295000D02*
X20500000Y-56295000D01*
X31500000Y-56295000D02*
X31500000Y-53912000D01*
X22698000Y-49292000D02*
G75*
G02*
X22444000Y-49292000I-127000J0D01*
G01*
X22444000Y-49292000D02*
G75*
G02*
X22698000Y-49292000I127000J0D01*
G01*
%TO.C,J_VIK_CLI1*%
X34500000Y-49800000D02*
X36869000Y-49800000D01*
X34500000Y-51461000D02*
X34500000Y-49800000D01*
X34500000Y-56295000D02*
X34500000Y-53912000D01*
X45500000Y-49800000D02*
X43131000Y-49800000D01*
X45500000Y-51461000D02*
X45500000Y-49800000D01*
X45500000Y-56295000D02*
X34500000Y-56295000D01*
X45500000Y-56295000D02*
X45500000Y-53912000D01*
X36698000Y-49292000D02*
G75*
G02*
X36444000Y-49292000I-127000J0D01*
G01*
X36444000Y-49292000D02*
G75*
G02*
X36698000Y-49292000I127000J0D01*
G01*
%TO.C,D2*%
D11*
X43560000Y-29140000D02*
X43560000Y-30960000D01*
X43510000Y-29140000D02*
X43560000Y-29140000D01*
X40440000Y-29140000D02*
X40490000Y-29140000D01*
X43560000Y-30960000D02*
X43510000Y-30960000D01*
X40490000Y-30960000D02*
X40440000Y-30960000D01*
X40440000Y-30960000D02*
X40440000Y-29140000D01*
X43510000Y-28600000D02*
X43840000Y-28360000D01*
X43840000Y-28840000D01*
X43510000Y-28600000D01*
G36*
X43840000Y-28840000D02*
G01*
X43510000Y-28600000D01*
X43840000Y-28360000D01*
X43840000Y-28840000D01*
G37*
%TO.C,D1*%
X39560000Y-29090000D02*
X39560000Y-30910000D01*
X39510000Y-29090000D02*
X39560000Y-29090000D01*
X36440000Y-29090000D02*
X36490000Y-29090000D01*
X39560000Y-30910000D02*
X39510000Y-30910000D01*
X36490000Y-30910000D02*
X36440000Y-30910000D01*
X36440000Y-30910000D02*
X36440000Y-29090000D01*
X39510000Y-28550000D02*
X39840000Y-28310000D01*
X39840000Y-28790000D01*
X39510000Y-28550000D01*
G36*
X39840000Y-28790000D02*
G01*
X39510000Y-28550000D01*
X39840000Y-28310000D01*
X39840000Y-28790000D01*
G37*
%TO.C,F_5V_CLI_1*%
X43290000Y-58241422D02*
X43290000Y-58758578D01*
X44710000Y-58241422D02*
X44710000Y-58758578D01*
%TO.C,F_3V3_HOST_1*%
X29290000Y-58821078D02*
X29290000Y-58303922D01*
X30710000Y-58821078D02*
X30710000Y-58303922D01*
%TO.C,F_5V_HOST_1*%
X22710000Y-58758578D02*
X22710000Y-58241422D01*
X21290000Y-58758578D02*
X21290000Y-58241422D01*
%TO.C,F_3V3_CLI_1*%
X36710000Y-58241422D02*
X36710000Y-58758578D01*
X35290000Y-58241422D02*
X35290000Y-58758578D01*
%TD*%
M02*
