M48
; DRILL file KiCad 10.0.4-10.0.4~ubuntu26.04.1 date 2026-07-05T22:57:21
; FORMAT={-:-/ absolute / inch / decimal}
; #@! TF.CreationDate,2026-07-05T22:57:21-05:00
; #@! TF.GenerationSoftware,Kicad,Pcbnew,10.0.4-10.0.4~ubuntu26.04.1
; #@! TF.FileFunction,Plated,1,2,PTH
FMAT,2
INCH
; #@! TA.AperFunction,Plated,PTH,ViaDrill
T1C0.0118
; #@! TA.AperFunction,Plated,PTH,ComponentDrill
T2C0.0295
; #@! TA.AperFunction,Plated,PTH,ComponentDrill
T3C0.0866
%
G90
G05
T1
X0.8465Y-1.1383
X0.9646Y-1.0684
X0.9843Y-1.3189
X1.0236Y-1.2933
X1.1417Y-2.1314
X1.1417Y-2.1993
X1.2402Y-1.378
X1.3189Y-1.3017
T2
X0.8917Y-1.489
X0.8917Y-1.5591
X0.8917Y-1.6291
X0.8917Y-1.6992
X0.8917Y-1.7693
X0.8917Y-1.8394
X0.8917Y-1.9094
X0.8917Y-1.9795
X1.313Y-1.524
X1.313Y-1.5941
X1.313Y-1.6642
X1.313Y-1.7343
X1.313Y-1.8043
X1.313Y-1.8744
X1.313Y-1.9445
X1.313Y-2.0146
T3
X1.1024Y-0.8858
X1.1024Y-1.1024
X1.1024Y-2.3425
M30
