M48
; DRILL file KiCad 10.0.4-10.0.4~ubuntu26.04.1 date 2026-07-05T22:57:21
; FORMAT={-:-/ absolute / inch / decimal}
; #@! TF.CreationDate,2026-07-05T22:57:21-05:00
; #@! TF.GenerationSoftware,Kicad,Pcbnew,10.0.4-10.0.4~ubuntu26.04.1
; #@! TF.FileFunction,NonPlated,1,2,NPTH
FMAT,2
INCH
; #@! TA.AperFunction,NonPlated,NPTH,ComponentDrill
T1C0.0197
%
G90
G05
T1
X0.8839Y-0.9843
X0.8839Y-2.2441
X0.9173Y-0.9843
X0.9173Y-2.2441
X0.9508Y-0.9843
X0.9508Y-2.2441
X0.9843Y-0.9843
X0.9843Y-2.2441
X1.0177Y-0.9843
X1.0177Y-2.2441
X1.0512Y-0.9843
X1.0512Y-2.2441
X1.0846Y-0.9843
X1.0846Y-2.2441
X1.1201Y-0.9843
X1.1201Y-2.2441
X1.1535Y-0.9843
X1.1535Y-2.2441
X1.187Y-0.9843
X1.187Y-2.2441
X1.2205Y-0.9843
X1.2205Y-2.2441
X1.2539Y-0.9843
X1.2539Y-2.2441
X1.2874Y-0.9843
X1.2874Y-2.2441
X1.3209Y-0.9843
X1.3209Y-2.2441
M30
