%TF.GenerationSoftware,KiCad,Pcbnew,10.0.4-10.0.4~ubuntu26.04.1*%
%TF.CreationDate,2026-07-05T22:57:21-05:00*%
%TF.ProjectId,pmw3610-xxs-compliant-narrow,706d7733-3631-4302-9d78-78732d636f6d,rev?*%
%TF.SameCoordinates,Original*%
%TF.FileFunction,Legend,Top*%
%TF.FilePolarity,Positive*%
%FSLAX46Y46*%
G04 Gerber Fmt 4.6, Leading zero omitted, Abs format (unit mm)*
G04 Created by KiCad (PCBNEW 10.0.4-10.0.4~ubuntu26.04.1) date 2026-07-05 22:57:21*
%MOMM*%
%LPD*%
G01*
G04 APERTURE LIST*
G04 Aperture macros list*
%AMRoundRect*
0 Rectangle with rounded corners*
0 $1 Rounding radius*
0 $2 $3 $4 $5 $6 $7 $8 $9 X,Y pos of 4 corners*
0 Add a 4 corners polygon primitive as box body*
4,1,4,$2,$3,$4,$5,$6,$7,$8,$9,$2,$3,0*
0 Add four circle primitives for the rounded corners*
1,1,$1+$1,$2,$3*
1,1,$1+$1,$4,$5*
1,1,$1+$1,$6,$7*
1,1,$1+$1,$8,$9*
0 Add four rect primitives between the rounded corners*
20,1,$1+$1,$2,$3,$4,$5,0*
20,1,$1+$1,$4,$5,$6,$7,0*
20,1,$1+$1,$6,$7,$8,$9,0*
20,1,$1+$1,$8,$9,$2,$3,0*%
G04 Aperture macros list end*
%ADD10C,0.150000*%
%ADD11C,0.254000*%
%ADD12C,0.120000*%
%ADD13R,0.300000X0.650000*%
%ADD14R,0.300000X1.150000*%
%ADD15RoundRect,0.237500X0.237500X-0.300000X0.237500X0.300000X-0.237500X0.300000X-0.237500X-0.300000X0*%
%ADD16C,0.500000*%
%ADD17RoundRect,0.237500X-0.237500X0.300000X-0.237500X-0.300000X0.237500X-0.300000X0.237500X0.300000X0*%
%ADD18C,4.400000*%
%ADD19RoundRect,0.187500X-0.437500X0.437500X-0.437500X-0.437500X0.437500X-0.437500X0.437500X0.437500X0*%
%ADD20O,1.250000X1.250000*%
%ADD21RoundRect,0.150000X0.150000X-0.587500X0.150000X0.587500X-0.150000X0.587500X-0.150000X-0.587500X0*%
%ADD22RoundRect,0.237500X0.237500X-0.250000X0.237500X0.250000X-0.237500X0.250000X-0.237500X-0.250000X0*%
G04 APERTURE END LIST*
D10*
X24637030Y-35195704D02*
X24141792Y-35195704D01*
X24141792Y-35195704D02*
X24408458Y-34890942D01*
X24408458Y-34890942D02*
X24294173Y-34890942D01*
X24294173Y-34890942D02*
X24217982Y-34852847D01*
X24217982Y-34852847D02*
X24179887Y-34814752D01*
X24179887Y-34814752D02*
X24141792Y-34738561D01*
X24141792Y-34738561D02*
X24141792Y-34548085D01*
X24141792Y-34548085D02*
X24179887Y-34471895D01*
X24179887Y-34471895D02*
X24217982Y-34433800D01*
X24217982Y-34433800D02*
X24294173Y-34395704D01*
X24294173Y-34395704D02*
X24522744Y-34395704D01*
X24522744Y-34395704D02*
X24598935Y-34433800D01*
X24598935Y-34433800D02*
X24637030Y-34471895D01*
X23875125Y-34929038D02*
X23684649Y-34395704D01*
X23684649Y-34395704D02*
X23494172Y-34929038D01*
X23265601Y-35195704D02*
X22770363Y-35195704D01*
X22770363Y-35195704D02*
X23037029Y-34890942D01*
X23037029Y-34890942D02*
X22922744Y-34890942D01*
X22922744Y-34890942D02*
X22846553Y-34852847D01*
X22846553Y-34852847D02*
X22808458Y-34814752D01*
X22808458Y-34814752D02*
X22770363Y-34738561D01*
X22770363Y-34738561D02*
X22770363Y-34548085D01*
X22770363Y-34548085D02*
X22808458Y-34471895D01*
X22808458Y-34471895D02*
X22846553Y-34433800D01*
X22846553Y-34433800D02*
X22922744Y-34395704D01*
X22922744Y-34395704D02*
X23151315Y-34395704D01*
X23151315Y-34395704D02*
X23227506Y-34433800D01*
X23227506Y-34433800D02*
X23265601Y-34471895D01*
X34394877Y-30303275D02*
X34356781Y-30341371D01*
X34356781Y-30341371D02*
X34242496Y-30379466D01*
X34242496Y-30379466D02*
X34166305Y-30379466D01*
X34166305Y-30379466D02*
X34052019Y-30341371D01*
X34052019Y-30341371D02*
X33975829Y-30265180D01*
X33975829Y-30265180D02*
X33937734Y-30188990D01*
X33937734Y-30188990D02*
X33899638Y-30036609D01*
X33899638Y-30036609D02*
X33899638Y-29922323D01*
X33899638Y-29922323D02*
X33937734Y-29769942D01*
X33937734Y-29769942D02*
X33975829Y-29693751D01*
X33975829Y-29693751D02*
X34052019Y-29617561D01*
X34052019Y-29617561D02*
X34166305Y-29579466D01*
X34166305Y-29579466D02*
X34242496Y-29579466D01*
X34242496Y-29579466D02*
X34356781Y-29617561D01*
X34356781Y-29617561D02*
X34394877Y-29655656D01*
X34852019Y-29922323D02*
X34775829Y-29884228D01*
X34775829Y-29884228D02*
X34737734Y-29846132D01*
X34737734Y-29846132D02*
X34699638Y-29769942D01*
X34699638Y-29769942D02*
X34699638Y-29731847D01*
X34699638Y-29731847D02*
X34737734Y-29655656D01*
X34737734Y-29655656D02*
X34775829Y-29617561D01*
X34775829Y-29617561D02*
X34852019Y-29579466D01*
X34852019Y-29579466D02*
X35004400Y-29579466D01*
X35004400Y-29579466D02*
X35080591Y-29617561D01*
X35080591Y-29617561D02*
X35118686Y-29655656D01*
X35118686Y-29655656D02*
X35156781Y-29731847D01*
X35156781Y-29731847D02*
X35156781Y-29769942D01*
X35156781Y-29769942D02*
X35118686Y-29846132D01*
X35118686Y-29846132D02*
X35080591Y-29884228D01*
X35080591Y-29884228D02*
X35004400Y-29922323D01*
X35004400Y-29922323D02*
X34852019Y-29922323D01*
X34852019Y-29922323D02*
X34775829Y-29960418D01*
X34775829Y-29960418D02*
X34737734Y-29998513D01*
X34737734Y-29998513D02*
X34699638Y-30074704D01*
X34699638Y-30074704D02*
X34699638Y-30227085D01*
X34699638Y-30227085D02*
X34737734Y-30303275D01*
X34737734Y-30303275D02*
X34775829Y-30341371D01*
X34775829Y-30341371D02*
X34852019Y-30379466D01*
X34852019Y-30379466D02*
X35004400Y-30379466D01*
X35004400Y-30379466D02*
X35080591Y-30341371D01*
X35080591Y-30341371D02*
X35118686Y-30303275D01*
X35118686Y-30303275D02*
X35156781Y-30227085D01*
X35156781Y-30227085D02*
X35156781Y-30074704D01*
X35156781Y-30074704D02*
X35118686Y-29998513D01*
X35118686Y-29998513D02*
X35080591Y-29960418D01*
X35080591Y-29960418D02*
X35004400Y-29922323D01*
X32866667Y-30286104D02*
X32828571Y-30324200D01*
X32828571Y-30324200D02*
X32714286Y-30362295D01*
X32714286Y-30362295D02*
X32638095Y-30362295D01*
X32638095Y-30362295D02*
X32523809Y-30324200D01*
X32523809Y-30324200D02*
X32447619Y-30248009D01*
X32447619Y-30248009D02*
X32409524Y-30171819D01*
X32409524Y-30171819D02*
X32371428Y-30019438D01*
X32371428Y-30019438D02*
X32371428Y-29905152D01*
X32371428Y-29905152D02*
X32409524Y-29752771D01*
X32409524Y-29752771D02*
X32447619Y-29676580D01*
X32447619Y-29676580D02*
X32523809Y-29600390D01*
X32523809Y-29600390D02*
X32638095Y-29562295D01*
X32638095Y-29562295D02*
X32714286Y-29562295D01*
X32714286Y-29562295D02*
X32828571Y-29600390D01*
X32828571Y-29600390D02*
X32866667Y-29638485D01*
X33247619Y-30362295D02*
X33400000Y-30362295D01*
X33400000Y-30362295D02*
X33476190Y-30324200D01*
X33476190Y-30324200D02*
X33514286Y-30286104D01*
X33514286Y-30286104D02*
X33590476Y-30171819D01*
X33590476Y-30171819D02*
X33628571Y-30019438D01*
X33628571Y-30019438D02*
X33628571Y-29714676D01*
X33628571Y-29714676D02*
X33590476Y-29638485D01*
X33590476Y-29638485D02*
X33552381Y-29600390D01*
X33552381Y-29600390D02*
X33476190Y-29562295D01*
X33476190Y-29562295D02*
X33323809Y-29562295D01*
X33323809Y-29562295D02*
X33247619Y-29600390D01*
X33247619Y-29600390D02*
X33209524Y-29638485D01*
X33209524Y-29638485D02*
X33171428Y-29714676D01*
X33171428Y-29714676D02*
X33171428Y-29905152D01*
X33171428Y-29905152D02*
X33209524Y-29981342D01*
X33209524Y-29981342D02*
X33247619Y-30019438D01*
X33247619Y-30019438D02*
X33323809Y-30057533D01*
X33323809Y-30057533D02*
X33476190Y-30057533D01*
X33476190Y-30057533D02*
X33552381Y-30019438D01*
X33552381Y-30019438D02*
X33590476Y-29981342D01*
X33590476Y-29981342D02*
X33628571Y-29905152D01*
X31344181Y-30308999D02*
X31306085Y-30347095D01*
X31306085Y-30347095D02*
X31191800Y-30385190D01*
X31191800Y-30385190D02*
X31115609Y-30385190D01*
X31115609Y-30385190D02*
X31001323Y-30347095D01*
X31001323Y-30347095D02*
X30925133Y-30270904D01*
X30925133Y-30270904D02*
X30887038Y-30194714D01*
X30887038Y-30194714D02*
X30848942Y-30042333D01*
X30848942Y-30042333D02*
X30848942Y-29928047D01*
X30848942Y-29928047D02*
X30887038Y-29775666D01*
X30887038Y-29775666D02*
X30925133Y-29699475D01*
X30925133Y-29699475D02*
X31001323Y-29623285D01*
X31001323Y-29623285D02*
X31115609Y-29585190D01*
X31115609Y-29585190D02*
X31191800Y-29585190D01*
X31191800Y-29585190D02*
X31306085Y-29623285D01*
X31306085Y-29623285D02*
X31344181Y-29661380D01*
X31648942Y-29661380D02*
X31687038Y-29623285D01*
X31687038Y-29623285D02*
X31763228Y-29585190D01*
X31763228Y-29585190D02*
X31953704Y-29585190D01*
X31953704Y-29585190D02*
X32029895Y-29623285D01*
X32029895Y-29623285D02*
X32067990Y-29661380D01*
X32067990Y-29661380D02*
X32106085Y-29737571D01*
X32106085Y-29737571D02*
X32106085Y-29813761D01*
X32106085Y-29813761D02*
X32067990Y-29928047D01*
X32067990Y-29928047D02*
X31610847Y-30385190D01*
X31610847Y-30385190D02*
X32106085Y-30385190D01*
X26842819Y-53256759D02*
X26804723Y-53294855D01*
X26804723Y-53294855D02*
X26690438Y-53332950D01*
X26690438Y-53332950D02*
X26614247Y-53332950D01*
X26614247Y-53332950D02*
X26499961Y-53294855D01*
X26499961Y-53294855D02*
X26423771Y-53218664D01*
X26423771Y-53218664D02*
X26385676Y-53142474D01*
X26385676Y-53142474D02*
X26347580Y-52990093D01*
X26347580Y-52990093D02*
X26347580Y-52875807D01*
X26347580Y-52875807D02*
X26385676Y-52723426D01*
X26385676Y-52723426D02*
X26423771Y-52647235D01*
X26423771Y-52647235D02*
X26499961Y-52571045D01*
X26499961Y-52571045D02*
X26614247Y-52532950D01*
X26614247Y-52532950D02*
X26690438Y-52532950D01*
X26690438Y-52532950D02*
X26804723Y-52571045D01*
X26804723Y-52571045D02*
X26842819Y-52609140D01*
X27109485Y-52532950D02*
X27642819Y-52532950D01*
X27642819Y-52532950D02*
X27299961Y-53332950D01*
X29738095Y-26454819D02*
X29738095Y-25454819D01*
X29738095Y-25931009D02*
X30309523Y-25931009D01*
X30309523Y-26454819D02*
X30309523Y-25454819D01*
X30738095Y-25550057D02*
X30785714Y-25502438D01*
X30785714Y-25502438D02*
X30880952Y-25454819D01*
X30880952Y-25454819D02*
X31119047Y-25454819D01*
X31119047Y-25454819D02*
X31214285Y-25502438D01*
X31214285Y-25502438D02*
X31261904Y-25550057D01*
X31261904Y-25550057D02*
X31309523Y-25645295D01*
X31309523Y-25645295D02*
X31309523Y-25740533D01*
X31309523Y-25740533D02*
X31261904Y-25883390D01*
X31261904Y-25883390D02*
X30690476Y-26454819D01*
X30690476Y-26454819D02*
X31309523Y-26454819D01*
X34062295Y-32962653D02*
X34709914Y-32962653D01*
X34709914Y-32962653D02*
X34786104Y-32924558D01*
X34786104Y-32924558D02*
X34824200Y-32886463D01*
X34824200Y-32886463D02*
X34862295Y-32810272D01*
X34862295Y-32810272D02*
X34862295Y-32657891D01*
X34862295Y-32657891D02*
X34824200Y-32581701D01*
X34824200Y-32581701D02*
X34786104Y-32543606D01*
X34786104Y-32543606D02*
X34709914Y-32505510D01*
X34709914Y-32505510D02*
X34062295Y-32505510D01*
X34862295Y-31705511D02*
X34862295Y-32162654D01*
X34862295Y-31934082D02*
X34062295Y-31934082D01*
X34062295Y-31934082D02*
X34176580Y-32010273D01*
X34176580Y-32010273D02*
X34252771Y-32086463D01*
X34252771Y-32086463D02*
X34290866Y-32162654D01*
X23738095Y-59954819D02*
X23738095Y-58954819D01*
X23738095Y-59431009D02*
X24309523Y-59431009D01*
X24309523Y-59954819D02*
X24309523Y-58954819D01*
X24690476Y-58954819D02*
X25309523Y-58954819D01*
X25309523Y-58954819D02*
X24976190Y-59335771D01*
X24976190Y-59335771D02*
X25119047Y-59335771D01*
X25119047Y-59335771D02*
X25214285Y-59383390D01*
X25214285Y-59383390D02*
X25261904Y-59431009D01*
X25261904Y-59431009D02*
X25309523Y-59526247D01*
X25309523Y-59526247D02*
X25309523Y-59764342D01*
X25309523Y-59764342D02*
X25261904Y-59859580D01*
X25261904Y-59859580D02*
X25214285Y-59907200D01*
X25214285Y-59907200D02*
X25119047Y-59954819D01*
X25119047Y-59954819D02*
X24833333Y-59954819D01*
X24833333Y-59954819D02*
X24738095Y-59907200D01*
X24738095Y-59907200D02*
X24690476Y-59859580D01*
X24806977Y-53271068D02*
X24768881Y-53309164D01*
X24768881Y-53309164D02*
X24654596Y-53347259D01*
X24654596Y-53347259D02*
X24578405Y-53347259D01*
X24578405Y-53347259D02*
X24464119Y-53309164D01*
X24464119Y-53309164D02*
X24387929Y-53232973D01*
X24387929Y-53232973D02*
X24349834Y-53156783D01*
X24349834Y-53156783D02*
X24311738Y-53004402D01*
X24311738Y-53004402D02*
X24311738Y-52890116D01*
X24311738Y-52890116D02*
X24349834Y-52737735D01*
X24349834Y-52737735D02*
X24387929Y-52661544D01*
X24387929Y-52661544D02*
X24464119Y-52585354D01*
X24464119Y-52585354D02*
X24578405Y-52547259D01*
X24578405Y-52547259D02*
X24654596Y-52547259D01*
X24654596Y-52547259D02*
X24768881Y-52585354D01*
X24768881Y-52585354D02*
X24806977Y-52623449D01*
X25492691Y-52547259D02*
X25340310Y-52547259D01*
X25340310Y-52547259D02*
X25264119Y-52585354D01*
X25264119Y-52585354D02*
X25226024Y-52623449D01*
X25226024Y-52623449D02*
X25149834Y-52737735D01*
X25149834Y-52737735D02*
X25111738Y-52890116D01*
X25111738Y-52890116D02*
X25111738Y-53194878D01*
X25111738Y-53194878D02*
X25149834Y-53271068D01*
X25149834Y-53271068D02*
X25187929Y-53309164D01*
X25187929Y-53309164D02*
X25264119Y-53347259D01*
X25264119Y-53347259D02*
X25416500Y-53347259D01*
X25416500Y-53347259D02*
X25492691Y-53309164D01*
X25492691Y-53309164D02*
X25530786Y-53271068D01*
X25530786Y-53271068D02*
X25568881Y-53194878D01*
X25568881Y-53194878D02*
X25568881Y-53004402D01*
X25568881Y-53004402D02*
X25530786Y-52928211D01*
X25530786Y-52928211D02*
X25492691Y-52890116D01*
X25492691Y-52890116D02*
X25416500Y-52852021D01*
X25416500Y-52852021D02*
X25264119Y-52852021D01*
X25264119Y-52852021D02*
X25187929Y-52890116D01*
X25187929Y-52890116D02*
X25149834Y-52928211D01*
X25149834Y-52928211D02*
X25111738Y-53004402D01*
X28818833Y-53266299D02*
X28780737Y-53304395D01*
X28780737Y-53304395D02*
X28666452Y-53342490D01*
X28666452Y-53342490D02*
X28590261Y-53342490D01*
X28590261Y-53342490D02*
X28475975Y-53304395D01*
X28475975Y-53304395D02*
X28399785Y-53228204D01*
X28399785Y-53228204D02*
X28361690Y-53152014D01*
X28361690Y-53152014D02*
X28323594Y-52999633D01*
X28323594Y-52999633D02*
X28323594Y-52885347D01*
X28323594Y-52885347D02*
X28361690Y-52732966D01*
X28361690Y-52732966D02*
X28399785Y-52656775D01*
X28399785Y-52656775D02*
X28475975Y-52580585D01*
X28475975Y-52580585D02*
X28590261Y-52542490D01*
X28590261Y-52542490D02*
X28666452Y-52542490D01*
X28666452Y-52542490D02*
X28780737Y-52580585D01*
X28780737Y-52580585D02*
X28818833Y-52618680D01*
X29504547Y-52809156D02*
X29504547Y-53342490D01*
X29314071Y-52504395D02*
X29123594Y-53075823D01*
X29123594Y-53075823D02*
X29618833Y-53075823D01*
X23738095Y-22954819D02*
X23738095Y-21954819D01*
X23738095Y-22431009D02*
X24309523Y-22431009D01*
X24309523Y-22954819D02*
X24309523Y-21954819D01*
X25309523Y-22954819D02*
X24738095Y-22954819D01*
X25023809Y-22954819D02*
X25023809Y-21954819D01*
X25023809Y-21954819D02*
X24928571Y-22097676D01*
X24928571Y-22097676D02*
X24833333Y-22192914D01*
X24833333Y-22192914D02*
X24738095Y-22240533D01*
X30861092Y-53286104D02*
X30822996Y-53324200D01*
X30822996Y-53324200D02*
X30708711Y-53362295D01*
X30708711Y-53362295D02*
X30632520Y-53362295D01*
X30632520Y-53362295D02*
X30518234Y-53324200D01*
X30518234Y-53324200D02*
X30442044Y-53248009D01*
X30442044Y-53248009D02*
X30403949Y-53171819D01*
X30403949Y-53171819D02*
X30365853Y-53019438D01*
X30365853Y-53019438D02*
X30365853Y-52905152D01*
X30365853Y-52905152D02*
X30403949Y-52752771D01*
X30403949Y-52752771D02*
X30442044Y-52676580D01*
X30442044Y-52676580D02*
X30518234Y-52600390D01*
X30518234Y-52600390D02*
X30632520Y-52562295D01*
X30632520Y-52562295D02*
X30708711Y-52562295D01*
X30708711Y-52562295D02*
X30822996Y-52600390D01*
X30822996Y-52600390D02*
X30861092Y-52638485D01*
X31584901Y-52562295D02*
X31203949Y-52562295D01*
X31203949Y-52562295D02*
X31165853Y-52943247D01*
X31165853Y-52943247D02*
X31203949Y-52905152D01*
X31203949Y-52905152D02*
X31280139Y-52867057D01*
X31280139Y-52867057D02*
X31470615Y-52867057D01*
X31470615Y-52867057D02*
X31546806Y-52905152D01*
X31546806Y-52905152D02*
X31584901Y-52943247D01*
X31584901Y-52943247D02*
X31622996Y-53019438D01*
X31622996Y-53019438D02*
X31622996Y-53209914D01*
X31622996Y-53209914D02*
X31584901Y-53286104D01*
X31584901Y-53286104D02*
X31546806Y-53324200D01*
X31546806Y-53324200D02*
X31470615Y-53362295D01*
X31470615Y-53362295D02*
X31280139Y-53362295D01*
X31280139Y-53362295D02*
X31203949Y-53324200D01*
X31203949Y-53324200D02*
X31165853Y-53286104D01*
X24382045Y-30261589D02*
X24343949Y-30299685D01*
X24343949Y-30299685D02*
X24229664Y-30337780D01*
X24229664Y-30337780D02*
X24153473Y-30337780D01*
X24153473Y-30337780D02*
X24039187Y-30299685D01*
X24039187Y-30299685D02*
X23962997Y-30223494D01*
X23962997Y-30223494D02*
X23924902Y-30147304D01*
X23924902Y-30147304D02*
X23886806Y-29994923D01*
X23886806Y-29994923D02*
X23886806Y-29880637D01*
X23886806Y-29880637D02*
X23924902Y-29728256D01*
X23924902Y-29728256D02*
X23962997Y-29652065D01*
X23962997Y-29652065D02*
X24039187Y-29575875D01*
X24039187Y-29575875D02*
X24153473Y-29537780D01*
X24153473Y-29537780D02*
X24229664Y-29537780D01*
X24229664Y-29537780D02*
X24343949Y-29575875D01*
X24343949Y-29575875D02*
X24382045Y-29613970D01*
X25143949Y-30337780D02*
X24686806Y-30337780D01*
X24915378Y-30337780D02*
X24915378Y-29537780D01*
X24915378Y-29537780D02*
X24839187Y-29652065D01*
X24839187Y-29652065D02*
X24762997Y-29728256D01*
X24762997Y-29728256D02*
X24686806Y-29766351D01*
X22887818Y-30246250D02*
X22849722Y-30284346D01*
X22849722Y-30284346D02*
X22735437Y-30322441D01*
X22735437Y-30322441D02*
X22659246Y-30322441D01*
X22659246Y-30322441D02*
X22544960Y-30284346D01*
X22544960Y-30284346D02*
X22468770Y-30208155D01*
X22468770Y-30208155D02*
X22430675Y-30131965D01*
X22430675Y-30131965D02*
X22392579Y-29979584D01*
X22392579Y-29979584D02*
X22392579Y-29865298D01*
X22392579Y-29865298D02*
X22430675Y-29712917D01*
X22430675Y-29712917D02*
X22468770Y-29636726D01*
X22468770Y-29636726D02*
X22544960Y-29560536D01*
X22544960Y-29560536D02*
X22659246Y-29522441D01*
X22659246Y-29522441D02*
X22735437Y-29522441D01*
X22735437Y-29522441D02*
X22849722Y-29560536D01*
X22849722Y-29560536D02*
X22887818Y-29598631D01*
X23154484Y-29522441D02*
X23649722Y-29522441D01*
X23649722Y-29522441D02*
X23383056Y-29827203D01*
X23383056Y-29827203D02*
X23497341Y-29827203D01*
X23497341Y-29827203D02*
X23573532Y-29865298D01*
X23573532Y-29865298D02*
X23611627Y-29903393D01*
X23611627Y-29903393D02*
X23649722Y-29979584D01*
X23649722Y-29979584D02*
X23649722Y-30170060D01*
X23649722Y-30170060D02*
X23611627Y-30246250D01*
X23611627Y-30246250D02*
X23573532Y-30284346D01*
X23573532Y-30284346D02*
X23497341Y-30322441D01*
X23497341Y-30322441D02*
X23268770Y-30322441D01*
X23268770Y-30322441D02*
X23192579Y-30284346D01*
X23192579Y-30284346D02*
X23154484Y-30246250D01*
X21387867Y-30291991D02*
X21121200Y-29911038D01*
X20930724Y-30291991D02*
X20930724Y-29491991D01*
X20930724Y-29491991D02*
X21235486Y-29491991D01*
X21235486Y-29491991D02*
X21311676Y-29530086D01*
X21311676Y-29530086D02*
X21349771Y-29568181D01*
X21349771Y-29568181D02*
X21387867Y-29644372D01*
X21387867Y-29644372D02*
X21387867Y-29758657D01*
X21387867Y-29758657D02*
X21349771Y-29834848D01*
X21349771Y-29834848D02*
X21311676Y-29872943D01*
X21311676Y-29872943D02*
X21235486Y-29911038D01*
X21235486Y-29911038D02*
X20930724Y-29911038D01*
X22149771Y-30291991D02*
X21692628Y-30291991D01*
X21921200Y-30291991D02*
X21921200Y-29491991D01*
X21921200Y-29491991D02*
X21845009Y-29606276D01*
X21845009Y-29606276D02*
X21768819Y-29682467D01*
X21768819Y-29682467D02*
X21692628Y-29720562D01*
%TO.C,J2*%
X24150000Y-30715000D02*
X24150000Y-34065000D01*
X24150000Y-30715000D02*
X31850000Y-30715000D01*
X31850000Y-30715000D02*
X31850000Y-34065000D01*
X31850000Y-34065000D02*
X24150000Y-34065000D01*
D11*
X31547000Y-34520000D02*
G75*
G02*
X31293000Y-34520000I-127000J0D01*
G01*
X31293000Y-34520000D02*
G75*
G02*
X31547000Y-34520000I127000J0D01*
G01*
%TO.C,C8*%
D12*
X35010000Y-28146267D02*
X35010000Y-27853733D01*
X33990000Y-28146267D02*
X33990000Y-27853733D01*
%TO.C,C9*%
X33510000Y-28146267D02*
X33510000Y-27853733D01*
X32490000Y-28146267D02*
X32490000Y-27853733D01*
%TO.C,C2*%
X32010000Y-28146267D02*
X32010000Y-27853733D01*
X30990000Y-28146267D02*
X30990000Y-27853733D01*
%TO.C,C7*%
X26490000Y-54853733D02*
X26490000Y-55146267D01*
X27510000Y-54853733D02*
X27510000Y-55146267D01*
%TO.C,U1*%
X35060000Y-33240000D02*
X35060000Y-34760000D01*
X34060000Y-33240000D02*
X35060000Y-33240000D01*
X31940000Y-33240000D02*
X32940000Y-33240000D01*
X35060000Y-34760000D02*
X35010000Y-34760000D01*
X33890000Y-34760000D02*
X33110000Y-34760000D01*
X31990000Y-34760000D02*
X31940000Y-34760000D01*
X31940000Y-34760000D02*
X31940000Y-33240000D01*
X33120000Y-35300000D02*
X33450000Y-35060000D01*
X33450000Y-35540000D01*
X33120000Y-35300000D01*
G36*
X33450000Y-35540000D02*
G01*
X33120000Y-35300000D01*
X33450000Y-35060000D01*
X33450000Y-35540000D01*
G37*
%TO.C,C6*%
X24490000Y-54853733D02*
X24490000Y-55146267D01*
X25510000Y-54853733D02*
X25510000Y-55146267D01*
%TO.C,C4*%
X28490000Y-54853733D02*
X28490000Y-55146267D01*
X29510000Y-54853733D02*
X29510000Y-55146267D01*
%TO.C,C5*%
X31510000Y-55146267D02*
X31510000Y-54853733D01*
X30490000Y-55146267D02*
X30490000Y-54853733D01*
%TO.C,C1*%
X25010000Y-28146267D02*
X25010000Y-27853733D01*
X23990000Y-28146267D02*
X23990000Y-27853733D01*
%TO.C,C3*%
X23510000Y-27853733D02*
X23510000Y-28146267D01*
X22490000Y-27853733D02*
X22490000Y-28146267D01*
%TO.C,R1*%
X22022500Y-28254724D02*
X22022500Y-27745276D01*
X20977500Y-28254724D02*
X20977500Y-27745276D01*
%TD*%
%LPC*%
D13*
%TO.C,J2*%
X30750000Y-34500000D03*
X30250000Y-34500000D03*
X29750000Y-34500000D03*
X29250000Y-34500000D03*
X28750000Y-34500000D03*
X28250000Y-34500000D03*
X27750000Y-34500000D03*
X27250000Y-34500000D03*
X26750000Y-34500000D03*
X26250000Y-34500000D03*
X25750000Y-34500000D03*
X25250000Y-34500000D03*
D14*
X24365000Y-31690000D03*
X31635000Y-31690000D03*
%TD*%
D15*
%TO.C,C8*%
X34500000Y-27137500D03*
X34500000Y-28862500D03*
%TD*%
%TO.C,C9*%
X33000000Y-27137500D03*
X33000000Y-28862500D03*
%TD*%
%TO.C,C2*%
X31500000Y-27137500D03*
X31500000Y-28862500D03*
%TD*%
D16*
%TO.C,REF\u002A\u002A*%
X28450000Y-25000000D03*
X29300000Y-25000000D03*
X30150000Y-25000000D03*
X31000000Y-25000000D03*
X31850000Y-25000000D03*
X32700000Y-25000000D03*
X33550000Y-25000000D03*
%TD*%
D17*
%TO.C,C7*%
X27000000Y-54137500D03*
X27000000Y-55862500D03*
%TD*%
D18*
%TO.C,H2*%
X28000000Y-28000000D03*
%TD*%
D19*
%TO.C,U2*%
X22650000Y-37820000D03*
D20*
X22650000Y-39600000D03*
X22650000Y-41380000D03*
X22650000Y-43160000D03*
X22650000Y-44940000D03*
X22650000Y-46720000D03*
X22650000Y-48500000D03*
X22650000Y-50280000D03*
X33350000Y-51170000D03*
X33350000Y-49390000D03*
X33350000Y-47610000D03*
X33350000Y-45830000D03*
X33350000Y-44050000D03*
X33350000Y-42270000D03*
X33350000Y-40490000D03*
X33350000Y-38710000D03*
%TD*%
D21*
%TO.C,U1*%
X32550000Y-34937500D03*
X34450000Y-34937500D03*
X33500000Y-33062500D03*
%TD*%
D16*
%TO.C,REF\u002A\u002A*%
X22450000Y-57000000D03*
X23300000Y-57000000D03*
X24150000Y-57000000D03*
X25000000Y-57000000D03*
X25850000Y-57000000D03*
X26700000Y-57000000D03*
X27550000Y-57000000D03*
%TD*%
%TO.C,REF\u002A\u002A*%
X22450000Y-25000000D03*
X23300000Y-25000000D03*
X24150000Y-25000000D03*
X25000000Y-25000000D03*
X25850000Y-25000000D03*
X26700000Y-25000000D03*
X27550000Y-25000000D03*
%TD*%
D18*
%TO.C,H3*%
X28000000Y-59500000D03*
%TD*%
D17*
%TO.C,C6*%
X25000000Y-54137500D03*
X25000000Y-55862500D03*
%TD*%
D16*
%TO.C,REF\u002A\u002A*%
X28450000Y-57000000D03*
X29300000Y-57000000D03*
X30150000Y-57000000D03*
X31000000Y-57000000D03*
X31850000Y-57000000D03*
X32700000Y-57000000D03*
X33550000Y-57000000D03*
%TD*%
D17*
%TO.C,C4*%
X29000000Y-54137500D03*
X29000000Y-55862500D03*
%TD*%
D18*
%TO.C,H1*%
X28000000Y-22500000D03*
%TD*%
D15*
%TO.C,C5*%
X31000000Y-55862500D03*
X31000000Y-54137500D03*
%TD*%
%TO.C,C1*%
X24500000Y-28862500D03*
X24500000Y-27137500D03*
%TD*%
D17*
%TO.C,C3*%
X23000000Y-27137500D03*
X23000000Y-28862500D03*
%TD*%
D22*
%TO.C,R1*%
X21500000Y-28912500D03*
X21500000Y-27087500D03*
%TD*%
%LPD*%
M02*
