%TF.GenerationSoftware,KiCad,Pcbnew,10.0.4-10.0.4~ubuntu26.04.1*%
%TF.CreationDate,2026-07-05T22:57:21-05:00*%
%TF.ProjectId,pmw3610-xxs-compliant-narrow,706d7733-3631-4302-9d78-78732d636f6d,rev?*%
%TF.SameCoordinates,Original*%
%TF.FileFunction,Soldermask,Top*%
%TF.FilePolarity,Negative*%
%FSLAX46Y46*%
G04 Gerber Fmt 4.6, Leading zero omitted, Abs format (unit mm)*
G04 Created by KiCad (PCBNEW 10.0.4-10.0.4~ubuntu26.04.1) date 2026-07-05 22:57:21*
%MOMM*%
%LPD*%
G01*
G04 APERTURE LIST*
G04 Aperture macros list*
%AMRoundRect*
0 Rectangle with rounded corners*
0 $1 Rounding radius*
0 $2 $3 $4 $5 $6 $7 $8 $9 X,Y pos of 4 corners*
0 Add a 4 corners polygon primitive as box body*
4,1,4,$2,$3,$4,$5,$6,$7,$8,$9,$2,$3,0*
0 Add four circle primitives for the rounded corners*
1,1,$1+$1,$2,$3*
1,1,$1+$1,$4,$5*
1,1,$1+$1,$6,$7*
1,1,$1+$1,$8,$9*
0 Add four rect primitives between the rounded corners*
20,1,$1+$1,$2,$3,$4,$5,0*
20,1,$1+$1,$4,$5,$6,$7,0*
20,1,$1+$1,$6,$7,$8,$9,0*
20,1,$1+$1,$8,$9,$2,$3,0*%
G04 Aperture macros list end*
%ADD10R,0.300000X0.650000*%
%ADD11R,0.300000X1.150000*%
%ADD12RoundRect,0.237500X0.237500X-0.300000X0.237500X0.300000X-0.237500X0.300000X-0.237500X-0.300000X0*%
%ADD13RoundRect,0.237500X-0.237500X0.300000X-0.237500X-0.300000X0.237500X-0.300000X0.237500X0.300000X0*%
%ADD14C,4.400000*%
%ADD15RoundRect,0.187500X-0.437500X0.437500X-0.437500X-0.437500X0.437500X-0.437500X0.437500X0.437500X0*%
%ADD16O,1.250000X1.250000*%
%ADD17RoundRect,0.150000X0.150000X-0.587500X0.150000X0.587500X-0.150000X0.587500X-0.150000X-0.587500X0*%
%ADD18RoundRect,0.237500X0.237500X-0.250000X0.237500X0.250000X-0.237500X0.250000X-0.237500X-0.250000X0*%
G04 APERTURE END LIST*
D10*
%TO.C,J2*%
X30750000Y-34500000D03*
X30250000Y-34500000D03*
X29750000Y-34500000D03*
X29250000Y-34500000D03*
X28750000Y-34500000D03*
X28250000Y-34500000D03*
X27750000Y-34500000D03*
X27250000Y-34500000D03*
X26750000Y-34500000D03*
X26250000Y-34500000D03*
X25750000Y-34500000D03*
X25250000Y-34500000D03*
D11*
X24365000Y-31690000D03*
X31635000Y-31690000D03*
%TD*%
D12*
%TO.C,C8*%
X34500000Y-27137500D03*
X34500000Y-28862500D03*
%TD*%
%TO.C,C9*%
X33000000Y-27137500D03*
X33000000Y-28862500D03*
%TD*%
%TO.C,C2*%
X31500000Y-27137500D03*
X31500000Y-28862500D03*
%TD*%
D13*
%TO.C,C7*%
X27000000Y-54137500D03*
X27000000Y-55862500D03*
%TD*%
D14*
%TO.C,H2*%
X28000000Y-28000000D03*
%TD*%
D15*
%TO.C,U2*%
X22650000Y-37820000D03*
D16*
X22650000Y-39600000D03*
X22650000Y-41380000D03*
X22650000Y-43160000D03*
X22650000Y-44940000D03*
X22650000Y-46720000D03*
X22650000Y-48500000D03*
X22650000Y-50280000D03*
X33350000Y-51170000D03*
X33350000Y-49390000D03*
X33350000Y-47610000D03*
X33350000Y-45830000D03*
X33350000Y-44050000D03*
X33350000Y-42270000D03*
X33350000Y-40490000D03*
X33350000Y-38710000D03*
%TD*%
D17*
%TO.C,U1*%
X32550000Y-34937500D03*
X34450000Y-34937500D03*
X33500000Y-33062500D03*
%TD*%
D14*
%TO.C,H3*%
X28000000Y-59500000D03*
%TD*%
D13*
%TO.C,C6*%
X25000000Y-54137500D03*
X25000000Y-55862500D03*
%TD*%
%TO.C,C4*%
X29000000Y-54137500D03*
X29000000Y-55862500D03*
%TD*%
D14*
%TO.C,H1*%
X28000000Y-22500000D03*
%TD*%
D12*
%TO.C,C5*%
X31000000Y-55862500D03*
X31000000Y-54137500D03*
%TD*%
%TO.C,C1*%
X24500000Y-28862500D03*
X24500000Y-27137500D03*
%TD*%
D13*
%TO.C,C3*%
X23000000Y-27137500D03*
X23000000Y-28862500D03*
%TD*%
D18*
%TO.C,R1*%
X21500000Y-28912500D03*
X21500000Y-27087500D03*
%TD*%
M02*
