%TF.GenerationSoftware,KiCad,Pcbnew,10.0.3-10.0.3~ubuntu26.04.1*%
%TF.CreationDate,2026-05-22T21:10:24-05:00*%
%TF.ProjectId,pmw3610-xxs-compliant-narrow,706d7733-3631-4302-9d78-78732d636f6d,rev?*%
%TF.SameCoordinates,Original*%
%TF.FileFunction,Copper,L1,Top*%
%TF.FilePolarity,Positive*%
%FSLAX46Y46*%
G04 Gerber Fmt 4.6, Leading zero omitted, Abs format (unit mm)*
G04 Created by KiCad (PCBNEW 10.0.3-10.0.3~ubuntu26.04.1) date 2026-05-22 21:10:24*
%MOMM*%
%LPD*%
G01*
G04 APERTURE LIST*
G04 Aperture macros list*
%AMRoundRect*
0 Rectangle with rounded corners*
0 $1 Rounding radius*
0 $2 $3 $4 $5 $6 $7 $8 $9 X,Y pos of 4 corners*
0 Add a 4 corners polygon primitive as box body*
4,1,4,$2,$3,$4,$5,$6,$7,$8,$9,$2,$3,0*
0 Add four circle primitives for the rounded corners*
1,1,$1+$1,$2,$3*
1,1,$1+$1,$4,$5*
1,1,$1+$1,$6,$7*
1,1,$1+$1,$8,$9*
0 Add four rect primitives between the rounded corners*
20,1,$1+$1,$2,$3,$4,$5,0*
20,1,$1+$1,$4,$5,$6,$7,0*
20,1,$1+$1,$6,$7,$8,$9,0*
20,1,$1+$1,$8,$9,$2,$3,0*%
G04 Aperture macros list end*
%TA.AperFunction,ComponentPad*%
%ADD10C,4.400000*%
%TD*%
%TA.AperFunction,SMDPad,CuDef*%
%ADD11RoundRect,0.150000X0.587500X0.150000X-0.587500X0.150000X-0.587500X-0.150000X0.587500X-0.150000X0*%
%TD*%
%TA.AperFunction,SMDPad,CuDef*%
%ADD12RoundRect,0.237500X-0.237500X0.300000X-0.237500X-0.300000X0.237500X-0.300000X0.237500X0.300000X0*%
%TD*%
%TA.AperFunction,SMDPad,CuDef*%
%ADD13RoundRect,0.237500X0.300000X0.237500X-0.300000X0.237500X-0.300000X-0.237500X0.300000X-0.237500X0*%
%TD*%
%TA.AperFunction,SMDPad,CuDef*%
%ADD14R,0.300000X0.650000*%
%TD*%
%TA.AperFunction,SMDPad,CuDef*%
%ADD15R,0.300000X1.150000*%
%TD*%
%TA.AperFunction,ComponentPad*%
%ADD16O,1.250000X1.250000*%
%TD*%
%TA.AperFunction,ComponentPad*%
%ADD17RoundRect,0.187500X-0.437500X0.437500X-0.437500X-0.437500X0.437500X-0.437500X0.437500X0.437500X0*%
%TD*%
%TA.AperFunction,ViaPad*%
%ADD18C,0.600000*%
%TD*%
%TA.AperFunction,Conductor*%
%ADD19C,0.200000*%
%TD*%
G04 APERTURE END LIST*
D10*
%TO.P,H3,1,1_1*%
%TO.N,GND*%
X28000000Y-59500000D03*
%TD*%
%TO.P,H2,1,1_1*%
%TO.N,GND*%
X28000000Y-28000000D03*
%TD*%
%TO.P,H1,1,1_1*%
%TO.N,GND*%
X28000000Y-22500000D03*
%TD*%
D11*
%TO.P,U1,1,GND_1*%
%TO.N,GND*%
X31084370Y-55220000D03*
%TO.P,U1,2,VO_2*%
%TO.N,+1V9*%
X31084370Y-53320000D03*
%TO.P,U1,3,VI_3*%
%TO.N,VCC*%
X29209370Y-54270000D03*
%TD*%
D12*
%TO.P,C7,1*%
%TO.N,Net-(U2-VCP)*%
X26646870Y-53275000D03*
%TO.P,C7,2*%
%TO.N,GND*%
X26646870Y-55000000D03*
%TD*%
%TO.P,C6,1*%
%TO.N,Net-(U2-VCP)*%
X25146870Y-53275000D03*
%TO.P,C6,2*%
%TO.N,GND*%
X25146870Y-55000000D03*
%TD*%
D13*
%TO.P,C5,1*%
%TO.N,Net-(U2-CN)*%
X34862500Y-55137500D03*
%TO.P,C5,2*%
%TO.N,Net-(U2-CP)*%
X33137500Y-55137500D03*
%TD*%
D12*
%TO.P,C4,1*%
%TO.N,Net-(U2-+VCSEL)*%
X23646870Y-53275000D03*
%TO.P,C4,2*%
%TO.N,GND*%
X23646870Y-55000000D03*
%TD*%
D14*
%TO.P,J2,1,SCLK_1*%
%TO.N,SCLK*%
X30750000Y-34310000D03*
%TO.P,J2,2,MISO_2*%
%TO.N,SDIO*%
X30250000Y-34310000D03*
%TO.P,J2,3,SPI_CS_3*%
%TO.N,NCS*%
X29750000Y-34310000D03*
%TO.P,J2,4,GP_AD2_4*%
%TO.N,MOTION*%
X29250000Y-34310000D03*
%TO.P,J2,5,MOSI_5*%
%TO.N,unconnected-(J2-MOSI-Pad5)*%
X28750000Y-34310000D03*
%TO.P,J2,6,GP_AD1_6*%
%TO.N,unconnected-(J2-GP_AD1-Pad6)*%
X28250000Y-34310000D03*
%TO.P,J2,7,5V_7*%
%TO.N,unconnected-(J2-5V-Pad7)*%
X27750000Y-34310000D03*
%TO.P,J2,8,RGB_DO_8*%
%TO.N,unconnected-(J2-RGB_DO-Pad8)*%
X27250000Y-34310000D03*
%TO.P,J2,9,SCL_9*%
%TO.N,unconnected-(J2-SCL-Pad9)*%
X26750000Y-34310000D03*
%TO.P,J2,10,SDA_10*%
%TO.N,unconnected-(J2-SDA-Pad10)*%
X26250000Y-34310000D03*
%TO.P,J2,11,GND_11*%
%TO.N,GND*%
X25750000Y-34310000D03*
%TO.P,J2,12,3V3_12*%
%TO.N,VCC*%
X25250000Y-34310000D03*
D15*
%TO.P,J2,13*%
%TO.N,GND*%
X24365000Y-31500000D03*
%TO.P,J2,14*%
X31635000Y-31500000D03*
%TD*%
D16*
%TO.P,U2,16,-VCSEL_16*%
%TO.N,Net-(U2--VCSEL)*%
X33350000Y-38710000D03*
%TO.P,U2,15,XYLASER_15*%
X33350000Y-40490000D03*
%TO.P,U2,14,VDD_14*%
%TO.N,+1V9*%
X33350000Y-42270000D03*
%TO.P,U2,13,CN_13*%
%TO.N,Net-(U2-CN)*%
X33350000Y-44050000D03*
%TO.P,U2,12,CP_12*%
%TO.N,Net-(U2-CP)*%
X33350000Y-45830000D03*
%TO.P,U2,11,GND_11*%
%TO.N,GND*%
X33350000Y-47610000D03*
%TO.P,U2,10,PASS_T_10*%
%TO.N,Net-(U2-+VCSEL)*%
X33350000Y-49390000D03*
%TO.P,U2,9,VCP_9*%
%TO.N,Net-(U2-VCP)*%
X33350000Y-51170000D03*
%TO.P,U2,8,MOTION_8*%
%TO.N,MOTION*%
X22650000Y-50280000D03*
%TO.P,U2,7,NRESET_7*%
%TO.N,Net-(U2-NRESET)*%
X22650000Y-48500000D03*
%TO.P,U2,6,VDDIO_6*%
%TO.N,VCC*%
X22650000Y-46720000D03*
%TO.P,U2,5,NCS_5*%
%TO.N,NCS*%
X22650000Y-44940000D03*
%TO.P,U2,4,NC_4*%
%TO.N,unconnected-(U2-NC-Pad4)*%
X22650000Y-43160000D03*
%TO.P,U2,3,SCLK_3*%
%TO.N,SCLK*%
X22650000Y-41380000D03*
%TO.P,U2,2,SDIO_2*%
%TO.N,SDIO*%
X22650000Y-39600000D03*
D17*
%TO.P,U2,1,+VCSEL_1*%
%TO.N,Net-(U2-+VCSEL)*%
X22650000Y-37820000D03*
%TD*%
D18*
%TO.N,GND*%
X26646870Y-54912500D03*
X25146870Y-54912500D03*
X24365000Y-31500000D03*
X35000000Y-44500000D03*
%TO.N,Net-(U2-+VCSEL)*%
X21224265Y-54775735D03*
%TO.N,VCC*%
X27500000Y-56000000D03*
%TO.N,+1V9*%
X31084370Y-53320000D03*
%TD*%
%TO.N,Net-(U2-VCP)*%
D19*
X25146870Y-53275000D02*
X26646870Y-53275000D01*
%TO.N,Net-(U2-CN)*%
X34862500Y-55137500D02*
X34862500Y-52712500D01*
X34862500Y-52712500D02*
X35075000Y-52500000D01*
%TO.N,Net-(U2-CP)*%
X33137500Y-55137500D02*
X33137500Y-53715254D01*
X33137500Y-53715254D02*
X34675000Y-52177754D01*
X34675000Y-52177754D02*
X34675000Y-47155000D01*
X34675000Y-47155000D02*
X33350000Y-45830000D01*
%TO.N,Net-(U2-VCP)*%
X26646870Y-53275000D02*
X27201870Y-52720000D01*
X33350000Y-52053883D02*
X33350000Y-51170000D01*
X27201870Y-52720000D02*
X32683883Y-52720000D01*
X32683883Y-52720000D02*
X33350000Y-52053883D01*
%TO.N,Net-(U2-+VCSEL)*%
X23646870Y-53275000D02*
X24484370Y-54112500D01*
X30817422Y-54500000D02*
X31787069Y-54500000D01*
X24484370Y-54112500D02*
X27988818Y-54112500D01*
X27988818Y-54112500D02*
X28431318Y-53670000D01*
X28431318Y-53670000D02*
X29987422Y-53670000D01*
X29987422Y-53670000D02*
X30817422Y-54500000D01*
X34275000Y-52012069D02*
X34275000Y-50315000D01*
X31787069Y-54500000D02*
X34275000Y-52012069D01*
X34275000Y-50315000D02*
X33350000Y-49390000D01*
X23646870Y-53275000D02*
X22725000Y-53275000D01*
X22725000Y-53275000D02*
X21224265Y-54775735D01*
%TO.N,NCS*%
X29750000Y-34310000D02*
X29750000Y-34885000D01*
X20900000Y-43190000D02*
X22650000Y-44940000D01*
X29750000Y-34885000D02*
X29700000Y-34935000D01*
X29700000Y-34935000D02*
X22630686Y-34935000D01*
X22630686Y-34935000D02*
X20900000Y-36665686D01*
X20900000Y-36665686D02*
X20900000Y-43190000D01*
%TO.N,GND*%
X25750000Y-31750000D02*
X25500000Y-31500000D01*
X25750000Y-34310000D02*
X25750000Y-31750000D01*
X25500000Y-31500000D02*
X24365000Y-31500000D01*
%TO.N,MOTION*%
X29250000Y-34310000D02*
X29250000Y-33250000D01*
X29250000Y-33250000D02*
X25500000Y-29500000D01*
X25500000Y-29500000D02*
X22500000Y-29500000D01*
X22500000Y-29500000D02*
X20100000Y-31900000D01*
X20100000Y-31900000D02*
X20100000Y-36334315D01*
%TO.N,Net-(U2-CN)*%
X35075000Y-45775000D02*
X33350000Y-44050000D01*
X35075000Y-52500000D02*
X35075000Y-45775000D01*
%TO.N,Net-(U2--VCSEL)*%
X33350000Y-38710000D02*
X33350000Y-40490000D01*
%TO.N,SDIO*%
X22650000Y-39600000D02*
X21700000Y-38650000D01*
X21700000Y-38650000D02*
X21700000Y-37035000D01*
X21700000Y-37035000D02*
X23000000Y-35735000D01*
X23000000Y-35735000D02*
X30465686Y-35735000D01*
X30465686Y-35735000D02*
X31200000Y-35000686D01*
X31200000Y-35000686D02*
X31200000Y-33685000D01*
X31200000Y-33685000D02*
X30300000Y-33685000D01*
X30300000Y-33685000D02*
X30250000Y-33735000D01*
X30250000Y-33735000D02*
X30250000Y-34310000D01*
%TO.N,SCLK*%
X22650000Y-41380000D02*
X21300000Y-40030000D01*
X21300000Y-40030000D02*
X21300000Y-36831372D01*
X30750000Y-34885000D02*
X30750000Y-34310000D01*
X21300000Y-36831372D02*
X22796372Y-35335000D01*
X22796372Y-35335000D02*
X30300000Y-35335000D01*
X30300000Y-35335000D02*
X30750000Y-34885000D01*
%TO.N,VCC*%
X25250000Y-34310000D02*
X22690000Y-34310000D01*
X22690000Y-34310000D02*
X20500000Y-36500000D01*
X20500000Y-36500000D02*
X20500000Y-44570000D01*
X20500000Y-44570000D02*
X22650000Y-46720000D01*
%TO.N,MOTION*%
X20100000Y-47730000D02*
X20100000Y-36334315D01*
X22650000Y-50280000D02*
X20100000Y-47730000D01*
%TO.N,VCC*%
X27500000Y-55979370D02*
X27500000Y-56000000D01*
X29209370Y-54270000D02*
X27500000Y-55979370D01*
%TD*%
%TA.AperFunction,Conductor*%
%TO.N,GND*%
G36*
X20205703Y-48685384D02*
G01*
X20212181Y-48691416D01*
X21505486Y-49984722D01*
X21538971Y-50046045D01*
X21540278Y-50091800D01*
X21524500Y-50191420D01*
X21524500Y-50368578D01*
X21552214Y-50543556D01*
X21606956Y-50712039D01*
X21606957Y-50712042D01*
X21664147Y-50824281D01*
X21687386Y-50869890D01*
X21791517Y-51013214D01*
X21916786Y-51138483D01*
X22060110Y-51242614D01*
X22137529Y-51282061D01*
X22217957Y-51323042D01*
X22217960Y-51323043D01*
X22302201Y-51350414D01*
X22386445Y-51377786D01*
X22561421Y-51405500D01*
X22561422Y-51405500D01*
X22738578Y-51405500D01*
X22738579Y-51405500D01*
X22913555Y-51377786D01*
X23082042Y-51323042D01*
X23239890Y-51242614D01*
X23383214Y-51138483D01*
X23423044Y-51098652D01*
X23484365Y-51065168D01*
X23554056Y-51070152D01*
X23609990Y-51112022D01*
X23634408Y-51177487D01*
X23634723Y-51186720D01*
X23631839Y-52113386D01*
X23611946Y-52180364D01*
X23559000Y-52225954D01*
X23507841Y-52237000D01*
X23360201Y-52237000D01*
X23360182Y-52237001D01*
X23259117Y-52247325D01*
X23095354Y-52301592D01*
X23095351Y-52301593D01*
X22948518Y-52392161D01*
X22826531Y-52514148D01*
X22826530Y-52514150D01*
X22765826Y-52612568D01*
X22763958Y-52615596D01*
X22712010Y-52662320D01*
X22658419Y-52674499D01*
X22645943Y-52674499D01*
X22493215Y-52715423D01*
X22493213Y-52715423D01*
X22493213Y-52715424D01*
X22356281Y-52794482D01*
X21209604Y-53941160D01*
X21148281Y-53974645D01*
X21146115Y-53975096D01*
X20990773Y-54005996D01*
X20990763Y-54005999D01*
X20845092Y-54066337D01*
X20845079Y-54066344D01*
X20713976Y-54153945D01*
X20713972Y-54153948D01*
X20602478Y-54265442D01*
X20602475Y-54265446D01*
X20514874Y-54396549D01*
X20514867Y-54396562D01*
X20454529Y-54542233D01*
X20454526Y-54542245D01*
X20423765Y-54696888D01*
X20423765Y-54854581D01*
X20454526Y-55009224D01*
X20454529Y-55009236D01*
X20514867Y-55154907D01*
X20514874Y-55154920D01*
X20602475Y-55286023D01*
X20602478Y-55286027D01*
X20713972Y-55397521D01*
X20713976Y-55397524D01*
X20845079Y-55485125D01*
X20845092Y-55485132D01*
X20990763Y-55545470D01*
X20990768Y-55545472D01*
X21145418Y-55576234D01*
X21145421Y-55576235D01*
X21145423Y-55576235D01*
X21303109Y-55576235D01*
X21303110Y-55576234D01*
X21457762Y-55545472D01*
X21584294Y-55493061D01*
X21603437Y-55485132D01*
X21603437Y-55485131D01*
X21603444Y-55485129D01*
X21734554Y-55397524D01*
X21782924Y-55349154D01*
X22671871Y-55349154D01*
X22682189Y-55450152D01*
X22736416Y-55613800D01*
X22736421Y-55613811D01*
X22826922Y-55760534D01*
X22826925Y-55760538D01*
X22948831Y-55882444D01*
X22948835Y-55882447D01*
X23095558Y-55972948D01*
X23095569Y-55972953D01*
X23259217Y-56027180D01*
X23360222Y-56037499D01*
X23396870Y-56037499D01*
X23896870Y-56037499D01*
X23933510Y-56037499D01*
X23933524Y-56037498D01*
X24034522Y-56027180D01*
X24198170Y-55972953D01*
X24198177Y-55972950D01*
X24331772Y-55890547D01*
X24399165Y-55872106D01*
X24461968Y-55890547D01*
X24595562Y-55972950D01*
X24595569Y-55972953D01*
X24759217Y-56027180D01*
X24860222Y-56037499D01*
X24896870Y-56037499D01*
X25396870Y-56037499D01*
X25433510Y-56037499D01*
X25433524Y-56037498D01*
X25534522Y-56027180D01*
X25698170Y-55972953D01*
X25698177Y-55972950D01*
X25831772Y-55890547D01*
X25899165Y-55872106D01*
X25961968Y-55890547D01*
X26095562Y-55972950D01*
X26095569Y-55972953D01*
X26259217Y-56027180D01*
X26360222Y-56037499D01*
X26396870Y-56037499D01*
X26396870Y-55250000D01*
X25396870Y-55250000D01*
X25396870Y-56037499D01*
X24896870Y-56037499D01*
X24896870Y-55250000D01*
X23896870Y-55250000D01*
X23896870Y-56037499D01*
X23396870Y-56037499D01*
X23396870Y-55250000D01*
X22671871Y-55250000D01*
X22671871Y-55349154D01*
X21782924Y-55349154D01*
X21846054Y-55286024D01*
X21933659Y-55154914D01*
X21934363Y-55153212D01*
X21935205Y-55151183D01*
X21935205Y-55151182D01*
X21968624Y-55070500D01*
X21994002Y-55009232D01*
X22013378Y-54911820D01*
X22024903Y-54853885D01*
X22057288Y-54791974D01*
X22058783Y-54790451D01*
X22501945Y-54347289D01*
X22563266Y-54313806D01*
X22632958Y-54318790D01*
X22688891Y-54360662D01*
X22713308Y-54426126D01*
X22707330Y-54473975D01*
X22682189Y-54549845D01*
X22682189Y-54549846D01*
X22671870Y-54650845D01*
X22671870Y-54750000D01*
X26522870Y-54750000D01*
X26589909Y-54769685D01*
X26635664Y-54822489D01*
X26646870Y-54874000D01*
X26646870Y-55000000D01*
X26772870Y-55000000D01*
X26839909Y-55019685D01*
X26885664Y-55072489D01*
X26896870Y-55124000D01*
X26896870Y-55424170D01*
X26877185Y-55491209D01*
X26875972Y-55493061D01*
X26790609Y-55620814D01*
X26790602Y-55620827D01*
X26730264Y-55766498D01*
X26730261Y-55766510D01*
X26699500Y-55921153D01*
X26699500Y-56078846D01*
X26730261Y-56233489D01*
X26730264Y-56233501D01*
X26790602Y-56379172D01*
X26790609Y-56379185D01*
X26878210Y-56510288D01*
X26878213Y-56510292D01*
X26931477Y-56563556D01*
X26931481Y-56563559D01*
X26989711Y-56621789D01*
X27087226Y-56686947D01*
X27087228Y-56686948D01*
X27120814Y-56709390D01*
X27120826Y-56709397D01*
X27243899Y-56760374D01*
X27298303Y-56804214D01*
X27320368Y-56870508D01*
X27311009Y-56922386D01*
X27299501Y-56950170D01*
X27299500Y-56950172D01*
X27299500Y-57049829D01*
X27330843Y-57125498D01*
X27337636Y-57141897D01*
X27408103Y-57212364D01*
X27500172Y-57250500D01*
X27500174Y-57250500D01*
X27599826Y-57250500D01*
X27599828Y-57250500D01*
X27691897Y-57212364D01*
X27762364Y-57141897D01*
X27800500Y-57049828D01*
X27800500Y-56950172D01*
X27800499Y-56950170D01*
X28199500Y-56950170D01*
X28199500Y-57049829D01*
X28230843Y-57125498D01*
X28237636Y-57141897D01*
X28308103Y-57212364D01*
X28400172Y-57250500D01*
X28400174Y-57250500D01*
X28499826Y-57250500D01*
X28499828Y-57250500D01*
X28591897Y-57212364D01*
X28662364Y-57141897D01*
X28700500Y-57049828D01*
X28700500Y-56950172D01*
X28700499Y-56950170D01*
X29049500Y-56950170D01*
X29049500Y-57049829D01*
X29080843Y-57125498D01*
X29087636Y-57141897D01*
X29158103Y-57212364D01*
X29250172Y-57250500D01*
X29250174Y-57250500D01*
X29349826Y-57250500D01*
X29349828Y-57250500D01*
X29441897Y-57212364D01*
X29512364Y-57141897D01*
X29550500Y-57049828D01*
X29550500Y-56950172D01*
X29550499Y-56950170D01*
X29899500Y-56950170D01*
X29899500Y-57049829D01*
X29930843Y-57125498D01*
X29937636Y-57141897D01*
X30008103Y-57212364D01*
X30100172Y-57250500D01*
X30100174Y-57250500D01*
X30199826Y-57250500D01*
X30199828Y-57250500D01*
X30291897Y-57212364D01*
X30362364Y-57141897D01*
X30400500Y-57049828D01*
X30400500Y-56950172D01*
X30400499Y-56950170D01*
X30749500Y-56950170D01*
X30749500Y-57049829D01*
X30780843Y-57125498D01*
X30787636Y-57141897D01*
X30858103Y-57212364D01*
X30950172Y-57250500D01*
X30950174Y-57250500D01*
X31049826Y-57250500D01*
X31049828Y-57250500D01*
X31141897Y-57212364D01*
X31212364Y-57141897D01*
X31250500Y-57049828D01*
X31250500Y-56950172D01*
X31250499Y-56950170D01*
X31599500Y-56950170D01*
X31599500Y-57049829D01*
X31630843Y-57125498D01*
X31637636Y-57141897D01*
X31708103Y-57212364D01*
X31800172Y-57250500D01*
X31800174Y-57250500D01*
X31899826Y-57250500D01*
X31899828Y-57250500D01*
X31991897Y-57212364D01*
X32062364Y-57141897D01*
X32100500Y-57049828D01*
X32100500Y-56950172D01*
X32100499Y-56950170D01*
X32449500Y-56950170D01*
X32449500Y-57049829D01*
X32480843Y-57125498D01*
X32487636Y-57141897D01*
X32558103Y-57212364D01*
X32650172Y-57250500D01*
X32650174Y-57250500D01*
X32749826Y-57250500D01*
X32749828Y-57250500D01*
X32841897Y-57212364D01*
X32912364Y-57141897D01*
X32950500Y-57049828D01*
X32950500Y-56950172D01*
X32950499Y-56950170D01*
X33299500Y-56950170D01*
X33299500Y-57049829D01*
X33330843Y-57125498D01*
X33337636Y-57141897D01*
X33408103Y-57212364D01*
X33500172Y-57250500D01*
X33500174Y-57250500D01*
X33599826Y-57250500D01*
X33599828Y-57250500D01*
X33691897Y-57212364D01*
X33762364Y-57141897D01*
X33800500Y-57049828D01*
X33800500Y-56950172D01*
X33762364Y-56858103D01*
X33691897Y-56787636D01*
X33648685Y-56769737D01*
X33599829Y-56749500D01*
X33599828Y-56749500D01*
X33500172Y-56749500D01*
X33500170Y-56749500D01*
X33408102Y-56787636D01*
X33337636Y-56858102D01*
X33299500Y-56950170D01*
X32950499Y-56950170D01*
X32912364Y-56858103D01*
X32841897Y-56787636D01*
X32798685Y-56769737D01*
X32749829Y-56749500D01*
X32749828Y-56749500D01*
X32650172Y-56749500D01*
X32650170Y-56749500D01*
X32558102Y-56787636D01*
X32487636Y-56858102D01*
X32449500Y-56950170D01*
X32100499Y-56950170D01*
X32062364Y-56858103D01*
X31991897Y-56787636D01*
X31948685Y-56769737D01*
X31899829Y-56749500D01*
X31899828Y-56749500D01*
X31800172Y-56749500D01*
X31800170Y-56749500D01*
X31708102Y-56787636D01*
X31637636Y-56858102D01*
X31599500Y-56950170D01*
X31250499Y-56950170D01*
X31212364Y-56858103D01*
X31141897Y-56787636D01*
X31098685Y-56769737D01*
X31049829Y-56749500D01*
X31049828Y-56749500D01*
X30950172Y-56749500D01*
X30950170Y-56749500D01*
X30858102Y-56787636D01*
X30787636Y-56858102D01*
X30749500Y-56950170D01*
X30400499Y-56950170D01*
X30362364Y-56858103D01*
X30291897Y-56787636D01*
X30248685Y-56769737D01*
X30199829Y-56749500D01*
X30199828Y-56749500D01*
X30100172Y-56749500D01*
X30100170Y-56749500D01*
X30008102Y-56787636D01*
X29937636Y-56858102D01*
X29899500Y-56950170D01*
X29550499Y-56950170D01*
X29512364Y-56858103D01*
X29441897Y-56787636D01*
X29398685Y-56769737D01*
X29349829Y-56749500D01*
X29349828Y-56749500D01*
X29250172Y-56749500D01*
X29250170Y-56749500D01*
X29158102Y-56787636D01*
X29087636Y-56858102D01*
X29049500Y-56950170D01*
X28700499Y-56950170D01*
X28662364Y-56858103D01*
X28591897Y-56787636D01*
X28548685Y-56769737D01*
X28499829Y-56749500D01*
X28499828Y-56749500D01*
X28400172Y-56749500D01*
X28400170Y-56749500D01*
X28308102Y-56787636D01*
X28237636Y-56858102D01*
X28199500Y-56950170D01*
X27800499Y-56950170D01*
X27773262Y-56884415D01*
X27772304Y-56881765D01*
X27770322Y-56849602D01*
X27766878Y-56817563D01*
X27768187Y-56814946D01*
X27768008Y-56812028D01*
X27783724Y-56783907D01*
X27798153Y-56755084D01*
X27800901Y-56753176D01*
X27802096Y-56751038D01*
X27810222Y-56746704D01*
X27841453Y-56725020D01*
X27879179Y-56709394D01*
X28010289Y-56621789D01*
X28121789Y-56510289D01*
X28209394Y-56379179D01*
X28215022Y-56365593D01*
X28269735Y-56233501D01*
X28269737Y-56233497D01*
X28300500Y-56078842D01*
X28300500Y-56078835D01*
X28301097Y-56072782D01*
X28302424Y-56072912D01*
X28320185Y-56012428D01*
X28336819Y-55991786D01*
X28858604Y-55470001D01*
X29849574Y-55470001D01*
X29849769Y-55472486D01*
X29895588Y-55630198D01*
X29979184Y-55771552D01*
X29979191Y-55771561D01*
X30095308Y-55887678D01*
X30095317Y-55887685D01*
X30236673Y-55971282D01*
X30236676Y-55971283D01*
X30394374Y-56017099D01*
X30394380Y-56017100D01*
X30431220Y-56019999D01*
X30431236Y-56020000D01*
X30834370Y-56020000D01*
X30834370Y-55470000D01*
X29849575Y-55470000D01*
X29849574Y-55470001D01*
X28858604Y-55470001D01*
X29221786Y-55106819D01*
X29283109Y-55073334D01*
X29309467Y-55070500D01*
X29862556Y-55070500D01*
X29862564Y-55070500D01*
X29899439Y-55067598D01*
X29899441Y-55067597D01*
X29899443Y-55067597D01*
X29941061Y-55055505D01*
X30057268Y-55021744D01*
X30115564Y-54987268D01*
X30131465Y-54982917D01*
X30143750Y-54975023D01*
X30178685Y-54970000D01*
X30397259Y-54970000D01*
X30459259Y-54986613D01*
X30520107Y-55021743D01*
X30520109Y-55021744D01*
X30552873Y-55040660D01*
X30585634Y-55059576D01*
X30585636Y-55059576D01*
X30585637Y-55059577D01*
X30738364Y-55100500D01*
X30738365Y-55100500D01*
X30960370Y-55100500D01*
X31027409Y-55120185D01*
X31073164Y-55172989D01*
X31083118Y-55218748D01*
X31084370Y-55220000D01*
X31210370Y-55220000D01*
X31277409Y-55239685D01*
X31323164Y-55292489D01*
X31334370Y-55344000D01*
X31334370Y-56020000D01*
X31737504Y-56020000D01*
X31737519Y-56019999D01*
X31774359Y-56017100D01*
X31774365Y-56017099D01*
X31932063Y-55971283D01*
X31932066Y-55971282D01*
X32073422Y-55887685D01*
X32073426Y-55887682D01*
X32102275Y-55858832D01*
X32163597Y-55825346D01*
X32233289Y-55830328D01*
X32277640Y-55858830D01*
X32376650Y-55957840D01*
X32523484Y-56048408D01*
X32687247Y-56102674D01*
X32788323Y-56113000D01*
X33486676Y-56112999D01*
X33486684Y-56112998D01*
X33486687Y-56112998D01*
X33542030Y-56107344D01*
X33587753Y-56102674D01*
X33751516Y-56048408D01*
X33898350Y-55957840D01*
X33912319Y-55943871D01*
X33973642Y-55910386D01*
X34043334Y-55915370D01*
X34087681Y-55943871D01*
X34101650Y-55957840D01*
X34248484Y-56048408D01*
X34412247Y-56102674D01*
X34513323Y-56113000D01*
X35211676Y-56112999D01*
X35211684Y-56112998D01*
X35211687Y-56112998D01*
X35267030Y-56107344D01*
X35312753Y-56102674D01*
X35476516Y-56048408D01*
X35573611Y-55988518D01*
X35593893Y-55982968D01*
X35612350Y-55972891D01*
X35626916Y-55973932D01*
X35641003Y-55970078D01*
X35661067Y-55976374D01*
X35682042Y-55977875D01*
X35693732Y-55986626D01*
X35707667Y-55991000D01*
X35721141Y-56007145D01*
X35737975Y-56019747D01*
X35743078Y-56033429D01*
X35752436Y-56044642D01*
X35755042Y-56065507D01*
X35762392Y-56085211D01*
X35759287Y-56099481D01*
X35761098Y-56113973D01*
X35752009Y-56132936D01*
X35747540Y-56153484D01*
X35732594Y-56173448D01*
X35730902Y-56176980D01*
X35726389Y-56181738D01*
X35650140Y-56257987D01*
X35633582Y-56271881D01*
X35508636Y-56359369D01*
X35489917Y-56370176D01*
X35364151Y-56428821D01*
X35359197Y-56431001D01*
X35342282Y-56438007D01*
X35326926Y-56443220D01*
X35202130Y-56476659D01*
X35194229Y-56478501D01*
X35164927Y-56484330D01*
X35151542Y-56486241D01*
X35005395Y-56499028D01*
X34994587Y-56499500D01*
X34934108Y-56499500D01*
X34806814Y-56533608D01*
X34806813Y-56533608D01*
X34806811Y-56533609D01*
X34806810Y-56533609D01*
X34692685Y-56599499D01*
X34692683Y-56599501D01*
X34682381Y-56609802D01*
X34674006Y-56618176D01*
X34670886Y-56620182D01*
X34663648Y-56628534D01*
X34660506Y-56631677D01*
X34599503Y-56692682D01*
X34599500Y-56692686D01*
X34588323Y-56712045D01*
X34588322Y-56712045D01*
X34582401Y-56722298D01*
X34577210Y-56728290D01*
X34570657Y-56742639D01*
X34567706Y-56747750D01*
X34567697Y-56747768D01*
X34533607Y-56806815D01*
X34533607Y-56806817D01*
X34525295Y-56837835D01*
X34522614Y-56847837D01*
X34517787Y-56858409D01*
X34515476Y-56874478D01*
X34513564Y-56881616D01*
X34499500Y-56934104D01*
X34499500Y-56985596D01*
X34497429Y-57000000D01*
X34499500Y-57014403D01*
X34499500Y-57065893D01*
X34513563Y-57118378D01*
X34513563Y-57118379D01*
X34515476Y-57125520D01*
X34517787Y-57141591D01*
X34522613Y-57152158D01*
X34525291Y-57162154D01*
X34525294Y-57162161D01*
X34533607Y-57193184D01*
X34533608Y-57193186D01*
X34567692Y-57252222D01*
X34570648Y-57257343D01*
X34577210Y-57271710D01*
X34582404Y-57277704D01*
X34596236Y-57301661D01*
X34599499Y-57307313D01*
X34663629Y-57371443D01*
X34670886Y-57379818D01*
X34674014Y-57381828D01*
X34692686Y-57400500D01*
X34806814Y-57466392D01*
X34934108Y-57500500D01*
X34994588Y-57500500D01*
X35005394Y-57500972D01*
X35012947Y-57501632D01*
X35151564Y-57513760D01*
X35164907Y-57515665D01*
X35194247Y-57521501D01*
X35202103Y-57523332D01*
X35326932Y-57556780D01*
X35342278Y-57561989D01*
X35359233Y-57569012D01*
X35364169Y-57571185D01*
X35489916Y-57629821D01*
X35508629Y-57640624D01*
X35633583Y-57728118D01*
X35650140Y-57742012D01*
X35757987Y-57849859D01*
X35771881Y-57866416D01*
X35859372Y-57991366D01*
X35870179Y-58010086D01*
X35928813Y-58135828D01*
X35930993Y-58140781D01*
X35938007Y-58157715D01*
X35943220Y-58173072D01*
X35976659Y-58297868D01*
X35978501Y-58305769D01*
X35984330Y-58335071D01*
X35986241Y-58348456D01*
X35999028Y-58494605D01*
X35999500Y-58505413D01*
X35999500Y-59995948D01*
X35999234Y-60004058D01*
X35984321Y-60231576D01*
X35983325Y-60241113D01*
X35975917Y-60292636D01*
X35974796Y-60299180D01*
X35935694Y-60495763D01*
X35933054Y-60506508D01*
X35920656Y-60548730D01*
X35919099Y-60553652D01*
X35851780Y-60751971D01*
X35847152Y-60763630D01*
X35836544Y-60786855D01*
X35834964Y-60790182D01*
X35735212Y-60992460D01*
X35727102Y-61006506D01*
X35590825Y-61210460D01*
X35580951Y-61223329D01*
X35419218Y-61407749D01*
X35407749Y-61419218D01*
X35223329Y-61580951D01*
X35210460Y-61590825D01*
X35006506Y-61727102D01*
X34992460Y-61735212D01*
X34790182Y-61834964D01*
X34786855Y-61836544D01*
X34763630Y-61847152D01*
X34751971Y-61851780D01*
X34553652Y-61919099D01*
X34548730Y-61920656D01*
X34506508Y-61933054D01*
X34495763Y-61935694D01*
X34299180Y-61974796D01*
X34292636Y-61975917D01*
X34241113Y-61983325D01*
X34231576Y-61984321D01*
X34004058Y-61999234D01*
X33995948Y-61999500D01*
X22004052Y-61999500D01*
X21995942Y-61999234D01*
X21768422Y-61984321D01*
X21758885Y-61983325D01*
X21707362Y-61975917D01*
X21700818Y-61974796D01*
X21504235Y-61935694D01*
X21493490Y-61933054D01*
X21451268Y-61920656D01*
X21446346Y-61919099D01*
X21306997Y-61871797D01*
X21248023Y-61851778D01*
X21236377Y-61847155D01*
X21227679Y-61843183D01*
X21213143Y-61836544D01*
X21209816Y-61834964D01*
X21007539Y-61735212D01*
X20993493Y-61727102D01*
X20789539Y-61590825D01*
X20776670Y-61580951D01*
X20592250Y-61419218D01*
X20580781Y-61407749D01*
X20419048Y-61223329D01*
X20409174Y-61210460D01*
X20272897Y-61006506D01*
X20264787Y-60992460D01*
X20165034Y-60790182D01*
X20163454Y-60786855D01*
X20152835Y-60763602D01*
X20148228Y-60751997D01*
X20080887Y-60553617D01*
X20079350Y-60548755D01*
X20066938Y-60506485D01*
X20064311Y-60495794D01*
X20025195Y-60299143D01*
X20024088Y-60292679D01*
X20016671Y-60241094D01*
X20015680Y-60231615D01*
X20000765Y-60004042D01*
X20000500Y-59995933D01*
X20000500Y-58505411D01*
X20000972Y-58494605D01*
X20013760Y-58348430D01*
X20015664Y-58335097D01*
X20021503Y-58305739D01*
X20023329Y-58297910D01*
X20056782Y-58173058D01*
X20061992Y-58157715D01*
X20069020Y-58140747D01*
X20071162Y-58135880D01*
X20129822Y-58010080D01*
X20140628Y-57991366D01*
X20228118Y-57866417D01*
X20242006Y-57849865D01*
X20349865Y-57742006D01*
X20366417Y-57728118D01*
X20491366Y-57640628D01*
X20510080Y-57629822D01*
X20635880Y-57571162D01*
X20640747Y-57569020D01*
X20657725Y-57561987D01*
X20673058Y-57556782D01*
X20797910Y-57523329D01*
X20805739Y-57521503D01*
X20835097Y-57515664D01*
X20848430Y-57513760D01*
X20987871Y-57501561D01*
X20994606Y-57500972D01*
X21005412Y-57500500D01*
X21065890Y-57500500D01*
X21065892Y-57500500D01*
X21193186Y-57466392D01*
X21307314Y-57400500D01*
X21325985Y-57381828D01*
X21329114Y-57379818D01*
X21336361Y-57371452D01*
X21400500Y-57307314D01*
X21417595Y-57277703D01*
X21422790Y-57271710D01*
X21429345Y-57257351D01*
X21466392Y-57193186D01*
X21477382Y-57152167D01*
X21482213Y-57141591D01*
X21484522Y-57125520D01*
X21500500Y-57065892D01*
X21500500Y-57014403D01*
X21502571Y-57000000D01*
X21500500Y-56985596D01*
X21500500Y-56950170D01*
X22199500Y-56950170D01*
X22199500Y-57049829D01*
X22230843Y-57125498D01*
X22237636Y-57141897D01*
X22308103Y-57212364D01*
X22400172Y-57250500D01*
X22400174Y-57250500D01*
X22499826Y-57250500D01*
X22499828Y-57250500D01*
X22591897Y-57212364D01*
X22662364Y-57141897D01*
X22700500Y-57049828D01*
X22700500Y-56950172D01*
X22700499Y-56950170D01*
X23049500Y-56950170D01*
X23049500Y-57049829D01*
X23080843Y-57125498D01*
X23087636Y-57141897D01*
X23158103Y-57212364D01*
X23250172Y-57250500D01*
X23250174Y-57250500D01*
X23349826Y-57250500D01*
X23349828Y-57250500D01*
X23441897Y-57212364D01*
X23512364Y-57141897D01*
X23550500Y-57049828D01*
X23550500Y-56950172D01*
X23550499Y-56950170D01*
X23899500Y-56950170D01*
X23899500Y-57049829D01*
X23930843Y-57125498D01*
X23937636Y-57141897D01*
X24008103Y-57212364D01*
X24100172Y-57250500D01*
X24100174Y-57250500D01*
X24199826Y-57250500D01*
X24199828Y-57250500D01*
X24291897Y-57212364D01*
X24362364Y-57141897D01*
X24400500Y-57049828D01*
X24400500Y-56950172D01*
X24400499Y-56950170D01*
X24749500Y-56950170D01*
X24749500Y-57049829D01*
X24780843Y-57125498D01*
X24787636Y-57141897D01*
X24858103Y-57212364D01*
X24950172Y-57250500D01*
X24950174Y-57250500D01*
X25049826Y-57250500D01*
X25049828Y-57250500D01*
X25141897Y-57212364D01*
X25212364Y-57141897D01*
X25250500Y-57049828D01*
X25250500Y-56950172D01*
X25250499Y-56950170D01*
X25599500Y-56950170D01*
X25599500Y-57049829D01*
X25630843Y-57125498D01*
X25637636Y-57141897D01*
X25708103Y-57212364D01*
X25800172Y-57250500D01*
X25800174Y-57250500D01*
X25899826Y-57250500D01*
X25899828Y-57250500D01*
X25991897Y-57212364D01*
X26062364Y-57141897D01*
X26100500Y-57049828D01*
X26100500Y-56950172D01*
X26100499Y-56950170D01*
X26449500Y-56950170D01*
X26449500Y-57049829D01*
X26480843Y-57125498D01*
X26487636Y-57141897D01*
X26558103Y-57212364D01*
X26650172Y-57250500D01*
X26650174Y-57250500D01*
X26749826Y-57250500D01*
X26749828Y-57250500D01*
X26841897Y-57212364D01*
X26912364Y-57141897D01*
X26950500Y-57049828D01*
X26950500Y-56950172D01*
X26912364Y-56858103D01*
X26841897Y-56787636D01*
X26785427Y-56764245D01*
X26785424Y-56764243D01*
X26749831Y-56749501D01*
X26749829Y-56749500D01*
X26749828Y-56749500D01*
X26650172Y-56749500D01*
X26650170Y-56749500D01*
X26558102Y-56787636D01*
X26487636Y-56858102D01*
X26449500Y-56950170D01*
X26100499Y-56950170D01*
X26062364Y-56858103D01*
X25991897Y-56787636D01*
X25948685Y-56769737D01*
X25899829Y-56749500D01*
X25899828Y-56749500D01*
X25800172Y-56749500D01*
X25800170Y-56749500D01*
X25708102Y-56787636D01*
X25637636Y-56858102D01*
X25599500Y-56950170D01*
X25250499Y-56950170D01*
X25212364Y-56858103D01*
X25141897Y-56787636D01*
X25098685Y-56769737D01*
X25049829Y-56749500D01*
X25049828Y-56749500D01*
X24950172Y-56749500D01*
X24950170Y-56749500D01*
X24858102Y-56787636D01*
X24787636Y-56858102D01*
X24749500Y-56950170D01*
X24400499Y-56950170D01*
X24362364Y-56858103D01*
X24291897Y-56787636D01*
X24248685Y-56769737D01*
X24199829Y-56749500D01*
X24199828Y-56749500D01*
X24100172Y-56749500D01*
X24100170Y-56749500D01*
X24008102Y-56787636D01*
X23937636Y-56858102D01*
X23899500Y-56950170D01*
X23550499Y-56950170D01*
X23512364Y-56858103D01*
X23441897Y-56787636D01*
X23398685Y-56769737D01*
X23349829Y-56749500D01*
X23349828Y-56749500D01*
X23250172Y-56749500D01*
X23250170Y-56749500D01*
X23158102Y-56787636D01*
X23087636Y-56858102D01*
X23049500Y-56950170D01*
X22700499Y-56950170D01*
X22662364Y-56858103D01*
X22591897Y-56787636D01*
X22548685Y-56769737D01*
X22499829Y-56749500D01*
X22499828Y-56749500D01*
X22400172Y-56749500D01*
X22400170Y-56749500D01*
X22308102Y-56787636D01*
X22237636Y-56858102D01*
X22199500Y-56950170D01*
X21500500Y-56950170D01*
X21500500Y-56934109D01*
X21500499Y-56934105D01*
X21497359Y-56922387D01*
X21484524Y-56874484D01*
X21482213Y-56858409D01*
X21477382Y-56847830D01*
X21466392Y-56806814D01*
X21432308Y-56747778D01*
X21429350Y-56742656D01*
X21422790Y-56728290D01*
X21417593Y-56722292D01*
X21400500Y-56692686D01*
X21336370Y-56628556D01*
X21329114Y-56620182D01*
X21325985Y-56618171D01*
X21307316Y-56599502D01*
X21307314Y-56599500D01*
X21245057Y-56563556D01*
X21193187Y-56533608D01*
X21129539Y-56516554D01*
X21065892Y-56499500D01*
X21065891Y-56499500D01*
X21005413Y-56499500D01*
X20994605Y-56499028D01*
X20848456Y-56486241D01*
X20835071Y-56484330D01*
X20805769Y-56478501D01*
X20797868Y-56476659D01*
X20673072Y-56443220D01*
X20657715Y-56438007D01*
X20640781Y-56430993D01*
X20635828Y-56428813D01*
X20510086Y-56370179D01*
X20491366Y-56359372D01*
X20366416Y-56271881D01*
X20349859Y-56257987D01*
X20242012Y-56150140D01*
X20228118Y-56133583D01*
X20206475Y-56102674D01*
X20140624Y-56008629D01*
X20129819Y-55989912D01*
X20129169Y-55988519D01*
X20071185Y-55864169D01*
X20069006Y-55859218D01*
X20061989Y-55842278D01*
X20056778Y-55826926D01*
X20056355Y-55825346D01*
X20023332Y-55702103D01*
X20021501Y-55694247D01*
X20015665Y-55664907D01*
X20013760Y-55651564D01*
X20000972Y-55505394D01*
X20000500Y-55494588D01*
X20000500Y-48779097D01*
X20020185Y-48712058D01*
X20072989Y-48666303D01*
X20142147Y-48656359D01*
X20205703Y-48685384D01*
G37*
%TD.AperFunction*%
%TA.AperFunction,Conductor*%
G36*
X34004042Y-20000765D02*
G01*
X34018399Y-20001705D01*
X34231615Y-20015680D01*
X34241094Y-20016671D01*
X34292679Y-20024088D01*
X34299143Y-20025195D01*
X34495794Y-20064311D01*
X34506485Y-20066938D01*
X34548755Y-20079350D01*
X34553617Y-20080887D01*
X34751997Y-20148228D01*
X34763602Y-20152835D01*
X34786855Y-20163454D01*
X34790182Y-20165034D01*
X34992460Y-20264787D01*
X35006506Y-20272897D01*
X35210460Y-20409174D01*
X35223329Y-20419048D01*
X35407749Y-20580781D01*
X35419218Y-20592250D01*
X35580951Y-20776670D01*
X35590825Y-20789539D01*
X35727102Y-20993493D01*
X35735212Y-21007539D01*
X35834964Y-21209816D01*
X35836544Y-21213143D01*
X35843183Y-21227679D01*
X35847155Y-21236377D01*
X35851780Y-21248027D01*
X35919099Y-21446346D01*
X35920656Y-21451268D01*
X35933054Y-21493490D01*
X35935694Y-21504235D01*
X35974796Y-21700818D01*
X35975917Y-21707362D01*
X35983325Y-21758885D01*
X35984321Y-21768422D01*
X35999234Y-21995941D01*
X35999500Y-22004051D01*
X35999500Y-23494586D01*
X35999028Y-23505394D01*
X35986241Y-23651542D01*
X35984330Y-23664927D01*
X35978501Y-23694229D01*
X35976659Y-23702130D01*
X35943220Y-23826926D01*
X35938007Y-23842282D01*
X35931001Y-23859197D01*
X35928821Y-23864151D01*
X35870176Y-23989917D01*
X35859369Y-24008636D01*
X35771881Y-24133582D01*
X35757987Y-24150140D01*
X35650140Y-24257987D01*
X35633582Y-24271881D01*
X35508636Y-24359369D01*
X35489917Y-24370176D01*
X35364151Y-24428821D01*
X35359197Y-24431001D01*
X35342282Y-24438007D01*
X35326926Y-24443220D01*
X35202130Y-24476659D01*
X35194229Y-24478501D01*
X35164927Y-24484330D01*
X35151542Y-24486241D01*
X35005395Y-24499028D01*
X34994587Y-24499500D01*
X34934108Y-24499500D01*
X34806814Y-24533608D01*
X34806813Y-24533608D01*
X34806811Y-24533609D01*
X34806810Y-24533609D01*
X34692685Y-24599499D01*
X34692683Y-24599501D01*
X34682381Y-24609802D01*
X34674006Y-24618176D01*
X34670886Y-24620182D01*
X34663648Y-24628534D01*
X34660506Y-24631677D01*
X34599503Y-24692682D01*
X34599500Y-24692686D01*
X34588323Y-24712045D01*
X34588322Y-24712045D01*
X34582401Y-24722298D01*
X34577210Y-24728290D01*
X34570657Y-24742639D01*
X34567706Y-24747750D01*
X34567697Y-24747768D01*
X34533607Y-24806815D01*
X34533607Y-24806817D01*
X34525295Y-24837835D01*
X34522614Y-24847837D01*
X34517787Y-24858409D01*
X34515476Y-24874478D01*
X34513564Y-24881616D01*
X34499500Y-24934104D01*
X34499500Y-24985596D01*
X34497429Y-25000000D01*
X34499500Y-25014403D01*
X34499500Y-25065893D01*
X34513563Y-25118378D01*
X34513563Y-25118379D01*
X34515476Y-25125520D01*
X34517787Y-25141591D01*
X34522613Y-25152158D01*
X34525291Y-25162154D01*
X34525294Y-25162161D01*
X34533607Y-25193184D01*
X34533608Y-25193186D01*
X34567692Y-25252222D01*
X34570648Y-25257343D01*
X34577210Y-25271710D01*
X34582404Y-25277704D01*
X34596236Y-25301661D01*
X34599499Y-25307313D01*
X34663629Y-25371443D01*
X34670886Y-25379818D01*
X34674014Y-25381828D01*
X34692686Y-25400500D01*
X34806814Y-25466392D01*
X34934108Y-25500500D01*
X34994588Y-25500500D01*
X35005394Y-25500972D01*
X35012947Y-25501632D01*
X35151564Y-25513760D01*
X35164907Y-25515665D01*
X35194247Y-25521501D01*
X35202103Y-25523332D01*
X35326932Y-25556780D01*
X35342278Y-25561989D01*
X35359233Y-25569012D01*
X35364169Y-25571185D01*
X35489916Y-25629821D01*
X35508629Y-25640624D01*
X35633583Y-25728118D01*
X35650140Y-25742012D01*
X35757987Y-25849859D01*
X35771881Y-25866416D01*
X35859372Y-25991366D01*
X35870179Y-26010086D01*
X35928813Y-26135828D01*
X35930993Y-26140781D01*
X35938007Y-26157715D01*
X35943220Y-26173072D01*
X35976659Y-26297868D01*
X35978501Y-26305769D01*
X35984330Y-26335071D01*
X35986241Y-26348456D01*
X35999028Y-26494605D01*
X35999500Y-26505413D01*
X35999500Y-54413970D01*
X35979815Y-54481009D01*
X35927011Y-54526764D01*
X35857853Y-54536708D01*
X35794297Y-54507683D01*
X35769962Y-54479068D01*
X35745340Y-54439150D01*
X35623350Y-54317160D01*
X35623346Y-54317157D01*
X35521903Y-54254586D01*
X35475178Y-54202638D01*
X35463000Y-54149048D01*
X35463000Y-53012598D01*
X35482685Y-52945559D01*
X35499319Y-52924917D01*
X35555520Y-52868716D01*
X35634577Y-52731784D01*
X35666521Y-52612569D01*
X35675500Y-52579058D01*
X35675500Y-52420943D01*
X35675500Y-45695943D01*
X35634577Y-45543216D01*
X35585088Y-45457497D01*
X35555524Y-45406290D01*
X35555521Y-45406286D01*
X35555520Y-45406284D01*
X35443716Y-45294480D01*
X35443715Y-45294479D01*
X35439385Y-45290149D01*
X35439374Y-45290139D01*
X34494513Y-44345278D01*
X34461028Y-44283955D01*
X34459721Y-44238198D01*
X34475500Y-44138579D01*
X34475500Y-43961421D01*
X34447786Y-43786445D01*
X34411749Y-43675534D01*
X34393043Y-43617960D01*
X34393042Y-43617957D01*
X34352061Y-43537529D01*
X34312614Y-43460110D01*
X34208483Y-43316786D01*
X34139378Y-43247681D01*
X34105893Y-43186358D01*
X34110877Y-43116666D01*
X34139378Y-43072319D01*
X34208483Y-43003214D01*
X34312614Y-42859890D01*
X34393042Y-42702042D01*
X34447786Y-42533555D01*
X34475500Y-42358579D01*
X34475500Y-42181421D01*
X34447786Y-42006445D01*
X34393042Y-41837958D01*
X34393042Y-41837957D01*
X34352061Y-41757529D01*
X34312614Y-41680110D01*
X34208483Y-41536786D01*
X34139378Y-41467681D01*
X34105893Y-41406358D01*
X34110877Y-41336666D01*
X34139378Y-41292319D01*
X34140276Y-41291421D01*
X34208483Y-41223214D01*
X34312614Y-41079890D01*
X34393042Y-40922042D01*
X34447786Y-40753555D01*
X34475500Y-40578579D01*
X34475500Y-40401421D01*
X34447786Y-40226445D01*
X34393042Y-40057958D01*
X34393042Y-40057957D01*
X34352061Y-39977529D01*
X34312614Y-39900110D01*
X34208483Y-39756786D01*
X34139378Y-39687681D01*
X34105893Y-39626358D01*
X34110877Y-39556666D01*
X34139378Y-39512319D01*
X34208483Y-39443214D01*
X34312614Y-39299890D01*
X34393042Y-39142042D01*
X34447786Y-38973555D01*
X34475500Y-38798579D01*
X34475500Y-38621421D01*
X34447786Y-38446445D01*
X34393042Y-38277958D01*
X34393042Y-38277957D01*
X34352061Y-38197529D01*
X34312614Y-38120110D01*
X34208483Y-37976786D01*
X34083214Y-37851517D01*
X33939890Y-37747386D01*
X33782042Y-37666957D01*
X33782039Y-37666956D01*
X33613556Y-37612214D01*
X33526067Y-37598357D01*
X33438579Y-37584500D01*
X33261421Y-37584500D01*
X33203095Y-37593738D01*
X33086443Y-37612214D01*
X32917960Y-37666956D01*
X32917957Y-37666957D01*
X32760109Y-37747386D01*
X32687499Y-37800141D01*
X32616786Y-37851517D01*
X32616784Y-37851519D01*
X32616783Y-37851519D01*
X32580481Y-37887822D01*
X32519158Y-37921307D01*
X32449466Y-37916323D01*
X32393533Y-37874451D01*
X32369116Y-37808987D01*
X32368800Y-37800141D01*
X32368800Y-35996400D01*
X31352883Y-35996400D01*
X31285844Y-35976715D01*
X31240089Y-35923911D01*
X31230145Y-35854753D01*
X31259170Y-35791197D01*
X31265193Y-35784727D01*
X31558509Y-35491410D01*
X31558514Y-35491407D01*
X31568714Y-35481206D01*
X31568716Y-35481206D01*
X31680520Y-35369402D01*
X31747311Y-35253716D01*
X31759577Y-35232471D01*
X31800501Y-35079743D01*
X31800501Y-34921629D01*
X31800501Y-34914034D01*
X31800500Y-34914016D01*
X31800500Y-33605945D01*
X31800500Y-33605943D01*
X31759577Y-33453216D01*
X31731067Y-33403834D01*
X31680524Y-33316290D01*
X31680518Y-33316282D01*
X31568717Y-33204481D01*
X31568709Y-33204475D01*
X31431790Y-33125426D01*
X31431786Y-33125424D01*
X31431784Y-33125423D01*
X31279057Y-33084500D01*
X31279056Y-33084500D01*
X30386670Y-33084500D01*
X30386654Y-33084499D01*
X30379058Y-33084499D01*
X30220943Y-33084499D01*
X30144579Y-33104961D01*
X30068214Y-33125423D01*
X30068211Y-33125425D01*
X30009053Y-33159579D01*
X29991917Y-33163735D01*
X29976673Y-33172602D01*
X29958665Y-33171801D01*
X29941153Y-33176050D01*
X29924490Y-33170282D01*
X29906872Y-33169500D01*
X29892156Y-33159091D01*
X29875126Y-33153197D01*
X29864144Y-33139278D01*
X29849829Y-33129153D01*
X29838728Y-33107063D01*
X29832085Y-33098644D01*
X29829244Y-33091613D01*
X29809577Y-33018215D01*
X29780639Y-32968095D01*
X29730520Y-32881284D01*
X29618716Y-32769480D01*
X29618715Y-32769479D01*
X29614385Y-32765149D01*
X29614374Y-32765139D01*
X28972079Y-32122844D01*
X30985000Y-32122844D01*
X30991401Y-32182372D01*
X30991403Y-32182379D01*
X31041645Y-32317086D01*
X31041649Y-32317093D01*
X31127809Y-32432187D01*
X31127812Y-32432190D01*
X31242906Y-32518350D01*
X31242913Y-32518354D01*
X31377620Y-32568596D01*
X31377627Y-32568598D01*
X31437155Y-32574999D01*
X31437172Y-32575000D01*
X31485000Y-32575000D01*
X31785000Y-32575000D01*
X31832828Y-32575000D01*
X31832844Y-32574999D01*
X31892372Y-32568598D01*
X31892379Y-32568596D01*
X32027086Y-32518354D01*
X32027093Y-32518350D01*
X32142187Y-32432190D01*
X32142190Y-32432187D01*
X32228350Y-32317093D01*
X32228354Y-32317086D01*
X32278596Y-32182379D01*
X32278598Y-32182372D01*
X32284999Y-32122844D01*
X32285000Y-32122827D01*
X32285000Y-31650000D01*
X31785000Y-31650000D01*
X31785000Y-32575000D01*
X31485000Y-32575000D01*
X31485000Y-31650000D01*
X30985000Y-31650000D01*
X30985000Y-32122844D01*
X28972079Y-32122844D01*
X27726390Y-30877155D01*
X30985000Y-30877155D01*
X30985000Y-31350000D01*
X31485000Y-31350000D01*
X31785000Y-31350000D01*
X32285000Y-31350000D01*
X32285000Y-30877172D01*
X32284999Y-30877155D01*
X32278598Y-30817627D01*
X32278596Y-30817620D01*
X32228354Y-30682913D01*
X32228350Y-30682906D01*
X32142190Y-30567812D01*
X32142187Y-30567809D01*
X32027093Y-30481649D01*
X32027086Y-30481645D01*
X31892379Y-30431403D01*
X31892372Y-30431401D01*
X31832844Y-30425000D01*
X31785000Y-30425000D01*
X31785000Y-31350000D01*
X31485000Y-31350000D01*
X31485000Y-30425000D01*
X31437155Y-30425000D01*
X31377627Y-30431401D01*
X31377620Y-30431403D01*
X31242913Y-30481645D01*
X31242906Y-30481649D01*
X31127812Y-30567809D01*
X31127809Y-30567812D01*
X31041649Y-30682906D01*
X31041645Y-30682913D01*
X30991403Y-30817620D01*
X30991401Y-30817627D01*
X30985000Y-30877155D01*
X27726390Y-30877155D01*
X25987590Y-29138355D01*
X25987588Y-29138352D01*
X25868717Y-29019481D01*
X25868716Y-29019480D01*
X25781904Y-28969360D01*
X25781904Y-28969359D01*
X25781900Y-28969358D01*
X25731785Y-28940423D01*
X25579057Y-28899499D01*
X25420943Y-28899499D01*
X25413347Y-28899499D01*
X25413331Y-28899500D01*
X22586670Y-28899500D01*
X22586654Y-28899499D01*
X22579058Y-28899499D01*
X22420943Y-28899499D01*
X22344579Y-28919961D01*
X22268214Y-28940423D01*
X22268209Y-28940426D01*
X22131290Y-29019475D01*
X22131282Y-29019481D01*
X20212181Y-30938583D01*
X20150858Y-30972068D01*
X20081166Y-30967084D01*
X20025233Y-30925212D01*
X20000816Y-30859748D01*
X20000500Y-30850902D01*
X20000500Y-26505411D01*
X20000972Y-26494605D01*
X20013760Y-26348430D01*
X20015664Y-26335097D01*
X20021503Y-26305739D01*
X20023329Y-26297910D01*
X20056782Y-26173058D01*
X20061992Y-26157715D01*
X20069020Y-26140747D01*
X20071162Y-26135880D01*
X20129822Y-26010080D01*
X20140628Y-25991366D01*
X20228118Y-25866417D01*
X20242006Y-25849865D01*
X20349865Y-25742006D01*
X20366417Y-25728118D01*
X20491366Y-25640628D01*
X20510080Y-25629822D01*
X20635880Y-25571162D01*
X20640747Y-25569020D01*
X20657725Y-25561987D01*
X20673058Y-25556782D01*
X20797910Y-25523329D01*
X20805739Y-25521503D01*
X20835097Y-25515664D01*
X20848430Y-25513760D01*
X20987871Y-25501561D01*
X20994606Y-25500972D01*
X21005412Y-25500500D01*
X21065890Y-25500500D01*
X21065892Y-25500500D01*
X21193186Y-25466392D01*
X21307314Y-25400500D01*
X21325985Y-25381828D01*
X21329114Y-25379818D01*
X21336361Y-25371452D01*
X21400500Y-25307314D01*
X21417595Y-25277703D01*
X21422790Y-25271710D01*
X21429345Y-25257351D01*
X21466392Y-25193186D01*
X21477382Y-25152167D01*
X21482213Y-25141591D01*
X21484522Y-25125520D01*
X21500500Y-25065892D01*
X21500500Y-25014403D01*
X21502571Y-25000000D01*
X21500500Y-24985596D01*
X21500500Y-24950170D01*
X22199500Y-24950170D01*
X22199500Y-25049829D01*
X22230843Y-25125498D01*
X22237636Y-25141897D01*
X22308103Y-25212364D01*
X22400172Y-25250500D01*
X22400174Y-25250500D01*
X22499826Y-25250500D01*
X22499828Y-25250500D01*
X22591897Y-25212364D01*
X22662364Y-25141897D01*
X22700500Y-25049828D01*
X22700500Y-24950172D01*
X22700499Y-24950170D01*
X23049500Y-24950170D01*
X23049500Y-25049829D01*
X23080843Y-25125498D01*
X23087636Y-25141897D01*
X23158103Y-25212364D01*
X23250172Y-25250500D01*
X23250174Y-25250500D01*
X23349826Y-25250500D01*
X23349828Y-25250500D01*
X23441897Y-25212364D01*
X23512364Y-25141897D01*
X23550500Y-25049828D01*
X23550500Y-24950172D01*
X23550499Y-24950170D01*
X23899500Y-24950170D01*
X23899500Y-25049829D01*
X23930843Y-25125498D01*
X23937636Y-25141897D01*
X24008103Y-25212364D01*
X24100172Y-25250500D01*
X24100174Y-25250500D01*
X24199826Y-25250500D01*
X24199828Y-25250500D01*
X24291897Y-25212364D01*
X24362364Y-25141897D01*
X24400500Y-25049828D01*
X24400500Y-24950172D01*
X24400499Y-24950170D01*
X24749500Y-24950170D01*
X24749500Y-25049829D01*
X24780843Y-25125498D01*
X24787636Y-25141897D01*
X24858103Y-25212364D01*
X24950172Y-25250500D01*
X24950174Y-25250500D01*
X25049826Y-25250500D01*
X25049828Y-25250500D01*
X25141897Y-25212364D01*
X25212364Y-25141897D01*
X25250500Y-25049828D01*
X25250500Y-24950172D01*
X25250499Y-24950170D01*
X25599500Y-24950170D01*
X25599500Y-25049829D01*
X25630843Y-25125498D01*
X25637636Y-25141897D01*
X25708103Y-25212364D01*
X25800172Y-25250500D01*
X25800174Y-25250500D01*
X25899826Y-25250500D01*
X25899828Y-25250500D01*
X25991897Y-25212364D01*
X26062364Y-25141897D01*
X26100500Y-25049828D01*
X26100500Y-24950172D01*
X26100499Y-24950170D01*
X26449500Y-24950170D01*
X26449500Y-25049829D01*
X26480843Y-25125498D01*
X26487636Y-25141897D01*
X26558103Y-25212364D01*
X26650172Y-25250500D01*
X26650174Y-25250500D01*
X26749826Y-25250500D01*
X26749828Y-25250500D01*
X26841897Y-25212364D01*
X26912364Y-25141897D01*
X26950500Y-25049828D01*
X26950500Y-24950172D01*
X26950499Y-24950170D01*
X27299500Y-24950170D01*
X27299500Y-25049829D01*
X27330843Y-25125498D01*
X27337636Y-25141897D01*
X27408103Y-25212364D01*
X27500172Y-25250500D01*
X27500174Y-25250500D01*
X27599826Y-25250500D01*
X27599828Y-25250500D01*
X27691897Y-25212364D01*
X27762364Y-25141897D01*
X27800500Y-25049828D01*
X27800500Y-24950172D01*
X27800499Y-24950170D01*
X28199500Y-24950170D01*
X28199500Y-25049829D01*
X28230843Y-25125498D01*
X28237636Y-25141897D01*
X28308103Y-25212364D01*
X28400172Y-25250500D01*
X28400174Y-25250500D01*
X28499826Y-25250500D01*
X28499828Y-25250500D01*
X28591897Y-25212364D01*
X28662364Y-25141897D01*
X28700500Y-25049828D01*
X28700500Y-24950172D01*
X28700499Y-24950170D01*
X29049500Y-24950170D01*
X29049500Y-25049829D01*
X29080843Y-25125498D01*
X29087636Y-25141897D01*
X29158103Y-25212364D01*
X29250172Y-25250500D01*
X29250174Y-25250500D01*
X29349826Y-25250500D01*
X29349828Y-25250500D01*
X29441897Y-25212364D01*
X29512364Y-25141897D01*
X29550500Y-25049828D01*
X29550500Y-24950172D01*
X29550499Y-24950170D01*
X29899500Y-24950170D01*
X29899500Y-25049829D01*
X29930843Y-25125498D01*
X29937636Y-25141897D01*
X30008103Y-25212364D01*
X30100172Y-25250500D01*
X30100174Y-25250500D01*
X30199826Y-25250500D01*
X30199828Y-25250500D01*
X30291897Y-25212364D01*
X30362364Y-25141897D01*
X30400500Y-25049828D01*
X30400500Y-24950172D01*
X30400499Y-24950170D01*
X30749500Y-24950170D01*
X30749500Y-25049829D01*
X30780843Y-25125498D01*
X30787636Y-25141897D01*
X30858103Y-25212364D01*
X30950172Y-25250500D01*
X30950174Y-25250500D01*
X31049826Y-25250500D01*
X31049828Y-25250500D01*
X31141897Y-25212364D01*
X31212364Y-25141897D01*
X31250500Y-25049828D01*
X31250500Y-24950172D01*
X31250499Y-24950170D01*
X31599500Y-24950170D01*
X31599500Y-25049829D01*
X31630843Y-25125498D01*
X31637636Y-25141897D01*
X31708103Y-25212364D01*
X31800172Y-25250500D01*
X31800174Y-25250500D01*
X31899826Y-25250500D01*
X31899828Y-25250500D01*
X31991897Y-25212364D01*
X32062364Y-25141897D01*
X32100500Y-25049828D01*
X32100500Y-24950172D01*
X32100499Y-24950170D01*
X32449500Y-24950170D01*
X32449500Y-25049829D01*
X32480843Y-25125498D01*
X32487636Y-25141897D01*
X32558103Y-25212364D01*
X32650172Y-25250500D01*
X32650174Y-25250500D01*
X32749826Y-25250500D01*
X32749828Y-25250500D01*
X32841897Y-25212364D01*
X32912364Y-25141897D01*
X32950500Y-25049828D01*
X32950500Y-24950172D01*
X32950499Y-24950170D01*
X33299500Y-24950170D01*
X33299500Y-25049829D01*
X33330843Y-25125498D01*
X33337636Y-25141897D01*
X33408103Y-25212364D01*
X33500172Y-25250500D01*
X33500174Y-25250500D01*
X33599826Y-25250500D01*
X33599828Y-25250500D01*
X33691897Y-25212364D01*
X33762364Y-25141897D01*
X33800500Y-25049828D01*
X33800500Y-24950172D01*
X33762364Y-24858103D01*
X33691897Y-24787636D01*
X33599829Y-24749500D01*
X33599828Y-24749500D01*
X33500172Y-24749500D01*
X33500170Y-24749500D01*
X33408102Y-24787636D01*
X33337636Y-24858102D01*
X33299500Y-24950170D01*
X32950499Y-24950170D01*
X32912364Y-24858103D01*
X32841897Y-24787636D01*
X32749829Y-24749500D01*
X32749828Y-24749500D01*
X32650172Y-24749500D01*
X32650170Y-24749500D01*
X32558102Y-24787636D01*
X32487636Y-24858102D01*
X32449500Y-24950170D01*
X32100499Y-24950170D01*
X32062364Y-24858103D01*
X31991897Y-24787636D01*
X31899829Y-24749500D01*
X31899828Y-24749500D01*
X31800172Y-24749500D01*
X31800170Y-24749500D01*
X31708102Y-24787636D01*
X31637636Y-24858102D01*
X31599500Y-24950170D01*
X31250499Y-24950170D01*
X31212364Y-24858103D01*
X31141897Y-24787636D01*
X31049829Y-24749500D01*
X31049828Y-24749500D01*
X30950172Y-24749500D01*
X30950170Y-24749500D01*
X30858102Y-24787636D01*
X30787636Y-24858102D01*
X30749500Y-24950170D01*
X30400499Y-24950170D01*
X30362364Y-24858103D01*
X30291897Y-24787636D01*
X30199829Y-24749500D01*
X30199828Y-24749500D01*
X30100172Y-24749500D01*
X30100170Y-24749500D01*
X30008102Y-24787636D01*
X29937636Y-24858102D01*
X29899500Y-24950170D01*
X29550499Y-24950170D01*
X29512364Y-24858103D01*
X29441897Y-24787636D01*
X29349829Y-24749500D01*
X29349828Y-24749500D01*
X29250172Y-24749500D01*
X29250170Y-24749500D01*
X29158102Y-24787636D01*
X29087636Y-24858102D01*
X29049500Y-24950170D01*
X28700499Y-24950170D01*
X28662364Y-24858103D01*
X28591897Y-24787636D01*
X28499829Y-24749500D01*
X28499828Y-24749500D01*
X28400172Y-24749500D01*
X28400170Y-24749500D01*
X28308102Y-24787636D01*
X28237636Y-24858102D01*
X28199500Y-24950170D01*
X27800499Y-24950170D01*
X27762364Y-24858103D01*
X27691897Y-24787636D01*
X27599829Y-24749500D01*
X27599828Y-24749500D01*
X27500172Y-24749500D01*
X27500170Y-24749500D01*
X27408102Y-24787636D01*
X27337636Y-24858102D01*
X27299500Y-24950170D01*
X26950499Y-24950170D01*
X26912364Y-24858103D01*
X26841897Y-24787636D01*
X26749829Y-24749500D01*
X26749828Y-24749500D01*
X26650172Y-24749500D01*
X26650170Y-24749500D01*
X26558102Y-24787636D01*
X26487636Y-24858102D01*
X26449500Y-24950170D01*
X26100499Y-24950170D01*
X26062364Y-24858103D01*
X25991897Y-24787636D01*
X25899829Y-24749500D01*
X25899828Y-24749500D01*
X25800172Y-24749500D01*
X25800170Y-24749500D01*
X25708102Y-24787636D01*
X25637636Y-24858102D01*
X25599500Y-24950170D01*
X25250499Y-24950170D01*
X25212364Y-24858103D01*
X25141897Y-24787636D01*
X25049829Y-24749500D01*
X25049828Y-24749500D01*
X24950172Y-24749500D01*
X24950170Y-24749500D01*
X24858102Y-24787636D01*
X24787636Y-24858102D01*
X24749500Y-24950170D01*
X24400499Y-24950170D01*
X24362364Y-24858103D01*
X24291897Y-24787636D01*
X24199829Y-24749500D01*
X24199828Y-24749500D01*
X24100172Y-24749500D01*
X24100170Y-24749500D01*
X24008102Y-24787636D01*
X23937636Y-24858102D01*
X23899500Y-24950170D01*
X23550499Y-24950170D01*
X23512364Y-24858103D01*
X23441897Y-24787636D01*
X23349829Y-24749500D01*
X23349828Y-24749500D01*
X23250172Y-24749500D01*
X23250170Y-24749500D01*
X23158102Y-24787636D01*
X23087636Y-24858102D01*
X23049500Y-24950170D01*
X22700499Y-24950170D01*
X22662364Y-24858103D01*
X22591897Y-24787636D01*
X22499829Y-24749500D01*
X22499828Y-24749500D01*
X22400172Y-24749500D01*
X22400170Y-24749500D01*
X22308102Y-24787636D01*
X22237636Y-24858102D01*
X22199500Y-24950170D01*
X21500500Y-24950170D01*
X21500500Y-24934109D01*
X21500499Y-24934105D01*
X21486435Y-24881618D01*
X21484524Y-24874484D01*
X21482213Y-24858409D01*
X21477382Y-24847830D01*
X21466392Y-24806814D01*
X21432308Y-24747778D01*
X21429350Y-24742656D01*
X21422790Y-24728290D01*
X21417593Y-24722292D01*
X21400500Y-24692686D01*
X21336370Y-24628556D01*
X21329114Y-24620182D01*
X21325985Y-24618171D01*
X21307316Y-24599502D01*
X21307314Y-24599500D01*
X21250250Y-24566554D01*
X21193187Y-24533608D01*
X21129539Y-24516554D01*
X21065892Y-24499500D01*
X21065891Y-24499500D01*
X21005413Y-24499500D01*
X20994605Y-24499028D01*
X20848456Y-24486241D01*
X20835071Y-24484330D01*
X20805769Y-24478501D01*
X20797868Y-24476659D01*
X20673072Y-24443220D01*
X20657715Y-24438007D01*
X20640781Y-24430993D01*
X20635828Y-24428813D01*
X20510086Y-24370179D01*
X20491366Y-24359372D01*
X20366416Y-24271881D01*
X20349859Y-24257987D01*
X20242012Y-24150140D01*
X20228118Y-24133583D01*
X20140626Y-24008632D01*
X20129819Y-23989912D01*
X20071185Y-23864169D01*
X20069006Y-23859218D01*
X20061989Y-23842278D01*
X20056778Y-23826926D01*
X20038829Y-23759938D01*
X20023332Y-23702103D01*
X20021501Y-23694247D01*
X20015665Y-23664907D01*
X20013760Y-23651564D01*
X20000972Y-23505394D01*
X20000500Y-23494588D01*
X20000500Y-22004066D01*
X20000765Y-21995957D01*
X20000858Y-21994536D01*
X20015681Y-21768378D01*
X20016670Y-21758911D01*
X20024090Y-21707308D01*
X20025193Y-21700868D01*
X20064313Y-21504194D01*
X20066935Y-21493524D01*
X20079358Y-21451216D01*
X20080878Y-21446410D01*
X20148233Y-21247988D01*
X20152829Y-21236410D01*
X20163481Y-21213084D01*
X20165016Y-21209853D01*
X20264789Y-21007533D01*
X20272897Y-20993493D01*
X20409174Y-20789539D01*
X20419039Y-20776681D01*
X20580786Y-20592244D01*
X20592244Y-20580786D01*
X20776681Y-20419039D01*
X20789534Y-20409177D01*
X20993493Y-20272897D01*
X21007533Y-20264789D01*
X21209853Y-20165016D01*
X21213084Y-20163481D01*
X21236410Y-20152829D01*
X21247988Y-20148233D01*
X21446410Y-20080878D01*
X21451216Y-20079358D01*
X21493524Y-20066935D01*
X21504194Y-20064313D01*
X21700868Y-20025193D01*
X21707308Y-20024090D01*
X21758911Y-20016670D01*
X21768378Y-20015681D01*
X21983057Y-20001610D01*
X21995958Y-20000765D01*
X22004067Y-20000500D01*
X33995933Y-20000500D01*
X34004042Y-20000765D01*
G37*
%TD.AperFunction*%
%TA.AperFunction,Conductor*%
G36*
X25266942Y-30120185D02*
G01*
X25287584Y-30136819D01*
X28423584Y-33272819D01*
X28457069Y-33334142D01*
X28452085Y-33403834D01*
X28410213Y-33459767D01*
X28344749Y-33484184D01*
X28335903Y-33484500D01*
X28052131Y-33484500D01*
X28052119Y-33484501D01*
X28013253Y-33488679D01*
X27986748Y-33488679D01*
X27947874Y-33484500D01*
X27552130Y-33484500D01*
X27552119Y-33484501D01*
X27513253Y-33488679D01*
X27486748Y-33488679D01*
X27447874Y-33484500D01*
X27052130Y-33484500D01*
X27052119Y-33484501D01*
X27013253Y-33488679D01*
X26986748Y-33488679D01*
X26947874Y-33484500D01*
X26552130Y-33484500D01*
X26552119Y-33484501D01*
X26513253Y-33488679D01*
X26486748Y-33488679D01*
X26447874Y-33484500D01*
X26052132Y-33484500D01*
X26052117Y-33484501D01*
X26026177Y-33487289D01*
X26026170Y-33487291D01*
X25992517Y-33490909D01*
X25857669Y-33541204D01*
X25824308Y-33566177D01*
X25758845Y-33590593D01*
X25690572Y-33575741D01*
X25675694Y-33566179D01*
X25649688Y-33546711D01*
X25613887Y-33498887D01*
X25600000Y-33485000D01*
X25552165Y-33485000D01*
X25515598Y-33488931D01*
X25489092Y-33488931D01*
X25447873Y-33484500D01*
X25052129Y-33484500D01*
X25052123Y-33484501D01*
X24992516Y-33490908D01*
X24857671Y-33541202D01*
X24857664Y-33541206D01*
X24742457Y-33627451D01*
X24742449Y-33627458D01*
X24718232Y-33659810D01*
X24662299Y-33701682D01*
X24618965Y-33709500D01*
X22776670Y-33709500D01*
X22776654Y-33709499D01*
X22769058Y-33709499D01*
X22610943Y-33709499D01*
X22534579Y-33729961D01*
X22458214Y-33750423D01*
X22458209Y-33750426D01*
X22321290Y-33829475D01*
X22321282Y-33829481D01*
X20912181Y-35238583D01*
X20850858Y-35272068D01*
X20781166Y-35267084D01*
X20725233Y-35225212D01*
X20700816Y-35159748D01*
X20700500Y-35150902D01*
X20700500Y-32200097D01*
X20720185Y-32133058D01*
X20728416Y-32122844D01*
X23715000Y-32122844D01*
X23721401Y-32182372D01*
X23721403Y-32182379D01*
X23771645Y-32317086D01*
X23771649Y-32317093D01*
X23857809Y-32432187D01*
X23857812Y-32432190D01*
X23972906Y-32518350D01*
X23972913Y-32518354D01*
X24107620Y-32568596D01*
X24107627Y-32568598D01*
X24167155Y-32574999D01*
X24167172Y-32575000D01*
X24215000Y-32575000D01*
X24515000Y-32575000D01*
X24562828Y-32575000D01*
X24562844Y-32574999D01*
X24622372Y-32568598D01*
X24622379Y-32568596D01*
X24757086Y-32518354D01*
X24757093Y-32518350D01*
X24872187Y-32432190D01*
X24872190Y-32432187D01*
X24958350Y-32317093D01*
X24958354Y-32317086D01*
X25008596Y-32182379D01*
X25008598Y-32182372D01*
X25014999Y-32122844D01*
X25015000Y-32122827D01*
X25015000Y-31650000D01*
X24515000Y-31650000D01*
X24515000Y-32575000D01*
X24215000Y-32575000D01*
X24215000Y-31650000D01*
X23715000Y-31650000D01*
X23715000Y-32122844D01*
X20728416Y-32122844D01*
X20736819Y-32112416D01*
X21338278Y-31510957D01*
X21972081Y-30877155D01*
X23715000Y-30877155D01*
X23715000Y-31350000D01*
X24215000Y-31350000D01*
X24515000Y-31350000D01*
X25015000Y-31350000D01*
X25015000Y-30877172D01*
X25014999Y-30877155D01*
X25008598Y-30817627D01*
X25008596Y-30817620D01*
X24958354Y-30682913D01*
X24958350Y-30682906D01*
X24872190Y-30567812D01*
X24872187Y-30567809D01*
X24757093Y-30481649D01*
X24757086Y-30481645D01*
X24622379Y-30431403D01*
X24622372Y-30431401D01*
X24562844Y-30425000D01*
X24515000Y-30425000D01*
X24515000Y-31350000D01*
X24215000Y-31350000D01*
X24215000Y-30425000D01*
X24167155Y-30425000D01*
X24107627Y-30431401D01*
X24107620Y-30431403D01*
X23972913Y-30481645D01*
X23972906Y-30481649D01*
X23857812Y-30567809D01*
X23857809Y-30567812D01*
X23771649Y-30682906D01*
X23771645Y-30682913D01*
X23721403Y-30817620D01*
X23721401Y-30817627D01*
X23715000Y-30877155D01*
X21972081Y-30877155D01*
X22063066Y-30786170D01*
X22712417Y-30136819D01*
X22773740Y-30103334D01*
X22800098Y-30100500D01*
X25199903Y-30100500D01*
X25266942Y-30120185D01*
G37*
%TD.AperFunction*%
%TD*%
M02*
