M48
; DRILL file KiCad 10.0.4-10.0.4~ubuntu26.04.1 date 2026-07-05T20:44:32
; FORMAT={-:-/ absolute / metric / decimal}
; #@! TF.CreationDate,2026-07-05T20:44:32-05:00
; #@! TF.GenerationSoftware,Kicad,Pcbnew,10.0.4-10.0.4~ubuntu26.04.1
; #@! TF.FileFunction,Plated,1,2,PTH
FMAT,2
METRIC
; #@! TA.AperFunction,Plated,PTH,ViaDrill
T1C0.300
; #@! TA.AperFunction,Plated,PTH,ComponentDrill
T2C0.750
; #@! TA.AperFunction,Plated,PTH,ComponentDrill
T3C2.200
%
G90
G05
T1
X20.9Y-46.0
X21.224Y-54.776
X24.365Y-31.5
X25.0Y-33.1
X25.147Y-54.912
X26.647Y-54.912
X27.586Y-55.538
X29.25Y-33.25
X30.147Y-55.0
X31.084Y-53.32
X31.647Y-55.0
X33.5Y-55.0
X33.537Y-53.312
X34.326Y-43.174
T2
X22.65Y-37.82
X22.65Y-39.6
X22.65Y-41.38
X22.65Y-43.16
X22.65Y-44.94
X22.65Y-46.72
X22.65Y-48.5
X22.65Y-50.28
X33.35Y-38.71
X33.35Y-40.49
X33.35Y-42.27
X33.35Y-44.05
X33.35Y-45.83
X33.35Y-47.61
X33.35Y-49.39
X33.35Y-51.17
T3
X28.0Y-22.5
X28.0Y-28.0
X28.0Y-59.5
M30
