%TF.GenerationSoftware,KiCad,Pcbnew,10.0.4-10.0.4~ubuntu26.04.1*%
%TF.CreationDate,2026-07-05T22:57:21-05:00*%
%TF.ProjectId,pmw3610-xxs-compliant-narrow,706d7733-3631-4302-9d78-78732d636f6d,rev?*%
%TF.SameCoordinates,Original*%
%TF.FileFunction,Copper,L1,Top*%
%TF.FilePolarity,Positive*%
%FSLAX46Y46*%
G04 Gerber Fmt 4.6, Leading zero omitted, Abs format (unit mm)*
G04 Created by KiCad (PCBNEW 10.0.4-10.0.4~ubuntu26.04.1) date 2026-07-05 22:57:21*
%MOMM*%
%LPD*%
G01*
G04 APERTURE LIST*
G04 Aperture macros list*
%AMRoundRect*
0 Rectangle with rounded corners*
0 $1 Rounding radius*
0 $2 $3 $4 $5 $6 $7 $8 $9 X,Y pos of 4 corners*
0 Add a 4 corners polygon primitive as box body*
4,1,4,$2,$3,$4,$5,$6,$7,$8,$9,$2,$3,0*
0 Add four circle primitives for the rounded corners*
1,1,$1+$1,$2,$3*
1,1,$1+$1,$4,$5*
1,1,$1+$1,$6,$7*
1,1,$1+$1,$8,$9*
0 Add four rect primitives between the rounded corners*
20,1,$1+$1,$2,$3,$4,$5,0*
20,1,$1+$1,$4,$5,$6,$7,0*
20,1,$1+$1,$6,$7,$8,$9,0*
20,1,$1+$1,$8,$9,$2,$3,0*%
G04 Aperture macros list end*
%TA.AperFunction,SMDPad,CuDef*%
%ADD10R,0.300000X0.650000*%
%TD*%
%TA.AperFunction,SMDPad,CuDef*%
%ADD11R,0.300000X1.150000*%
%TD*%
%TA.AperFunction,SMDPad,CuDef*%
%ADD12RoundRect,0.237500X0.237500X-0.300000X0.237500X0.300000X-0.237500X0.300000X-0.237500X-0.300000X0*%
%TD*%
%TA.AperFunction,SMDPad,CuDef*%
%ADD13RoundRect,0.237500X-0.237500X0.300000X-0.237500X-0.300000X0.237500X-0.300000X0.237500X0.300000X0*%
%TD*%
%TA.AperFunction,ComponentPad*%
%ADD14C,4.400000*%
%TD*%
%TA.AperFunction,ComponentPad*%
%ADD15RoundRect,0.187500X-0.437500X0.437500X-0.437500X-0.437500X0.437500X-0.437500X0.437500X0.437500X0*%
%TD*%
%TA.AperFunction,ComponentPad*%
%ADD16O,1.250000X1.250000*%
%TD*%
%TA.AperFunction,SMDPad,CuDef*%
%ADD17RoundRect,0.150000X0.150000X-0.587500X0.150000X0.587500X-0.150000X0.587500X-0.150000X-0.587500X0*%
%TD*%
%TA.AperFunction,SMDPad,CuDef*%
%ADD18RoundRect,0.237500X0.237500X-0.250000X0.237500X0.250000X-0.237500X0.250000X-0.237500X-0.250000X0*%
%TD*%
%TA.AperFunction,ViaPad*%
%ADD19C,0.600000*%
%TD*%
%TA.AperFunction,Conductor*%
%ADD20C,0.200000*%
%TD*%
%TA.AperFunction,Conductor*%
%ADD21C,0.300000*%
%TD*%
G04 APERTURE END LIST*
D10*
%TO.P,J2,1,SCLK_1*%
%TO.N,SCLK*%
X30750000Y-34500000D03*
%TO.P,J2,2,MISO_2*%
%TO.N,SDIO*%
X30250000Y-34500000D03*
%TO.P,J2,3,SPI_CS_3*%
%TO.N,NCS*%
X29750000Y-34500000D03*
%TO.P,J2,4,GP_AD2_4*%
%TO.N,MOTION*%
X29250000Y-34500000D03*
%TO.P,J2,5,MOSI_5*%
%TO.N,unconnected-(J2-MOSI-Pad5)*%
X28750000Y-34500000D03*
%TO.P,J2,6,GP_AD1_6*%
%TO.N,unconnected-(J2-GP_AD1-Pad6)*%
X28250000Y-34500000D03*
%TO.P,J2,7,5V_7*%
%TO.N,unconnected-(J2-5V-Pad7)*%
X27750000Y-34500000D03*
%TO.P,J2,8,RGB_DO_8*%
%TO.N,unconnected-(J2-RGB_DO-Pad8)*%
X27250000Y-34500000D03*
%TO.P,J2,9,SCL_9*%
%TO.N,unconnected-(J2-SCL-Pad9)*%
X26750000Y-34500000D03*
%TO.P,J2,10,SDA_10*%
%TO.N,unconnected-(J2-SDA-Pad10)*%
X26250000Y-34500000D03*
%TO.P,J2,11,GND_11*%
%TO.N,GND*%
X25750000Y-34500000D03*
%TO.P,J2,12,3V3_12*%
%TO.N,VCC*%
X25250000Y-34500000D03*
D11*
%TO.P,J2,13*%
%TO.N,GND*%
X24365000Y-31690000D03*
%TO.P,J2,14*%
X31635000Y-31690000D03*
%TD*%
D12*
%TO.P,C8,2*%
%TO.N,GND*%
X34500000Y-27137500D03*
%TO.P,C8,1*%
%TO.N,+1V9*%
X34500000Y-28862500D03*
%TD*%
%TO.P,C9,2*%
%TO.N,GND*%
X33000000Y-27137500D03*
%TO.P,C9,1*%
%TO.N,+1V9*%
X33000000Y-28862500D03*
%TD*%
%TO.P,C2,2*%
%TO.N,GND*%
X31500000Y-27137500D03*
%TO.P,C2,1*%
%TO.N,+1V9*%
X31500000Y-28862500D03*
%TD*%
D13*
%TO.P,C7,1*%
%TO.N,Net-(U2-VCP)*%
X27000000Y-54137500D03*
%TO.P,C7,2*%
%TO.N,GND*%
X27000000Y-55862500D03*
%TD*%
D14*
%TO.P,H2,1,1_1*%
%TO.N,GND*%
X28000000Y-28000000D03*
%TD*%
D15*
%TO.P,U2,1,+VCSEL_1*%
%TO.N,Net-(U2-+VCSEL)*%
X22650000Y-37820000D03*
D16*
%TO.P,U2,2,SDIO_2*%
%TO.N,SDIO*%
X22650000Y-39600000D03*
%TO.P,U2,3,SCLK_3*%
%TO.N,SCLK*%
X22650000Y-41380000D03*
%TO.P,U2,4,NC_4*%
%TO.N,unconnected-(U2-NC-Pad4)*%
X22650000Y-43160000D03*
%TO.P,U2,5,NCS_5*%
%TO.N,NCS*%
X22650000Y-44940000D03*
%TO.P,U2,6,VDDIO_6*%
%TO.N,VCC*%
X22650000Y-46720000D03*
%TO.P,U2,7,NRESET_7*%
%TO.N,Net-(U2-NRESET)*%
X22650000Y-48500000D03*
%TO.P,U2,8,MOTION_8*%
%TO.N,MOTION*%
X22650000Y-50280000D03*
%TO.P,U2,9,VCP_9*%
%TO.N,Net-(U2-VCP)*%
X33350000Y-51170000D03*
%TO.P,U2,10,PASS_T_10*%
%TO.N,Net-(U2-+VCSEL)*%
X33350000Y-49390000D03*
%TO.P,U2,11,GND_11*%
%TO.N,GND*%
X33350000Y-47610000D03*
%TO.P,U2,12,CP_12*%
%TO.N,Net-(U2-CP)*%
X33350000Y-45830000D03*
%TO.P,U2,13,CN_13*%
%TO.N,Net-(U2-CN)*%
X33350000Y-44050000D03*
%TO.P,U2,14,VDD_14*%
%TO.N,+1V9*%
X33350000Y-42270000D03*
%TO.P,U2,15,XYLASER_15*%
%TO.N,Net-(U2--VCSEL)*%
X33350000Y-40490000D03*
%TO.P,U2,16,-VCSEL_16*%
X33350000Y-38710000D03*
%TD*%
D17*
%TO.P,U1,1,GND_1*%
%TO.N,GND*%
X32550000Y-34937500D03*
%TO.P,U1,2,VO_2*%
%TO.N,+1V9*%
X34450000Y-34937500D03*
%TO.P,U1,3,VI_3*%
%TO.N,VCC*%
X33500000Y-33062500D03*
%TD*%
D14*
%TO.P,H3,1,1_1*%
%TO.N,GND*%
X28000000Y-59500000D03*
%TD*%
D13*
%TO.P,C6,1*%
%TO.N,Net-(U2-VCP)*%
X25000000Y-54137500D03*
%TO.P,C6,2*%
%TO.N,GND*%
X25000000Y-55862500D03*
%TD*%
%TO.P,C4,1*%
%TO.N,Net-(U2-+VCSEL)*%
X29000000Y-54137500D03*
%TO.P,C4,2*%
%TO.N,GND*%
X29000000Y-55862500D03*
%TD*%
D14*
%TO.P,H1,1,1_1*%
%TO.N,GND*%
X28000000Y-22500000D03*
%TD*%
D12*
%TO.P,C5,1*%
%TO.N,Net-(U2-CN)*%
X31000000Y-55862500D03*
%TO.P,C5,2*%
%TO.N,Net-(U2-CP)*%
X31000000Y-54137500D03*
%TD*%
%TO.P,C1,1*%
%TO.N,GND*%
X24500000Y-28862500D03*
%TO.P,C1,2*%
%TO.N,VCC*%
X24500000Y-27137500D03*
%TD*%
D13*
%TO.P,C3,1*%
%TO.N,VCC*%
X23000000Y-27137500D03*
%TO.P,C3,2*%
%TO.N,GND*%
X23000000Y-28862500D03*
%TD*%
D18*
%TO.P,R1,1*%
%TO.N,Net-(U2-NRESET)*%
X21500000Y-28912500D03*
%TO.P,R1,2*%
%TO.N,VCC*%
X21500000Y-27087500D03*
%TD*%
D19*
%TO.N,Net-(U2-+VCSEL)*%
X29000000Y-54137500D03*
%TO.N,GND*%
X29000000Y-55862500D03*
%TO.N,Net-(U2-NRESET)*%
X21500000Y-28912500D03*
%TO.N,SCLK*%
X31500000Y-35000000D03*
%TO.N,GND*%
X26000000Y-32850000D03*
%TO.N,VCC*%
X25000000Y-33500000D03*
X33500000Y-33062500D03*
X24500000Y-27137500D03*
%TD*%
%TO.N,Net-(U2-VCP)*%
D20*
X33350000Y-51170000D02*
X33350000Y-51912463D01*
X33350000Y-51912463D02*
X32462462Y-52800000D01*
X32462462Y-52800000D02*
X28337500Y-52800000D01*
X28337500Y-52800000D02*
X27000000Y-54137500D01*
%TO.N,GND*%
D21*
X29000000Y-55862500D02*
X30175000Y-54687500D01*
X30175000Y-54687500D02*
X30175000Y-53587568D01*
X34325000Y-51573859D02*
X34325000Y-48585000D01*
X30175000Y-53587568D02*
X30512568Y-53250000D01*
X30512568Y-53250000D02*
X32648858Y-53250000D01*
X32648858Y-53250000D02*
X34325000Y-51573859D01*
X34325000Y-48585000D02*
X33350000Y-47610000D01*
%TO.N,SCLK*%
D20*
X31500000Y-35000000D02*
X31250000Y-35000000D01*
X31250000Y-35000000D02*
X30750000Y-34500000D01*
%TO.N,SDIO*%
X22650000Y-39600000D02*
X21725000Y-38675000D01*
X21725000Y-38675000D02*
X21725000Y-37175374D01*
X23375374Y-35525000D02*
X29865686Y-35525000D01*
X21725000Y-37175374D02*
X23375374Y-35525000D01*
X29865686Y-35525000D02*
X30250000Y-35140686D01*
X30250000Y-35140686D02*
X30250000Y-34500000D01*
%TO.N,NCS*%
X29750000Y-34500000D02*
X29750000Y-35075000D01*
X23209688Y-35125000D02*
X21325000Y-37009688D01*
X29750000Y-35075000D02*
X29700000Y-35125000D01*
X29700000Y-35125000D02*
X23209688Y-35125000D01*
X21325000Y-37009688D02*
X21325000Y-43615000D01*
X21325000Y-43615000D02*
X22650000Y-44940000D01*
%TO.N,GND*%
D21*
X27000000Y-55862500D02*
X27100000Y-55962500D01*
X27100000Y-55962500D02*
X27100000Y-58600000D01*
X27100000Y-58600000D02*
X28000000Y-59500000D01*
X27000000Y-55862500D02*
X25000000Y-55862500D01*
X29000000Y-55862500D02*
X27000000Y-55862500D01*
X31635000Y-31690000D02*
X29690000Y-31690000D01*
X29690000Y-31690000D02*
X28000000Y-30000000D01*
X28000000Y-30000000D02*
X28000000Y-28000000D01*
X24500000Y-28862500D02*
X27137500Y-28862500D01*
X27137500Y-28862500D02*
X28000000Y-28000000D01*
X31500000Y-27137500D02*
X28862500Y-27137500D01*
X28862500Y-27137500D02*
X28000000Y-28000000D01*
X33000000Y-27137500D02*
X31500000Y-27137500D01*
X34500000Y-27137500D02*
X33000000Y-27137500D01*
X24365000Y-30635000D02*
X24500000Y-30500000D01*
X24365000Y-31690000D02*
X24365000Y-30635000D01*
X24500000Y-30500000D02*
X24500000Y-28862500D01*
X23000000Y-28862500D02*
X24500000Y-28862500D01*
%TO.N,Net-(U2-CN)*%
D20*
X33350000Y-44050000D02*
X35175000Y-45875000D01*
X35175000Y-45875000D02*
X35175000Y-51925941D01*
X35175000Y-51925941D02*
X31238441Y-55862500D01*
X31238441Y-55862500D02*
X31000000Y-55862500D01*
%TO.N,Net-(U2-CP)*%
X33350000Y-45830000D02*
X34775000Y-47255000D01*
X32397755Y-54137500D02*
X31000000Y-54137500D01*
X34775000Y-47255000D02*
X34775000Y-51760255D01*
X34775000Y-51760255D02*
X32397755Y-54137500D01*
%TO.N,VCC*%
X23000000Y-27137500D02*
X21550000Y-27137500D01*
X21550000Y-27137500D02*
X21500000Y-27087500D01*
%TO.N,MOTION*%
X29250000Y-34500000D02*
X29250000Y-33925000D01*
X29250000Y-33925000D02*
X27575000Y-32250000D01*
X27575000Y-32250000D02*
X25401471Y-32250000D01*
X20925000Y-36726471D02*
X20925000Y-48555000D01*
X25401471Y-32250000D02*
X20925000Y-36726471D01*
X20925000Y-48555000D02*
X22650000Y-50280000D01*
%TO.N,GND*%
D21*
X26000000Y-32850000D02*
X25750000Y-33100000D01*
X25750000Y-33100000D02*
X25750000Y-34110000D01*
%TO.N,VCC*%
X25000000Y-33860000D02*
X25250000Y-34110000D01*
X25000000Y-33500000D02*
X25000000Y-33860000D01*
D20*
X23000000Y-27137500D02*
X24500000Y-27137500D01*
%TO.N,Net-(U2-VCP)*%
X25000000Y-54137500D02*
X27000000Y-54137500D01*
%TO.N,+1V9*%
D21*
X34450000Y-34937500D02*
X34450000Y-41170000D01*
X34450000Y-41170000D02*
X33350000Y-42270000D01*
X34500000Y-28862500D02*
X34500000Y-29000000D01*
X34500000Y-29000000D02*
X34450000Y-29050000D01*
X34450000Y-29050000D02*
X34450000Y-34937500D01*
X33000000Y-28862500D02*
X34500000Y-28862500D01*
X31500000Y-28862500D02*
X33000000Y-28862500D01*
%TO.N,GND*%
X22950000Y-28912500D02*
X23000000Y-28862500D01*
%TD*%
%TA.AperFunction,Conductor*%
%TO.N,GND*%
G36*
X20705703Y-49185384D02*
G01*
X20712181Y-49191416D01*
X21505486Y-49984721D01*
X21538971Y-50046044D01*
X21540278Y-50091800D01*
X21524500Y-50191415D01*
X21524500Y-50368578D01*
X21552214Y-50543556D01*
X21606956Y-50712039D01*
X21606957Y-50712042D01*
X21664147Y-50824281D01*
X21687386Y-50869890D01*
X21791517Y-51013214D01*
X21916786Y-51138483D01*
X22060110Y-51242614D01*
X22137529Y-51282061D01*
X22217957Y-51323042D01*
X22217960Y-51323043D01*
X22302201Y-51350414D01*
X22386445Y-51377786D01*
X22561421Y-51405500D01*
X22561422Y-51405500D01*
X22738578Y-51405500D01*
X22738579Y-51405500D01*
X22913555Y-51377786D01*
X23082042Y-51323042D01*
X23239890Y-51242614D01*
X23383214Y-51138483D01*
X23423044Y-51098652D01*
X23484365Y-51065168D01*
X23554056Y-51070152D01*
X23609990Y-51112022D01*
X23634408Y-51177487D01*
X23634723Y-51186720D01*
X23631199Y-52319199D01*
X23632495Y-52320500D01*
X23649793Y-52320500D01*
X23650207Y-52320500D01*
X27668402Y-52320500D01*
X27735441Y-52340185D01*
X27781196Y-52392989D01*
X27791140Y-52462147D01*
X27762115Y-52525703D01*
X27756083Y-52532181D01*
X27225082Y-53063181D01*
X27163759Y-53096666D01*
X27137401Y-53099500D01*
X26713330Y-53099500D01*
X26713312Y-53099501D01*
X26612247Y-53109825D01*
X26448484Y-53164092D01*
X26448481Y-53164093D01*
X26301648Y-53254661D01*
X26179660Y-53376649D01*
X26179657Y-53376653D01*
X26117086Y-53478097D01*
X26109500Y-53484919D01*
X26105261Y-53494203D01*
X26083960Y-53507891D01*
X26065138Y-53524822D01*
X26053501Y-53527466D01*
X26046483Y-53531977D01*
X26011548Y-53537000D01*
X25988452Y-53537000D01*
X25921413Y-53517315D01*
X25882914Y-53478097D01*
X25820342Y-53376653D01*
X25820339Y-53376649D01*
X25698351Y-53254661D01*
X25698350Y-53254660D01*
X25551516Y-53164092D01*
X25387753Y-53109826D01*
X25387751Y-53109825D01*
X25286678Y-53099500D01*
X24713330Y-53099500D01*
X24713312Y-53099501D01*
X24612247Y-53109825D01*
X24448484Y-53164092D01*
X24448481Y-53164093D01*
X24301648Y-53254661D01*
X24179661Y-53376648D01*
X24089093Y-53523481D01*
X24089091Y-53523486D01*
X24084613Y-53537000D01*
X24034826Y-53687247D01*
X24034826Y-53687248D01*
X24034825Y-53687248D01*
X24024500Y-53788315D01*
X24024500Y-54486669D01*
X24024501Y-54486687D01*
X24034825Y-54587752D01*
X24071109Y-54697249D01*
X24088910Y-54750968D01*
X24089092Y-54751515D01*
X24089093Y-54751518D01*
X24092897Y-54757685D01*
X24179659Y-54898349D01*
X24179661Y-54898351D01*
X24193982Y-54912672D01*
X24227467Y-54973995D01*
X24222483Y-55043687D01*
X24193985Y-55088032D01*
X24180052Y-55101965D01*
X24089551Y-55248688D01*
X24089546Y-55248699D01*
X24035319Y-55412347D01*
X24025000Y-55513345D01*
X24025000Y-55612500D01*
X28876000Y-55612500D01*
X28943039Y-55632185D01*
X28988794Y-55684989D01*
X29000000Y-55736500D01*
X29000000Y-55862500D01*
X29126000Y-55862500D01*
X29193039Y-55882185D01*
X29238794Y-55934989D01*
X29250000Y-55986500D01*
X29250000Y-56666717D01*
X29230315Y-56733756D01*
X29177511Y-56779511D01*
X29173479Y-56781266D01*
X29158108Y-56787634D01*
X29158101Y-56787637D01*
X29087636Y-56858102D01*
X29049500Y-56950170D01*
X29049500Y-57049829D01*
X29056154Y-57065892D01*
X29087636Y-57141897D01*
X29158103Y-57212364D01*
X29250172Y-57250500D01*
X29250174Y-57250500D01*
X29349826Y-57250500D01*
X29349828Y-57250500D01*
X29441897Y-57212364D01*
X29512364Y-57141897D01*
X29550500Y-57049828D01*
X29550500Y-56950172D01*
X29550499Y-56950170D01*
X29548117Y-56938193D01*
X29551164Y-56937586D01*
X29545754Y-56887286D01*
X29577026Y-56824805D01*
X29602688Y-56803757D01*
X29698039Y-56744943D01*
X29819943Y-56623039D01*
X29894167Y-56502704D01*
X29946115Y-56455980D01*
X30015078Y-56444757D01*
X30079160Y-56472601D01*
X30105244Y-56502704D01*
X30149016Y-56573669D01*
X30167457Y-56641061D01*
X30146535Y-56707725D01*
X30092893Y-56752494D01*
X30090932Y-56753327D01*
X30008101Y-56787637D01*
X29937636Y-56858102D01*
X29899500Y-56950170D01*
X29899500Y-57049829D01*
X29906154Y-57065892D01*
X29937636Y-57141897D01*
X30008103Y-57212364D01*
X30100172Y-57250500D01*
X30100174Y-57250500D01*
X30199826Y-57250500D01*
X30199828Y-57250500D01*
X30291897Y-57212364D01*
X30362364Y-57141897D01*
X30400500Y-57049828D01*
X30400500Y-56991727D01*
X30407132Y-56969139D01*
X30409358Y-56945702D01*
X30416794Y-56936235D01*
X30420185Y-56924688D01*
X30437974Y-56909273D01*
X30452520Y-56890757D01*
X30463893Y-56886813D01*
X30472989Y-56878933D01*
X30496291Y-56875582D01*
X30518535Y-56867871D01*
X30534620Y-56870071D01*
X30542147Y-56868989D01*
X30553671Y-56871207D01*
X30558633Y-56872408D01*
X30612247Y-56890174D01*
X30646485Y-56893671D01*
X30654671Y-56895653D01*
X30677931Y-56909066D01*
X30702793Y-56919210D01*
X30707740Y-56926255D01*
X30715198Y-56930556D01*
X30727514Y-56954415D01*
X30742945Y-56976390D01*
X30744861Y-56988020D01*
X30747247Y-56992642D01*
X30746653Y-56998895D01*
X30749500Y-57016173D01*
X30749500Y-57049829D01*
X30756154Y-57065892D01*
X30787636Y-57141897D01*
X30858103Y-57212364D01*
X30950172Y-57250500D01*
X30950174Y-57250500D01*
X31049826Y-57250500D01*
X31049828Y-57250500D01*
X31141897Y-57212364D01*
X31212364Y-57141897D01*
X31250500Y-57049828D01*
X31250500Y-57016173D01*
X31258754Y-56988062D01*
X31264315Y-56959294D01*
X31268484Y-56954926D01*
X31270185Y-56949134D01*
X31292326Y-56929948D01*
X31312558Y-56908753D01*
X31319300Y-56906575D01*
X31322989Y-56903379D01*
X31345331Y-56895653D01*
X31353520Y-56893670D01*
X31387753Y-56890174D01*
X31441350Y-56872413D01*
X31446331Y-56871208D01*
X31476312Y-56872652D01*
X31506324Y-56871620D01*
X31510855Y-56874316D01*
X31516119Y-56874570D01*
X31540558Y-56891993D01*
X31566366Y-56907351D01*
X31568720Y-56912069D01*
X31573012Y-56915129D01*
X31584153Y-56943002D01*
X31597559Y-56969871D01*
X31598320Y-56978444D01*
X31598945Y-56980007D01*
X31598612Y-56981729D01*
X31599500Y-56991728D01*
X31599500Y-57049829D01*
X31606154Y-57065892D01*
X31637636Y-57141897D01*
X31708103Y-57212364D01*
X31800172Y-57250500D01*
X31800174Y-57250500D01*
X31899826Y-57250500D01*
X31899828Y-57250500D01*
X31991897Y-57212364D01*
X32062364Y-57141897D01*
X32100500Y-57049828D01*
X32100500Y-56950172D01*
X32100499Y-56950170D01*
X32449500Y-56950170D01*
X32449500Y-57049829D01*
X32456154Y-57065892D01*
X32487636Y-57141897D01*
X32558103Y-57212364D01*
X32650172Y-57250500D01*
X32650174Y-57250500D01*
X32749826Y-57250500D01*
X32749828Y-57250500D01*
X32841897Y-57212364D01*
X32912364Y-57141897D01*
X32950500Y-57049828D01*
X32950500Y-56950172D01*
X32912364Y-56858103D01*
X32841897Y-56787636D01*
X32841892Y-56787634D01*
X32749829Y-56749500D01*
X32749828Y-56749500D01*
X32650172Y-56749500D01*
X32650170Y-56749500D01*
X32558102Y-56787636D01*
X32487636Y-56858102D01*
X32449500Y-56950170D01*
X32100499Y-56950170D01*
X32062364Y-56858103D01*
X31991897Y-56787636D01*
X31976547Y-56781278D01*
X31909068Y-56753327D01*
X31854664Y-56709486D01*
X31832600Y-56643191D01*
X31849880Y-56575492D01*
X31850926Y-56573761D01*
X31910908Y-56476516D01*
X31965174Y-56312753D01*
X31975500Y-56211677D01*
X31975499Y-56026037D01*
X31995183Y-55958998D01*
X32011813Y-55938361D01*
X35287821Y-52662354D01*
X35349142Y-52628871D01*
X35418834Y-52633855D01*
X35474767Y-52675727D01*
X35499184Y-52741191D01*
X35499500Y-52750037D01*
X35499500Y-55494586D01*
X35499028Y-55505394D01*
X35486241Y-55651542D01*
X35484330Y-55664927D01*
X35478501Y-55694229D01*
X35476659Y-55702130D01*
X35443220Y-55826926D01*
X35438007Y-55842282D01*
X35431001Y-55859197D01*
X35428821Y-55864151D01*
X35370176Y-55989917D01*
X35359369Y-56008636D01*
X35271881Y-56133582D01*
X35257987Y-56150140D01*
X35150140Y-56257987D01*
X35133582Y-56271881D01*
X35008636Y-56359369D01*
X34989917Y-56370176D01*
X34864151Y-56428821D01*
X34859197Y-56431001D01*
X34842282Y-56438007D01*
X34826926Y-56443220D01*
X34702130Y-56476659D01*
X34694229Y-56478501D01*
X34664927Y-56484330D01*
X34651542Y-56486241D01*
X34505395Y-56499028D01*
X34494587Y-56499500D01*
X34434108Y-56499500D01*
X34306814Y-56533608D01*
X34306813Y-56533608D01*
X34306811Y-56533609D01*
X34306810Y-56533609D01*
X34192685Y-56599499D01*
X34192683Y-56599501D01*
X34182381Y-56609802D01*
X34174006Y-56618176D01*
X34170886Y-56620182D01*
X34163648Y-56628534D01*
X34160506Y-56631677D01*
X34099503Y-56692682D01*
X34099500Y-56692686D01*
X34088323Y-56712045D01*
X34088322Y-56712045D01*
X34082401Y-56722298D01*
X34077210Y-56728290D01*
X34070657Y-56742639D01*
X34067706Y-56747750D01*
X34067697Y-56747768D01*
X34033607Y-56806815D01*
X34033607Y-56806817D01*
X34025295Y-56837835D01*
X34022614Y-56847837D01*
X34017787Y-56858409D01*
X34015476Y-56874475D01*
X34013573Y-56881581D01*
X34013572Y-56881589D01*
X34013273Y-56882706D01*
X33976923Y-56942375D01*
X33914083Y-56972920D01*
X33844706Y-56964642D01*
X33790817Y-56920171D01*
X33778929Y-56898095D01*
X33762364Y-56858103D01*
X33691897Y-56787636D01*
X33691892Y-56787634D01*
X33599829Y-56749500D01*
X33599828Y-56749500D01*
X33500172Y-56749500D01*
X33500170Y-56749500D01*
X33408102Y-56787636D01*
X33337636Y-56858102D01*
X33299500Y-56950170D01*
X33299500Y-57049829D01*
X33306154Y-57065892D01*
X33337636Y-57141897D01*
X33408103Y-57212364D01*
X33500172Y-57250500D01*
X33500174Y-57250500D01*
X33599826Y-57250500D01*
X33599828Y-57250500D01*
X33691897Y-57212364D01*
X33762364Y-57141897D01*
X33778929Y-57101903D01*
X33797713Y-57078592D01*
X33814478Y-57053789D01*
X33819403Y-57051676D01*
X33822767Y-57047502D01*
X33851177Y-57038045D01*
X33878688Y-57026244D01*
X33883973Y-57027129D01*
X33889061Y-57025436D01*
X33918070Y-57032839D01*
X33947598Y-57037785D01*
X33951567Y-57041388D01*
X33956760Y-57042714D01*
X33977160Y-57064624D01*
X33999328Y-57084750D01*
X34002257Y-57091579D01*
X34004372Y-57093850D01*
X34013243Y-57117186D01*
X34013542Y-57118299D01*
X34016525Y-57132815D01*
X34017787Y-57141591D01*
X34017787Y-57141592D01*
X34017788Y-57141594D01*
X34018319Y-57142756D01*
X34025294Y-57162161D01*
X34033607Y-57193184D01*
X34033608Y-57193186D01*
X34067692Y-57252222D01*
X34070648Y-57257343D01*
X34077210Y-57271710D01*
X34082404Y-57277704D01*
X34096236Y-57301661D01*
X34099499Y-57307313D01*
X34163629Y-57371443D01*
X34170886Y-57379818D01*
X34174014Y-57381828D01*
X34192686Y-57400500D01*
X34306814Y-57466392D01*
X34434108Y-57500500D01*
X34494588Y-57500500D01*
X34505394Y-57500972D01*
X34512947Y-57501632D01*
X34651564Y-57513760D01*
X34664907Y-57515665D01*
X34694247Y-57521501D01*
X34702103Y-57523332D01*
X34826932Y-57556780D01*
X34842278Y-57561989D01*
X34859233Y-57569012D01*
X34864169Y-57571185D01*
X34989916Y-57629821D01*
X35008629Y-57640624D01*
X35133583Y-57728118D01*
X35150140Y-57742012D01*
X35257987Y-57849859D01*
X35271881Y-57866416D01*
X35359372Y-57991366D01*
X35370179Y-58010086D01*
X35428813Y-58135828D01*
X35430993Y-58140781D01*
X35438007Y-58157715D01*
X35443220Y-58173072D01*
X35476659Y-58297868D01*
X35478501Y-58305769D01*
X35484330Y-58335071D01*
X35486241Y-58348456D01*
X35499028Y-58494605D01*
X35499500Y-58505413D01*
X35499500Y-59995948D01*
X35499234Y-60004058D01*
X35484321Y-60231576D01*
X35483325Y-60241113D01*
X35475917Y-60292636D01*
X35474796Y-60299180D01*
X35435694Y-60495763D01*
X35433054Y-60506508D01*
X35420656Y-60548730D01*
X35419099Y-60553652D01*
X35351780Y-60751971D01*
X35347152Y-60763630D01*
X35336544Y-60786855D01*
X35334964Y-60790182D01*
X35235212Y-60992460D01*
X35227102Y-61006506D01*
X35090825Y-61210460D01*
X35080951Y-61223329D01*
X34919218Y-61407749D01*
X34907749Y-61419218D01*
X34723329Y-61580951D01*
X34710460Y-61590825D01*
X34506506Y-61727102D01*
X34492460Y-61735212D01*
X34290182Y-61834964D01*
X34286855Y-61836544D01*
X34263630Y-61847152D01*
X34251971Y-61851780D01*
X34053652Y-61919099D01*
X34048730Y-61920656D01*
X34006508Y-61933054D01*
X33995763Y-61935694D01*
X33799180Y-61974796D01*
X33792636Y-61975917D01*
X33741113Y-61983325D01*
X33731576Y-61984321D01*
X33504058Y-61999234D01*
X33495948Y-61999500D01*
X22504052Y-61999500D01*
X22495942Y-61999234D01*
X22268422Y-61984321D01*
X22258885Y-61983325D01*
X22207362Y-61975917D01*
X22200818Y-61974796D01*
X22004235Y-61935694D01*
X21993490Y-61933054D01*
X21951268Y-61920656D01*
X21946346Y-61919099D01*
X21806997Y-61871797D01*
X21748023Y-61851778D01*
X21736377Y-61847155D01*
X21727679Y-61843183D01*
X21713143Y-61836544D01*
X21709816Y-61834964D01*
X21507539Y-61735212D01*
X21493493Y-61727102D01*
X21289539Y-61590825D01*
X21276670Y-61580951D01*
X21092250Y-61419218D01*
X21080781Y-61407749D01*
X20919048Y-61223329D01*
X20909174Y-61210460D01*
X20772897Y-61006506D01*
X20764787Y-60992460D01*
X20665034Y-60790182D01*
X20663454Y-60786855D01*
X20652835Y-60763602D01*
X20648228Y-60751997D01*
X20580887Y-60553617D01*
X20579350Y-60548755D01*
X20566938Y-60506485D01*
X20564311Y-60495794D01*
X20525195Y-60299143D01*
X20524088Y-60292679D01*
X20516671Y-60241094D01*
X20515680Y-60231615D01*
X20500765Y-60004042D01*
X20500500Y-59995933D01*
X20500500Y-58505411D01*
X20500972Y-58494605D01*
X20513760Y-58348430D01*
X20515664Y-58335097D01*
X20521503Y-58305739D01*
X20523329Y-58297910D01*
X20556782Y-58173058D01*
X20561992Y-58157715D01*
X20569020Y-58140747D01*
X20571162Y-58135880D01*
X20629822Y-58010080D01*
X20640628Y-57991366D01*
X20728118Y-57866417D01*
X20742006Y-57849865D01*
X20849865Y-57742006D01*
X20866417Y-57728118D01*
X20991366Y-57640628D01*
X21010080Y-57629822D01*
X21135880Y-57571162D01*
X21140747Y-57569020D01*
X21157725Y-57561987D01*
X21173058Y-57556782D01*
X21297910Y-57523329D01*
X21305739Y-57521503D01*
X21335097Y-57515664D01*
X21348430Y-57513760D01*
X21487871Y-57501561D01*
X21494606Y-57500972D01*
X21505412Y-57500500D01*
X21565890Y-57500500D01*
X21565892Y-57500500D01*
X21693186Y-57466392D01*
X21807314Y-57400500D01*
X21825985Y-57381828D01*
X21829114Y-57379818D01*
X21836361Y-57371452D01*
X21900500Y-57307314D01*
X21917595Y-57277703D01*
X21922790Y-57271710D01*
X21929345Y-57257351D01*
X21966392Y-57193186D01*
X21977382Y-57152167D01*
X21982213Y-57141591D01*
X21984522Y-57125520D01*
X21986741Y-57117238D01*
X22023117Y-57057587D01*
X22085970Y-57027070D01*
X22155344Y-57035378D01*
X22209213Y-57079874D01*
X22221069Y-57101903D01*
X22237634Y-57141894D01*
X22237635Y-57141896D01*
X22237636Y-57141897D01*
X22308103Y-57212364D01*
X22400172Y-57250500D01*
X22400174Y-57250500D01*
X22499826Y-57250500D01*
X22499828Y-57250500D01*
X22591897Y-57212364D01*
X22662364Y-57141897D01*
X22700500Y-57049828D01*
X22700500Y-56950172D01*
X22700499Y-56950170D01*
X23049500Y-56950170D01*
X23049500Y-57049829D01*
X23056154Y-57065892D01*
X23087636Y-57141897D01*
X23158103Y-57212364D01*
X23250172Y-57250500D01*
X23250174Y-57250500D01*
X23349826Y-57250500D01*
X23349828Y-57250500D01*
X23441897Y-57212364D01*
X23512364Y-57141897D01*
X23550500Y-57049828D01*
X23550500Y-56950172D01*
X23550499Y-56950170D01*
X23899500Y-56950170D01*
X23899500Y-57049829D01*
X23906154Y-57065892D01*
X23937636Y-57141897D01*
X24008103Y-57212364D01*
X24100172Y-57250500D01*
X24100174Y-57250500D01*
X24199826Y-57250500D01*
X24199828Y-57250500D01*
X24291897Y-57212364D01*
X24362364Y-57141897D01*
X24400500Y-57049828D01*
X24400500Y-56991201D01*
X24407136Y-56968601D01*
X24409368Y-56945151D01*
X24416797Y-56935696D01*
X24420185Y-56924162D01*
X24437983Y-56908739D01*
X24452541Y-56890216D01*
X24463903Y-56886279D01*
X24472989Y-56878407D01*
X24496301Y-56875055D01*
X24518561Y-56867343D01*
X24534634Y-56869543D01*
X24542147Y-56868463D01*
X24553697Y-56870687D01*
X24654697Y-56895156D01*
X24677946Y-56908569D01*
X24702794Y-56918708D01*
X24707748Y-56925763D01*
X24715216Y-56930072D01*
X24727521Y-56953923D01*
X24742945Y-56975888D01*
X24744864Y-56987537D01*
X24747252Y-56992165D01*
X24746657Y-56998416D01*
X24749500Y-57015670D01*
X24749500Y-57049829D01*
X24756154Y-57065892D01*
X24787636Y-57141897D01*
X24858103Y-57212364D01*
X24950172Y-57250500D01*
X24950174Y-57250500D01*
X25049826Y-57250500D01*
X25049828Y-57250500D01*
X25141897Y-57212364D01*
X25212364Y-57141897D01*
X25250500Y-57049828D01*
X25250500Y-57015669D01*
X25258751Y-56987567D01*
X25264303Y-56958814D01*
X25268480Y-56954435D01*
X25270185Y-56948630D01*
X25292313Y-56929455D01*
X25312534Y-56908262D01*
X25319292Y-56906078D01*
X25322989Y-56902875D01*
X25345305Y-56895155D01*
X25446305Y-56870687D01*
X25476302Y-56872125D01*
X25506323Y-56871093D01*
X25510841Y-56873782D01*
X25516094Y-56874034D01*
X25540553Y-56891463D01*
X25566365Y-56906824D01*
X25568712Y-56911529D01*
X25572995Y-56914581D01*
X25584149Y-56942468D01*
X25597558Y-56969344D01*
X25598317Y-56977892D01*
X25598942Y-56979454D01*
X25598609Y-56981176D01*
X25599500Y-56991201D01*
X25599500Y-57049829D01*
X25606154Y-57065892D01*
X25637636Y-57141897D01*
X25708103Y-57212364D01*
X25800172Y-57250500D01*
X25800174Y-57250500D01*
X25899826Y-57250500D01*
X25899828Y-57250500D01*
X25991897Y-57212364D01*
X26062364Y-57141897D01*
X26100500Y-57049828D01*
X26100500Y-56950172D01*
X26062364Y-56858103D01*
X25991897Y-56787636D01*
X25945221Y-56768302D01*
X25908600Y-56753133D01*
X25854197Y-56709291D01*
X25832133Y-56642997D01*
X25849413Y-56575297D01*
X25850516Y-56573475D01*
X25894462Y-56502228D01*
X25946410Y-56455503D01*
X26015372Y-56444282D01*
X26079454Y-56472125D01*
X26105539Y-56502228D01*
X26180056Y-56623039D01*
X26301961Y-56744944D01*
X26301965Y-56744947D01*
X26397311Y-56803758D01*
X26444036Y-56855706D01*
X26455257Y-56924668D01*
X26451691Y-56938155D01*
X26451883Y-56938193D01*
X26449500Y-56950173D01*
X26449500Y-57049829D01*
X26456154Y-57065892D01*
X26487636Y-57141897D01*
X26558103Y-57212364D01*
X26650172Y-57250500D01*
X26650174Y-57250500D01*
X26749826Y-57250500D01*
X26749828Y-57250500D01*
X26841897Y-57212364D01*
X26912364Y-57141897D01*
X26950500Y-57049828D01*
X26950500Y-56950172D01*
X26929718Y-56899999D01*
X27250000Y-56899999D01*
X27263181Y-56913180D01*
X27296666Y-56974503D01*
X27299500Y-57000861D01*
X27299500Y-57049829D01*
X27306154Y-57065892D01*
X27337636Y-57141897D01*
X27408103Y-57212364D01*
X27500172Y-57250500D01*
X27500174Y-57250500D01*
X27599826Y-57250500D01*
X27599828Y-57250500D01*
X27691897Y-57212364D01*
X27762364Y-57141897D01*
X27800500Y-57049828D01*
X27800500Y-56950172D01*
X27762364Y-56858103D01*
X27761298Y-56857037D01*
X27759719Y-56854145D01*
X27755579Y-56847949D01*
X27756133Y-56847578D01*
X27727816Y-56795712D01*
X27732804Y-56726020D01*
X27761303Y-56681678D01*
X27819945Y-56623036D01*
X27894461Y-56502228D01*
X27946409Y-56455504D01*
X28015372Y-56444282D01*
X28079454Y-56472125D01*
X28105539Y-56502228D01*
X28180056Y-56623039D01*
X28238696Y-56681679D01*
X28272181Y-56743002D01*
X28267197Y-56812694D01*
X28238705Y-56857032D01*
X28237640Y-56858096D01*
X28237636Y-56858102D01*
X28199500Y-56950170D01*
X28199500Y-57049829D01*
X28206154Y-57065892D01*
X28237636Y-57141897D01*
X28308103Y-57212364D01*
X28400172Y-57250500D01*
X28400174Y-57250500D01*
X28499826Y-57250500D01*
X28499828Y-57250500D01*
X28591897Y-57212364D01*
X28662364Y-57141897D01*
X28700500Y-57049828D01*
X28700500Y-57000861D01*
X28720185Y-56933823D01*
X28736817Y-56913183D01*
X28750000Y-56899999D01*
X28750000Y-56112500D01*
X27250000Y-56112500D01*
X27250000Y-56899999D01*
X26929718Y-56899999D01*
X26912364Y-56858103D01*
X26841897Y-56787636D01*
X26826544Y-56781276D01*
X26772143Y-56737436D01*
X26750079Y-56671142D01*
X26750000Y-56666717D01*
X26750000Y-56112500D01*
X24025001Y-56112500D01*
X24025001Y-56211654D01*
X24035319Y-56312652D01*
X24089546Y-56476300D01*
X24089548Y-56476305D01*
X24149484Y-56573475D01*
X24167924Y-56640867D01*
X24147002Y-56707531D01*
X24093360Y-56752301D01*
X24091399Y-56753132D01*
X24008105Y-56787634D01*
X24008101Y-56787637D01*
X23937636Y-56858102D01*
X23899500Y-56950170D01*
X23550499Y-56950170D01*
X23512364Y-56858103D01*
X23441897Y-56787636D01*
X23441892Y-56787634D01*
X23349829Y-56749500D01*
X23349828Y-56749500D01*
X23250172Y-56749500D01*
X23250170Y-56749500D01*
X23158102Y-56787636D01*
X23087636Y-56858102D01*
X23049500Y-56950170D01*
X22700499Y-56950170D01*
X22662364Y-56858103D01*
X22591897Y-56787636D01*
X22591892Y-56787634D01*
X22499829Y-56749500D01*
X22499828Y-56749500D01*
X22400172Y-56749500D01*
X22400170Y-56749500D01*
X22308102Y-56787636D01*
X22237637Y-56858101D01*
X22237635Y-56858104D01*
X22221069Y-56898097D01*
X22202264Y-56921430D01*
X22185472Y-56946250D01*
X22180572Y-56948349D01*
X22177227Y-56952500D01*
X22148791Y-56961963D01*
X22121247Y-56973763D01*
X22115989Y-56972879D01*
X22110932Y-56974563D01*
X22081893Y-56967150D01*
X22052343Y-56962186D01*
X22048398Y-56958601D01*
X22043233Y-56957283D01*
X22022812Y-56935348D01*
X22000637Y-56915195D01*
X21997727Y-56908403D01*
X21995624Y-56906144D01*
X21986739Y-56882752D01*
X21986439Y-56881633D01*
X21983474Y-56867179D01*
X21982213Y-56858409D01*
X21982072Y-56858101D01*
X21981683Y-56857248D01*
X21974704Y-56837835D01*
X21966392Y-56806814D01*
X21932308Y-56747778D01*
X21929350Y-56742656D01*
X21922790Y-56728290D01*
X21917593Y-56722292D01*
X21900500Y-56692686D01*
X21836370Y-56628556D01*
X21829114Y-56620182D01*
X21825985Y-56618171D01*
X21807316Y-56599502D01*
X21807314Y-56599500D01*
X21750250Y-56566554D01*
X21693187Y-56533608D01*
X21629539Y-56516554D01*
X21565892Y-56499500D01*
X21565891Y-56499500D01*
X21505413Y-56499500D01*
X21494605Y-56499028D01*
X21348456Y-56486241D01*
X21335071Y-56484330D01*
X21305769Y-56478501D01*
X21297868Y-56476659D01*
X21173072Y-56443220D01*
X21157715Y-56438007D01*
X21140781Y-56430993D01*
X21135828Y-56428813D01*
X21010086Y-56370179D01*
X20991366Y-56359372D01*
X20866416Y-56271881D01*
X20849859Y-56257987D01*
X20742012Y-56150140D01*
X20728118Y-56133583D01*
X20728117Y-56133582D01*
X20640624Y-56008629D01*
X20629819Y-55989912D01*
X20622714Y-55974676D01*
X20571177Y-55864151D01*
X20569006Y-55859218D01*
X20561989Y-55842278D01*
X20556778Y-55826926D01*
X20538829Y-55759938D01*
X20523332Y-55702103D01*
X20521501Y-55694247D01*
X20515665Y-55664907D01*
X20513760Y-55651564D01*
X20500972Y-55505394D01*
X20500500Y-55494588D01*
X20500500Y-49279097D01*
X20520185Y-49212058D01*
X20572989Y-49166303D01*
X20642147Y-49156359D01*
X20705703Y-49185384D01*
G37*
%TD.AperFunction*%
%TA.AperFunction,Conductor*%
G36*
X30015069Y-54720282D02*
G01*
X30015372Y-54720233D01*
X30047136Y-54734034D01*
X30079002Y-54747701D01*
X30079271Y-54747997D01*
X30079454Y-54748077D01*
X30081760Y-54750738D01*
X30102729Y-54773830D01*
X30104171Y-54775964D01*
X30179660Y-54898350D01*
X30202029Y-54920719D01*
X30208677Y-54930553D01*
X30229914Y-54997117D01*
X30211794Y-55064596D01*
X30193629Y-55087681D01*
X30179660Y-55101649D01*
X30179657Y-55101653D01*
X30105244Y-55222295D01*
X30079529Y-55245424D01*
X30053815Y-55268770D01*
X30053518Y-55268819D01*
X30053296Y-55269020D01*
X30019204Y-55274566D01*
X29984905Y-55280312D01*
X29984627Y-55280193D01*
X29984333Y-55280241D01*
X29952616Y-55266460D01*
X29920695Y-55252766D01*
X29920449Y-55252483D01*
X29920252Y-55252398D01*
X29896971Y-55226635D01*
X29790963Y-55069790D01*
X29783810Y-55047366D01*
X29772532Y-55026711D01*
X29773391Y-55014698D01*
X29769731Y-55003224D01*
X29775837Y-54980493D01*
X29777516Y-54957019D01*
X29785466Y-54944647D01*
X29787858Y-54935747D01*
X29795851Y-54928489D01*
X29806017Y-54912672D01*
X29820340Y-54898350D01*
X29894462Y-54778178D01*
X29920253Y-54754981D01*
X29945880Y-54731711D01*
X29946181Y-54731660D01*
X29946409Y-54731456D01*
X29980646Y-54725884D01*
X30014789Y-54720162D01*
X30015069Y-54720282D01*
G37*
%TD.AperFunction*%
%TA.AperFunction,Conductor*%
G36*
X33504042Y-20000765D02*
G01*
X33518399Y-20001705D01*
X33731615Y-20015680D01*
X33741094Y-20016671D01*
X33792679Y-20024088D01*
X33799143Y-20025195D01*
X33995794Y-20064311D01*
X34006485Y-20066938D01*
X34048755Y-20079350D01*
X34053617Y-20080887D01*
X34251997Y-20148228D01*
X34263602Y-20152835D01*
X34286855Y-20163454D01*
X34290182Y-20165034D01*
X34492460Y-20264787D01*
X34506506Y-20272897D01*
X34710460Y-20409174D01*
X34723329Y-20419048D01*
X34907749Y-20580781D01*
X34919218Y-20592250D01*
X35080951Y-20776670D01*
X35090825Y-20789539D01*
X35227102Y-20993493D01*
X35235212Y-21007539D01*
X35334964Y-21209816D01*
X35336544Y-21213143D01*
X35343183Y-21227679D01*
X35347155Y-21236377D01*
X35351780Y-21248027D01*
X35419099Y-21446346D01*
X35420656Y-21451268D01*
X35433054Y-21493490D01*
X35435694Y-21504235D01*
X35474796Y-21700818D01*
X35475917Y-21707362D01*
X35483325Y-21758885D01*
X35484321Y-21768422D01*
X35499234Y-21995941D01*
X35499500Y-22004051D01*
X35499500Y-23494586D01*
X35499028Y-23505394D01*
X35486241Y-23651542D01*
X35484330Y-23664927D01*
X35478501Y-23694229D01*
X35476659Y-23702130D01*
X35443220Y-23826926D01*
X35438007Y-23842282D01*
X35431001Y-23859197D01*
X35428821Y-23864151D01*
X35370176Y-23989917D01*
X35359369Y-24008636D01*
X35271881Y-24133582D01*
X35257987Y-24150140D01*
X35150140Y-24257987D01*
X35133582Y-24271881D01*
X35008636Y-24359369D01*
X34989917Y-24370176D01*
X34864151Y-24428821D01*
X34859197Y-24431001D01*
X34842282Y-24438007D01*
X34826926Y-24443220D01*
X34702130Y-24476659D01*
X34694229Y-24478501D01*
X34664927Y-24484330D01*
X34651542Y-24486241D01*
X34505395Y-24499028D01*
X34494587Y-24499500D01*
X34434108Y-24499500D01*
X34306814Y-24533608D01*
X34306813Y-24533608D01*
X34306811Y-24533609D01*
X34306810Y-24533609D01*
X34192685Y-24599499D01*
X34192683Y-24599501D01*
X34182381Y-24609802D01*
X34174006Y-24618176D01*
X34170886Y-24620182D01*
X34163648Y-24628534D01*
X34160506Y-24631677D01*
X34099503Y-24692682D01*
X34099500Y-24692686D01*
X34088323Y-24712045D01*
X34088322Y-24712045D01*
X34082401Y-24722298D01*
X34077210Y-24728290D01*
X34070657Y-24742639D01*
X34067706Y-24747750D01*
X34067697Y-24747768D01*
X34033607Y-24806815D01*
X34033607Y-24806817D01*
X34025295Y-24837835D01*
X34022614Y-24847837D01*
X34017787Y-24858409D01*
X34015476Y-24874475D01*
X34013573Y-24881581D01*
X34013572Y-24881589D01*
X34013273Y-24882706D01*
X33976923Y-24942375D01*
X33914083Y-24972920D01*
X33844706Y-24964642D01*
X33790817Y-24920171D01*
X33778929Y-24898095D01*
X33766123Y-24867179D01*
X33762364Y-24858103D01*
X33691897Y-24787636D01*
X33599829Y-24749500D01*
X33599828Y-24749500D01*
X33500172Y-24749500D01*
X33500170Y-24749500D01*
X33408102Y-24787636D01*
X33337636Y-24858102D01*
X33299500Y-24950170D01*
X33299500Y-25049829D01*
X33306154Y-25065892D01*
X33337636Y-25141897D01*
X33408103Y-25212364D01*
X33500172Y-25250500D01*
X33500174Y-25250500D01*
X33599826Y-25250500D01*
X33599828Y-25250500D01*
X33691897Y-25212364D01*
X33762364Y-25141897D01*
X33778929Y-25101903D01*
X33797713Y-25078592D01*
X33814478Y-25053789D01*
X33819403Y-25051676D01*
X33822767Y-25047502D01*
X33851177Y-25038045D01*
X33878688Y-25026244D01*
X33883973Y-25027129D01*
X33889061Y-25025436D01*
X33918070Y-25032839D01*
X33947598Y-25037785D01*
X33951567Y-25041388D01*
X33956760Y-25042714D01*
X33977160Y-25064624D01*
X33999328Y-25084750D01*
X34002257Y-25091579D01*
X34004372Y-25093850D01*
X34013243Y-25117186D01*
X34013542Y-25118299D01*
X34016525Y-25132815D01*
X34017787Y-25141591D01*
X34017787Y-25141592D01*
X34017788Y-25141594D01*
X34018319Y-25142756D01*
X34025294Y-25162161D01*
X34033607Y-25193184D01*
X34033608Y-25193186D01*
X34067692Y-25252222D01*
X34070648Y-25257343D01*
X34077210Y-25271710D01*
X34082404Y-25277704D01*
X34096236Y-25301661D01*
X34099499Y-25307313D01*
X34163629Y-25371443D01*
X34170886Y-25379818D01*
X34174014Y-25381828D01*
X34192686Y-25400500D01*
X34306814Y-25466392D01*
X34434108Y-25500500D01*
X34494588Y-25500500D01*
X34505394Y-25500972D01*
X34512947Y-25501632D01*
X34651564Y-25513760D01*
X34664907Y-25515665D01*
X34694247Y-25521501D01*
X34702103Y-25523332D01*
X34826932Y-25556780D01*
X34842278Y-25561989D01*
X34859233Y-25569012D01*
X34864169Y-25571185D01*
X34989916Y-25629821D01*
X35008629Y-25640624D01*
X35133583Y-25728118D01*
X35150140Y-25742012D01*
X35257987Y-25849859D01*
X35271881Y-25866416D01*
X35359372Y-25991366D01*
X35370179Y-26010086D01*
X35428813Y-26135828D01*
X35430992Y-26140779D01*
X35437960Y-26157601D01*
X35445429Y-26227070D01*
X35414154Y-26289549D01*
X35354066Y-26325202D01*
X35284240Y-26322709D01*
X35235718Y-26292735D01*
X35198038Y-26255055D01*
X35198034Y-26255052D01*
X35051311Y-26164551D01*
X35051300Y-26164546D01*
X34887652Y-26110319D01*
X34786654Y-26100000D01*
X34750000Y-26100000D01*
X34750000Y-27013500D01*
X34730315Y-27080539D01*
X34677511Y-27126294D01*
X34626000Y-27137500D01*
X34500000Y-27137500D01*
X34500000Y-27263500D01*
X34480315Y-27330539D01*
X34427511Y-27376294D01*
X34376000Y-27387500D01*
X30525001Y-27387500D01*
X30525001Y-27486654D01*
X30535319Y-27587652D01*
X30589546Y-27751300D01*
X30589551Y-27751311D01*
X30680052Y-27898034D01*
X30680055Y-27898038D01*
X30693982Y-27911965D01*
X30727467Y-27973288D01*
X30722483Y-28042980D01*
X30693984Y-28087325D01*
X30679661Y-28101648D01*
X30589093Y-28248481D01*
X30589091Y-28248486D01*
X30561719Y-28331088D01*
X30534826Y-28412247D01*
X30534826Y-28412248D01*
X30534825Y-28412248D01*
X30524500Y-28513315D01*
X30524500Y-29211669D01*
X30524501Y-29211687D01*
X30534825Y-29312752D01*
X30571109Y-29422249D01*
X30589092Y-29476516D01*
X30679660Y-29623350D01*
X30801650Y-29745340D01*
X30948484Y-29835908D01*
X31112247Y-29890174D01*
X31213323Y-29900500D01*
X31786676Y-29900499D01*
X31786684Y-29900498D01*
X31786687Y-29900498D01*
X31842030Y-29894844D01*
X31887753Y-29890174D01*
X32051516Y-29835908D01*
X32184903Y-29753633D01*
X32252295Y-29735193D01*
X32315097Y-29753634D01*
X32448475Y-29835903D01*
X32448478Y-29835904D01*
X32448484Y-29835908D01*
X32612247Y-29890174D01*
X32713323Y-29900500D01*
X33286676Y-29900499D01*
X33286684Y-29900498D01*
X33286687Y-29900498D01*
X33342030Y-29894844D01*
X33387753Y-29890174D01*
X33551516Y-29835908D01*
X33610404Y-29799585D01*
X33677795Y-29781145D01*
X33744458Y-29802067D01*
X33789228Y-29855709D01*
X33799500Y-29905124D01*
X33799500Y-31700500D01*
X33779815Y-31767539D01*
X33727011Y-31813294D01*
X33675500Y-31824500D01*
X33284298Y-31824500D01*
X33247432Y-31827401D01*
X33247426Y-31827402D01*
X33089606Y-31873254D01*
X33089603Y-31873255D01*
X32948137Y-31956917D01*
X32948129Y-31956923D01*
X32831923Y-32073129D01*
X32831917Y-32073137D01*
X32748255Y-32214603D01*
X32748254Y-32214606D01*
X32702402Y-32372426D01*
X32702401Y-32372432D01*
X32699500Y-32409298D01*
X32699500Y-33715701D01*
X32702401Y-33752567D01*
X32702402Y-33752573D01*
X32748254Y-33910393D01*
X32748255Y-33910396D01*
X32748256Y-33910398D01*
X32782732Y-33968694D01*
X32800000Y-34031814D01*
X32800000Y-34687500D01*
X33350000Y-34687500D01*
X33350000Y-34424500D01*
X33352550Y-34415814D01*
X33351262Y-34406853D01*
X33362240Y-34382812D01*
X33369685Y-34357461D01*
X33376525Y-34351533D01*
X33380287Y-34343297D01*
X33402521Y-34329007D01*
X33422489Y-34311706D01*
X33433003Y-34309418D01*
X33439065Y-34305523D01*
X33474000Y-34300500D01*
X33525500Y-34300500D01*
X33592539Y-34320185D01*
X33638294Y-34372989D01*
X33649500Y-34424500D01*
X33649500Y-35590701D01*
X33652401Y-35627567D01*
X33652402Y-35627573D01*
X33698254Y-35785393D01*
X33698255Y-35785396D01*
X33698256Y-35785398D01*
X33780172Y-35923911D01*
X33782232Y-35927394D01*
X33799500Y-35990515D01*
X33799500Y-37501959D01*
X33779815Y-37568998D01*
X33727011Y-37614753D01*
X33657853Y-37624697D01*
X33637184Y-37619891D01*
X33613554Y-37612213D01*
X33466292Y-37588889D01*
X33438579Y-37584500D01*
X33261421Y-37584500D01*
X33203095Y-37593738D01*
X33086443Y-37612214D01*
X32917960Y-37666956D01*
X32917957Y-37666957D01*
X32760109Y-37747386D01*
X32687499Y-37800141D01*
X32616786Y-37851517D01*
X32616784Y-37851519D01*
X32616783Y-37851519D01*
X32580481Y-37887822D01*
X32519158Y-37921307D01*
X32449466Y-37916323D01*
X32393533Y-37874451D01*
X32369116Y-37808987D01*
X32368800Y-37800141D01*
X32368800Y-36172295D01*
X32800000Y-36172295D01*
X32800001Y-36172295D01*
X32802486Y-36172100D01*
X32960198Y-36126281D01*
X33101552Y-36042685D01*
X33101561Y-36042678D01*
X33217678Y-35926561D01*
X33217685Y-35926552D01*
X33301282Y-35785196D01*
X33301283Y-35785193D01*
X33347099Y-35627495D01*
X33347100Y-35627489D01*
X33349999Y-35590649D01*
X33350000Y-35590634D01*
X33350000Y-35187500D01*
X32800000Y-35187500D01*
X32800000Y-36172295D01*
X32368800Y-36172295D01*
X32368800Y-35996400D01*
X32336319Y-35963919D01*
X32302834Y-35902596D01*
X32300000Y-35876238D01*
X32300000Y-35090009D01*
X32300500Y-35079841D01*
X32300500Y-34920168D01*
X32300000Y-34909990D01*
X32300000Y-33702703D01*
X32297503Y-33702900D01*
X32139806Y-33748716D01*
X32139803Y-33748717D01*
X31998447Y-33832314D01*
X31998438Y-33832321D01*
X31882321Y-33948438D01*
X31882314Y-33948447D01*
X31798717Y-34089803D01*
X31798716Y-34089804D01*
X31788304Y-34125645D01*
X31770668Y-34153258D01*
X31754042Y-34181507D01*
X31751954Y-34182561D01*
X31750697Y-34184530D01*
X31720937Y-34198223D01*
X31691673Y-34213001D01*
X31688866Y-34212980D01*
X31687225Y-34213736D01*
X31656406Y-34214384D01*
X31650671Y-34213787D01*
X31578842Y-34199500D01*
X31513239Y-34199500D01*
X31506842Y-34198835D01*
X31480224Y-34187919D01*
X31452625Y-34179815D01*
X31448304Y-34174828D01*
X31442197Y-34172324D01*
X31425704Y-34148747D01*
X31406870Y-34127011D01*
X31404527Y-34118474D01*
X31402148Y-34115072D01*
X31401906Y-34108920D01*
X31396374Y-34088754D01*
X31396170Y-34086857D01*
X31394091Y-34067517D01*
X31349681Y-33948447D01*
X31343797Y-33932671D01*
X31343793Y-33932664D01*
X31257547Y-33817455D01*
X31257544Y-33817452D01*
X31142335Y-33731206D01*
X31142328Y-33731202D01*
X31007486Y-33680910D01*
X31007485Y-33680909D01*
X31007483Y-33680909D01*
X30947873Y-33674500D01*
X30947863Y-33674500D01*
X30552130Y-33674500D01*
X30552119Y-33674501D01*
X30513253Y-33678679D01*
X30486748Y-33678679D01*
X30447874Y-33674500D01*
X30052130Y-33674500D01*
X30052119Y-33674501D01*
X30013253Y-33678679D01*
X29995329Y-33679301D01*
X29991018Y-33679138D01*
X29947873Y-33674500D01*
X29868023Y-33674500D01*
X29865690Y-33674412D01*
X29834682Y-33664022D01*
X29803324Y-33654815D01*
X29801504Y-33652906D01*
X29799440Y-33652215D01*
X29791971Y-33642908D01*
X29762975Y-33612499D01*
X29730520Y-33556284D01*
X28487079Y-32312844D01*
X30985000Y-32312844D01*
X30991401Y-32372372D01*
X30991403Y-32372379D01*
X31041645Y-32507086D01*
X31041649Y-32507093D01*
X31127809Y-32622187D01*
X31127812Y-32622190D01*
X31242906Y-32708350D01*
X31242913Y-32708354D01*
X31377620Y-32758596D01*
X31377627Y-32758598D01*
X31437155Y-32764999D01*
X31437172Y-32765000D01*
X31485000Y-32765000D01*
X31785000Y-32765000D01*
X31832828Y-32765000D01*
X31832844Y-32764999D01*
X31892372Y-32758598D01*
X31892379Y-32758596D01*
X32027086Y-32708354D01*
X32027093Y-32708350D01*
X32142187Y-32622190D01*
X32142190Y-32622187D01*
X32228350Y-32507093D01*
X32228354Y-32507086D01*
X32278596Y-32372379D01*
X32278598Y-32372372D01*
X32284999Y-32312844D01*
X32285000Y-32312827D01*
X32285000Y-31840000D01*
X31785000Y-31840000D01*
X31785000Y-32765000D01*
X31485000Y-32765000D01*
X31485000Y-31840000D01*
X30985000Y-31840000D01*
X30985000Y-32312844D01*
X28487079Y-32312844D01*
X28055521Y-31881286D01*
X28055520Y-31881284D01*
X27943716Y-31769480D01*
X27856904Y-31719360D01*
X27856904Y-31719359D01*
X27856900Y-31719358D01*
X27806785Y-31690423D01*
X27654057Y-31649499D01*
X27495943Y-31649499D01*
X27488347Y-31649499D01*
X27488331Y-31649500D01*
X25488140Y-31649500D01*
X25488124Y-31649499D01*
X25480528Y-31649499D01*
X25322414Y-31649499D01*
X25206260Y-31680622D01*
X25185427Y-31686205D01*
X25185426Y-31686205D01*
X25169686Y-31690423D01*
X25119566Y-31719360D01*
X25032755Y-31769480D01*
X25032446Y-31769788D01*
X25032444Y-31769790D01*
X24998554Y-31803681D01*
X24937231Y-31837166D01*
X24910873Y-31840000D01*
X23715000Y-31840000D01*
X23715000Y-32312844D01*
X23721401Y-32372372D01*
X23721403Y-32372379D01*
X23771645Y-32507086D01*
X23771649Y-32507093D01*
X23857808Y-32622186D01*
X23927533Y-32674382D01*
X23969404Y-32730316D01*
X23974388Y-32800008D01*
X23940903Y-32861330D01*
X20712181Y-36090053D01*
X20650858Y-36123538D01*
X20581166Y-36118554D01*
X20525233Y-36076682D01*
X20500816Y-36011218D01*
X20500500Y-36002372D01*
X20500500Y-31067155D01*
X23715000Y-31067155D01*
X23715000Y-31540000D01*
X24215000Y-31540000D01*
X24515000Y-31540000D01*
X24935786Y-31540000D01*
X25015000Y-31496719D01*
X25015000Y-31067172D01*
X25014999Y-31067155D01*
X30985000Y-31067155D01*
X30985000Y-31540000D01*
X31485000Y-31540000D01*
X31785000Y-31540000D01*
X32285000Y-31540000D01*
X32285000Y-31067172D01*
X32284999Y-31067155D01*
X32278598Y-31007627D01*
X32278596Y-31007620D01*
X32228354Y-30872913D01*
X32228350Y-30872906D01*
X32142190Y-30757812D01*
X32142187Y-30757809D01*
X32027093Y-30671649D01*
X32027086Y-30671645D01*
X31892379Y-30621403D01*
X31892372Y-30621401D01*
X31832844Y-30615000D01*
X31785000Y-30615000D01*
X31785000Y-31540000D01*
X31485000Y-31540000D01*
X31485000Y-30615000D01*
X31437155Y-30615000D01*
X31377627Y-30621401D01*
X31377620Y-30621403D01*
X31242913Y-30671645D01*
X31242906Y-30671649D01*
X31127812Y-30757809D01*
X31127809Y-30757812D01*
X31041649Y-30872906D01*
X31041645Y-30872913D01*
X30991403Y-31007620D01*
X30991401Y-31007627D01*
X30985000Y-31067155D01*
X25014999Y-31067155D01*
X25008598Y-31007627D01*
X25008596Y-31007620D01*
X24958354Y-30872913D01*
X24958350Y-30872906D01*
X24872190Y-30757812D01*
X24872187Y-30757809D01*
X24757093Y-30671649D01*
X24757086Y-30671645D01*
X24622379Y-30621403D01*
X24622372Y-30621401D01*
X24562844Y-30615000D01*
X24515000Y-30615000D01*
X24515000Y-31540000D01*
X24215000Y-31540000D01*
X24215000Y-30615000D01*
X24167155Y-30615000D01*
X24107627Y-30621401D01*
X24107620Y-30621403D01*
X23972913Y-30671645D01*
X23972906Y-30671649D01*
X23857812Y-30757809D01*
X23857809Y-30757812D01*
X23771649Y-30872906D01*
X23771645Y-30872913D01*
X23721403Y-31007620D01*
X23721401Y-31007627D01*
X23715000Y-31067155D01*
X20500500Y-31067155D01*
X20500500Y-29743552D01*
X20520185Y-29676513D01*
X20572989Y-29630758D01*
X20642147Y-29620814D01*
X20705703Y-29649839D01*
X20712181Y-29655871D01*
X20801650Y-29745340D01*
X20948484Y-29835908D01*
X21112247Y-29890174D01*
X21213323Y-29900500D01*
X21786676Y-29900499D01*
X21786684Y-29900498D01*
X21786687Y-29900498D01*
X21842030Y-29894844D01*
X21887753Y-29890174D01*
X22051516Y-29835908D01*
X22185380Y-29753339D01*
X22252772Y-29734900D01*
X22315573Y-29753341D01*
X22448688Y-29835448D01*
X22448699Y-29835453D01*
X22612347Y-29889680D01*
X22713352Y-29899999D01*
X22750000Y-29899999D01*
X23250000Y-29899999D01*
X23286640Y-29899999D01*
X23286654Y-29899998D01*
X23387652Y-29889680D01*
X23551300Y-29835453D01*
X23551307Y-29835450D01*
X23684902Y-29753047D01*
X23752295Y-29734606D01*
X23815098Y-29753047D01*
X23948692Y-29835450D01*
X23948699Y-29835453D01*
X24112347Y-29889680D01*
X24213352Y-29899999D01*
X24250000Y-29899999D01*
X24750000Y-29899999D01*
X24786640Y-29899999D01*
X24786654Y-29899998D01*
X24887652Y-29889680D01*
X25051300Y-29835453D01*
X25051311Y-29835448D01*
X25198034Y-29744947D01*
X25198038Y-29744944D01*
X25319944Y-29623038D01*
X25319947Y-29623034D01*
X25410448Y-29476311D01*
X25410453Y-29476300D01*
X25464680Y-29312652D01*
X25474999Y-29211654D01*
X25475000Y-29211641D01*
X25475000Y-29112500D01*
X24750000Y-29112500D01*
X24750000Y-29899999D01*
X24250000Y-29899999D01*
X24250000Y-29112500D01*
X23250000Y-29112500D01*
X23250000Y-29899999D01*
X22750000Y-29899999D01*
X22750000Y-28986500D01*
X22769685Y-28919461D01*
X22822489Y-28873706D01*
X22874000Y-28862500D01*
X23000000Y-28862500D01*
X23000000Y-28736500D01*
X23019685Y-28669461D01*
X23072489Y-28623706D01*
X23124000Y-28612500D01*
X25474999Y-28612500D01*
X25474999Y-28513360D01*
X25474998Y-28513345D01*
X25464680Y-28412347D01*
X25410453Y-28248699D01*
X25410448Y-28248688D01*
X25319947Y-28101965D01*
X25319944Y-28101961D01*
X25306017Y-28088034D01*
X25272532Y-28026711D01*
X25277516Y-27957019D01*
X25306017Y-27912672D01*
X25320340Y-27898350D01*
X25410908Y-27751516D01*
X25465174Y-27587753D01*
X25475500Y-27486677D01*
X25475499Y-26788345D01*
X30525000Y-26788345D01*
X30525000Y-26887500D01*
X31250000Y-26887500D01*
X31750000Y-26887500D01*
X32750000Y-26887500D01*
X33250000Y-26887500D01*
X34250000Y-26887500D01*
X34250000Y-26100000D01*
X34213361Y-26100000D01*
X34213343Y-26100001D01*
X34112347Y-26110319D01*
X33948699Y-26164546D01*
X33948694Y-26164548D01*
X33815097Y-26246953D01*
X33747705Y-26265393D01*
X33684903Y-26246953D01*
X33551305Y-26164548D01*
X33551300Y-26164546D01*
X33387652Y-26110319D01*
X33286654Y-26100000D01*
X33250000Y-26100000D01*
X33250000Y-26887500D01*
X32750000Y-26887500D01*
X32750000Y-26100000D01*
X32713361Y-26100000D01*
X32713343Y-26100001D01*
X32612347Y-26110319D01*
X32448699Y-26164546D01*
X32448694Y-26164548D01*
X32315097Y-26246953D01*
X32247705Y-26265393D01*
X32184903Y-26246953D01*
X32051305Y-26164548D01*
X32051300Y-26164546D01*
X31887652Y-26110319D01*
X31786654Y-26100000D01*
X31750000Y-26100000D01*
X31750000Y-26887500D01*
X31250000Y-26887500D01*
X31250000Y-26100000D01*
X31213361Y-26100000D01*
X31213343Y-26100001D01*
X31112347Y-26110319D01*
X30948699Y-26164546D01*
X30948688Y-26164551D01*
X30801965Y-26255052D01*
X30801961Y-26255055D01*
X30680055Y-26376961D01*
X30680052Y-26376965D01*
X30589551Y-26523688D01*
X30589546Y-26523699D01*
X30535319Y-26687347D01*
X30525000Y-26788345D01*
X25475499Y-26788345D01*
X25475499Y-26788324D01*
X25465174Y-26687247D01*
X25410908Y-26523484D01*
X25320340Y-26376650D01*
X25198350Y-26254660D01*
X25094483Y-26190594D01*
X25051518Y-26164093D01*
X25051513Y-26164091D01*
X25033587Y-26158151D01*
X24887753Y-26109826D01*
X24887751Y-26109825D01*
X24786678Y-26099500D01*
X24213330Y-26099500D01*
X24213312Y-26099501D01*
X24112247Y-26109825D01*
X23948484Y-26164092D01*
X23948481Y-26164093D01*
X23815097Y-26246366D01*
X23747704Y-26264806D01*
X23684903Y-26246366D01*
X23667205Y-26235450D01*
X23594483Y-26190594D01*
X23551518Y-26164093D01*
X23551513Y-26164091D01*
X23533587Y-26158151D01*
X23387753Y-26109826D01*
X23387751Y-26109825D01*
X23286678Y-26099500D01*
X22713330Y-26099500D01*
X22713312Y-26099501D01*
X22612247Y-26109825D01*
X22448484Y-26164092D01*
X22448481Y-26164093D01*
X22315097Y-26246366D01*
X22247704Y-26264806D01*
X22184903Y-26246366D01*
X22167205Y-26235450D01*
X22094483Y-26190594D01*
X22051518Y-26164093D01*
X22051513Y-26164091D01*
X22033587Y-26158151D01*
X21887753Y-26109826D01*
X21887751Y-26109825D01*
X21786678Y-26099500D01*
X21213330Y-26099500D01*
X21213312Y-26099501D01*
X21112247Y-26109825D01*
X20948484Y-26164092D01*
X20948481Y-26164093D01*
X20801648Y-26254661D01*
X20764779Y-26291530D01*
X20754889Y-26296930D01*
X20747820Y-26305703D01*
X20724776Y-26313372D01*
X20703456Y-26325015D01*
X20692215Y-26324210D01*
X20681526Y-26327769D01*
X20657990Y-26321762D01*
X20633764Y-26320029D01*
X20624745Y-26313277D01*
X20613827Y-26310491D01*
X20597274Y-26292712D01*
X20577831Y-26278157D01*
X20573893Y-26267600D01*
X20566216Y-26259354D01*
X20561902Y-26235450D01*
X20553415Y-26212693D01*
X20555488Y-26199899D01*
X20553809Y-26190594D01*
X20562534Y-26156405D01*
X20569029Y-26140726D01*
X20571162Y-26135880D01*
X20629822Y-26010080D01*
X20640628Y-25991366D01*
X20728118Y-25866417D01*
X20742006Y-25849865D01*
X20849865Y-25742006D01*
X20866417Y-25728118D01*
X20991366Y-25640628D01*
X21010080Y-25629822D01*
X21135880Y-25571162D01*
X21140747Y-25569020D01*
X21157725Y-25561987D01*
X21173058Y-25556782D01*
X21297910Y-25523329D01*
X21305739Y-25521503D01*
X21335097Y-25515664D01*
X21348430Y-25513760D01*
X21487871Y-25501561D01*
X21494606Y-25500972D01*
X21505412Y-25500500D01*
X21565890Y-25500500D01*
X21565892Y-25500500D01*
X21693186Y-25466392D01*
X21807314Y-25400500D01*
X21825985Y-25381828D01*
X21829114Y-25379818D01*
X21836361Y-25371452D01*
X21900500Y-25307314D01*
X21917595Y-25277703D01*
X21922790Y-25271710D01*
X21929345Y-25257351D01*
X21966392Y-25193186D01*
X21977382Y-25152167D01*
X21982213Y-25141591D01*
X21984522Y-25125520D01*
X21986741Y-25117238D01*
X22023117Y-25057587D01*
X22085970Y-25027070D01*
X22155344Y-25035378D01*
X22209213Y-25079874D01*
X22221069Y-25101903D01*
X22237634Y-25141894D01*
X22237635Y-25141896D01*
X22237636Y-25141897D01*
X22308103Y-25212364D01*
X22400172Y-25250500D01*
X22400174Y-25250500D01*
X22499826Y-25250500D01*
X22499828Y-25250500D01*
X22591897Y-25212364D01*
X22662364Y-25141897D01*
X22700500Y-25049828D01*
X22700500Y-24950172D01*
X22700499Y-24950170D01*
X23049500Y-24950170D01*
X23049500Y-25049829D01*
X23056154Y-25065892D01*
X23087636Y-25141897D01*
X23158103Y-25212364D01*
X23250172Y-25250500D01*
X23250174Y-25250500D01*
X23349826Y-25250500D01*
X23349828Y-25250500D01*
X23441897Y-25212364D01*
X23512364Y-25141897D01*
X23550500Y-25049828D01*
X23550500Y-24950172D01*
X23550499Y-24950170D01*
X23899500Y-24950170D01*
X23899500Y-25049829D01*
X23906154Y-25065892D01*
X23937636Y-25141897D01*
X24008103Y-25212364D01*
X24100172Y-25250500D01*
X24100174Y-25250500D01*
X24199826Y-25250500D01*
X24199828Y-25250500D01*
X24291897Y-25212364D01*
X24362364Y-25141897D01*
X24400500Y-25049828D01*
X24400500Y-24950172D01*
X24400499Y-24950170D01*
X24749500Y-24950170D01*
X24749500Y-25049829D01*
X24756154Y-25065892D01*
X24787636Y-25141897D01*
X24858103Y-25212364D01*
X24950172Y-25250500D01*
X24950174Y-25250500D01*
X25049826Y-25250500D01*
X25049828Y-25250500D01*
X25141897Y-25212364D01*
X25212364Y-25141897D01*
X25250500Y-25049828D01*
X25250500Y-24950172D01*
X25250499Y-24950170D01*
X25599500Y-24950170D01*
X25599500Y-25049829D01*
X25606154Y-25065892D01*
X25637636Y-25141897D01*
X25708103Y-25212364D01*
X25800172Y-25250500D01*
X25800174Y-25250500D01*
X25899826Y-25250500D01*
X25899828Y-25250500D01*
X25991897Y-25212364D01*
X26062364Y-25141897D01*
X26100500Y-25049828D01*
X26100500Y-24950172D01*
X26100499Y-24950170D01*
X26449500Y-24950170D01*
X26449500Y-25049829D01*
X26456154Y-25065892D01*
X26487636Y-25141897D01*
X26558103Y-25212364D01*
X26650172Y-25250500D01*
X26650174Y-25250500D01*
X26749826Y-25250500D01*
X26749828Y-25250500D01*
X26841897Y-25212364D01*
X26912364Y-25141897D01*
X26950500Y-25049828D01*
X26950500Y-24950172D01*
X26950499Y-24950170D01*
X27299500Y-24950170D01*
X27299500Y-25049829D01*
X27306154Y-25065892D01*
X27337636Y-25141897D01*
X27408103Y-25212364D01*
X27500172Y-25250500D01*
X27500174Y-25250500D01*
X27599826Y-25250500D01*
X27599828Y-25250500D01*
X27691897Y-25212364D01*
X27762364Y-25141897D01*
X27800500Y-25049828D01*
X27800500Y-24950172D01*
X27800499Y-24950170D01*
X28199500Y-24950170D01*
X28199500Y-25049829D01*
X28206154Y-25065892D01*
X28237636Y-25141897D01*
X28308103Y-25212364D01*
X28400172Y-25250500D01*
X28400174Y-25250500D01*
X28499826Y-25250500D01*
X28499828Y-25250500D01*
X28591897Y-25212364D01*
X28662364Y-25141897D01*
X28700500Y-25049828D01*
X28700500Y-24950172D01*
X28700499Y-24950170D01*
X29049500Y-24950170D01*
X29049500Y-25049829D01*
X29056154Y-25065892D01*
X29087636Y-25141897D01*
X29158103Y-25212364D01*
X29250172Y-25250500D01*
X29250174Y-25250500D01*
X29349826Y-25250500D01*
X29349828Y-25250500D01*
X29441897Y-25212364D01*
X29512364Y-25141897D01*
X29550500Y-25049828D01*
X29550500Y-24950172D01*
X29550499Y-24950170D01*
X29899500Y-24950170D01*
X29899500Y-25049829D01*
X29906154Y-25065892D01*
X29937636Y-25141897D01*
X30008103Y-25212364D01*
X30100172Y-25250500D01*
X30100174Y-25250500D01*
X30199826Y-25250500D01*
X30199828Y-25250500D01*
X30291897Y-25212364D01*
X30362364Y-25141897D01*
X30400500Y-25049828D01*
X30400500Y-24950172D01*
X30400499Y-24950170D01*
X30749500Y-24950170D01*
X30749500Y-25049829D01*
X30756154Y-25065892D01*
X30787636Y-25141897D01*
X30858103Y-25212364D01*
X30950172Y-25250500D01*
X30950174Y-25250500D01*
X31049826Y-25250500D01*
X31049828Y-25250500D01*
X31141897Y-25212364D01*
X31212364Y-25141897D01*
X31250500Y-25049828D01*
X31250500Y-24950172D01*
X31250499Y-24950170D01*
X31599500Y-24950170D01*
X31599500Y-25049829D01*
X31606154Y-25065892D01*
X31637636Y-25141897D01*
X31708103Y-25212364D01*
X31800172Y-25250500D01*
X31800174Y-25250500D01*
X31899826Y-25250500D01*
X31899828Y-25250500D01*
X31991897Y-25212364D01*
X32062364Y-25141897D01*
X32100500Y-25049828D01*
X32100500Y-24950172D01*
X32100499Y-24950170D01*
X32449500Y-24950170D01*
X32449500Y-25049829D01*
X32456154Y-25065892D01*
X32487636Y-25141897D01*
X32558103Y-25212364D01*
X32650172Y-25250500D01*
X32650174Y-25250500D01*
X32749826Y-25250500D01*
X32749828Y-25250500D01*
X32841897Y-25212364D01*
X32912364Y-25141897D01*
X32950500Y-25049828D01*
X32950500Y-24950172D01*
X32912364Y-24858103D01*
X32841897Y-24787636D01*
X32749829Y-24749500D01*
X32749828Y-24749500D01*
X32650172Y-24749500D01*
X32650170Y-24749500D01*
X32558102Y-24787636D01*
X32487636Y-24858102D01*
X32449500Y-24950170D01*
X32100499Y-24950170D01*
X32062364Y-24858103D01*
X31991897Y-24787636D01*
X31899829Y-24749500D01*
X31899828Y-24749500D01*
X31800172Y-24749500D01*
X31800170Y-24749500D01*
X31708102Y-24787636D01*
X31637636Y-24858102D01*
X31599500Y-24950170D01*
X31250499Y-24950170D01*
X31212364Y-24858103D01*
X31141897Y-24787636D01*
X31049829Y-24749500D01*
X31049828Y-24749500D01*
X30950172Y-24749500D01*
X30950170Y-24749500D01*
X30858102Y-24787636D01*
X30787636Y-24858102D01*
X30749500Y-24950170D01*
X30400499Y-24950170D01*
X30362364Y-24858103D01*
X30291897Y-24787636D01*
X30199829Y-24749500D01*
X30199828Y-24749500D01*
X30100172Y-24749500D01*
X30100170Y-24749500D01*
X30008102Y-24787636D01*
X29937636Y-24858102D01*
X29899500Y-24950170D01*
X29550499Y-24950170D01*
X29512364Y-24858103D01*
X29441897Y-24787636D01*
X29349829Y-24749500D01*
X29349828Y-24749500D01*
X29250172Y-24749500D01*
X29250170Y-24749500D01*
X29158102Y-24787636D01*
X29087636Y-24858102D01*
X29049500Y-24950170D01*
X28700499Y-24950170D01*
X28662364Y-24858103D01*
X28591897Y-24787636D01*
X28499829Y-24749500D01*
X28499828Y-24749500D01*
X28400172Y-24749500D01*
X28400170Y-24749500D01*
X28308102Y-24787636D01*
X28237636Y-24858102D01*
X28199500Y-24950170D01*
X27800499Y-24950170D01*
X27762364Y-24858103D01*
X27691897Y-24787636D01*
X27599829Y-24749500D01*
X27599828Y-24749500D01*
X27500172Y-24749500D01*
X27500170Y-24749500D01*
X27408102Y-24787636D01*
X27337636Y-24858102D01*
X27299500Y-24950170D01*
X26950499Y-24950170D01*
X26912364Y-24858103D01*
X26841897Y-24787636D01*
X26749829Y-24749500D01*
X26749828Y-24749500D01*
X26650172Y-24749500D01*
X26650170Y-24749500D01*
X26558102Y-24787636D01*
X26487636Y-24858102D01*
X26449500Y-24950170D01*
X26100499Y-24950170D01*
X26062364Y-24858103D01*
X25991897Y-24787636D01*
X25899829Y-24749500D01*
X25899828Y-24749500D01*
X25800172Y-24749500D01*
X25800170Y-24749500D01*
X25708102Y-24787636D01*
X25637636Y-24858102D01*
X25599500Y-24950170D01*
X25250499Y-24950170D01*
X25212364Y-24858103D01*
X25141897Y-24787636D01*
X25049829Y-24749500D01*
X25049828Y-24749500D01*
X24950172Y-24749500D01*
X24950170Y-24749500D01*
X24858102Y-24787636D01*
X24787636Y-24858102D01*
X24749500Y-24950170D01*
X24400499Y-24950170D01*
X24362364Y-24858103D01*
X24291897Y-24787636D01*
X24199829Y-24749500D01*
X24199828Y-24749500D01*
X24100172Y-24749500D01*
X24100170Y-24749500D01*
X24008102Y-24787636D01*
X23937636Y-24858102D01*
X23899500Y-24950170D01*
X23550499Y-24950170D01*
X23512364Y-24858103D01*
X23441897Y-24787636D01*
X23349829Y-24749500D01*
X23349828Y-24749500D01*
X23250172Y-24749500D01*
X23250170Y-24749500D01*
X23158102Y-24787636D01*
X23087636Y-24858102D01*
X23049500Y-24950170D01*
X22700499Y-24950170D01*
X22662364Y-24858103D01*
X22591897Y-24787636D01*
X22499829Y-24749500D01*
X22499828Y-24749500D01*
X22400172Y-24749500D01*
X22400170Y-24749500D01*
X22308102Y-24787636D01*
X22237637Y-24858101D01*
X22237635Y-24858104D01*
X22221069Y-24898097D01*
X22202264Y-24921430D01*
X22185472Y-24946250D01*
X22180572Y-24948349D01*
X22177227Y-24952500D01*
X22148791Y-24961963D01*
X22121247Y-24973763D01*
X22115989Y-24972879D01*
X22110932Y-24974563D01*
X22081893Y-24967150D01*
X22052343Y-24962186D01*
X22048398Y-24958601D01*
X22043233Y-24957283D01*
X22022812Y-24935348D01*
X22000637Y-24915195D01*
X21997727Y-24908403D01*
X21995624Y-24906144D01*
X21986739Y-24882752D01*
X21986439Y-24881633D01*
X21983474Y-24867179D01*
X21982213Y-24858409D01*
X21982072Y-24858101D01*
X21981683Y-24857248D01*
X21974704Y-24837835D01*
X21966392Y-24806814D01*
X21932308Y-24747778D01*
X21929350Y-24742656D01*
X21922790Y-24728290D01*
X21917593Y-24722292D01*
X21900500Y-24692686D01*
X21836370Y-24628556D01*
X21829114Y-24620182D01*
X21825985Y-24618171D01*
X21807316Y-24599502D01*
X21807314Y-24599500D01*
X21750250Y-24566554D01*
X21693187Y-24533608D01*
X21629539Y-24516554D01*
X21565892Y-24499500D01*
X21565891Y-24499500D01*
X21505413Y-24499500D01*
X21494605Y-24499028D01*
X21348456Y-24486241D01*
X21335071Y-24484330D01*
X21305769Y-24478501D01*
X21297868Y-24476659D01*
X21173072Y-24443220D01*
X21157715Y-24438007D01*
X21140781Y-24430993D01*
X21135828Y-24428813D01*
X21010086Y-24370179D01*
X20991366Y-24359372D01*
X20866416Y-24271881D01*
X20849859Y-24257987D01*
X20742012Y-24150140D01*
X20728118Y-24133583D01*
X20640626Y-24008632D01*
X20629819Y-23989912D01*
X20571185Y-23864169D01*
X20569006Y-23859218D01*
X20561989Y-23842278D01*
X20556778Y-23826926D01*
X20538829Y-23759938D01*
X20523332Y-23702103D01*
X20521501Y-23694247D01*
X20515665Y-23664907D01*
X20513760Y-23651564D01*
X20500972Y-23505394D01*
X20500500Y-23494588D01*
X20500500Y-22004066D01*
X20500765Y-21995957D01*
X20500858Y-21994536D01*
X20515681Y-21768378D01*
X20516670Y-21758911D01*
X20524090Y-21707308D01*
X20525193Y-21700868D01*
X20564313Y-21504194D01*
X20566935Y-21493524D01*
X20579358Y-21451216D01*
X20580878Y-21446410D01*
X20648233Y-21247988D01*
X20652829Y-21236410D01*
X20663481Y-21213084D01*
X20665016Y-21209853D01*
X20764789Y-21007533D01*
X20772897Y-20993493D01*
X20909174Y-20789539D01*
X20919039Y-20776681D01*
X21080786Y-20592244D01*
X21092244Y-20580786D01*
X21276681Y-20419039D01*
X21289534Y-20409177D01*
X21493493Y-20272897D01*
X21507533Y-20264789D01*
X21709853Y-20165016D01*
X21713084Y-20163481D01*
X21736410Y-20152829D01*
X21747988Y-20148233D01*
X21946410Y-20080878D01*
X21951216Y-20079358D01*
X21993524Y-20066935D01*
X22004194Y-20064313D01*
X22200868Y-20025193D01*
X22207308Y-20024090D01*
X22258911Y-20016670D01*
X22268378Y-20015681D01*
X22483057Y-20001610D01*
X22495958Y-20000765D01*
X22504067Y-20000500D01*
X33495933Y-20000500D01*
X33504042Y-20000765D01*
G37*
%TD.AperFunction*%
%TA.AperFunction,Conductor*%
G36*
X27341942Y-32870185D02*
G01*
X27362584Y-32886819D01*
X27938584Y-33462819D01*
X27972069Y-33524142D01*
X27967085Y-33593834D01*
X27925213Y-33649767D01*
X27859749Y-33674184D01*
X27850903Y-33674500D01*
X27552131Y-33674500D01*
X27552119Y-33674501D01*
X27513253Y-33678679D01*
X27486748Y-33678679D01*
X27447874Y-33674500D01*
X27052130Y-33674500D01*
X27052119Y-33674501D01*
X27013253Y-33678679D01*
X26986748Y-33678679D01*
X26947874Y-33674500D01*
X26552130Y-33674500D01*
X26552119Y-33674501D01*
X26513253Y-33678679D01*
X26486748Y-33678679D01*
X26447874Y-33674500D01*
X26052132Y-33674500D01*
X26052117Y-33674501D01*
X26010904Y-33678931D01*
X25989803Y-33679392D01*
X25916649Y-33674751D01*
X25887356Y-33664093D01*
X25857461Y-33655315D01*
X25854805Y-33652250D01*
X25850990Y-33650862D01*
X25832105Y-33626053D01*
X25811706Y-33602511D01*
X25810713Y-33597950D01*
X25808671Y-33595267D01*
X25807828Y-33584688D01*
X25800500Y-33551000D01*
X25800500Y-33421155D01*
X25800499Y-33421153D01*
X25769738Y-33266510D01*
X25769737Y-33266503D01*
X25769735Y-33266498D01*
X25709397Y-33120827D01*
X25709395Y-33120823D01*
X25709394Y-33120821D01*
X25657657Y-33043391D01*
X25636779Y-32976714D01*
X25655263Y-32909334D01*
X25707242Y-32862643D01*
X25760759Y-32850500D01*
X27274903Y-32850500D01*
X27341942Y-32870185D01*
G37*
%TD.AperFunction*%
%TD*%
M02*
