%TF.GenerationSoftware,KiCad,Pcbnew,10.0.4-10.0.4~ubuntu26.04.1*%
%TF.CreationDate,2026-07-08T21:58:59-05:00*%
%TF.ProjectId,magnetic-connector,6d61676e-6574-4696-932d-636f6e6e6563,rev?*%
%TF.SameCoordinates,Original*%
%TF.FileFunction,Legend,Bot*%
%TF.FilePolarity,Positive*%
%FSLAX46Y46*%
G04 Gerber Fmt 4.6, Leading zero omitted, Abs format (unit mm)*
G04 Created by KiCad (PCBNEW 10.0.4-10.0.4~ubuntu26.04.1) date 2026-07-08 21:58:59*
%MOMM*%
%LPD*%
G01*
G04 APERTURE LIST*
%ADD10C,1.200000*%
%ADD11C,4.000000*%
%ADD12C,0.500000*%
G04 APERTURE END LIST*
%LPC*%
D10*
%TO.C,J_MC_CLI1*%
X41100000Y-46500000D03*
X38900000Y-46500000D03*
X41100000Y-44300000D03*
X38900000Y-44300000D03*
X41100000Y-42100000D03*
X38900000Y-42100000D03*
X41100000Y-39900000D03*
X38900000Y-39900000D03*
X41100000Y-37700000D03*
X38900000Y-37700000D03*
X41100000Y-35500000D03*
X38900000Y-35500000D03*
%TD*%
D11*
%TO.C,H_CLI_1*%
X40000000Y-22500000D03*
%TD*%
%TO.C,H_HOST_2*%
X26000000Y-59500000D03*
%TD*%
%TO.C,H_CLI_2*%
X40000000Y-59500000D03*
%TD*%
D12*
%TO.C,REF\u002A\u002A*%
X31750000Y-59200000D03*
X34250000Y-59200000D03*
X31750000Y-58350000D03*
X34250000Y-58350000D03*
X31750000Y-57500000D03*
X34250000Y-57500000D03*
X31750000Y-56650000D03*
X34250000Y-56650000D03*
X31750000Y-55800000D03*
X34250000Y-55800000D03*
%TD*%
%TO.C,REF\u002A\u002A*%
X31750000Y-26200000D03*
X34250000Y-26200000D03*
X31750000Y-25350000D03*
X34250000Y-25350000D03*
X31750000Y-24500000D03*
X34250000Y-24500000D03*
X31750000Y-23650000D03*
X34250000Y-23650000D03*
X31750000Y-22800000D03*
X34250000Y-22800000D03*
%TD*%
D10*
%TO.C,J_MC_HOST1*%
X27100000Y-35500000D03*
X24900000Y-35500000D03*
X27100000Y-37700000D03*
X24900000Y-37700000D03*
X27100000Y-39900000D03*
X24900000Y-39900000D03*
X27100000Y-42100000D03*
X24900000Y-42100000D03*
X27100000Y-44300000D03*
X24900000Y-44300000D03*
X27100000Y-46500000D03*
X24900000Y-46500000D03*
%TD*%
D11*
%TO.C,H_HOST_1*%
X26000000Y-22500000D03*
%TD*%
%LPD*%
M02*
