%TF.GenerationSoftware,KiCad,Pcbnew,10.0.4-10.0.4~ubuntu26.04.1*%
%TF.CreationDate,2026-07-08T21:58:59-05:00*%
%TF.ProjectId,magnetic-connector,6d61676e-6574-4696-932d-636f6e6e6563,rev?*%
%TF.SameCoordinates,Original*%
%TF.FileFunction,Copper,L1,Top*%
%TF.FilePolarity,Positive*%
%FSLAX46Y46*%
G04 Gerber Fmt 4.6, Leading zero omitted, Abs format (unit mm)*
G04 Created by KiCad (PCBNEW 10.0.4-10.0.4~ubuntu26.04.1) date 2026-07-08 21:58:59*
%MOMM*%
%LPD*%
G01*
G04 APERTURE LIST*
G04 Aperture macros list*
%AMRoundRect*
0 Rectangle with rounded corners*
0 $1 Rounding radius*
0 $2 $3 $4 $5 $6 $7 $8 $9 X,Y pos of 4 corners*
0 Add a 4 corners polygon primitive as box body*
4,1,4,$2,$3,$4,$5,$6,$7,$8,$9,$2,$3,0*
0 Add four circle primitives for the rounded corners*
1,1,$1+$1,$2,$3*
1,1,$1+$1,$4,$5*
1,1,$1+$1,$6,$7*
1,1,$1+$1,$8,$9*
0 Add four rect primitives between the rounded corners*
20,1,$1+$1,$2,$3,$4,$5,0*
20,1,$1+$1,$4,$5,$6,$7,0*
20,1,$1+$1,$6,$7,$8,$9,0*
20,1,$1+$1,$8,$9,$2,$3,0*%
%AMFreePoly0*
4,1,6,1.000000,0.000000,0.500000,-0.750000,-0.500000,-0.750000,-0.500000,0.750000,0.500000,0.750000,1.000000,0.000000,1.000000,0.000000,$1*%
%AMFreePoly1*
4,1,7,0.700000,0.000000,1.200000,-0.750000,-1.200000,-0.750000,-0.700000,0.000000,-1.200000,0.750000,1.200000,0.750000,0.700000,0.000000,0.700000,0.000000,$1*%
G04 Aperture macros list end*
%TA.AperFunction,SMDPad,CuDef*%
%ADD10R,1.800000X2.000000*%
%TD*%
%TA.AperFunction,SMDPad,CuDef*%
%ADD11R,0.280000X1.250000*%
%TD*%
%TA.AperFunction,SMDPad,CuDef*%
%ADD12FreePoly0,270.000000*%
%TD*%
%TA.AperFunction,SMDPad,CuDef*%
%ADD13FreePoly1,270.000000*%
%TD*%
%TA.AperFunction,SMDPad,CuDef*%
%ADD14FreePoly0,90.000000*%
%TD*%
%TA.AperFunction,SMDPad,CuDef*%
%ADD15FreePoly1,90.000000*%
%TD*%
%TA.AperFunction,SMDPad,CuDef*%
%ADD16RoundRect,0.150000X-0.512500X-0.150000X0.512500X-0.150000X0.512500X0.150000X-0.512500X0.150000X0*%
%TD*%
%TA.AperFunction,SMDPad,CuDef*%
%ADD17RoundRect,0.150000X0.512500X0.150000X-0.512500X0.150000X-0.512500X-0.150000X0.512500X-0.150000X0*%
%TD*%
%TA.AperFunction,ComponentPad*%
%ADD18C,1.200000*%
%TD*%
%TA.AperFunction,ComponentPad*%
%ADD19C,4.000000*%
%TD*%
%TA.AperFunction,SMDPad,CuDef*%
%ADD20RoundRect,0.243750X-0.456250X0.243750X-0.456250X-0.243750X0.456250X-0.243750X0.456250X0.243750X0*%
%TD*%
%TA.AperFunction,SMDPad,CuDef*%
%ADD21RoundRect,0.243750X0.456250X-0.243750X0.456250X0.243750X-0.456250X0.243750X-0.456250X-0.243750X0*%
%TD*%
%TA.AperFunction,ViaPad*%
%ADD22C,0.600000*%
%TD*%
%TA.AperFunction,Conductor*%
%ADD23C,0.300000*%
%TD*%
%TA.AperFunction,Conductor*%
%ADD24C,0.200000*%
%TD*%
G04 APERTURE END LIST*
D10*
%TO.P,J_VIK_CLI1,14,MP_14*%
%TO.N,/Client/GND*%
X35450000Y-52686000D03*
%TO.P,J_VIK_CLI1,13,MP_13*%
X44550000Y-52686000D03*
D11*
%TO.P,J_VIK_CLI1,12,SCLK_12*%
%TO.N,/Client/SCLK*%
X42750000Y-49962000D03*
%TO.P,J_VIK_CLI1,11,MISO_11*%
%TO.N,/Client/MISO*%
X42250000Y-49962000D03*
%TO.P,J_VIK_CLI1,10,SPI_CS_10*%
%TO.N,/Client/CS*%
X41750000Y-49962000D03*
%TO.P,J_VIK_CLI1,9,GP_AD2_9*%
%TO.N,/Client/GP2*%
X41250000Y-49962000D03*
%TO.P,J_VIK_CLI1,8,MOSI_8*%
%TO.N,/Client/MOSI*%
X40750000Y-49962000D03*
%TO.P,J_VIK_CLI1,7,GP_AD1_7*%
%TO.N,/Client/GP1*%
X40250000Y-49962000D03*
%TO.P,J_VIK_CLI1,6,5V_6*%
%TO.N,/Client/5V_OUT*%
X39750000Y-49962000D03*
%TO.P,J_VIK_CLI1,5,RGB_DO_5*%
%TO.N,/Client/RGB_DO*%
X39250000Y-49962000D03*
%TO.P,J_VIK_CLI1,4,SCL_4*%
%TO.N,/Client/SCL*%
X38750000Y-49962000D03*
%TO.P,J_VIK_CLI1,3,SDA_3*%
%TO.N,/Client/SDA*%
X38250000Y-49962000D03*
%TO.P,J_VIK_CLI1,2,GND_2*%
%TO.N,/Client/GND*%
X37750000Y-49962000D03*
%TO.P,J_VIK_CLI1,1,3V3_1*%
%TO.N,/Client/3V3_OUT*%
X37250000Y-49962000D03*
%TD*%
D10*
%TO.P,J_VIK_HOST1,14*%
%TO.N,/Host/GND*%
X21450000Y-52686000D03*
%TO.P,J_VIK_HOST1,13*%
X30550000Y-52686000D03*
D11*
%TO.P,J_VIK_HOST1,12,3V3_12*%
%TO.N,/Host/3V3_IN*%
X28750000Y-49962000D03*
%TO.P,J_VIK_HOST1,11,GND_11*%
%TO.N,/Host/GND*%
X28250000Y-49962000D03*
%TO.P,J_VIK_HOST1,10,SDA_10*%
%TO.N,/Host/SDA*%
X27750000Y-49962000D03*
%TO.P,J_VIK_HOST1,9,SCL_9*%
%TO.N,/Host/SCL*%
X27250000Y-49962000D03*
%TO.P,J_VIK_HOST1,8,RGB_DO_8*%
%TO.N,/Host/RGB_DO*%
X26750000Y-49962000D03*
%TO.P,J_VIK_HOST1,7,5V_7*%
%TO.N,/Host/5V_IN*%
X26250000Y-49962000D03*
%TO.P,J_VIK_HOST1,6,GP_AD1_6*%
%TO.N,/Host/GP1*%
X25750000Y-49962000D03*
%TO.P,J_VIK_HOST1,5,MOSI_5*%
%TO.N,/Host/MOSI*%
X25250000Y-49962000D03*
%TO.P,J_VIK_HOST1,4,GP_AD2_4*%
%TO.N,/Host/GP2*%
X24750000Y-49962000D03*
%TO.P,J_VIK_HOST1,3,SPI_CS_3*%
%TO.N,/Host/CS*%
X24250000Y-49962000D03*
%TO.P,J_VIK_HOST1,2,MISO_2*%
%TO.N,/Host/MISO*%
X23750000Y-49962000D03*
%TO.P,J_VIK_HOST1,1,SCLK_1*%
%TO.N,/Host/SCLK*%
X23250000Y-49962000D03*
%TD*%
D12*
%TO.P,JP2,1,A_1*%
%TO.N,/Client/3V3_OUT*%
X36000000Y-24000000D03*
D13*
%TO.P,JP2,2,C_2*%
%TO.N,Net-(JP2-C)*%
X36000000Y-26000000D03*
D14*
%TO.P,JP2,3,B_3*%
%TO.N,/Client/5V_OUT*%
X36000000Y-28000000D03*
%TD*%
%TO.P,JP1,1,A_1*%
%TO.N,/Host/3V3_OUT*%
X30000000Y-28000000D03*
D15*
%TO.P,JP1,2,C_2*%
%TO.N,Net-(JP1-C)*%
X30000000Y-26000000D03*
D12*
%TO.P,JP1,3,B_3*%
%TO.N,/Host/5V_OUT*%
X30000000Y-24000000D03*
%TD*%
D16*
%TO.P,U6,1,IO1_1*%
%TO.N,/Client/GP1*%
X36362500Y-30050000D03*
%TO.P,U6,2,VN_2*%
%TO.N,/Client/GND*%
X36362500Y-31000000D03*
%TO.P,U6,3,IO2_3*%
%TO.N,/Client/GP2*%
X36362500Y-31950000D03*
%TO.P,U6,4,IO3_4*%
%TO.N,/Client/RGB_DO*%
X38637500Y-31950000D03*
%TO.P,U6,5,VP_5*%
%TO.N,Net-(JP2-C)*%
X38637500Y-31000000D03*
%TO.P,U6,6,IO4_6*%
%TO.N,unconnected-(U6-IO4-Pad6)*%
X38637500Y-30050000D03*
%TD*%
D17*
%TO.P,U5,1,IO1_1*%
%TO.N,/Client/SCL*%
X43637500Y-32000000D03*
%TO.P,U5,2,VN_2*%
%TO.N,/Client/GND*%
X43637500Y-31050000D03*
%TO.P,U5,3,IO2_3*%
%TO.N,/Client/SDA*%
X43637500Y-30100000D03*
%TO.P,U5,4,IO3_4*%
%TO.N,unconnected-(U5-IO3-Pad4)*%
X41362500Y-30100000D03*
%TO.P,U5,5,VP_5*%
%TO.N,/Client/3V3_OUT*%
X41362500Y-31050000D03*
%TO.P,U5,6,IO4_6*%
%TO.N,unconnected-(U5-IO4-Pad6)*%
X41362500Y-32000000D03*
%TD*%
%TO.P,U4,1,IO1_1*%
%TO.N,/Client/MISO*%
X43637500Y-27950000D03*
%TO.P,U4,2,VN_2*%
%TO.N,/Client/GND*%
X43637500Y-27000000D03*
%TO.P,U4,3,IO2_3*%
%TO.N,/Client/MOSI*%
X43637500Y-26050000D03*
%TO.P,U4,4,IO3_4*%
%TO.N,/Client/CS*%
X41362500Y-26050000D03*
%TO.P,U4,5,VP_5*%
%TO.N,/Client/3V3_OUT*%
X41362500Y-27000000D03*
%TO.P,U4,6,IO4_6*%
%TO.N,/Client/SCLK*%
X41362500Y-27950000D03*
%TD*%
%TO.P,U3,1,IO1_1*%
%TO.N,/Host/GP1*%
X29500000Y-32000000D03*
%TO.P,U3,2,VN_2*%
%TO.N,/Host/GND*%
X29500000Y-31050000D03*
%TO.P,U3,3,IO2_3*%
%TO.N,/Host/GP2*%
X29500000Y-30100000D03*
%TO.P,U3,4,IO3_4*%
%TO.N,/Host/RGB_DO*%
X27225000Y-30100000D03*
%TO.P,U3,5,VP_5*%
%TO.N,Net-(JP1-C)*%
X27225000Y-31050000D03*
%TO.P,U3,6,IO4_6*%
%TO.N,unconnected-(U3-IO4-Pad6)*%
X27225000Y-32000000D03*
%TD*%
D16*
%TO.P,U2,1,IO1_1*%
%TO.N,/Host/SCL*%
X22500000Y-30100000D03*
%TO.P,U2,2,VN_2*%
%TO.N,/Host/GND*%
X22500000Y-31050000D03*
%TO.P,U2,3,IO2_3*%
%TO.N,/Host/SDA*%
X22500000Y-32000000D03*
%TO.P,U2,4,IO3_4*%
%TO.N,unconnected-(U2-IO3-Pad4)*%
X24775000Y-32000000D03*
%TO.P,U2,5,VP_5*%
%TO.N,/Host/3V3_OUT*%
X24775000Y-31050000D03*
%TO.P,U2,6,IO4_6*%
%TO.N,unconnected-(U2-IO4-Pad6)*%
X24775000Y-30100000D03*
%TD*%
%TO.P,U1,1,IO1_1*%
%TO.N,/Host/MISO*%
X22500000Y-26100000D03*
%TO.P,U1,2,VN_2*%
%TO.N,/Host/GND*%
X22500000Y-27050000D03*
%TO.P,U1,3,IO2_3*%
%TO.N,/Host/MOSI*%
X22500000Y-28000000D03*
%TO.P,U1,4,IO3_4*%
%TO.N,/Host/CS*%
X24775000Y-28000000D03*
%TO.P,U1,5,VP_5*%
%TO.N,/Host/3V3_OUT*%
X24775000Y-27050000D03*
%TO.P,U1,6,IO4_6*%
%TO.N,/Host/SCLK*%
X24775000Y-26100000D03*
%TD*%
D18*
%TO.P,J_MC_CLI1,1,SCLK_1*%
%TO.N,/Client/SCLK*%
X41100000Y-46500000D03*
%TO.P,J_MC_CLI1,2,MISO_2*%
%TO.N,/Client/MISO*%
X38900000Y-46500000D03*
%TO.P,J_MC_CLI1,3,SPI_CS_3*%
%TO.N,/Client/CS*%
X41100000Y-44300000D03*
%TO.P,J_MC_CLI1,4,GP_AD2_4*%
%TO.N,/Client/GP2*%
X38900000Y-44300000D03*
%TO.P,J_MC_CLI1,5,MOSI_5*%
%TO.N,/Client/MOSI*%
X41100000Y-42100000D03*
%TO.P,J_MC_CLI1,6,GP_AD1_6*%
%TO.N,/Client/GP1*%
X38900000Y-42100000D03*
%TO.P,J_MC_CLI1,7,5V_7*%
%TO.N,/Client/5V_IN*%
X41100000Y-39900000D03*
%TO.P,J_MC_CLI1,8,RGB_DO_8*%
%TO.N,/Client/RGB_DO*%
X38900000Y-39900000D03*
%TO.P,J_MC_CLI1,9,SCL_9*%
%TO.N,/Client/SCL*%
X41100000Y-37700000D03*
%TO.P,J_MC_CLI1,10,SDA_10*%
%TO.N,/Client/SDA*%
X38900000Y-37700000D03*
%TO.P,J_MC_CLI1,11,GND_11*%
%TO.N,/Client/GND*%
X41100000Y-35500000D03*
%TO.P,J_MC_CLI1,12,3V3_12*%
%TO.N,/Client/3V3_IN*%
X38900000Y-35500000D03*
%TD*%
D19*
%TO.P,H_CLI_1,1,1_1*%
%TO.N,/Client/GND*%
X40000000Y-22500000D03*
%TD*%
%TO.P,H_HOST_2,1,1_1*%
%TO.N,/Host/GND*%
X26000000Y-59500000D03*
%TD*%
%TO.P,H_CLI_2,1,1_1*%
%TO.N,/Client/GND*%
X40000000Y-59500000D03*
%TD*%
D18*
%TO.P,J_MC_HOST1,1,3V3_1*%
%TO.N,/Host/3V3_OUT*%
X27100000Y-35500000D03*
%TO.P,J_MC_HOST1,2,GND_2*%
%TO.N,/Host/GND*%
X24900000Y-35500000D03*
%TO.P,J_MC_HOST1,3,SDA_3*%
%TO.N,/Host/SDA*%
X27100000Y-37700000D03*
%TO.P,J_MC_HOST1,4,SCL_4*%
%TO.N,/Host/SCL*%
X24900000Y-37700000D03*
%TO.P,J_MC_HOST1,5,RGB_DO_5*%
%TO.N,/Host/RGB_DO*%
X27100000Y-39900000D03*
%TO.P,J_MC_HOST1,6,5V_6*%
%TO.N,/Host/5V_OUT*%
X24900000Y-39900000D03*
%TO.P,J_MC_HOST1,7,GP_AD1_7*%
%TO.N,/Host/GP1*%
X27100000Y-42100000D03*
%TO.P,J_MC_HOST1,8,MOSI_8*%
%TO.N,/Host/MOSI*%
X24900000Y-42100000D03*
%TO.P,J_MC_HOST1,9,GP_AD2_9*%
%TO.N,/Host/GP2*%
X27100000Y-44300000D03*
%TO.P,J_MC_HOST1,10,SPI_CS_10*%
%TO.N,/Host/CS*%
X24900000Y-44300000D03*
%TO.P,J_MC_HOST1,11,MISO_11*%
%TO.N,/Host/MISO*%
X27100000Y-46500000D03*
%TO.P,J_MC_HOST1,12,SCLK_12*%
%TO.N,/Host/SCLK*%
X24900000Y-46500000D03*
%TD*%
D19*
%TO.P,H_HOST_1,1,1_1*%
%TO.N,/Host/GND*%
X26000000Y-22500000D03*
%TD*%
D20*
%TO.P,F3,1*%
%TO.N,/Client/3V3_IN*%
X36000000Y-57562500D03*
%TO.P,F3,2*%
%TO.N,/Client/3V3_OUT*%
X36000000Y-59437500D03*
%TD*%
D21*
%TO.P,F2,1*%
%TO.N,/Host/5V_IN*%
X22000000Y-59437500D03*
%TO.P,F2,2*%
%TO.N,/Host/5V_OUT*%
X22000000Y-57562500D03*
%TD*%
D20*
%TO.P,F4,1*%
%TO.N,/Client/5V_IN*%
X44000000Y-57562500D03*
%TO.P,F4,2*%
%TO.N,/Client/5V_OUT*%
X44000000Y-59437500D03*
%TD*%
D21*
%TO.P,F1,2*%
%TO.N,/Host/3V3_OUT*%
X30000000Y-57562500D03*
%TO.P,F1,1*%
%TO.N,/Host/3V3_IN*%
X30000000Y-59437500D03*
%TD*%
D22*
%TO.N,/Host/GND*%
X31000000Y-36000000D03*
X21000000Y-48000000D03*
%TO.N,/Client/MOSI*%
X43637500Y-26050000D03*
%TO.N,/Client/CS*%
X41362500Y-26050000D03*
%TO.N,/Client/SCLK*%
X41362500Y-27950000D03*
%TO.N,/Client/MISO*%
X43637500Y-27950000D03*
%TO.N,/Client/GP2*%
X36362500Y-31950000D03*
%TO.N,/Client/GP1*%
X36362500Y-30050000D03*
%TO.N,/Client/RGB_DO*%
X38637500Y-31950000D03*
%TO.N,/Client/3V3_OUT*%
X36000000Y-24000000D03*
X36000000Y-59437500D03*
%TO.N,/Client/5V_OUT*%
X36000000Y-28000000D03*
X44000000Y-59437500D03*
%TO.N,/Host/GND*%
X29500000Y-31050000D03*
%TO.N,/Host/RGB_DO*%
X27225000Y-30100000D03*
%TO.N,/Host/MISO*%
X22500000Y-26100000D03*
%TO.N,/Host/SCLK*%
X24775000Y-26100000D03*
%TO.N,/Host/CS*%
X24775000Y-28000000D03*
%TO.N,/Host/MOSI*%
X22500000Y-28000000D03*
%TO.N,/Host/SCL*%
X22500000Y-30100000D03*
%TO.N,/Host/GP2*%
X29500000Y-30100000D03*
%TO.N,/Host/GP1*%
X29500000Y-32000000D03*
%TO.N,/Client/5V_IN*%
X44000000Y-57562500D03*
X44190000Y-48000000D03*
%TO.N,/Client/GND*%
X36500000Y-55000000D03*
X42000000Y-54000000D03*
%TO.N,/Client/3V3_IN*%
X36000000Y-57562500D03*
X35500000Y-51000000D03*
%TO.N,/Host/GND*%
X24000000Y-54000000D03*
%TO.N,/Host/3V3_OUT*%
X30000000Y-57625000D03*
X30000000Y-48500000D03*
%TO.N,/Host/5V_OUT*%
X22000000Y-57562500D03*
X21810000Y-50976214D03*
%TD*%
%TO.N,/Host/3V3_OUT*%
D23*
X30500000Y-38900000D02*
X27100000Y-35500000D01*
X30000000Y-48500000D02*
X30500000Y-48000000D01*
X30500000Y-48000000D02*
X30500000Y-38900000D01*
%TO.N,/Client/5V_IN*%
X44190000Y-48000000D02*
X44190000Y-42990000D01*
X44190000Y-42990000D02*
X41100000Y-39900000D01*
%TO.N,/Host/GND*%
X26000000Y-59500000D02*
X26837500Y-60337500D01*
X26837500Y-60337500D02*
X30996101Y-60337500D01*
X30996101Y-60337500D02*
X31100000Y-60233601D01*
X31100000Y-60233601D02*
X31100000Y-53236000D01*
X31100000Y-53236000D02*
X30550000Y-52686000D01*
%TO.N,/Client/GND*%
X35450000Y-52686000D02*
X34950000Y-53186000D01*
X34950000Y-53186000D02*
X34950000Y-59933944D01*
X39225000Y-60275000D02*
X40000000Y-59500000D01*
X34950000Y-59933944D02*
X35291056Y-60275000D01*
X35291056Y-60275000D02*
X39225000Y-60275000D01*
X45000000Y-27000000D02*
X45000000Y-24671573D01*
X45000000Y-24671573D02*
X42828427Y-22500000D01*
X42828427Y-22500000D02*
X40000000Y-22500000D01*
X45000000Y-31000000D02*
X45000000Y-27000000D01*
X45000000Y-27000000D02*
X43637500Y-27000000D01*
X43637500Y-31050000D02*
X44950000Y-31050000D01*
X44950000Y-31050000D02*
X45000000Y-31000000D01*
X36362500Y-31000000D02*
X36786262Y-31000000D01*
X36786262Y-31000000D02*
X37625000Y-31838738D01*
X37625000Y-31838738D02*
X37625000Y-32311262D01*
X37625000Y-32311262D02*
X40813738Y-35500000D01*
X40813738Y-35500000D02*
X41100000Y-35500000D01*
%TO.N,/Host/GND*%
X21000000Y-52236000D02*
X21000000Y-48000000D01*
X21450000Y-52686000D02*
X21000000Y-52236000D01*
%TO.N,/Client/SDA*%
D24*
X38900000Y-37700000D02*
X40100000Y-36500000D01*
X40100000Y-36500000D02*
X41500000Y-36500000D01*
X41500000Y-36500000D02*
X42675000Y-35325000D01*
X42675000Y-35325000D02*
X42675000Y-30400001D01*
X42675000Y-30400001D02*
X42975001Y-30100000D01*
X42975001Y-30100000D02*
X43637500Y-30100000D01*
%TO.N,/Client/SCL*%
X41100000Y-37700000D02*
X43637500Y-35162500D01*
X43637500Y-35162500D02*
X43637500Y-32000000D01*
%TO.N,Net-(JP2-C)*%
D23*
X38637500Y-31000000D02*
X37975001Y-31000000D01*
X37625000Y-27625000D02*
X36000000Y-26000000D01*
X37975001Y-31000000D02*
X37625000Y-30649999D01*
X37625000Y-30649999D02*
X37625000Y-27625000D01*
%TO.N,/Client/3V3_OUT*%
X41362500Y-27000000D02*
X40938738Y-27000000D01*
X40938738Y-27000000D02*
X40350000Y-27588738D01*
X40350000Y-27588738D02*
X40350000Y-30699999D01*
X40700001Y-31050000D02*
X41362500Y-31050000D01*
X40350000Y-30699999D02*
X40700001Y-31050000D01*
X36000000Y-24000000D02*
X37938738Y-24000000D01*
X37938738Y-24000000D02*
X40938738Y-27000000D01*
%TO.N,/Host/GND*%
X21450000Y-52686000D02*
X21450000Y-55050000D01*
X20650000Y-55850000D02*
X21450000Y-55050000D01*
X20650000Y-59633944D02*
X20650000Y-55850000D01*
X21291056Y-60275000D02*
X20650000Y-59633944D01*
X25225000Y-60275000D02*
X21291056Y-60275000D01*
X26000000Y-59500000D02*
X25225000Y-60275000D01*
%TO.N,/Host/5V_OUT*%
X30000000Y-24000000D02*
X29245000Y-24000000D01*
X28245000Y-25000000D02*
X21650000Y-25000000D01*
X29245000Y-24000000D02*
X28245000Y-25000000D01*
X21650000Y-25000000D02*
X21000000Y-25650000D01*
X21000000Y-25650000D02*
X21000000Y-27180395D01*
X21000000Y-27180395D02*
X20987500Y-27192895D01*
X20987500Y-27192895D02*
X20987500Y-30907105D01*
X20987500Y-30907105D02*
X21000000Y-30919606D01*
X21000000Y-30919606D02*
X21000000Y-36000000D01*
X21000000Y-36000000D02*
X24900000Y-39900000D01*
%TO.N,/Host/GND*%
X22500000Y-31050000D02*
X23050000Y-31050000D01*
X23050000Y-31050000D02*
X23762500Y-31762500D01*
X23762500Y-31762500D02*
X23762500Y-34362500D01*
X23762500Y-34362500D02*
X24900000Y-35500000D01*
%TO.N,/Host/3V3_OUT*%
X27100000Y-35500000D02*
X27948528Y-35500000D01*
X27948528Y-35500000D02*
X30512500Y-32936028D01*
X30512500Y-32936028D02*
X30512500Y-28512500D01*
X30512500Y-28512500D02*
X30000000Y-28000000D01*
%TO.N,Net-(JP1-C)*%
X27225000Y-31050000D02*
X26562501Y-31050000D01*
X26562501Y-31050000D02*
X26212500Y-30699999D01*
X26212500Y-30699999D02*
X26212500Y-29738738D01*
X26212500Y-29738738D02*
X29951238Y-26000000D01*
X29951238Y-26000000D02*
X30000000Y-26000000D01*
%TO.N,/Host/3V3_OUT*%
X24775000Y-31050000D02*
X25437499Y-31050000D01*
X25437499Y-31050000D02*
X26212500Y-31825001D01*
X26212500Y-31825001D02*
X26212500Y-34612500D01*
X26212500Y-34612500D02*
X27100000Y-35500000D01*
X24775000Y-31050000D02*
X24112501Y-31050000D01*
X24112501Y-31050000D02*
X23762500Y-30699999D01*
X23762500Y-27400001D02*
X24112501Y-27050000D01*
X23762500Y-30699999D02*
X23762500Y-27400001D01*
X24112501Y-27050000D02*
X24775000Y-27050000D01*
%TO.N,/Host/SDA*%
D24*
X22500000Y-32000000D02*
X22500000Y-34372793D01*
X22500000Y-34372793D02*
X24627207Y-36500000D01*
X24627207Y-36500000D02*
X25900000Y-36500000D01*
X25900000Y-36500000D02*
X27100000Y-37700000D01*
%TO.N,/Client/SCLK*%
X42750000Y-49962000D02*
X42750000Y-48150000D01*
X42750000Y-48150000D02*
X41100000Y-46500000D01*
%TO.N,/Client/MISO*%
X42250000Y-49097000D02*
X39653000Y-46500000D01*
X42250000Y-49962000D02*
X42250000Y-49097000D01*
X39653000Y-46500000D02*
X38900000Y-46500000D01*
%TO.N,/Client/CS*%
X43190000Y-46390000D02*
X41100000Y-44300000D01*
X41750000Y-49962000D02*
X41750000Y-50827000D01*
X41750000Y-50827000D02*
X41810000Y-50887000D01*
X43190000Y-50887000D02*
X43190000Y-46390000D01*
X41810000Y-50887000D02*
X43190000Y-50887000D01*
%TO.N,/Client/MOSI*%
X43355685Y-51287000D02*
X43590000Y-51052685D01*
X40750000Y-49962000D02*
X40750000Y-50827000D01*
X43590000Y-44590000D02*
X41100000Y-42100000D01*
X43590000Y-51052685D02*
X43590000Y-44590000D01*
X40750000Y-50827000D02*
X41210000Y-51287000D01*
X41210000Y-51287000D02*
X43355685Y-51287000D01*
%TO.N,/Client/RGB_DO*%
X39250000Y-48750000D02*
X38700000Y-48200000D01*
X38195836Y-48200000D02*
X37200000Y-47204163D01*
X39250000Y-49962000D02*
X39250000Y-48750000D01*
X37200000Y-41600000D02*
X38900000Y-39900000D01*
X37200000Y-47204163D02*
X37200000Y-41600000D01*
X38700000Y-48200000D02*
X38195836Y-48200000D01*
%TO.N,/Client/SCL*%
X38534314Y-48600000D02*
X38030150Y-48600000D01*
X36800000Y-47369848D02*
X36800000Y-40727207D01*
X36800000Y-40727207D02*
X38527207Y-39000000D01*
X38750000Y-48815686D02*
X38534314Y-48600000D01*
X38030150Y-48600000D02*
X36800000Y-47369848D01*
X38750000Y-49962000D02*
X38750000Y-48815686D01*
X38527207Y-39000000D02*
X39800000Y-39000000D01*
X39800000Y-39000000D02*
X41100000Y-37700000D01*
%TO.N,/Client/GND*%
D23*
X37750000Y-49962000D02*
X37750000Y-57250000D01*
X37750000Y-57250000D02*
X40000000Y-59500000D01*
%TO.N,/Client/3V3_IN*%
X38900000Y-35500000D02*
X35500000Y-38900000D01*
X35500000Y-38900000D02*
X35500000Y-51000000D01*
%TO.N,/Host/GND*%
X28250000Y-49962000D02*
X28250000Y-57250000D01*
X28250000Y-57250000D02*
X26000000Y-59500000D01*
%TO.N,/Host/RGB_DO*%
D24*
X27804165Y-48200000D02*
X28800000Y-47204163D01*
X26750000Y-49962000D02*
X26750000Y-48450000D01*
X27000000Y-48200000D02*
X27804165Y-48200000D01*
X28800000Y-47204163D02*
X28800000Y-41600000D01*
X28800000Y-41600000D02*
X27100000Y-39900000D01*
X26750000Y-48450000D02*
X27000000Y-48200000D01*
%TO.N,/Client/5V_OUT*%
D23*
X39750000Y-49962000D02*
X39750000Y-55187500D01*
X39750000Y-55187500D02*
X44000000Y-59437500D01*
%TO.N,/Host/3V3_IN*%
X28750000Y-49962000D02*
X28750000Y-58250000D01*
X28750000Y-58250000D02*
X30000000Y-59500000D01*
%TO.N,/Client/3V3_OUT*%
X37250000Y-49962000D02*
X37250000Y-58187500D01*
X37250000Y-58187500D02*
X36000000Y-59437500D01*
D24*
X37225500Y-49937500D02*
X37250000Y-49962000D01*
%TO.N,/Host/5V_IN*%
D23*
X26250000Y-49962000D02*
X26250000Y-55187500D01*
X26250000Y-55187500D02*
X22000000Y-59437500D01*
%TO.N,/Host/5V_OUT*%
X21810000Y-50976214D02*
X21810000Y-42990000D01*
X21810000Y-42990000D02*
X24900000Y-39900000D01*
%TO.N,/Host/SDA*%
D24*
X27750000Y-49097000D02*
X27750000Y-49962000D01*
X30000000Y-40600000D02*
X30000000Y-47149268D01*
X30000000Y-47149268D02*
X28149268Y-49000000D01*
X28149268Y-49000000D02*
X27847000Y-49000000D01*
X27100000Y-37700000D02*
X30000000Y-40600000D01*
X27847000Y-49000000D02*
X27750000Y-49097000D01*
%TO.N,/Host/SCL*%
X27250000Y-49962000D02*
X27250000Y-48959315D01*
X29200000Y-40727207D02*
X29200000Y-47369848D01*
X27250000Y-48959315D02*
X27609315Y-48600000D01*
X27472793Y-39000000D02*
X29200000Y-40727207D01*
X27969851Y-48599999D02*
X29200000Y-47369848D01*
X26200000Y-39000000D02*
X27472793Y-39000000D01*
X27609315Y-48600000D02*
X27969851Y-48599999D01*
X24900000Y-37700000D02*
X26200000Y-39000000D01*
%TO.N,/Host/MOSI*%
X25250000Y-50827000D02*
X24790000Y-51287000D01*
X24790000Y-51287000D02*
X22644315Y-51287000D01*
X22410000Y-51052685D02*
X22410000Y-44590000D01*
X22410000Y-44590000D02*
X24900000Y-42100000D01*
X22644315Y-51287000D02*
X22410000Y-51052685D01*
X25250000Y-49962000D02*
X25250000Y-50827000D01*
%TO.N,/Host/CS*%
X24250000Y-49962000D02*
X24250000Y-50827000D01*
X24190000Y-50887000D02*
X22810000Y-50887000D01*
X22810000Y-46390000D02*
X24900000Y-44300000D01*
X22810000Y-50887000D02*
X22810000Y-46390000D01*
X24250000Y-50827000D02*
X24190000Y-50887000D01*
%TO.N,/Host/MISO*%
X26251472Y-46500000D02*
X27100000Y-46500000D01*
X23750000Y-49001472D02*
X26251472Y-46500000D01*
X23750000Y-49962000D02*
X23750000Y-49001472D01*
%TO.N,/Host/SCLK*%
X23250000Y-48150000D02*
X24900000Y-46500000D01*
X23250000Y-49962000D02*
X23250000Y-48150000D01*
%TO.N,/Client/GP2*%
X38000000Y-46872793D02*
X38527207Y-47400000D01*
X41250000Y-49097000D02*
X41250000Y-49962000D01*
X39553000Y-47400000D02*
X41250000Y-49097000D01*
X38000000Y-45200000D02*
X38000000Y-46872793D01*
X38900000Y-44300000D02*
X38000000Y-45200000D01*
X38527207Y-47400000D02*
X39553000Y-47400000D01*
%TO.N,/Client/GP1*%
X38361522Y-47800000D02*
X37600000Y-47038478D01*
X39300000Y-47800000D02*
X38361522Y-47800000D01*
X37600000Y-43400000D02*
X38900000Y-42100000D01*
X40250000Y-48750000D02*
X39300000Y-47800000D01*
X40250000Y-49962000D02*
X40250000Y-48750000D01*
X37600000Y-47038478D02*
X37600000Y-43400000D01*
%TO.N,/Host/GP1*%
X28400000Y-43400000D02*
X27100000Y-42100000D01*
X25750000Y-48702686D02*
X26652686Y-47800000D01*
X26652686Y-47800000D02*
X27638479Y-47800000D01*
X27638479Y-47800000D02*
X28400000Y-47038478D01*
X25750000Y-49962000D02*
X25750000Y-48702686D01*
X28400000Y-47038478D02*
X28400000Y-43400000D01*
%TO.N,/Host/GP2*%
X24750000Y-49137000D02*
X26487000Y-47400000D01*
X28000000Y-45200000D02*
X27100000Y-44300000D01*
X26487000Y-47400000D02*
X27472793Y-47400000D01*
X27472793Y-47400000D02*
X28000000Y-46872793D01*
X28000000Y-46872793D02*
X28000000Y-45200000D01*
X24750000Y-49962000D02*
X24750000Y-49137000D01*
%TO.N,/Host/GND*%
D23*
X21487500Y-27400001D02*
X21487500Y-30699999D01*
X21837501Y-27050000D02*
X21487500Y-27400001D01*
X22500000Y-27050000D02*
X21837501Y-27050000D01*
X21487500Y-30699999D02*
X21837501Y-31050000D01*
X21837501Y-31050000D02*
X22500000Y-31050000D01*
%TO.N,/Client/SDA*%
D24*
X37864464Y-48999999D02*
X36400000Y-47535533D01*
X38250000Y-49962000D02*
X38250000Y-49137000D01*
X38250000Y-49137000D02*
X38113000Y-49000000D01*
X38113000Y-49000000D02*
X37864464Y-48999999D01*
X36400000Y-40200000D02*
X38900000Y-37700000D01*
X36400000Y-47535533D02*
X36400000Y-40200000D01*
%TD*%
%TA.AperFunction,Conductor*%
%TO.N,/Host/GND*%
G36*
X27562127Y-51087500D02*
G01*
X27937872Y-51087499D01*
X27937876Y-51087498D01*
X27937885Y-51087498D01*
X27954305Y-51085732D01*
X27962243Y-51084879D01*
X28031002Y-51097283D01*
X28082141Y-51144893D01*
X28099500Y-51208168D01*
X28099500Y-58314071D01*
X28121665Y-58425496D01*
X28121665Y-58425497D01*
X28124497Y-58439736D01*
X28124501Y-58439749D01*
X28173532Y-58558123D01*
X28244726Y-58664673D01*
X28244727Y-58664674D01*
X28763181Y-59183127D01*
X28796666Y-59244450D01*
X28799500Y-59270808D01*
X28799500Y-59730855D01*
X28809913Y-59832776D01*
X28864637Y-59997922D01*
X28864642Y-59997933D01*
X28955971Y-60145999D01*
X28955974Y-60146003D01*
X29078996Y-60269025D01*
X29079000Y-60269028D01*
X29227066Y-60360357D01*
X29227069Y-60360358D01*
X29227075Y-60360362D01*
X29392225Y-60415087D01*
X29494152Y-60425500D01*
X29494157Y-60425500D01*
X30505843Y-60425500D01*
X30505848Y-60425500D01*
X30607775Y-60415087D01*
X30772925Y-60360362D01*
X30921003Y-60269026D01*
X31044026Y-60146003D01*
X31135362Y-59997925D01*
X31190087Y-59832775D01*
X31200500Y-59730848D01*
X31200500Y-59657676D01*
X31206083Y-59638659D01*
X31206736Y-59618846D01*
X31215726Y-59605819D01*
X31220185Y-59590637D01*
X31235163Y-59577657D01*
X31246424Y-59561343D01*
X31261029Y-59555245D01*
X31272989Y-59544882D01*
X31292607Y-59542061D01*
X31310900Y-59534424D01*
X31326482Y-59537190D01*
X31342147Y-59534938D01*
X31360177Y-59543172D01*
X31379694Y-59546637D01*
X31400463Y-59561570D01*
X31405703Y-59563963D01*
X31408742Y-59566685D01*
X31410481Y-59568295D01*
X31442686Y-59600500D01*
X31449540Y-59604457D01*
X31459742Y-59613902D01*
X31470811Y-59632439D01*
X31485710Y-59648062D01*
X31489523Y-59663778D01*
X31495562Y-59673891D01*
X31495133Y-59686899D01*
X31499500Y-59704893D01*
X31499500Y-59978821D01*
X31498761Y-59992337D01*
X31475097Y-60208145D01*
X31471685Y-60226445D01*
X31415951Y-60436394D01*
X31409838Y-60453976D01*
X31323304Y-60653215D01*
X31314627Y-60669684D01*
X31199242Y-60853725D01*
X31188198Y-60868711D01*
X31046564Y-61033402D01*
X31033402Y-61046564D01*
X30868711Y-61188198D01*
X30853725Y-61199242D01*
X30669684Y-61314627D01*
X30653215Y-61323304D01*
X30453976Y-61409838D01*
X30436394Y-61415951D01*
X30226445Y-61471685D01*
X30208145Y-61475097D01*
X29992339Y-61498761D01*
X29978823Y-61499500D01*
X22004428Y-61499500D01*
X21995582Y-61499184D01*
X21973622Y-61497613D01*
X21795442Y-61484869D01*
X21777931Y-61482351D01*
X21586209Y-61440645D01*
X21569234Y-61435661D01*
X21385394Y-61367093D01*
X21369300Y-61359743D01*
X21197091Y-61265709D01*
X21182208Y-61256144D01*
X21025135Y-61138561D01*
X21011764Y-61126975D01*
X20873024Y-60988235D01*
X20861438Y-60974864D01*
X20743855Y-60817791D01*
X20734290Y-60802908D01*
X20640256Y-60630699D01*
X20632909Y-60614611D01*
X20564336Y-60430760D01*
X20559354Y-60413790D01*
X20527863Y-60269028D01*
X20517647Y-60222063D01*
X20515130Y-60204556D01*
X20512358Y-60165802D01*
X20500816Y-60004418D01*
X20500500Y-59995572D01*
X20500500Y-54310000D01*
X20520185Y-54242961D01*
X20572989Y-54197206D01*
X20624500Y-54186000D01*
X21200000Y-54186000D01*
X21700000Y-54186000D01*
X22397828Y-54186000D01*
X22397844Y-54185999D01*
X22457372Y-54179598D01*
X22457379Y-54179596D01*
X22592086Y-54129354D01*
X22592093Y-54129350D01*
X22707187Y-54043190D01*
X22707190Y-54043187D01*
X22793350Y-53928093D01*
X22793354Y-53928086D01*
X22843596Y-53793379D01*
X22843598Y-53793372D01*
X22849999Y-53733844D01*
X22850000Y-53733827D01*
X22850000Y-52936000D01*
X21700000Y-52936000D01*
X21700000Y-54186000D01*
X21200000Y-54186000D01*
X21200000Y-52810000D01*
X21219685Y-52742961D01*
X21272489Y-52697206D01*
X21324000Y-52686000D01*
X21450000Y-52686000D01*
X21450000Y-52560000D01*
X21469685Y-52492961D01*
X21522489Y-52447206D01*
X21574000Y-52436000D01*
X22850000Y-52436000D01*
X22850000Y-52011500D01*
X22869685Y-51944461D01*
X22922489Y-51898706D01*
X22974000Y-51887500D01*
X24703331Y-51887500D01*
X24703347Y-51887501D01*
X24710943Y-51887501D01*
X24869054Y-51887501D01*
X24869057Y-51887501D01*
X25021785Y-51846577D01*
X25071904Y-51817639D01*
X25158716Y-51767520D01*
X25270520Y-51655716D01*
X25270521Y-51655713D01*
X25387821Y-51538412D01*
X25449142Y-51504930D01*
X25518834Y-51509914D01*
X25574767Y-51551786D01*
X25599184Y-51617251D01*
X25599500Y-51626096D01*
X25599500Y-54866692D01*
X25579815Y-54933731D01*
X25563181Y-54954373D01*
X23372122Y-57145431D01*
X23310799Y-57178916D01*
X23241107Y-57173932D01*
X23185174Y-57132060D01*
X23166735Y-57096754D01*
X23135362Y-57002075D01*
X23135358Y-57002069D01*
X23135357Y-57002066D01*
X23044028Y-56854000D01*
X23044025Y-56853996D01*
X22921003Y-56730974D01*
X22920999Y-56730971D01*
X22772933Y-56639642D01*
X22772927Y-56639639D01*
X22772925Y-56639638D01*
X22772922Y-56639637D01*
X22607776Y-56584913D01*
X22505855Y-56574500D01*
X22505848Y-56574500D01*
X21494152Y-56574500D01*
X21494144Y-56574500D01*
X21392223Y-56584913D01*
X21227077Y-56639637D01*
X21227066Y-56639642D01*
X21079000Y-56730971D01*
X21078996Y-56730974D01*
X20955974Y-56853996D01*
X20955971Y-56854000D01*
X20864642Y-57002066D01*
X20864637Y-57002077D01*
X20809913Y-57167223D01*
X20799500Y-57269144D01*
X20799500Y-57855855D01*
X20809913Y-57957776D01*
X20864637Y-58122922D01*
X20864642Y-58122933D01*
X20955971Y-58270999D01*
X20955974Y-58271003D01*
X21078996Y-58394025D01*
X21079000Y-58394028D01*
X21079703Y-58394462D01*
X21080083Y-58394885D01*
X21084664Y-58398507D01*
X21084045Y-58399289D01*
X21126428Y-58446410D01*
X21137649Y-58515372D01*
X21109806Y-58579454D01*
X21084544Y-58601342D01*
X21084664Y-58601493D01*
X21081315Y-58604140D01*
X21079703Y-58605538D01*
X21079000Y-58605971D01*
X21078996Y-58605974D01*
X20955974Y-58728996D01*
X20955971Y-58729000D01*
X20864642Y-58877066D01*
X20864637Y-58877077D01*
X20809913Y-59042223D01*
X20799500Y-59144144D01*
X20799500Y-59730855D01*
X20809913Y-59832776D01*
X20864637Y-59997922D01*
X20864642Y-59997933D01*
X20955971Y-60145999D01*
X20955974Y-60146003D01*
X21078996Y-60269025D01*
X21079000Y-60269028D01*
X21227066Y-60360357D01*
X21227069Y-60360358D01*
X21227075Y-60360362D01*
X21392225Y-60415087D01*
X21494152Y-60425500D01*
X21494157Y-60425500D01*
X22505843Y-60425500D01*
X22505848Y-60425500D01*
X22607775Y-60415087D01*
X22772925Y-60360362D01*
X22921003Y-60269026D01*
X23044026Y-60146003D01*
X23135362Y-59997925D01*
X23190087Y-59832775D01*
X23200500Y-59730848D01*
X23200500Y-59208308D01*
X23220185Y-59141269D01*
X23236819Y-59120627D01*
X26755272Y-55602174D01*
X26755277Y-55602169D01*
X26826466Y-55495626D01*
X26875501Y-55377243D01*
X26889511Y-55306814D01*
X26900500Y-55251571D01*
X26900500Y-51208168D01*
X26920185Y-51141129D01*
X26972989Y-51095374D01*
X27037754Y-51084879D01*
X27062127Y-51087500D01*
X27437872Y-51087499D01*
X27437875Y-51087498D01*
X27437887Y-51087498D01*
X27464376Y-51084649D01*
X27486748Y-51082245D01*
X27513250Y-51082245D01*
X27562127Y-51087500D01*
G37*
%TD.AperFunction*%
%TA.AperFunction,Conductor*%
G36*
X31155398Y-58247748D02*
G01*
X31168834Y-58248709D01*
X31186560Y-58261979D01*
X31206703Y-58271178D01*
X31213985Y-58282509D01*
X31224767Y-58290581D01*
X31232504Y-58311326D01*
X31244477Y-58329956D01*
X31247628Y-58351874D01*
X31249184Y-58356045D01*
X31249500Y-58364891D01*
X31249500Y-58415892D01*
X31257677Y-58446410D01*
X31283608Y-58543187D01*
X31292234Y-58558127D01*
X31349500Y-58657314D01*
X31349502Y-58657316D01*
X31379505Y-58687319D01*
X31382941Y-58693612D01*
X31388809Y-58697735D01*
X31399465Y-58723873D01*
X31412990Y-58748642D01*
X31412478Y-58755793D01*
X31415186Y-58762434D01*
X31410019Y-58790182D01*
X31408006Y-58818334D01*
X31403396Y-58825748D01*
X31402396Y-58831124D01*
X31386038Y-58853674D01*
X31382105Y-58860002D01*
X31380833Y-58861352D01*
X31349500Y-58892686D01*
X31346595Y-58897717D01*
X31337135Y-58907765D01*
X31312164Y-58922392D01*
X31288792Y-58939456D01*
X31282385Y-58939837D01*
X31276848Y-58943081D01*
X31247934Y-58941886D01*
X31219046Y-58943605D01*
X31213450Y-58940461D01*
X31207038Y-58940197D01*
X31183359Y-58923559D01*
X31158128Y-58909387D01*
X31153349Y-58902473D01*
X31149869Y-58900028D01*
X31147295Y-58893714D01*
X31139776Y-58882837D01*
X31139154Y-58883222D01*
X31044028Y-58729000D01*
X31044025Y-58728996D01*
X30921004Y-58605975D01*
X30921003Y-58605974D01*
X30920301Y-58605541D01*
X30919921Y-58605118D01*
X30915336Y-58601493D01*
X30915955Y-58600709D01*
X30873575Y-58553598D01*
X30862349Y-58484636D01*
X30890188Y-58420552D01*
X30915455Y-58398657D01*
X30915336Y-58398507D01*
X30918687Y-58395856D01*
X30920299Y-58394459D01*
X30921003Y-58394026D01*
X31037819Y-58277210D01*
X31057255Y-58266597D01*
X31073989Y-58252097D01*
X31087320Y-58250180D01*
X31099142Y-58243725D01*
X31121228Y-58245304D01*
X31143147Y-58242153D01*
X31155398Y-58247748D01*
G37*
%TD.AperFunction*%
%TA.AperFunction,Conductor*%
G36*
X31469213Y-28455485D02*
G01*
X31498238Y-28519040D01*
X31499500Y-28536688D01*
X31499500Y-51062000D01*
X31479815Y-51129039D01*
X31427011Y-51174794D01*
X31375500Y-51186000D01*
X30800000Y-51186000D01*
X30800000Y-54186000D01*
X31375500Y-54186000D01*
X31442539Y-54205685D01*
X31488294Y-54258489D01*
X31499500Y-54310000D01*
X31499500Y-55295107D01*
X31479815Y-55362146D01*
X31447739Y-55392732D01*
X31449135Y-55394552D01*
X31442683Y-55399502D01*
X31349502Y-55492683D01*
X31349500Y-55492686D01*
X31283608Y-55606812D01*
X31249500Y-55734108D01*
X31249500Y-55865891D01*
X31283608Y-55993187D01*
X31287253Y-55999500D01*
X31349500Y-56107314D01*
X31349502Y-56107316D01*
X31379505Y-56137319D01*
X31412990Y-56198642D01*
X31408006Y-56268334D01*
X31379505Y-56312681D01*
X31349502Y-56342683D01*
X31349500Y-56342686D01*
X31283608Y-56456812D01*
X31249500Y-56584108D01*
X31249500Y-56715893D01*
X31255484Y-56738226D01*
X31253820Y-56808076D01*
X31214657Y-56865938D01*
X31150428Y-56893441D01*
X31081526Y-56881854D01*
X31048028Y-56857999D01*
X30921003Y-56730974D01*
X30920999Y-56730971D01*
X30772933Y-56639642D01*
X30772927Y-56639639D01*
X30772925Y-56639638D01*
X30772922Y-56639637D01*
X30607776Y-56584913D01*
X30505855Y-56574500D01*
X30505848Y-56574500D01*
X29524500Y-56574500D01*
X29457461Y-56554815D01*
X29411706Y-56502011D01*
X29400500Y-56450500D01*
X29400500Y-54302363D01*
X29420185Y-54235324D01*
X29472989Y-54189569D01*
X29537758Y-54179074D01*
X29602160Y-54185999D01*
X29602172Y-54186000D01*
X30300000Y-54186000D01*
X30300000Y-51186000D01*
X29602155Y-51186000D01*
X29537756Y-51192925D01*
X29468996Y-51180520D01*
X29417859Y-51132910D01*
X29400500Y-51069636D01*
X29400500Y-49897929D01*
X29392882Y-49859634D01*
X29390499Y-49835441D01*
X29390499Y-49287485D01*
X29410184Y-49220446D01*
X29462988Y-49174691D01*
X29532146Y-49164747D01*
X29583389Y-49184383D01*
X29620821Y-49209394D01*
X29620823Y-49209394D01*
X29620827Y-49209397D01*
X29766498Y-49269735D01*
X29766503Y-49269737D01*
X29921153Y-49300499D01*
X29921156Y-49300500D01*
X29921158Y-49300500D01*
X30078844Y-49300500D01*
X30078845Y-49300499D01*
X30233497Y-49269737D01*
X30379179Y-49209394D01*
X30510289Y-49121789D01*
X30621789Y-49010289D01*
X30709394Y-48879179D01*
X30769737Y-48733497D01*
X30783079Y-48666416D01*
X30815463Y-48604509D01*
X30816901Y-48603043D01*
X31005277Y-48414669D01*
X31076465Y-48308127D01*
X31108294Y-48231285D01*
X31125501Y-48189744D01*
X31150500Y-48064069D01*
X31150500Y-38835931D01*
X31150500Y-38835928D01*
X31125502Y-38710261D01*
X31125501Y-38710260D01*
X31125501Y-38710256D01*
X31076465Y-38591873D01*
X31005277Y-38485331D01*
X31005275Y-38485329D01*
X31005273Y-38485326D01*
X28531891Y-36011944D01*
X28498406Y-35950621D01*
X28503390Y-35880929D01*
X28531889Y-35836584D01*
X31017777Y-33350697D01*
X31088965Y-33244155D01*
X31138001Y-33125772D01*
X31146182Y-33084643D01*
X31163000Y-33000099D01*
X31163000Y-28827101D01*
X31174206Y-28775589D01*
X31235023Y-28642419D01*
X31235024Y-28642414D01*
X31252762Y-28519042D01*
X31281787Y-28455486D01*
X31340565Y-28417711D01*
X31410434Y-28417711D01*
X31469213Y-28455485D01*
G37*
%TD.AperFunction*%
%TA.AperFunction,Conductor*%
G36*
X20705703Y-36626095D02*
G01*
X20712181Y-36632127D01*
X23767668Y-39687614D01*
X23782371Y-39714541D01*
X23798964Y-39740360D01*
X23799855Y-39746560D01*
X23801153Y-39748937D01*
X23801390Y-39757234D01*
X23803987Y-39775295D01*
X23803987Y-39785057D01*
X23799500Y-39813389D01*
X23799500Y-39986611D01*
X23803987Y-40014942D01*
X23803987Y-40024703D01*
X23784302Y-40091742D01*
X23767668Y-40112384D01*
X21304724Y-42575328D01*
X21238775Y-42674028D01*
X21238776Y-42674029D01*
X21233534Y-42681874D01*
X21184499Y-42800255D01*
X21184497Y-42800261D01*
X21159500Y-42925928D01*
X21159500Y-50471278D01*
X21139815Y-50538317D01*
X21138603Y-50540168D01*
X21100608Y-50597031D01*
X21100602Y-50597042D01*
X21040264Y-50742712D01*
X21040261Y-50742724D01*
X21009500Y-50897367D01*
X21009500Y-51061148D01*
X21006841Y-51061148D01*
X20995974Y-51118481D01*
X20947914Y-51169196D01*
X20885584Y-51186000D01*
X20624500Y-51186000D01*
X20557461Y-51166315D01*
X20511706Y-51113511D01*
X20500500Y-51062000D01*
X20500500Y-36719808D01*
X20520185Y-36652769D01*
X20572989Y-36607014D01*
X20642147Y-36597070D01*
X20705703Y-36626095D01*
G37*
%TD.AperFunction*%
%TA.AperFunction,Conductor*%
G36*
X23715167Y-32518006D02*
G01*
X23739355Y-32545921D01*
X23739639Y-32545702D01*
X23743679Y-32550911D01*
X23744232Y-32551548D01*
X23744419Y-32551865D01*
X23744421Y-32551867D01*
X23744423Y-32551870D01*
X23860629Y-32668076D01*
X23860633Y-32668079D01*
X23860635Y-32668081D01*
X24002102Y-32751744D01*
X24043724Y-32763836D01*
X24159926Y-32797597D01*
X24159929Y-32797597D01*
X24159931Y-32797598D01*
X24196806Y-32800500D01*
X24196814Y-32800500D01*
X25353186Y-32800500D01*
X25353194Y-32800500D01*
X25390069Y-32797598D01*
X25403403Y-32793724D01*
X25473269Y-32793921D01*
X25531941Y-32831860D01*
X25560787Y-32895497D01*
X25562000Y-32912799D01*
X25562000Y-34400397D01*
X25542315Y-34467436D01*
X25489511Y-34513191D01*
X25420353Y-34523135D01*
X25381705Y-34510882D01*
X25322257Y-34480592D01*
X25157584Y-34427085D01*
X24986571Y-34400000D01*
X24813429Y-34400000D01*
X24642415Y-34427085D01*
X24477740Y-34480592D01*
X24323480Y-34559193D01*
X24323463Y-34559203D01*
X24317261Y-34563708D01*
X24317261Y-34563709D01*
X24853553Y-35100000D01*
X24847339Y-35100000D01*
X24745606Y-35127259D01*
X24654394Y-35179920D01*
X24579920Y-35254394D01*
X24527259Y-35345606D01*
X24500000Y-35447339D01*
X24500000Y-35453552D01*
X23963708Y-34917260D01*
X23955804Y-34917883D01*
X23887426Y-34903522D01*
X23858389Y-34881947D01*
X23136819Y-34160377D01*
X23103334Y-34099054D01*
X23100500Y-34072696D01*
X23100500Y-32894932D01*
X23120185Y-32827893D01*
X23172989Y-32782138D01*
X23189893Y-32775859D01*
X23272898Y-32751744D01*
X23414365Y-32668081D01*
X23530581Y-32551865D01*
X23530767Y-32551549D01*
X23530977Y-32551353D01*
X23535361Y-32545702D01*
X23536272Y-32546409D01*
X23581836Y-32503866D01*
X23650577Y-32491362D01*
X23715167Y-32518006D01*
G37*
%TD.AperFunction*%
%TA.AperFunction,Conductor*%
G36*
X30004418Y-20500816D02*
G01*
X30204561Y-20515130D01*
X30222063Y-20517647D01*
X30413795Y-20559355D01*
X30430760Y-20564336D01*
X30614611Y-20632909D01*
X30630694Y-20640253D01*
X30747495Y-20704032D01*
X30802908Y-20734290D01*
X30817791Y-20743855D01*
X30974864Y-20861438D01*
X30988235Y-20873024D01*
X31126975Y-21011764D01*
X31138561Y-21025135D01*
X31256144Y-21182208D01*
X31265709Y-21197091D01*
X31359743Y-21369300D01*
X31367093Y-21385394D01*
X31435661Y-21569234D01*
X31440645Y-21586209D01*
X31482351Y-21777931D01*
X31484869Y-21795442D01*
X31499184Y-21995580D01*
X31499500Y-22004427D01*
X31499500Y-22295107D01*
X31479815Y-22362146D01*
X31447739Y-22392732D01*
X31449135Y-22394552D01*
X31442683Y-22399502D01*
X31349502Y-22492683D01*
X31349500Y-22492686D01*
X31283608Y-22606812D01*
X31280586Y-22618092D01*
X31249500Y-22734108D01*
X31249500Y-22865892D01*
X31280739Y-22982480D01*
X31285712Y-23001037D01*
X31282786Y-23001820D01*
X31288696Y-23056969D01*
X31257400Y-23119438D01*
X31197299Y-23155070D01*
X31127475Y-23152552D01*
X31085472Y-23128624D01*
X31023294Y-23074746D01*
X31023290Y-23074744D01*
X30892419Y-23014976D01*
X30892414Y-23014975D01*
X30750000Y-22994500D01*
X29250000Y-22994500D01*
X29249997Y-22994500D01*
X29178059Y-22999644D01*
X29040005Y-23040182D01*
X28918969Y-23117967D01*
X28918965Y-23117971D01*
X28824750Y-23226700D01*
X28824744Y-23226709D01*
X28764976Y-23357580D01*
X28764975Y-23357585D01*
X28744500Y-23499999D01*
X28744500Y-23529192D01*
X28724815Y-23596231D01*
X28708181Y-23616873D01*
X28011873Y-24313181D01*
X27950550Y-24346666D01*
X27924192Y-24349500D01*
X21585929Y-24349500D01*
X21460261Y-24374497D01*
X21460255Y-24374499D01*
X21341874Y-24423534D01*
X21235326Y-24494726D01*
X21235325Y-24494727D01*
X20712181Y-25017872D01*
X20650858Y-25051357D01*
X20581166Y-25046373D01*
X20525233Y-25004501D01*
X20500816Y-24939037D01*
X20500500Y-24930191D01*
X20500500Y-22004427D01*
X20500816Y-21995581D01*
X20515130Y-21795443D01*
X20515131Y-21795434D01*
X20517646Y-21777938D01*
X20559356Y-21586200D01*
X20564335Y-21569242D01*
X20632911Y-21385382D01*
X20640251Y-21369310D01*
X20734294Y-21197083D01*
X20743850Y-21182214D01*
X20861443Y-21025128D01*
X20873017Y-21011771D01*
X21011771Y-20873017D01*
X21025128Y-20861443D01*
X21182214Y-20743850D01*
X21197083Y-20734294D01*
X21369310Y-20640251D01*
X21385382Y-20632911D01*
X21569242Y-20564335D01*
X21586200Y-20559356D01*
X21777938Y-20517646D01*
X21795436Y-20515130D01*
X21995582Y-20500816D01*
X22004428Y-20500500D01*
X22065892Y-20500500D01*
X29934108Y-20500500D01*
X29995572Y-20500500D01*
X30004418Y-20500816D01*
G37*
%TD.AperFunction*%
%TD*%
%TA.AperFunction,Conductor*%
%TO.N,/Client/GND*%
G36*
X44004418Y-20500816D02*
G01*
X44204561Y-20515130D01*
X44222063Y-20517647D01*
X44413795Y-20559355D01*
X44430760Y-20564336D01*
X44614611Y-20632909D01*
X44630694Y-20640253D01*
X44747495Y-20704032D01*
X44802908Y-20734290D01*
X44817791Y-20743855D01*
X44974864Y-20861438D01*
X44988235Y-20873024D01*
X45126975Y-21011764D01*
X45138561Y-21025135D01*
X45256144Y-21182208D01*
X45265709Y-21197091D01*
X45359743Y-21369300D01*
X45367093Y-21385394D01*
X45435661Y-21569234D01*
X45440645Y-21586209D01*
X45482351Y-21777931D01*
X45484869Y-21795442D01*
X45499184Y-21995580D01*
X45499500Y-22004427D01*
X45499500Y-51062000D01*
X45479815Y-51129039D01*
X45427011Y-51174794D01*
X45375500Y-51186000D01*
X44800000Y-51186000D01*
X44800000Y-54186000D01*
X45375500Y-54186000D01*
X45442539Y-54205685D01*
X45488294Y-54258489D01*
X45499500Y-54310000D01*
X45499500Y-59978821D01*
X45498761Y-59992337D01*
X45475097Y-60208145D01*
X45471685Y-60226445D01*
X45415951Y-60436394D01*
X45409838Y-60453976D01*
X45323304Y-60653215D01*
X45314627Y-60669684D01*
X45199242Y-60853725D01*
X45188198Y-60868711D01*
X45046564Y-61033402D01*
X45033402Y-61046564D01*
X44868711Y-61188198D01*
X44853725Y-61199242D01*
X44669684Y-61314627D01*
X44653215Y-61323304D01*
X44453976Y-61409838D01*
X44436394Y-61415951D01*
X44226445Y-61471685D01*
X44208145Y-61475097D01*
X43992339Y-61498761D01*
X43978823Y-61499500D01*
X36004428Y-61499500D01*
X35995582Y-61499184D01*
X35973622Y-61497613D01*
X35795442Y-61484869D01*
X35777931Y-61482351D01*
X35586209Y-61440645D01*
X35569234Y-61435661D01*
X35385394Y-61367093D01*
X35369300Y-61359743D01*
X35197091Y-61265709D01*
X35182208Y-61256144D01*
X35025135Y-61138561D01*
X35011764Y-61126975D01*
X34873024Y-60988235D01*
X34861438Y-60974864D01*
X34743855Y-60817791D01*
X34734290Y-60802908D01*
X34640256Y-60630699D01*
X34632909Y-60614611D01*
X34564336Y-60430760D01*
X34559354Y-60413790D01*
X34527863Y-60269028D01*
X34517647Y-60222063D01*
X34515130Y-60204556D01*
X34512358Y-60165802D01*
X34500816Y-60004418D01*
X34500500Y-59995572D01*
X34500500Y-59704893D01*
X34520185Y-59637854D01*
X34552261Y-59607272D01*
X34550863Y-59605450D01*
X34557307Y-59600503D01*
X34557314Y-59600500D01*
X34587819Y-59569995D01*
X34649142Y-59536510D01*
X34718834Y-59541494D01*
X34774767Y-59583366D01*
X34799184Y-59648830D01*
X34799500Y-59657676D01*
X34799500Y-59730855D01*
X34809913Y-59832776D01*
X34864637Y-59997922D01*
X34864642Y-59997933D01*
X34955971Y-60145999D01*
X34955974Y-60146003D01*
X35078996Y-60269025D01*
X35079000Y-60269028D01*
X35227066Y-60360357D01*
X35227069Y-60360358D01*
X35227075Y-60360362D01*
X35392225Y-60415087D01*
X35494152Y-60425500D01*
X35494157Y-60425500D01*
X36505843Y-60425500D01*
X36505848Y-60425500D01*
X36607775Y-60415087D01*
X36772925Y-60360362D01*
X36921003Y-60269026D01*
X37044026Y-60146003D01*
X37135362Y-59997925D01*
X37190087Y-59832775D01*
X37200500Y-59730848D01*
X37200500Y-59208308D01*
X37220185Y-59141269D01*
X37236819Y-59120627D01*
X37755273Y-58602173D01*
X37755277Y-58602169D01*
X37826465Y-58495627D01*
X37875501Y-58377244D01*
X37878334Y-58363000D01*
X37900500Y-58251569D01*
X37900500Y-51208168D01*
X37920185Y-51141129D01*
X37972989Y-51095374D01*
X38037754Y-51084879D01*
X38062127Y-51087500D01*
X38437872Y-51087499D01*
X38437875Y-51087498D01*
X38437887Y-51087498D01*
X38464376Y-51084649D01*
X38486748Y-51082245D01*
X38513250Y-51082245D01*
X38562127Y-51087500D01*
X38937872Y-51087499D01*
X38937876Y-51087498D01*
X38937885Y-51087498D01*
X38954305Y-51085732D01*
X38962243Y-51084879D01*
X39031002Y-51097283D01*
X39082141Y-51144893D01*
X39099500Y-51208168D01*
X39099500Y-55251571D01*
X39115819Y-55333608D01*
X39115819Y-55333609D01*
X39124497Y-55377236D01*
X39124499Y-55377244D01*
X39173534Y-55495625D01*
X39244726Y-55602173D01*
X39244727Y-55602174D01*
X42763181Y-59120627D01*
X42796666Y-59181950D01*
X42799500Y-59208308D01*
X42799500Y-59730855D01*
X42809913Y-59832776D01*
X42864637Y-59997922D01*
X42864642Y-59997933D01*
X42955971Y-60145999D01*
X42955974Y-60146003D01*
X43078996Y-60269025D01*
X43079000Y-60269028D01*
X43227066Y-60360357D01*
X43227069Y-60360358D01*
X43227075Y-60360362D01*
X43392225Y-60415087D01*
X43494152Y-60425500D01*
X43494157Y-60425500D01*
X44505843Y-60425500D01*
X44505848Y-60425500D01*
X44607775Y-60415087D01*
X44772925Y-60360362D01*
X44921003Y-60269026D01*
X45044026Y-60146003D01*
X45135362Y-59997925D01*
X45190087Y-59832775D01*
X45200500Y-59730848D01*
X45200500Y-59144152D01*
X45190087Y-59042225D01*
X45135362Y-58877075D01*
X45135358Y-58877069D01*
X45135357Y-58877066D01*
X45044028Y-58729000D01*
X45044025Y-58728996D01*
X44921004Y-58605975D01*
X44921003Y-58605974D01*
X44920301Y-58605541D01*
X44919921Y-58605118D01*
X44915336Y-58601493D01*
X44915955Y-58600709D01*
X44873575Y-58553598D01*
X44862349Y-58484636D01*
X44890188Y-58420552D01*
X44915455Y-58398657D01*
X44915336Y-58398507D01*
X44918687Y-58395856D01*
X44920299Y-58394459D01*
X44921003Y-58394026D01*
X45044026Y-58271003D01*
X45135362Y-58122925D01*
X45190087Y-57957775D01*
X45200500Y-57855848D01*
X45200500Y-57269152D01*
X45190087Y-57167225D01*
X45135362Y-57002075D01*
X45135358Y-57002069D01*
X45135357Y-57002066D01*
X45044028Y-56854000D01*
X45044025Y-56853996D01*
X44921003Y-56730974D01*
X44920999Y-56730971D01*
X44772933Y-56639642D01*
X44772927Y-56639639D01*
X44772925Y-56639638D01*
X44772922Y-56639637D01*
X44607776Y-56584913D01*
X44505855Y-56574500D01*
X44505848Y-56574500D01*
X43494152Y-56574500D01*
X43494144Y-56574500D01*
X43392223Y-56584913D01*
X43227077Y-56639637D01*
X43227066Y-56639642D01*
X43079000Y-56730971D01*
X43078996Y-56730974D01*
X42955974Y-56853996D01*
X42955971Y-56854000D01*
X42864642Y-57002066D01*
X42864638Y-57002075D01*
X42833264Y-57096755D01*
X42793491Y-57154199D01*
X42728975Y-57181022D01*
X42660199Y-57168707D01*
X42627877Y-57145431D01*
X40436819Y-54954373D01*
X40403334Y-54893050D01*
X40400500Y-54866692D01*
X40400500Y-53733844D01*
X43150000Y-53733844D01*
X43156401Y-53793372D01*
X43156403Y-53793379D01*
X43206645Y-53928086D01*
X43206649Y-53928093D01*
X43292809Y-54043187D01*
X43292812Y-54043190D01*
X43407906Y-54129350D01*
X43407913Y-54129354D01*
X43542620Y-54179596D01*
X43542627Y-54179598D01*
X43602155Y-54185999D01*
X43602172Y-54186000D01*
X44300000Y-54186000D01*
X44300000Y-52936000D01*
X43150000Y-52936000D01*
X43150000Y-53733844D01*
X40400500Y-53733844D01*
X40400500Y-51626097D01*
X40406738Y-51604851D01*
X40408318Y-51582763D01*
X40416390Y-51571979D01*
X40420185Y-51559058D01*
X40436918Y-51544558D01*
X40450190Y-51526830D01*
X40462810Y-51522122D01*
X40472989Y-51513303D01*
X40494906Y-51510151D01*
X40515654Y-51502413D01*
X40528814Y-51505275D01*
X40542147Y-51503359D01*
X40562290Y-51512558D01*
X40583927Y-51517265D01*
X40601652Y-51530533D01*
X40605703Y-51532384D01*
X40612181Y-51538416D01*
X40725139Y-51651374D01*
X40725149Y-51651385D01*
X40729479Y-51655715D01*
X40729480Y-51655716D01*
X40841284Y-51767520D01*
X40841286Y-51767521D01*
X40898408Y-51800500D01*
X40898407Y-51800500D01*
X40898410Y-51800501D01*
X40978209Y-51846574D01*
X40978210Y-51846574D01*
X40978215Y-51846577D01*
X41130942Y-51887500D01*
X41130943Y-51887500D01*
X43026000Y-51887500D01*
X43093039Y-51907185D01*
X43138794Y-51959989D01*
X43150000Y-52011500D01*
X43150000Y-52436000D01*
X44300000Y-52436000D01*
X44300000Y-51186000D01*
X44293972Y-51179972D01*
X44247461Y-51166315D01*
X44201706Y-51113511D01*
X44190500Y-51062000D01*
X44190500Y-48917847D01*
X44210185Y-48850808D01*
X44262989Y-48805053D01*
X44290309Y-48796230D01*
X44306291Y-48793050D01*
X44423497Y-48769737D01*
X44569179Y-48709394D01*
X44700289Y-48621789D01*
X44811789Y-48510289D01*
X44899394Y-48379179D01*
X44904194Y-48367592D01*
X44923146Y-48321837D01*
X44959737Y-48233497D01*
X44990500Y-48078842D01*
X44990500Y-47921158D01*
X44990500Y-47921155D01*
X44990499Y-47921153D01*
X44959738Y-47766510D01*
X44959737Y-47766503D01*
X44899394Y-47620821D01*
X44861396Y-47563953D01*
X44840520Y-47497276D01*
X44840500Y-47495064D01*
X44840500Y-42925928D01*
X44815502Y-42800261D01*
X44815501Y-42800260D01*
X44815501Y-42800256D01*
X44766465Y-42681873D01*
X44761228Y-42674035D01*
X44761224Y-42674029D01*
X44761224Y-42674028D01*
X44695275Y-42575328D01*
X44695272Y-42575325D01*
X42232330Y-40112384D01*
X42198845Y-40051061D01*
X42197538Y-40005310D01*
X42200500Y-39986611D01*
X42200500Y-39813389D01*
X42173402Y-39642299D01*
X42119873Y-39477555D01*
X42041232Y-39323212D01*
X41939414Y-39183072D01*
X41816928Y-39060586D01*
X41746858Y-39009677D01*
X41676786Y-38958766D01*
X41582027Y-38910485D01*
X41531230Y-38862511D01*
X41514435Y-38794690D01*
X41536972Y-38728555D01*
X41582027Y-38689515D01*
X41676786Y-38641233D01*
X41676785Y-38641233D01*
X41676788Y-38641232D01*
X41816928Y-38539414D01*
X41939414Y-38416928D01*
X42041232Y-38276788D01*
X42119873Y-38122445D01*
X42173402Y-37957701D01*
X42200500Y-37786611D01*
X42200500Y-37613389D01*
X42187870Y-37533648D01*
X42196824Y-37464358D01*
X42222659Y-37426574D01*
X43996006Y-35653228D01*
X43996011Y-35653224D01*
X44006214Y-35643020D01*
X44006216Y-35643020D01*
X44118020Y-35531216D01*
X44191435Y-35404057D01*
X44191436Y-35404054D01*
X44191438Y-35404053D01*
X44197075Y-35394288D01*
X44197074Y-35394288D01*
X44197077Y-35394285D01*
X44238001Y-35241557D01*
X44238001Y-35083443D01*
X44238001Y-35075848D01*
X44238000Y-35075830D01*
X44238000Y-32894932D01*
X44257685Y-32827893D01*
X44310489Y-32782138D01*
X44327393Y-32775859D01*
X44410398Y-32751744D01*
X44551865Y-32668081D01*
X44668081Y-32551865D01*
X44751744Y-32410398D01*
X44797598Y-32252569D01*
X44800500Y-32215694D01*
X44800500Y-31784306D01*
X44797598Y-31747431D01*
X44793782Y-31734298D01*
X44751745Y-31589606D01*
X44751745Y-31589605D01*
X44751744Y-31589604D01*
X44751744Y-31589602D01*
X44750574Y-31587624D01*
X44750130Y-31585874D01*
X44748647Y-31582446D01*
X44749200Y-31582206D01*
X44733396Y-31519901D01*
X44748753Y-31467603D01*
X44748184Y-31467357D01*
X44750182Y-31462738D01*
X44750581Y-31461382D01*
X44751281Y-31460197D01*
X44797100Y-31302486D01*
X44797295Y-31300001D01*
X44797295Y-31300000D01*
X44531815Y-31300000D01*
X44468694Y-31282732D01*
X44414706Y-31250804D01*
X44410398Y-31248256D01*
X44410397Y-31248255D01*
X44410396Y-31248255D01*
X44410393Y-31248254D01*
X44252573Y-31202402D01*
X44252567Y-31202401D01*
X44215701Y-31199500D01*
X44215694Y-31199500D01*
X43761500Y-31199500D01*
X43752814Y-31196949D01*
X43743853Y-31198238D01*
X43719812Y-31187259D01*
X43694461Y-31179815D01*
X43688533Y-31172974D01*
X43680297Y-31169213D01*
X43666007Y-31146978D01*
X43648706Y-31127011D01*
X43646418Y-31116496D01*
X43642523Y-31110435D01*
X43637500Y-31075500D01*
X43637500Y-31024500D01*
X43657185Y-30957461D01*
X43709989Y-30911706D01*
X43761500Y-30900500D01*
X44215686Y-30900500D01*
X44215694Y-30900500D01*
X44252569Y-30897598D01*
X44252571Y-30897597D01*
X44252573Y-30897597D01*
X44346924Y-30870185D01*
X44410398Y-30851744D01*
X44468694Y-30817268D01*
X44531815Y-30800000D01*
X44797295Y-30800000D01*
X44797295Y-30799998D01*
X44797100Y-30797511D01*
X44797099Y-30797505D01*
X44751283Y-30639806D01*
X44751281Y-30639801D01*
X44750578Y-30638612D01*
X44750310Y-30637558D01*
X44748184Y-30632644D01*
X44748976Y-30632300D01*
X44733395Y-30570888D01*
X44749009Y-30517714D01*
X44748646Y-30517557D01*
X44749920Y-30514612D01*
X44750579Y-30512369D01*
X44751742Y-30510401D01*
X44751744Y-30510398D01*
X44797598Y-30352569D01*
X44800500Y-30315694D01*
X44800500Y-29884306D01*
X44797598Y-29847431D01*
X44793782Y-29834298D01*
X44751745Y-29689606D01*
X44751744Y-29689603D01*
X44751744Y-29689602D01*
X44668081Y-29548135D01*
X44668079Y-29548133D01*
X44668076Y-29548129D01*
X44551870Y-29431923D01*
X44551862Y-29431917D01*
X44410396Y-29348255D01*
X44410393Y-29348254D01*
X44252573Y-29302402D01*
X44252567Y-29302401D01*
X44215701Y-29299500D01*
X44215694Y-29299500D01*
X43059306Y-29299500D01*
X43059298Y-29299500D01*
X43022432Y-29302401D01*
X43022426Y-29302402D01*
X42864606Y-29348254D01*
X42864603Y-29348255D01*
X42723137Y-29431917D01*
X42723129Y-29431923D01*
X42606923Y-29548129D01*
X42606914Y-29548140D01*
X42606729Y-29548455D01*
X42606519Y-29548650D01*
X42602139Y-29554298D01*
X42601227Y-29553591D01*
X42555657Y-29596136D01*
X42486915Y-29608637D01*
X42422327Y-29581988D01*
X42398143Y-29554078D01*
X42397861Y-29554298D01*
X42393823Y-29549092D01*
X42393271Y-29548455D01*
X42393085Y-29548140D01*
X42393076Y-29548129D01*
X42276870Y-29431923D01*
X42276862Y-29431917D01*
X42135396Y-29348255D01*
X42135393Y-29348254D01*
X41977573Y-29302402D01*
X41977567Y-29302401D01*
X41940701Y-29299500D01*
X41940694Y-29299500D01*
X41124500Y-29299500D01*
X41057461Y-29279815D01*
X41011706Y-29227011D01*
X41000500Y-29175500D01*
X41000500Y-28874500D01*
X41020185Y-28807461D01*
X41072989Y-28761706D01*
X41124500Y-28750500D01*
X41940686Y-28750500D01*
X41940694Y-28750500D01*
X41977569Y-28747598D01*
X41977571Y-28747597D01*
X41977573Y-28747597D01*
X42019191Y-28735505D01*
X42135398Y-28701744D01*
X42276865Y-28618081D01*
X42393081Y-28501865D01*
X42393267Y-28501549D01*
X42393477Y-28501353D01*
X42397861Y-28495702D01*
X42398772Y-28496409D01*
X42444336Y-28453866D01*
X42513077Y-28441362D01*
X42577667Y-28468006D01*
X42601855Y-28495921D01*
X42602139Y-28495702D01*
X42606179Y-28500911D01*
X42606732Y-28501548D01*
X42606919Y-28501865D01*
X42606921Y-28501867D01*
X42606923Y-28501870D01*
X42723129Y-28618076D01*
X42723133Y-28618079D01*
X42723135Y-28618081D01*
X42864602Y-28701744D01*
X42906224Y-28713836D01*
X43022426Y-28747597D01*
X43022429Y-28747597D01*
X43022431Y-28747598D01*
X43059306Y-28750500D01*
X43059314Y-28750500D01*
X44215686Y-28750500D01*
X44215694Y-28750500D01*
X44252569Y-28747598D01*
X44252571Y-28747597D01*
X44252573Y-28747597D01*
X44294191Y-28735505D01*
X44410398Y-28701744D01*
X44551865Y-28618081D01*
X44668081Y-28501865D01*
X44751744Y-28360398D01*
X44797598Y-28202569D01*
X44800500Y-28165694D01*
X44800500Y-27734306D01*
X44797598Y-27697431D01*
X44751744Y-27539602D01*
X44750574Y-27537624D01*
X44750130Y-27535874D01*
X44748647Y-27532446D01*
X44749200Y-27532206D01*
X44733396Y-27469901D01*
X44748753Y-27417603D01*
X44748184Y-27417357D01*
X44750182Y-27412738D01*
X44750581Y-27411382D01*
X44751281Y-27410197D01*
X44797100Y-27252486D01*
X44797295Y-27250001D01*
X44797295Y-27250000D01*
X44531815Y-27250000D01*
X44468694Y-27232732D01*
X44458506Y-27226707D01*
X44410398Y-27198256D01*
X44410397Y-27198255D01*
X44410396Y-27198255D01*
X44410393Y-27198254D01*
X44252573Y-27152402D01*
X44252567Y-27152401D01*
X44215701Y-27149500D01*
X44215694Y-27149500D01*
X43761500Y-27149500D01*
X43752814Y-27146949D01*
X43743853Y-27148238D01*
X43719812Y-27137259D01*
X43694461Y-27129815D01*
X43688533Y-27122974D01*
X43680297Y-27119213D01*
X43666007Y-27096978D01*
X43648706Y-27077011D01*
X43646418Y-27066496D01*
X43642523Y-27060435D01*
X43637500Y-27025500D01*
X43637500Y-26974500D01*
X43657185Y-26907461D01*
X43709989Y-26861706D01*
X43761500Y-26850500D01*
X44215686Y-26850500D01*
X44215694Y-26850500D01*
X44252569Y-26847598D01*
X44252571Y-26847597D01*
X44252573Y-26847597D01*
X44294191Y-26835505D01*
X44410398Y-26801744D01*
X44468694Y-26767268D01*
X44531815Y-26750000D01*
X44797295Y-26750000D01*
X44797295Y-26749998D01*
X44797100Y-26747511D01*
X44797099Y-26747505D01*
X44751283Y-26589806D01*
X44751281Y-26589801D01*
X44750578Y-26588612D01*
X44750310Y-26587558D01*
X44748184Y-26582644D01*
X44748976Y-26582300D01*
X44733395Y-26520888D01*
X44749009Y-26467714D01*
X44748646Y-26467557D01*
X44749920Y-26464612D01*
X44750579Y-26462369D01*
X44751742Y-26460401D01*
X44751744Y-26460398D01*
X44797598Y-26302569D01*
X44800500Y-26265694D01*
X44800500Y-25834306D01*
X44797598Y-25797431D01*
X44751744Y-25639602D01*
X44668081Y-25498135D01*
X44668079Y-25498133D01*
X44668076Y-25498129D01*
X44551870Y-25381923D01*
X44551862Y-25381917D01*
X44410396Y-25298255D01*
X44410393Y-25298254D01*
X44252573Y-25252402D01*
X44252567Y-25252401D01*
X44215701Y-25249500D01*
X44215694Y-25249500D01*
X43059306Y-25249500D01*
X43059298Y-25249500D01*
X43022432Y-25252401D01*
X43022426Y-25252402D01*
X42864606Y-25298254D01*
X42864603Y-25298255D01*
X42723137Y-25381917D01*
X42723129Y-25381923D01*
X42606923Y-25498129D01*
X42606914Y-25498140D01*
X42606729Y-25498455D01*
X42606519Y-25498650D01*
X42602139Y-25504298D01*
X42601227Y-25503591D01*
X42555657Y-25546136D01*
X42486915Y-25558637D01*
X42422327Y-25531988D01*
X42398143Y-25504078D01*
X42397861Y-25504298D01*
X42393823Y-25499092D01*
X42393271Y-25498455D01*
X42393085Y-25498140D01*
X42393076Y-25498129D01*
X42276870Y-25381923D01*
X42276862Y-25381917D01*
X42135396Y-25298255D01*
X42135393Y-25298254D01*
X41977573Y-25252402D01*
X41977567Y-25252401D01*
X41940701Y-25249500D01*
X41940694Y-25249500D01*
X40784306Y-25249500D01*
X40784298Y-25249500D01*
X40747432Y-25252401D01*
X40747426Y-25252402D01*
X40589606Y-25298254D01*
X40589603Y-25298255D01*
X40448137Y-25381917D01*
X40448127Y-25381924D01*
X40432047Y-25398005D01*
X40370723Y-25431489D01*
X40301032Y-25426503D01*
X40256687Y-25398003D01*
X38353412Y-23494727D01*
X38353411Y-23494726D01*
X38353407Y-23494723D01*
X38246865Y-23423535D01*
X38128482Y-23374499D01*
X38128476Y-23374497D01*
X38002809Y-23349500D01*
X38002807Y-23349500D01*
X37315761Y-23349500D01*
X37248722Y-23329815D01*
X37211446Y-23292539D01*
X37132034Y-23168972D01*
X37132028Y-23168965D01*
X37023299Y-23074750D01*
X37023297Y-23074748D01*
X37023294Y-23074746D01*
X37023290Y-23074744D01*
X36892419Y-23014976D01*
X36892414Y-23014975D01*
X36750000Y-22994500D01*
X35250000Y-22994500D01*
X35249997Y-22994500D01*
X35178059Y-22999644D01*
X35040005Y-23040182D01*
X34918965Y-23117970D01*
X34917243Y-23119463D01*
X34915169Y-23120410D01*
X34911508Y-23122763D01*
X34911169Y-23122236D01*
X34853688Y-23148489D01*
X34784529Y-23138546D01*
X34731725Y-23092791D01*
X34712040Y-23025752D01*
X34716265Y-22993658D01*
X34716391Y-22993187D01*
X34716392Y-22993186D01*
X34750500Y-22865892D01*
X34750500Y-22734108D01*
X34716392Y-22606814D01*
X34650500Y-22492686D01*
X34557314Y-22399500D01*
X34557311Y-22399498D01*
X34550865Y-22394552D01*
X34552675Y-22392192D01*
X34514280Y-22351920D01*
X34500500Y-22295107D01*
X34500500Y-22004427D01*
X34500816Y-21995581D01*
X34515130Y-21795443D01*
X34515131Y-21795434D01*
X34517646Y-21777938D01*
X34559356Y-21586200D01*
X34564335Y-21569242D01*
X34632911Y-21385382D01*
X34640251Y-21369310D01*
X34734294Y-21197083D01*
X34743850Y-21182214D01*
X34861443Y-21025128D01*
X34873017Y-21011771D01*
X35011771Y-20873017D01*
X35025128Y-20861443D01*
X35182214Y-20743850D01*
X35197083Y-20734294D01*
X35369310Y-20640251D01*
X35385382Y-20632911D01*
X35569242Y-20564335D01*
X35586200Y-20559356D01*
X35777938Y-20517646D01*
X35795436Y-20515130D01*
X35995582Y-20500816D01*
X36004428Y-20500500D01*
X36065892Y-20500500D01*
X43934108Y-20500500D01*
X43995572Y-20500500D01*
X44004418Y-20500816D01*
G37*
%TD.AperFunction*%
%TA.AperFunction,Conductor*%
G36*
X34877712Y-58244228D02*
G01*
X34892147Y-58242153D01*
X34911295Y-58250897D01*
X34931941Y-58254998D01*
X34952129Y-58269545D01*
X34955703Y-58271178D01*
X34960182Y-58275349D01*
X34960575Y-58275632D01*
X34961360Y-58276389D01*
X35078997Y-58394026D01*
X35091069Y-58401472D01*
X35100681Y-58410741D01*
X35135274Y-58471447D01*
X35131555Y-58541217D01*
X35090706Y-58597902D01*
X35079703Y-58605538D01*
X35079000Y-58605971D01*
X35078996Y-58605974D01*
X34955974Y-58728996D01*
X34955971Y-58729000D01*
X34860846Y-58883222D01*
X34859285Y-58882259D01*
X34844371Y-58899195D01*
X34824432Y-58924223D01*
X34821438Y-58925237D01*
X34819350Y-58927610D01*
X34788568Y-58936381D01*
X34758262Y-58946657D01*
X34755195Y-58945892D01*
X34752155Y-58946759D01*
X34721517Y-58937496D01*
X34690467Y-58929756D01*
X34687629Y-58927251D01*
X34685275Y-58926540D01*
X34662863Y-58907764D01*
X34653406Y-58897719D01*
X34650500Y-58892686D01*
X34619165Y-58861351D01*
X34617894Y-58860001D01*
X34602890Y-58830440D01*
X34587010Y-58801358D01*
X34587148Y-58799425D01*
X34586271Y-58797697D01*
X34589629Y-58764727D01*
X34591994Y-58731666D01*
X34593186Y-58729810D01*
X34593352Y-58728187D01*
X34597893Y-58722486D01*
X34620495Y-58687319D01*
X34650500Y-58657314D01*
X34716392Y-58543186D01*
X34750500Y-58415892D01*
X34750500Y-58364891D01*
X34756430Y-58344693D01*
X34757551Y-58323674D01*
X34766076Y-58311843D01*
X34770185Y-58297852D01*
X34786091Y-58284068D01*
X34798400Y-58266989D01*
X34811969Y-58261645D01*
X34822989Y-58252097D01*
X34843823Y-58249101D01*
X34863410Y-58241388D01*
X34877712Y-58244228D01*
G37*
%TD.AperFunction*%
%TA.AperFunction,Conductor*%
G36*
X35643039Y-52705685D02*
G01*
X35688794Y-52758489D01*
X35700000Y-52810000D01*
X35700000Y-54186000D01*
X36397828Y-54186000D01*
X36397839Y-54185999D01*
X36462242Y-54179074D01*
X36531002Y-54191478D01*
X36582140Y-54239087D01*
X36599500Y-54302363D01*
X36599500Y-56450500D01*
X36579815Y-56517539D01*
X36527011Y-56563294D01*
X36475500Y-56574500D01*
X35494144Y-56574500D01*
X35392223Y-56584913D01*
X35227077Y-56639637D01*
X35227066Y-56639642D01*
X35079000Y-56730971D01*
X34951971Y-56858000D01*
X34890648Y-56891484D01*
X34820956Y-56886500D01*
X34765023Y-56844628D01*
X34740606Y-56779164D01*
X34744516Y-56738223D01*
X34750500Y-56715892D01*
X34750500Y-56584108D01*
X34716392Y-56456814D01*
X34650500Y-56342686D01*
X34620495Y-56312681D01*
X34587010Y-56251358D01*
X34591994Y-56181666D01*
X34620495Y-56137319D01*
X34650500Y-56107314D01*
X34716392Y-55993186D01*
X34750500Y-55865892D01*
X34750500Y-55734108D01*
X34716392Y-55606814D01*
X34650500Y-55492686D01*
X34557314Y-55399500D01*
X34557311Y-55399498D01*
X34550865Y-55394552D01*
X34552675Y-55392192D01*
X34514280Y-55351920D01*
X34500500Y-55295107D01*
X34500500Y-54310000D01*
X34520185Y-54242961D01*
X34572989Y-54197206D01*
X34624500Y-54186000D01*
X35200000Y-54186000D01*
X35200000Y-52810000D01*
X35219685Y-52742961D01*
X35272489Y-52697206D01*
X35324000Y-52686000D01*
X35576000Y-52686000D01*
X35643039Y-52705685D01*
G37*
%TD.AperFunction*%
%TA.AperFunction,Conductor*%
G36*
X34637626Y-28438270D02*
G01*
X34642147Y-28437620D01*
X34670059Y-28450367D01*
X34698811Y-28461091D01*
X34701548Y-28464747D01*
X34705703Y-28466645D01*
X34722293Y-28492459D01*
X34740682Y-28517025D01*
X34742013Y-28523145D01*
X34743477Y-28525423D01*
X34748184Y-28551513D01*
X34749644Y-28571940D01*
X34778338Y-28669660D01*
X34787759Y-28701745D01*
X34790182Y-28709994D01*
X34867967Y-28831030D01*
X34867969Y-28831032D01*
X34976706Y-28925254D01*
X35017174Y-28943735D01*
X35107580Y-28985023D01*
X35107583Y-28985023D01*
X35107584Y-28985024D01*
X35250000Y-29005500D01*
X35250003Y-29005500D01*
X35730187Y-29005500D01*
X35797226Y-29025185D01*
X35842981Y-29077989D01*
X35852925Y-29147147D01*
X35823900Y-29210703D01*
X35765122Y-29248477D01*
X35752468Y-29251482D01*
X35747426Y-29252402D01*
X35589606Y-29298254D01*
X35589603Y-29298255D01*
X35448137Y-29381917D01*
X35448129Y-29381923D01*
X35331923Y-29498129D01*
X35331917Y-29498137D01*
X35248255Y-29639603D01*
X35248254Y-29639606D01*
X35202402Y-29797426D01*
X35202401Y-29797432D01*
X35199500Y-29834298D01*
X35199500Y-30265701D01*
X35202401Y-30302567D01*
X35202402Y-30302573D01*
X35248254Y-30460393D01*
X35248256Y-30460399D01*
X35249426Y-30462377D01*
X35249869Y-30464126D01*
X35251353Y-30467554D01*
X35250799Y-30467793D01*
X35266603Y-30530102D01*
X35251249Y-30582395D01*
X35251817Y-30582641D01*
X35249827Y-30587239D01*
X35249428Y-30588599D01*
X35248722Y-30589791D01*
X35248716Y-30589806D01*
X35202900Y-30747505D01*
X35202899Y-30747511D01*
X35202704Y-30749998D01*
X35202705Y-30750000D01*
X35468185Y-30750000D01*
X35531306Y-30767268D01*
X35589602Y-30801744D01*
X35631224Y-30813836D01*
X35747426Y-30847597D01*
X35747429Y-30847597D01*
X35747431Y-30847598D01*
X35784306Y-30850500D01*
X35784314Y-30850500D01*
X36238500Y-30850500D01*
X36247185Y-30853050D01*
X36256147Y-30851762D01*
X36280187Y-30862740D01*
X36305539Y-30870185D01*
X36311466Y-30877025D01*
X36319703Y-30880787D01*
X36333992Y-30903021D01*
X36351294Y-30922989D01*
X36353581Y-30933503D01*
X36357477Y-30939565D01*
X36362500Y-30974500D01*
X36362500Y-31025500D01*
X36342815Y-31092539D01*
X36290011Y-31138294D01*
X36238500Y-31149500D01*
X35784298Y-31149500D01*
X35747432Y-31152401D01*
X35747426Y-31152402D01*
X35589606Y-31198254D01*
X35589603Y-31198255D01*
X35531306Y-31232732D01*
X35468185Y-31250000D01*
X35202705Y-31250000D01*
X35202704Y-31250001D01*
X35202899Y-31252488D01*
X35202900Y-31252494D01*
X35248716Y-31410193D01*
X35248720Y-31410203D01*
X35249427Y-31411398D01*
X35249695Y-31412454D01*
X35251816Y-31417356D01*
X35251024Y-31417698D01*
X35266603Y-31479123D01*
X35250993Y-31532284D01*
X35251355Y-31532441D01*
X35250087Y-31535369D01*
X35249427Y-31537620D01*
X35248259Y-31539594D01*
X35248254Y-31539607D01*
X35202402Y-31697426D01*
X35202401Y-31697432D01*
X35199500Y-31734298D01*
X35199500Y-32165701D01*
X35202401Y-32202567D01*
X35202402Y-32202573D01*
X35248254Y-32360393D01*
X35248255Y-32360396D01*
X35331732Y-32501550D01*
X35331918Y-32501864D01*
X35331923Y-32501870D01*
X35448129Y-32618076D01*
X35448133Y-32618079D01*
X35448135Y-32618081D01*
X35589602Y-32701744D01*
X35631224Y-32713836D01*
X35747426Y-32747597D01*
X35747429Y-32747597D01*
X35747431Y-32747598D01*
X35784306Y-32750500D01*
X35784314Y-32750500D01*
X36940686Y-32750500D01*
X36940694Y-32750500D01*
X36977569Y-32747598D01*
X36977571Y-32747597D01*
X36977573Y-32747597D01*
X37019191Y-32735505D01*
X37135398Y-32701744D01*
X37276865Y-32618081D01*
X37393081Y-32501865D01*
X37393267Y-32501549D01*
X37393477Y-32501353D01*
X37397861Y-32495702D01*
X37398772Y-32496409D01*
X37444336Y-32453866D01*
X37513077Y-32441362D01*
X37577667Y-32468006D01*
X37601855Y-32495921D01*
X37602139Y-32495702D01*
X37606179Y-32500911D01*
X37606732Y-32501548D01*
X37606919Y-32501865D01*
X37606921Y-32501867D01*
X37606923Y-32501870D01*
X37723129Y-32618076D01*
X37723133Y-32618079D01*
X37723135Y-32618081D01*
X37864602Y-32701744D01*
X37906224Y-32713836D01*
X38022426Y-32747597D01*
X38022429Y-32747597D01*
X38022431Y-32747598D01*
X38059306Y-32750500D01*
X38059314Y-32750500D01*
X39215686Y-32750500D01*
X39215694Y-32750500D01*
X39252569Y-32747598D01*
X39252571Y-32747597D01*
X39252573Y-32747597D01*
X39294191Y-32735505D01*
X39410398Y-32701744D01*
X39551865Y-32618081D01*
X39668081Y-32501865D01*
X39751744Y-32360398D01*
X39797598Y-32202569D01*
X39800500Y-32165694D01*
X39800500Y-31734306D01*
X39797598Y-31697431D01*
X39770655Y-31604695D01*
X39751745Y-31539606D01*
X39751744Y-31539602D01*
X39750871Y-31538126D01*
X39750538Y-31536816D01*
X39748646Y-31532443D01*
X39749351Y-31532137D01*
X39733685Y-31470403D01*
X39739679Y-31436652D01*
X39743907Y-31423647D01*
X39751744Y-31410398D01*
X39781302Y-31308659D01*
X39781910Y-31306790D01*
X39800567Y-31279519D01*
X39818361Y-31251657D01*
X39820212Y-31250804D01*
X39821362Y-31249125D01*
X39851791Y-31236274D01*
X39881833Y-31222451D01*
X39883850Y-31222735D01*
X39885727Y-31221943D01*
X39918295Y-31227587D01*
X39951020Y-31232197D01*
X39953065Y-31233613D01*
X39954571Y-31233874D01*
X39958025Y-31237046D01*
X39987512Y-31257457D01*
X40194725Y-31464669D01*
X40212475Y-31482419D01*
X40245960Y-31543742D01*
X40243870Y-31604695D01*
X40202402Y-31747426D01*
X40202401Y-31747432D01*
X40199500Y-31784298D01*
X40199500Y-32215701D01*
X40202401Y-32252567D01*
X40202402Y-32252573D01*
X40248254Y-32410393D01*
X40248255Y-32410396D01*
X40331917Y-32551862D01*
X40331923Y-32551870D01*
X40448129Y-32668076D01*
X40448133Y-32668079D01*
X40448135Y-32668081D01*
X40589602Y-32751744D01*
X40631224Y-32763836D01*
X40747426Y-32797597D01*
X40747429Y-32797597D01*
X40747431Y-32797598D01*
X40784306Y-32800500D01*
X40784314Y-32800500D01*
X41940686Y-32800500D01*
X41940694Y-32800500D01*
X41940729Y-32800497D01*
X41940734Y-32800498D01*
X41943132Y-32800404D01*
X41943155Y-32801005D01*
X42009111Y-32814837D01*
X42058885Y-32863872D01*
X42074500Y-32924111D01*
X42074500Y-34827689D01*
X42054815Y-34894728D01*
X42038181Y-34915370D01*
X41500000Y-35453551D01*
X41500000Y-35447339D01*
X41472741Y-35345606D01*
X41420080Y-35254394D01*
X41345606Y-35179920D01*
X41254394Y-35127259D01*
X41152661Y-35100000D01*
X41146447Y-35100000D01*
X41682737Y-34563709D01*
X41676525Y-34559196D01*
X41522259Y-34480592D01*
X41357584Y-34427085D01*
X41186571Y-34400000D01*
X41013429Y-34400000D01*
X40842415Y-34427085D01*
X40677740Y-34480592D01*
X40523480Y-34559193D01*
X40523463Y-34559203D01*
X40517261Y-34563708D01*
X40517261Y-34563709D01*
X41053554Y-35100000D01*
X41047339Y-35100000D01*
X40945606Y-35127259D01*
X40854394Y-35179920D01*
X40779920Y-35254394D01*
X40727259Y-35345606D01*
X40700000Y-35447339D01*
X40700000Y-35453552D01*
X40163709Y-34917261D01*
X40163708Y-34917261D01*
X40159203Y-34923463D01*
X40159192Y-34923481D01*
X40110764Y-35018525D01*
X40062789Y-35069321D01*
X39994968Y-35086115D01*
X39928833Y-35063577D01*
X39889795Y-35018523D01*
X39841233Y-34923213D01*
X39820537Y-34894728D01*
X39739414Y-34783072D01*
X39616928Y-34660586D01*
X39476788Y-34558768D01*
X39322445Y-34480127D01*
X39157701Y-34426598D01*
X39157699Y-34426597D01*
X39157698Y-34426597D01*
X39026271Y-34405781D01*
X38986611Y-34399500D01*
X38813389Y-34399500D01*
X38773728Y-34405781D01*
X38642302Y-34426597D01*
X38477552Y-34480128D01*
X38323211Y-34558768D01*
X38243256Y-34616859D01*
X38183072Y-34660586D01*
X38183070Y-34660588D01*
X38183069Y-34660588D01*
X38060588Y-34783069D01*
X38060588Y-34783070D01*
X38060586Y-34783072D01*
X38028170Y-34827689D01*
X37958768Y-34923211D01*
X37880128Y-35077552D01*
X37826597Y-35242302D01*
X37799500Y-35413389D01*
X37799500Y-35586616D01*
X37802460Y-35605306D01*
X37793505Y-35674599D01*
X37767668Y-35712384D01*
X34994726Y-38485326D01*
X34923534Y-38591874D01*
X34874499Y-38710255D01*
X34874497Y-38710261D01*
X34849500Y-38835928D01*
X34849500Y-50495064D01*
X34829815Y-50562103D01*
X34828603Y-50563954D01*
X34790608Y-50620817D01*
X34790602Y-50620828D01*
X34739061Y-50745262D01*
X34695220Y-50799666D01*
X34628926Y-50821731D01*
X34561227Y-50804452D01*
X34513616Y-50753315D01*
X34500500Y-50697810D01*
X34500500Y-28560358D01*
X34509144Y-28530918D01*
X34515668Y-28500931D01*
X34518898Y-28497700D01*
X34520185Y-28493319D01*
X34543369Y-28473229D01*
X34565074Y-28451525D01*
X34569538Y-28450553D01*
X34572989Y-28447564D01*
X34603357Y-28443197D01*
X34633347Y-28436674D01*
X34637626Y-28438270D01*
G37*
%TD.AperFunction*%
%TD*%
M02*
