%TF.GenerationSoftware,KiCad,Pcbnew,10.0.4-10.0.4~ubuntu26.04.1*%
%TF.CreationDate,2026-07-08T21:58:59-05:00*%
%TF.ProjectId,magnetic-connector,6d61676e-6574-4696-932d-636f6e6e6563,rev?*%
%TF.SameCoordinates,Original*%
%TF.FileFunction,Copper,L2,Bot*%
%TF.FilePolarity,Positive*%
%FSLAX46Y46*%
G04 Gerber Fmt 4.6, Leading zero omitted, Abs format (unit mm)*
G04 Created by KiCad (PCBNEW 10.0.4-10.0.4~ubuntu26.04.1) date 2026-07-08 21:58:59*
%MOMM*%
%LPD*%
G01*
G04 APERTURE LIST*
%TA.AperFunction,ComponentPad*%
%ADD10C,1.200000*%
%TD*%
%TA.AperFunction,ComponentPad*%
%ADD11C,4.000000*%
%TD*%
%TA.AperFunction,ViaPad*%
%ADD12C,0.600000*%
%TD*%
%TA.AperFunction,Conductor*%
%ADD13C,0.300000*%
%TD*%
%TA.AperFunction,Conductor*%
%ADD14C,0.500000*%
%TD*%
%TA.AperFunction,Conductor*%
%ADD15C,0.200000*%
%TD*%
G04 APERTURE END LIST*
D10*
%TO.P,J_MC_CLI1,1,SCLK_1*%
%TO.N,/Client/SCLK*%
X41100000Y-46500000D03*
%TO.P,J_MC_CLI1,2,MISO_2*%
%TO.N,/Client/MISO*%
X38900000Y-46500000D03*
%TO.P,J_MC_CLI1,3,SPI_CS_3*%
%TO.N,/Client/CS*%
X41100000Y-44300000D03*
%TO.P,J_MC_CLI1,4,GP_AD2_4*%
%TO.N,/Client/GP2*%
X38900000Y-44300000D03*
%TO.P,J_MC_CLI1,5,MOSI_5*%
%TO.N,/Client/MOSI*%
X41100000Y-42100000D03*
%TO.P,J_MC_CLI1,6,GP_AD1_6*%
%TO.N,/Client/GP1*%
X38900000Y-42100000D03*
%TO.P,J_MC_CLI1,7,5V_7*%
%TO.N,/Client/5V_IN*%
X41100000Y-39900000D03*
%TO.P,J_MC_CLI1,8,RGB_DO_8*%
%TO.N,/Client/RGB_DO*%
X38900000Y-39900000D03*
%TO.P,J_MC_CLI1,9,SCL_9*%
%TO.N,/Client/SCL*%
X41100000Y-37700000D03*
%TO.P,J_MC_CLI1,10,SDA_10*%
%TO.N,/Client/SDA*%
X38900000Y-37700000D03*
%TO.P,J_MC_CLI1,11,GND_11*%
%TO.N,/Client/GND*%
X41100000Y-35500000D03*
%TO.P,J_MC_CLI1,12,3V3_12*%
%TO.N,/Client/3V3_IN*%
X38900000Y-35500000D03*
%TD*%
D11*
%TO.P,H_CLI_1,1,1_1*%
%TO.N,/Client/GND*%
X40000000Y-22500000D03*
%TD*%
%TO.P,H_HOST_2,1,1_1*%
%TO.N,/Host/GND*%
X26000000Y-59500000D03*
%TD*%
%TO.P,H_CLI_2,1,1_1*%
%TO.N,/Client/GND*%
X40000000Y-59500000D03*
%TD*%
D10*
%TO.P,J_MC_HOST1,1,3V3_1*%
%TO.N,/Host/3V3_OUT*%
X27100000Y-35500000D03*
%TO.P,J_MC_HOST1,2,GND_2*%
%TO.N,/Host/GND*%
X24900000Y-35500000D03*
%TO.P,J_MC_HOST1,3,SDA_3*%
%TO.N,/Host/SDA*%
X27100000Y-37700000D03*
%TO.P,J_MC_HOST1,4,SCL_4*%
%TO.N,/Host/SCL*%
X24900000Y-37700000D03*
%TO.P,J_MC_HOST1,5,RGB_DO_5*%
%TO.N,/Host/RGB_DO*%
X27100000Y-39900000D03*
%TO.P,J_MC_HOST1,6,5V_6*%
%TO.N,/Host/5V_OUT*%
X24900000Y-39900000D03*
%TO.P,J_MC_HOST1,7,GP_AD1_7*%
%TO.N,/Host/GP1*%
X27100000Y-42100000D03*
%TO.P,J_MC_HOST1,8,MOSI_8*%
%TO.N,/Host/MOSI*%
X24900000Y-42100000D03*
%TO.P,J_MC_HOST1,9,GP_AD2_9*%
%TO.N,/Host/GP2*%
X27100000Y-44300000D03*
%TO.P,J_MC_HOST1,10,SPI_CS_10*%
%TO.N,/Host/CS*%
X24900000Y-44300000D03*
%TO.P,J_MC_HOST1,11,MISO_11*%
%TO.N,/Host/MISO*%
X27100000Y-46500000D03*
%TO.P,J_MC_HOST1,12,SCLK_12*%
%TO.N,/Host/SCLK*%
X24900000Y-46500000D03*
%TD*%
D11*
%TO.P,H_HOST_1,1,1_1*%
%TO.N,/Host/GND*%
X26000000Y-22500000D03*
%TD*%
D12*
%TO.N,/Host/GND*%
X31000000Y-36000000D03*
X21000000Y-48000000D03*
%TO.N,/Client/MOSI*%
X43637500Y-26050000D03*
%TO.N,/Client/CS*%
X41362500Y-26050000D03*
%TO.N,/Client/SCLK*%
X41362500Y-27950000D03*
%TO.N,/Client/MISO*%
X43637500Y-27950000D03*
%TO.N,/Client/GP2*%
X36362500Y-31950000D03*
%TO.N,/Client/GP1*%
X36362500Y-30050000D03*
%TO.N,/Client/RGB_DO*%
X38637500Y-31950000D03*
%TO.N,/Client/3V3_OUT*%
X36000000Y-24000000D03*
X36000000Y-59437500D03*
%TO.N,/Client/5V_OUT*%
X36000000Y-28000000D03*
X44000000Y-59437500D03*
%TO.N,/Host/GND*%
X29500000Y-31050000D03*
%TO.N,/Host/RGB_DO*%
X27225000Y-30100000D03*
%TO.N,/Host/MISO*%
X22500000Y-26100000D03*
%TO.N,/Host/SCLK*%
X24775000Y-26100000D03*
%TO.N,/Host/CS*%
X24775000Y-28000000D03*
%TO.N,/Host/MOSI*%
X22500000Y-28000000D03*
%TO.N,/Host/SCL*%
X22500000Y-30100000D03*
%TO.N,/Host/GP2*%
X29500000Y-30100000D03*
%TO.N,/Host/GP1*%
X29500000Y-32000000D03*
%TO.N,/Client/5V_IN*%
X44000000Y-57562500D03*
X44190000Y-48000000D03*
%TO.N,/Client/GND*%
X36500000Y-55000000D03*
X42000000Y-54000000D03*
%TO.N,/Client/3V3_IN*%
X36000000Y-57562500D03*
X35500000Y-51000000D03*
%TO.N,/Host/GND*%
X24000000Y-54000000D03*
%TO.N,/Host/3V3_OUT*%
X30000000Y-57625000D03*
X30000000Y-48500000D03*
%TO.N,/Host/5V_OUT*%
X22000000Y-57562500D03*
X21810000Y-50976214D03*
%TD*%
%TO.N,/Host/3V3_OUT*%
D13*
X30000000Y-48500000D02*
X30000000Y-57625000D01*
%TO.N,/Host/GND*%
D14*
X26000000Y-59500000D02*
X26000000Y-50500000D01*
X26000000Y-50500000D02*
X31000000Y-45500000D01*
%TO.N,/Client/5V_IN*%
D13*
X44190000Y-48000000D02*
X44190000Y-52747500D01*
X44000000Y-52937500D02*
X44000000Y-57562500D01*
X44190000Y-52747500D02*
X44000000Y-52937500D01*
%TO.N,/Host/GND*%
D14*
X31000000Y-36000000D02*
X31000000Y-27500000D01*
%TO.N,/Client/3V3_OUT*%
D13*
X36000000Y-59437500D02*
X34900000Y-58337500D01*
X34900000Y-58337500D02*
X34900000Y-51319239D01*
X34900000Y-51319239D02*
X34850000Y-51269239D01*
X36000000Y-26000000D02*
X36000000Y-24000000D01*
X34850000Y-51269239D02*
X34850000Y-27150000D01*
X34850000Y-27150000D02*
X36000000Y-26000000D01*
%TO.N,/Client/5V_OUT*%
X44000000Y-59437500D02*
X44000000Y-58580761D01*
X44000000Y-58580761D02*
X35500000Y-50080761D01*
X35500000Y-50080761D02*
X35500000Y-28500000D01*
X35500000Y-28500000D02*
X36000000Y-28000000D01*
%TO.N,/Client/MOSI*%
D15*
X41100000Y-42100000D02*
X43250000Y-39950000D01*
X43250000Y-39950000D02*
X43250000Y-31315686D01*
X41341789Y-25222182D02*
X42809682Y-25222182D01*
X43250000Y-31315686D02*
X40362500Y-28428185D01*
X40362500Y-28428185D02*
X40362500Y-26201471D01*
X40362500Y-26201471D02*
X41341789Y-25222182D01*
X42809682Y-25222182D02*
X43637500Y-26050000D01*
%TO.N,/Client/CS*%
X41100000Y-44300000D02*
X43650000Y-41750000D01*
X43650000Y-41750000D02*
X43650000Y-31150000D01*
X43650000Y-31150000D02*
X40762500Y-28262500D01*
X40762500Y-28262500D02*
X40762500Y-26650000D01*
X40762500Y-26650000D02*
X41362500Y-26050000D01*
%TO.N,/Client/SCLK*%
X41100000Y-46500000D02*
X44050000Y-43550000D01*
X44050000Y-43550000D02*
X44050000Y-30637500D01*
X44050000Y-30637500D02*
X41362500Y-27950000D01*
%TO.N,/Client/MISO*%
X38900000Y-46500000D02*
X39900000Y-47500000D01*
X39900000Y-47500000D02*
X41500000Y-47500000D01*
X41500000Y-47500000D02*
X44450000Y-44550000D01*
X44450000Y-44550000D02*
X44450000Y-28762500D01*
X44450000Y-28762500D02*
X43637500Y-27950000D01*
%TO.N,/Client/GND*%
D14*
X40000000Y-59500000D02*
X41500000Y-61000000D01*
X41500000Y-61000000D02*
X44000000Y-61000000D01*
X44000000Y-61000000D02*
X45000000Y-60000000D01*
X45000000Y-60000000D02*
X45000000Y-26000000D01*
X45000000Y-26000000D02*
X41500000Y-22500000D01*
X41500000Y-22500000D02*
X40000000Y-22500000D01*
%TO.N,/Client/GP2*%
D15*
X38900000Y-44300000D02*
X36362500Y-41762500D01*
X36362500Y-41762500D02*
X36362500Y-31950000D01*
%TO.N,/Client/GP1*%
X38900000Y-42100000D02*
X37500000Y-40700000D01*
X37500000Y-40700000D02*
X37500000Y-31187500D01*
X37500000Y-31187500D02*
X36362500Y-30050000D01*
%TO.N,/Client/RGB_DO*%
X38900000Y-39900000D02*
X38000000Y-39000000D01*
X38000000Y-39000000D02*
X38000000Y-32587500D01*
X38000000Y-32587500D02*
X38637500Y-31950000D01*
%TO.N,/Host/GND*%
D13*
X24900000Y-35500000D02*
X25850000Y-36450000D01*
X25850000Y-36450000D02*
X25850000Y-44393503D01*
X25850000Y-44393503D02*
X26956497Y-45500000D01*
X26956497Y-45500000D02*
X31000000Y-45500000D01*
%TO.N,/Host/MISO*%
D15*
X22500000Y-26100000D02*
X21837501Y-26100000D01*
X21837501Y-26100000D02*
X20700000Y-27237501D01*
X20700000Y-27237501D02*
X20700000Y-43572793D01*
X20700000Y-43572793D02*
X24527207Y-47400000D01*
X24527207Y-47400000D02*
X26200000Y-47400000D01*
X26200000Y-47400000D02*
X27100000Y-46500000D01*
%TO.N,/Host/GND*%
D13*
X26000000Y-22500000D02*
X28750000Y-25250000D01*
X28750000Y-25250000D02*
X28750000Y-30410661D01*
X28750000Y-30410661D02*
X29389339Y-31050000D01*
D14*
X29389339Y-31050000D02*
X29500000Y-31050000D01*
%TO.N,/Host/RGB_DO*%
D15*
X27100000Y-39900000D02*
X28000000Y-39000000D01*
X28000000Y-39000000D02*
X28000000Y-30875000D01*
X28000000Y-30875000D02*
X27225000Y-30100000D01*
%TO.N,/Host/SCLK*%
X24900000Y-46500000D02*
X21100000Y-42700000D01*
X24000000Y-27000000D02*
X24775000Y-26225000D01*
X24775000Y-26225000D02*
X24775000Y-26100000D01*
X21100000Y-42700000D02*
X21100000Y-27985785D01*
X21100000Y-27985785D02*
X22085786Y-27000000D01*
X22085786Y-27000000D02*
X24000000Y-27000000D01*
%TO.N,/Host/GND*%
D14*
X31000000Y-45500000D02*
X31000000Y-36000000D01*
X31000000Y-27500000D02*
X26000000Y-22500000D01*
%TO.N,/Host/CS*%
D15*
X24900000Y-44300000D02*
X21500000Y-40900000D01*
X21500000Y-40900000D02*
X21500000Y-28151471D01*
X21500000Y-28151471D02*
X22251471Y-27400000D01*
X22251471Y-27400000D02*
X24175000Y-27400000D01*
X24175000Y-27400000D02*
X24775000Y-28000000D01*
%TO.N,/Host/MOSI*%
X24900000Y-42100000D02*
X21900000Y-39100000D01*
X21900000Y-39100000D02*
X21900000Y-28600000D01*
X21900000Y-28600000D02*
X22500000Y-28000000D01*
%TO.N,/Host/SCL*%
X24900000Y-37700000D02*
X24000000Y-36800000D01*
X24000000Y-36800000D02*
X24000000Y-31600000D01*
X24000000Y-31600000D02*
X22500000Y-30100000D01*
%TO.N,/Host/GP2*%
X27100000Y-44300000D02*
X30100000Y-41300000D01*
X30100000Y-41300000D02*
X30100000Y-30700000D01*
X30100000Y-30700000D02*
X29500000Y-30100000D01*
%TO.N,/Host/GP1*%
X27100000Y-42100000D02*
X29500000Y-39700000D01*
X29500000Y-39700000D02*
X29500000Y-32000000D01*
%TO.N,/Client/3V3_IN*%
D13*
X35500000Y-51000000D02*
X35500000Y-57062500D01*
X35500000Y-57062500D02*
X36000000Y-57562500D01*
%TO.N,/Host/5V_OUT*%
X22000000Y-57562500D02*
X22000000Y-53437500D01*
X22000000Y-53437500D02*
X21810000Y-53247500D01*
X21810000Y-53247500D02*
X21810000Y-50976214D01*
%TD*%
%TA.AperFunction,Conductor*%
%TO.N,/Host/GND*%
G36*
X30004418Y-20500816D02*
G01*
X30204561Y-20515130D01*
X30222063Y-20517647D01*
X30413795Y-20559355D01*
X30430760Y-20564336D01*
X30614611Y-20632909D01*
X30630694Y-20640253D01*
X30747495Y-20704032D01*
X30802908Y-20734290D01*
X30817791Y-20743855D01*
X30974864Y-20861438D01*
X30988235Y-20873024D01*
X31126975Y-21011764D01*
X31138561Y-21025135D01*
X31256144Y-21182208D01*
X31265709Y-21197091D01*
X31359743Y-21369300D01*
X31367093Y-21385394D01*
X31435661Y-21569234D01*
X31440645Y-21586209D01*
X31482351Y-21777931D01*
X31484869Y-21795442D01*
X31499184Y-21995580D01*
X31499500Y-22004427D01*
X31499500Y-22295107D01*
X31479815Y-22362146D01*
X31447739Y-22392732D01*
X31449135Y-22394552D01*
X31442683Y-22399502D01*
X31349502Y-22492683D01*
X31349500Y-22492686D01*
X31283608Y-22606812D01*
X31249500Y-22734108D01*
X31249500Y-22865891D01*
X31283608Y-22993187D01*
X31287253Y-22999500D01*
X31349500Y-23107314D01*
X31349502Y-23107316D01*
X31379505Y-23137319D01*
X31412990Y-23198642D01*
X31408006Y-23268334D01*
X31379505Y-23312681D01*
X31349502Y-23342683D01*
X31349500Y-23342686D01*
X31283608Y-23456812D01*
X31249500Y-23584108D01*
X31249500Y-23715891D01*
X31283608Y-23843187D01*
X31310964Y-23890568D01*
X31349500Y-23957314D01*
X31349502Y-23957316D01*
X31379505Y-23987319D01*
X31412990Y-24048642D01*
X31408006Y-24118334D01*
X31379505Y-24162681D01*
X31349502Y-24192683D01*
X31349500Y-24192686D01*
X31283608Y-24306812D01*
X31249500Y-24434108D01*
X31249500Y-24565891D01*
X31283608Y-24693187D01*
X31316554Y-24750250D01*
X31349500Y-24807314D01*
X31349502Y-24807316D01*
X31379505Y-24837319D01*
X31412990Y-24898642D01*
X31408006Y-24968334D01*
X31379505Y-25012681D01*
X31349502Y-25042683D01*
X31349500Y-25042686D01*
X31283608Y-25156812D01*
X31249500Y-25284108D01*
X31249500Y-25415891D01*
X31283608Y-25543187D01*
X31310467Y-25589707D01*
X31349500Y-25657314D01*
X31349502Y-25657316D01*
X31379505Y-25687319D01*
X31412990Y-25748642D01*
X31408006Y-25818334D01*
X31379505Y-25862681D01*
X31349502Y-25892683D01*
X31349500Y-25892686D01*
X31283608Y-26006812D01*
X31249500Y-26134108D01*
X31249500Y-26265891D01*
X31283608Y-26393187D01*
X31316554Y-26450250D01*
X31349500Y-26507314D01*
X31442686Y-26600500D01*
X31442688Y-26600501D01*
X31449137Y-26605450D01*
X31447324Y-26607812D01*
X31485710Y-26648062D01*
X31499500Y-26704893D01*
X31499500Y-55295107D01*
X31479815Y-55362146D01*
X31447739Y-55392732D01*
X31449135Y-55394552D01*
X31442683Y-55399502D01*
X31349502Y-55492683D01*
X31349500Y-55492686D01*
X31283608Y-55606812D01*
X31249500Y-55734108D01*
X31249500Y-55865891D01*
X31283608Y-55993187D01*
X31287253Y-55999500D01*
X31349500Y-56107314D01*
X31349502Y-56107316D01*
X31379505Y-56137319D01*
X31412990Y-56198642D01*
X31408006Y-56268334D01*
X31379505Y-56312681D01*
X31349502Y-56342683D01*
X31349500Y-56342686D01*
X31283608Y-56456812D01*
X31249500Y-56584108D01*
X31249500Y-56715891D01*
X31283608Y-56843187D01*
X31310964Y-56890568D01*
X31349500Y-56957314D01*
X31349502Y-56957316D01*
X31379505Y-56987319D01*
X31412990Y-57048642D01*
X31408006Y-57118334D01*
X31379505Y-57162681D01*
X31349502Y-57192683D01*
X31349500Y-57192686D01*
X31283608Y-57306812D01*
X31249500Y-57434108D01*
X31249500Y-57565891D01*
X31283608Y-57693187D01*
X31316554Y-57750250D01*
X31349500Y-57807314D01*
X31349502Y-57807316D01*
X31379505Y-57837319D01*
X31412990Y-57898642D01*
X31408006Y-57968334D01*
X31379505Y-58012681D01*
X31349502Y-58042683D01*
X31349500Y-58042686D01*
X31283608Y-58156812D01*
X31252774Y-58271890D01*
X31249500Y-58284108D01*
X31249500Y-58415892D01*
X31266554Y-58479539D01*
X31283608Y-58543187D01*
X31316554Y-58600250D01*
X31349500Y-58657314D01*
X31349502Y-58657316D01*
X31379505Y-58687319D01*
X31412990Y-58748642D01*
X31408006Y-58818334D01*
X31379505Y-58862681D01*
X31349502Y-58892683D01*
X31349500Y-58892686D01*
X31283608Y-59006812D01*
X31249500Y-59134108D01*
X31249500Y-59265891D01*
X31283608Y-59393187D01*
X31316554Y-59450250D01*
X31349500Y-59507314D01*
X31442686Y-59600500D01*
X31442688Y-59600501D01*
X31449137Y-59605450D01*
X31447324Y-59607812D01*
X31485710Y-59648062D01*
X31499500Y-59704893D01*
X31499500Y-59978821D01*
X31498761Y-59992337D01*
X31475097Y-60208145D01*
X31471685Y-60226445D01*
X31415951Y-60436394D01*
X31409838Y-60453976D01*
X31323304Y-60653215D01*
X31314627Y-60669684D01*
X31199242Y-60853725D01*
X31188198Y-60868711D01*
X31046564Y-61033402D01*
X31033402Y-61046564D01*
X30868711Y-61188198D01*
X30853725Y-61199242D01*
X30669684Y-61314627D01*
X30653215Y-61323304D01*
X30453976Y-61409838D01*
X30436394Y-61415951D01*
X30226445Y-61471685D01*
X30208145Y-61475097D01*
X29992339Y-61498761D01*
X29978823Y-61499500D01*
X22004428Y-61499500D01*
X21995582Y-61499184D01*
X21973622Y-61497613D01*
X21795442Y-61484869D01*
X21777931Y-61482351D01*
X21586209Y-61440645D01*
X21569234Y-61435661D01*
X21385394Y-61367093D01*
X21369300Y-61359743D01*
X21197091Y-61265709D01*
X21182208Y-61256144D01*
X21025135Y-61138561D01*
X21011764Y-61126975D01*
X20873024Y-60988235D01*
X20861438Y-60974864D01*
X20743855Y-60817791D01*
X20734290Y-60802908D01*
X20640256Y-60630699D01*
X20632909Y-60614611D01*
X20564336Y-60430760D01*
X20559354Y-60413790D01*
X20518600Y-60226445D01*
X20517647Y-60222063D01*
X20515130Y-60204556D01*
X20512358Y-60165802D01*
X20500816Y-60004418D01*
X20500500Y-59995572D01*
X20500500Y-50897367D01*
X21009500Y-50897367D01*
X21009500Y-51055060D01*
X21040261Y-51209703D01*
X21040264Y-51209715D01*
X21100602Y-51355386D01*
X21100606Y-51355393D01*
X21138602Y-51412258D01*
X21159480Y-51478935D01*
X21159500Y-51481149D01*
X21159500Y-53311569D01*
X21159500Y-53311571D01*
X21159499Y-53311571D01*
X21184497Y-53437238D01*
X21184499Y-53437244D01*
X21233535Y-53555627D01*
X21304723Y-53662169D01*
X21313179Y-53670625D01*
X21346665Y-53731945D01*
X21349500Y-53758308D01*
X21349500Y-57057564D01*
X21329815Y-57124603D01*
X21328603Y-57126454D01*
X21290608Y-57183317D01*
X21290602Y-57183328D01*
X21230264Y-57328998D01*
X21230261Y-57329010D01*
X21199500Y-57483653D01*
X21199500Y-57641346D01*
X21230261Y-57795989D01*
X21230264Y-57796001D01*
X21290602Y-57941672D01*
X21290609Y-57941685D01*
X21378210Y-58072788D01*
X21378213Y-58072792D01*
X21489707Y-58184286D01*
X21489711Y-58184289D01*
X21620814Y-58271890D01*
X21620827Y-58271897D01*
X21766498Y-58332235D01*
X21766503Y-58332237D01*
X21883368Y-58355483D01*
X21921153Y-58362999D01*
X21921156Y-58363000D01*
X21921158Y-58363000D01*
X22078844Y-58363000D01*
X22078845Y-58362999D01*
X22233497Y-58332237D01*
X22379179Y-58271894D01*
X22510289Y-58184289D01*
X22621789Y-58072789D01*
X22709394Y-57941679D01*
X22769737Y-57795997D01*
X22800500Y-57641342D01*
X22800500Y-57483658D01*
X22800500Y-57483655D01*
X22800499Y-57483653D01*
X22769738Y-57329010D01*
X22769737Y-57329003D01*
X22735282Y-57245821D01*
X22709397Y-57183328D01*
X22709396Y-57183327D01*
X22709394Y-57183321D01*
X22671396Y-57126453D01*
X22650520Y-57059776D01*
X22650500Y-57057564D01*
X22650500Y-53373428D01*
X22625502Y-53247761D01*
X22625501Y-53247760D01*
X22625501Y-53247756D01*
X22598857Y-53183431D01*
X22576466Y-53129374D01*
X22505277Y-53022831D01*
X22486545Y-53004099D01*
X22478923Y-52991725D01*
X22473394Y-52971473D01*
X22463334Y-52953049D01*
X22460500Y-52926691D01*
X22460500Y-51481149D01*
X22480185Y-51414110D01*
X22481366Y-51412304D01*
X22519394Y-51355393D01*
X22579737Y-51209711D01*
X22610500Y-51055056D01*
X22610500Y-50897372D01*
X22610500Y-50897369D01*
X22610499Y-50897367D01*
X22579738Y-50742724D01*
X22579737Y-50742717D01*
X22579735Y-50742712D01*
X22519397Y-50597041D01*
X22519390Y-50597028D01*
X22431789Y-50465925D01*
X22431786Y-50465921D01*
X22320292Y-50354427D01*
X22320288Y-50354424D01*
X22189185Y-50266823D01*
X22189172Y-50266816D01*
X22043501Y-50206478D01*
X22043489Y-50206475D01*
X21888845Y-50175714D01*
X21888842Y-50175714D01*
X21731158Y-50175714D01*
X21731155Y-50175714D01*
X21576510Y-50206475D01*
X21576498Y-50206478D01*
X21430827Y-50266816D01*
X21430814Y-50266823D01*
X21299711Y-50354424D01*
X21299707Y-50354427D01*
X21188213Y-50465921D01*
X21188210Y-50465925D01*
X21100609Y-50597028D01*
X21100602Y-50597041D01*
X21040264Y-50742712D01*
X21040261Y-50742724D01*
X21009500Y-50897367D01*
X20500500Y-50897367D01*
X20500500Y-48421153D01*
X29199500Y-48421153D01*
X29199500Y-48578846D01*
X29230261Y-48733489D01*
X29230264Y-48733501D01*
X29290602Y-48879172D01*
X29290606Y-48879179D01*
X29328602Y-48936044D01*
X29349480Y-49002721D01*
X29349500Y-49004935D01*
X29349500Y-57120064D01*
X29329815Y-57187103D01*
X29328603Y-57188954D01*
X29290608Y-57245817D01*
X29290602Y-57245828D01*
X29230264Y-57391498D01*
X29230261Y-57391510D01*
X29199500Y-57546153D01*
X29199500Y-57703846D01*
X29230261Y-57858489D01*
X29230264Y-57858501D01*
X29290602Y-58004172D01*
X29290609Y-58004185D01*
X29378210Y-58135288D01*
X29378213Y-58135292D01*
X29489707Y-58246786D01*
X29489711Y-58246789D01*
X29620814Y-58334390D01*
X29620827Y-58334397D01*
X29766498Y-58394735D01*
X29766503Y-58394737D01*
X29872851Y-58415891D01*
X29921153Y-58425499D01*
X29921156Y-58425500D01*
X29921158Y-58425500D01*
X30078844Y-58425500D01*
X30078845Y-58425499D01*
X30233497Y-58394737D01*
X30379179Y-58334394D01*
X30510289Y-58246789D01*
X30621789Y-58135289D01*
X30709394Y-58004179D01*
X30769737Y-57858497D01*
X30800500Y-57703842D01*
X30800500Y-57546158D01*
X30800500Y-57546155D01*
X30800499Y-57546153D01*
X30788067Y-57483653D01*
X30769737Y-57391503D01*
X30709394Y-57245821D01*
X30671396Y-57188953D01*
X30650520Y-57122276D01*
X30650500Y-57120064D01*
X30650500Y-49004935D01*
X30670185Y-48937896D01*
X30671366Y-48936090D01*
X30709394Y-48879179D01*
X30769737Y-48733497D01*
X30800500Y-48578842D01*
X30800500Y-48421158D01*
X30800500Y-48421155D01*
X30800499Y-48421153D01*
X30769738Y-48266510D01*
X30769737Y-48266503D01*
X30769735Y-48266498D01*
X30709397Y-48120827D01*
X30709390Y-48120814D01*
X30621789Y-47989711D01*
X30621786Y-47989707D01*
X30510292Y-47878213D01*
X30510288Y-47878210D01*
X30379185Y-47790609D01*
X30379172Y-47790602D01*
X30233501Y-47730264D01*
X30233489Y-47730261D01*
X30078845Y-47699500D01*
X30078842Y-47699500D01*
X29921158Y-47699500D01*
X29921155Y-47699500D01*
X29766510Y-47730261D01*
X29766498Y-47730264D01*
X29620827Y-47790602D01*
X29620814Y-47790609D01*
X29489711Y-47878210D01*
X29489707Y-47878213D01*
X29378213Y-47989707D01*
X29378210Y-47989711D01*
X29290609Y-48120814D01*
X29290602Y-48120827D01*
X29230264Y-48266498D01*
X29230261Y-48266510D01*
X29199500Y-48421153D01*
X20500500Y-48421153D01*
X20500500Y-44521890D01*
X20520185Y-44454851D01*
X20572989Y-44409096D01*
X20642147Y-44399152D01*
X20705703Y-44428177D01*
X20712181Y-44434209D01*
X24042346Y-47764374D01*
X24042356Y-47764385D01*
X24046686Y-47768715D01*
X24046687Y-47768716D01*
X24158491Y-47880520D01*
X24232996Y-47923535D01*
X24295422Y-47959577D01*
X24448150Y-48000501D01*
X24448153Y-48000501D01*
X24613860Y-48000501D01*
X24613876Y-48000500D01*
X26113331Y-48000500D01*
X26113347Y-48000501D01*
X26120943Y-48000501D01*
X26279054Y-48000501D01*
X26279057Y-48000501D01*
X26431785Y-47959577D01*
X26494211Y-47923535D01*
X26568716Y-47880520D01*
X26680520Y-47768716D01*
X26680520Y-47768714D01*
X26690723Y-47758512D01*
X26690727Y-47758506D01*
X26826573Y-47622660D01*
X26887894Y-47589177D01*
X26933646Y-47587870D01*
X26986715Y-47596275D01*
X27013386Y-47600500D01*
X27013389Y-47600500D01*
X27186610Y-47600500D01*
X27186611Y-47600500D01*
X27357701Y-47573402D01*
X27522445Y-47519873D01*
X27676788Y-47441232D01*
X27816928Y-47339414D01*
X27939414Y-47216928D01*
X28041232Y-47076788D01*
X28119873Y-46922445D01*
X28173402Y-46757701D01*
X28200500Y-46586611D01*
X28200500Y-46413389D01*
X28173402Y-46242299D01*
X28119873Y-46077555D01*
X28041232Y-45923212D01*
X27939414Y-45783072D01*
X27816928Y-45660586D01*
X27746858Y-45609677D01*
X27676786Y-45558766D01*
X27582027Y-45510485D01*
X27531230Y-45462511D01*
X27514435Y-45394690D01*
X27536972Y-45328555D01*
X27582027Y-45289515D01*
X27676786Y-45241233D01*
X27676785Y-45241233D01*
X27676788Y-45241232D01*
X27816928Y-45139414D01*
X27939414Y-45016928D01*
X28041232Y-44876788D01*
X28119873Y-44722445D01*
X28173402Y-44557701D01*
X28200500Y-44386611D01*
X28200500Y-44213389D01*
X28187870Y-44133649D01*
X28196824Y-44064358D01*
X28222659Y-44026575D01*
X30580520Y-41668716D01*
X30659577Y-41531784D01*
X30700501Y-41379057D01*
X30700501Y-41220942D01*
X30700501Y-41213347D01*
X30700500Y-41213329D01*
X30700500Y-30620945D01*
X30700500Y-30620943D01*
X30659577Y-30468216D01*
X30659577Y-30468215D01*
X30617006Y-30394480D01*
X30580520Y-30331284D01*
X30468716Y-30219480D01*
X30468715Y-30219479D01*
X30464385Y-30215149D01*
X30464374Y-30215139D01*
X30334574Y-30085339D01*
X30301089Y-30024016D01*
X30301089Y-30024014D01*
X30300638Y-30021849D01*
X30269738Y-29866510D01*
X30269737Y-29866503D01*
X30269735Y-29866498D01*
X30209397Y-29720827D01*
X30209390Y-29720814D01*
X30121789Y-29589711D01*
X30121786Y-29589707D01*
X30010292Y-29478213D01*
X30010288Y-29478210D01*
X29879185Y-29390609D01*
X29879172Y-29390602D01*
X29733501Y-29330264D01*
X29733489Y-29330261D01*
X29578845Y-29299500D01*
X29578842Y-29299500D01*
X29421158Y-29299500D01*
X29421155Y-29299500D01*
X29266510Y-29330261D01*
X29266498Y-29330264D01*
X29120827Y-29390602D01*
X29120814Y-29390609D01*
X28989711Y-29478210D01*
X28989707Y-29478213D01*
X28878213Y-29589707D01*
X28878210Y-29589711D01*
X28790609Y-29720814D01*
X28790602Y-29720827D01*
X28730264Y-29866498D01*
X28730261Y-29866510D01*
X28699500Y-30021153D01*
X28699500Y-30178846D01*
X28730261Y-30333489D01*
X28730264Y-30333501D01*
X28790602Y-30479172D01*
X28790609Y-30479185D01*
X28878210Y-30610288D01*
X28878213Y-30610292D01*
X28989707Y-30721786D01*
X28989711Y-30721789D01*
X29120814Y-30809390D01*
X29120827Y-30809397D01*
X29266498Y-30869735D01*
X29266503Y-30869737D01*
X29376987Y-30891713D01*
X29399691Y-30896230D01*
X29427814Y-30910940D01*
X29456703Y-30924134D01*
X29458560Y-30927023D01*
X29461602Y-30928615D01*
X29477308Y-30956197D01*
X29494477Y-30982912D01*
X29495137Y-30987506D01*
X29496176Y-30989330D01*
X29499500Y-31017847D01*
X29499500Y-31082152D01*
X29479815Y-31149191D01*
X29427011Y-31194946D01*
X29399692Y-31203769D01*
X29266508Y-31230261D01*
X29266498Y-31230264D01*
X29120827Y-31290602D01*
X29120814Y-31290609D01*
X28989711Y-31378210D01*
X28989707Y-31378213D01*
X28878213Y-31489707D01*
X28878210Y-31489711D01*
X28827602Y-31565451D01*
X28773989Y-31610256D01*
X28704664Y-31618963D01*
X28641637Y-31588808D01*
X28604918Y-31529365D01*
X28600500Y-31496560D01*
X28600500Y-30964060D01*
X28600501Y-30964047D01*
X28600501Y-30795944D01*
X28559576Y-30643214D01*
X28559573Y-30643209D01*
X28480524Y-30506290D01*
X28480518Y-30506282D01*
X28059573Y-30085337D01*
X28026088Y-30024014D01*
X28025637Y-30021847D01*
X27994738Y-29866510D01*
X27994737Y-29866503D01*
X27994735Y-29866498D01*
X27934397Y-29720827D01*
X27934390Y-29720814D01*
X27846789Y-29589711D01*
X27846786Y-29589707D01*
X27735292Y-29478213D01*
X27735288Y-29478210D01*
X27604185Y-29390609D01*
X27604172Y-29390602D01*
X27458501Y-29330264D01*
X27458489Y-29330261D01*
X27303845Y-29299500D01*
X27303842Y-29299500D01*
X27146158Y-29299500D01*
X27146155Y-29299500D01*
X26991510Y-29330261D01*
X26991498Y-29330264D01*
X26845827Y-29390602D01*
X26845814Y-29390609D01*
X26714711Y-29478210D01*
X26714707Y-29478213D01*
X26603213Y-29589707D01*
X26603210Y-29589711D01*
X26515609Y-29720814D01*
X26515602Y-29720827D01*
X26455264Y-29866498D01*
X26455261Y-29866510D01*
X26424500Y-30021153D01*
X26424500Y-30178846D01*
X26455261Y-30333489D01*
X26455264Y-30333501D01*
X26515602Y-30479172D01*
X26515609Y-30479185D01*
X26603210Y-30610288D01*
X26603213Y-30610292D01*
X26714707Y-30721786D01*
X26714711Y-30721789D01*
X26845814Y-30809390D01*
X26845827Y-30809397D01*
X26991498Y-30869735D01*
X26991503Y-30869737D01*
X27056147Y-30882595D01*
X27146849Y-30900638D01*
X27163605Y-30909402D01*
X27182085Y-30913423D01*
X27207123Y-30932167D01*
X27208760Y-30933023D01*
X27210339Y-30934574D01*
X27363181Y-31087416D01*
X27396666Y-31148739D01*
X27399500Y-31175097D01*
X27399500Y-34288033D01*
X27379815Y-34355072D01*
X27327011Y-34400827D01*
X27257853Y-34410771D01*
X27256103Y-34410506D01*
X27186611Y-34399500D01*
X27013389Y-34399500D01*
X27005011Y-34400827D01*
X26842302Y-34426597D01*
X26677552Y-34480128D01*
X26523211Y-34558768D01*
X26443256Y-34616859D01*
X26383072Y-34660586D01*
X26383070Y-34660588D01*
X26383069Y-34660588D01*
X26260588Y-34783069D01*
X26260588Y-34783070D01*
X26260586Y-34783072D01*
X26216859Y-34843256D01*
X26158768Y-34923211D01*
X26110204Y-35018524D01*
X26062229Y-35069320D01*
X25994408Y-35086115D01*
X25928273Y-35063577D01*
X25889234Y-35018524D01*
X25840801Y-34923471D01*
X25836290Y-34917262D01*
X25836289Y-34917261D01*
X25300000Y-35453551D01*
X25300000Y-35447339D01*
X25272741Y-35345606D01*
X25220080Y-35254394D01*
X25145606Y-35179920D01*
X25054394Y-35127259D01*
X24952661Y-35100000D01*
X24946446Y-35100000D01*
X25482737Y-34563709D01*
X25476525Y-34559196D01*
X25322259Y-34480592D01*
X25157584Y-34427085D01*
X24986571Y-34400000D01*
X24813434Y-34400000D01*
X24743897Y-34411013D01*
X24674604Y-34402057D01*
X24621152Y-34357060D01*
X24600513Y-34290309D01*
X24600500Y-34288539D01*
X24600500Y-31520945D01*
X24600500Y-31520943D01*
X24559577Y-31368216D01*
X24514771Y-31290609D01*
X24480524Y-31231290D01*
X24480521Y-31231286D01*
X24480520Y-31231284D01*
X24368716Y-31119480D01*
X24368715Y-31119479D01*
X24364385Y-31115149D01*
X24364374Y-31115139D01*
X23334574Y-30085339D01*
X23301089Y-30024016D01*
X23300638Y-30021849D01*
X23269738Y-29866510D01*
X23269737Y-29866503D01*
X23269735Y-29866498D01*
X23209397Y-29720827D01*
X23209390Y-29720814D01*
X23121789Y-29589711D01*
X23121786Y-29589707D01*
X23010292Y-29478213D01*
X23010288Y-29478210D01*
X22879185Y-29390609D01*
X22879172Y-29390602D01*
X22733501Y-29330264D01*
X22733491Y-29330261D01*
X22600308Y-29303769D01*
X22538397Y-29271384D01*
X22503823Y-29210668D01*
X22500500Y-29182152D01*
X22500500Y-28917847D01*
X22520185Y-28850808D01*
X22572989Y-28805053D01*
X22600309Y-28796230D01*
X22616291Y-28793050D01*
X22733497Y-28769737D01*
X22879179Y-28709394D01*
X23010289Y-28621789D01*
X23121789Y-28510289D01*
X23209394Y-28379179D01*
X23269737Y-28233497D01*
X23274505Y-28209524D01*
X23296231Y-28100308D01*
X23328616Y-28038397D01*
X23389332Y-28003823D01*
X23417848Y-28000500D01*
X23857152Y-28000500D01*
X23924191Y-28020185D01*
X23969946Y-28072989D01*
X23978769Y-28100308D01*
X24005261Y-28233491D01*
X24005264Y-28233501D01*
X24065602Y-28379172D01*
X24065609Y-28379185D01*
X24153210Y-28510288D01*
X24153213Y-28510292D01*
X24264707Y-28621786D01*
X24264711Y-28621789D01*
X24395814Y-28709390D01*
X24395827Y-28709397D01*
X24541498Y-28769735D01*
X24541503Y-28769737D01*
X24696153Y-28800499D01*
X24696156Y-28800500D01*
X24696158Y-28800500D01*
X24853844Y-28800500D01*
X24853845Y-28800499D01*
X25008497Y-28769737D01*
X25154179Y-28709394D01*
X25285289Y-28621789D01*
X25396789Y-28510289D01*
X25484394Y-28379179D01*
X25544737Y-28233497D01*
X25575500Y-28078842D01*
X25575500Y-27921158D01*
X25575500Y-27921155D01*
X25575499Y-27921153D01*
X25544738Y-27766510D01*
X25544737Y-27766503D01*
X25544735Y-27766498D01*
X25484397Y-27620827D01*
X25484390Y-27620814D01*
X25396789Y-27489711D01*
X25396786Y-27489707D01*
X25285292Y-27378213D01*
X25285288Y-27378210D01*
X25154185Y-27290609D01*
X25154172Y-27290602D01*
X25008501Y-27230264D01*
X25008491Y-27230261D01*
X24911127Y-27210894D01*
X24902122Y-27206184D01*
X24891985Y-27205459D01*
X24871685Y-27190262D01*
X24849216Y-27178509D01*
X24844186Y-27169676D01*
X24836052Y-27163587D01*
X24827191Y-27139831D01*
X24814642Y-27117793D01*
X24815186Y-27107644D01*
X24811635Y-27098123D01*
X24817025Y-27073344D01*
X24818383Y-27048023D01*
X24824722Y-27037962D01*
X24826487Y-27029850D01*
X24847635Y-27001599D01*
X24945701Y-26903533D01*
X25002904Y-26872298D01*
X25002664Y-26871506D01*
X25006470Y-26870351D01*
X25007022Y-26870050D01*
X25008428Y-26869757D01*
X25008486Y-26869739D01*
X25008497Y-26869737D01*
X25154179Y-26809394D01*
X25285289Y-26721789D01*
X25396789Y-26610289D01*
X25484394Y-26479179D01*
X25544737Y-26333497D01*
X25575500Y-26178842D01*
X25575500Y-26021158D01*
X25575500Y-26021155D01*
X25575499Y-26021153D01*
X25571391Y-26000500D01*
X25544737Y-25866503D01*
X25506836Y-25775000D01*
X25484397Y-25720827D01*
X25484390Y-25720814D01*
X25396789Y-25589711D01*
X25396786Y-25589707D01*
X25285292Y-25478213D01*
X25285288Y-25478210D01*
X25154185Y-25390609D01*
X25154172Y-25390602D01*
X25008501Y-25330264D01*
X25008489Y-25330261D01*
X24853845Y-25299500D01*
X24853842Y-25299500D01*
X24696158Y-25299500D01*
X24696155Y-25299500D01*
X24541510Y-25330261D01*
X24541498Y-25330264D01*
X24395827Y-25390602D01*
X24395814Y-25390609D01*
X24264711Y-25478210D01*
X24264707Y-25478213D01*
X24153213Y-25589707D01*
X24153210Y-25589711D01*
X24065609Y-25720814D01*
X24065602Y-25720827D01*
X24005264Y-25866498D01*
X24005261Y-25866510D01*
X23974500Y-26021153D01*
X23974500Y-26124902D01*
X23965855Y-26154342D01*
X23959332Y-26184329D01*
X23955577Y-26189344D01*
X23954815Y-26191941D01*
X23938185Y-26212578D01*
X23787582Y-26363182D01*
X23726261Y-26396666D01*
X23699903Y-26399500D01*
X23407703Y-26399500D01*
X23340664Y-26379815D01*
X23294909Y-26327011D01*
X23284965Y-26257853D01*
X23286086Y-26251309D01*
X23298411Y-26189344D01*
X23300500Y-26178842D01*
X23300500Y-26021158D01*
X23300500Y-26021155D01*
X23300499Y-26021153D01*
X23296391Y-26000500D01*
X23269737Y-25866503D01*
X23231836Y-25775000D01*
X23209397Y-25720827D01*
X23209390Y-25720814D01*
X23121789Y-25589711D01*
X23121786Y-25589707D01*
X23010292Y-25478213D01*
X23010288Y-25478210D01*
X22879185Y-25390609D01*
X22879172Y-25390602D01*
X22733501Y-25330264D01*
X22733489Y-25330261D01*
X22578845Y-25299500D01*
X22578842Y-25299500D01*
X22421158Y-25299500D01*
X22421155Y-25299500D01*
X22266510Y-25330261D01*
X22266498Y-25330264D01*
X22120827Y-25390602D01*
X22120814Y-25390609D01*
X21989125Y-25478602D01*
X21922447Y-25499480D01*
X21920234Y-25499500D01*
X21758441Y-25499500D01*
X21717520Y-25510464D01*
X21717520Y-25510465D01*
X21680252Y-25520451D01*
X21605715Y-25540423D01*
X21605710Y-25540426D01*
X21468791Y-25619475D01*
X21468783Y-25619481D01*
X20712181Y-26376084D01*
X20650858Y-26409569D01*
X20581166Y-26404585D01*
X20525233Y-26362713D01*
X20500816Y-26297249D01*
X20500500Y-26288403D01*
X20500500Y-22004427D01*
X20500816Y-21995581D01*
X20515130Y-21795443D01*
X20515131Y-21795434D01*
X20517646Y-21777938D01*
X20559356Y-21586200D01*
X20564335Y-21569242D01*
X20632911Y-21385382D01*
X20640251Y-21369310D01*
X20734294Y-21197083D01*
X20743850Y-21182214D01*
X20861443Y-21025128D01*
X20873017Y-21011771D01*
X21011771Y-20873017D01*
X21025128Y-20861443D01*
X21182214Y-20743850D01*
X21197083Y-20734294D01*
X21369310Y-20640251D01*
X21385382Y-20632911D01*
X21569242Y-20564335D01*
X21586200Y-20559356D01*
X21777938Y-20517646D01*
X21795436Y-20515130D01*
X21995582Y-20500816D01*
X22004428Y-20500500D01*
X22065892Y-20500500D01*
X29934108Y-20500500D01*
X29995572Y-20500500D01*
X30004418Y-20500816D01*
G37*
%TD.AperFunction*%
%TA.AperFunction,Conductor*%
G36*
X26071445Y-44736972D02*
G01*
X26110485Y-44782027D01*
X26158766Y-44876786D01*
X26189357Y-44918890D01*
X26260586Y-45016928D01*
X26383072Y-45139414D01*
X26523212Y-45241232D01*
X26583509Y-45271954D01*
X26617973Y-45289515D01*
X26668769Y-45337490D01*
X26685564Y-45405311D01*
X26663027Y-45471445D01*
X26617973Y-45510485D01*
X26523211Y-45558768D01*
X26443256Y-45616859D01*
X26383072Y-45660586D01*
X26383070Y-45660588D01*
X26383069Y-45660588D01*
X26260588Y-45783069D01*
X26260588Y-45783070D01*
X26260586Y-45783072D01*
X26216859Y-45843256D01*
X26158768Y-45923211D01*
X26110485Y-46017973D01*
X26062510Y-46068769D01*
X25994689Y-46085564D01*
X25928555Y-46063027D01*
X25889515Y-46017973D01*
X25841231Y-45923211D01*
X25739414Y-45783072D01*
X25616928Y-45660586D01*
X25546858Y-45609677D01*
X25476786Y-45558766D01*
X25382027Y-45510485D01*
X25331230Y-45462511D01*
X25314435Y-45394690D01*
X25336972Y-45328555D01*
X25382027Y-45289515D01*
X25476786Y-45241233D01*
X25476785Y-45241233D01*
X25476788Y-45241232D01*
X25616928Y-45139414D01*
X25739414Y-45016928D01*
X25841232Y-44876788D01*
X25889515Y-44782027D01*
X25937489Y-44731230D01*
X26005310Y-44714435D01*
X26071445Y-44736972D01*
G37*
%TD.AperFunction*%
%TA.AperFunction,Conductor*%
G36*
X26017227Y-42518496D02*
G01*
X26029808Y-42517957D01*
X26049673Y-42529552D01*
X26071445Y-42536972D01*
X26080719Y-42547674D01*
X26090150Y-42553180D01*
X26110485Y-42582027D01*
X26158766Y-42676786D01*
X26189357Y-42718890D01*
X26260586Y-42816928D01*
X26383072Y-42939414D01*
X26523212Y-43041232D01*
X26583509Y-43071954D01*
X26617973Y-43089515D01*
X26668769Y-43137490D01*
X26685564Y-43205311D01*
X26663027Y-43271445D01*
X26617973Y-43310485D01*
X26523211Y-43358768D01*
X26443256Y-43416859D01*
X26383072Y-43460586D01*
X26383070Y-43460588D01*
X26383069Y-43460588D01*
X26260588Y-43583069D01*
X26260588Y-43583070D01*
X26260586Y-43583072D01*
X26216859Y-43643256D01*
X26158768Y-43723211D01*
X26110485Y-43817973D01*
X26062510Y-43868769D01*
X25994689Y-43885564D01*
X25928555Y-43863027D01*
X25889515Y-43817973D01*
X25841231Y-43723211D01*
X25739414Y-43583072D01*
X25616928Y-43460586D01*
X25546858Y-43409677D01*
X25476786Y-43358766D01*
X25382027Y-43310485D01*
X25331230Y-43262511D01*
X25314435Y-43194690D01*
X25336972Y-43128555D01*
X25382027Y-43089515D01*
X25476786Y-43041233D01*
X25476785Y-43041233D01*
X25476788Y-43041232D01*
X25616928Y-42939414D01*
X25739414Y-42816928D01*
X25841232Y-42676788D01*
X25889515Y-42582027D01*
X25898160Y-42572872D01*
X25902896Y-42561206D01*
X25921694Y-42547954D01*
X25937489Y-42531230D01*
X25949711Y-42528203D01*
X25960002Y-42520949D01*
X25982982Y-42519963D01*
X26005310Y-42514435D01*
X26017227Y-42518496D01*
G37*
%TD.AperFunction*%
%TA.AperFunction,Conductor*%
G36*
X26071445Y-40336972D02*
G01*
X26110485Y-40382027D01*
X26158766Y-40476786D01*
X26189357Y-40518890D01*
X26260586Y-40616928D01*
X26383072Y-40739414D01*
X26523212Y-40841232D01*
X26583509Y-40871954D01*
X26617973Y-40889515D01*
X26668769Y-40937490D01*
X26685564Y-41005311D01*
X26663027Y-41071445D01*
X26617973Y-41110485D01*
X26523211Y-41158768D01*
X26448115Y-41213329D01*
X26383072Y-41260586D01*
X26383070Y-41260588D01*
X26383069Y-41260588D01*
X26260588Y-41383069D01*
X26260588Y-41383070D01*
X26260586Y-41383072D01*
X26216859Y-41443256D01*
X26158768Y-41523211D01*
X26110485Y-41617973D01*
X26062510Y-41668769D01*
X25994689Y-41685564D01*
X25928555Y-41663027D01*
X25889515Y-41617973D01*
X25871954Y-41583509D01*
X25841232Y-41523212D01*
X25739414Y-41383072D01*
X25616928Y-41260586D01*
X25546858Y-41209677D01*
X25476786Y-41158766D01*
X25382027Y-41110485D01*
X25331230Y-41062511D01*
X25314435Y-40994690D01*
X25336972Y-40928555D01*
X25382027Y-40889515D01*
X25476786Y-40841233D01*
X25476785Y-40841233D01*
X25476788Y-40841232D01*
X25616928Y-40739414D01*
X25739414Y-40616928D01*
X25841232Y-40476788D01*
X25889515Y-40382027D01*
X25937489Y-40331230D01*
X26005310Y-40314435D01*
X26071445Y-40336972D01*
G37*
%TD.AperFunction*%
%TA.AperFunction,Conductor*%
G36*
X26071445Y-38136972D02*
G01*
X26110485Y-38182027D01*
X26158766Y-38276786D01*
X26189357Y-38318890D01*
X26260586Y-38416928D01*
X26383072Y-38539414D01*
X26523212Y-38641232D01*
X26583509Y-38671954D01*
X26617973Y-38689515D01*
X26668769Y-38737490D01*
X26685564Y-38805311D01*
X26663027Y-38871445D01*
X26617973Y-38910485D01*
X26523211Y-38958768D01*
X26443256Y-39016859D01*
X26383072Y-39060586D01*
X26383070Y-39060588D01*
X26383069Y-39060588D01*
X26260588Y-39183069D01*
X26260588Y-39183070D01*
X26260586Y-39183072D01*
X26225195Y-39231784D01*
X26158768Y-39323211D01*
X26110485Y-39417973D01*
X26062510Y-39468769D01*
X25994689Y-39485564D01*
X25928555Y-39463027D01*
X25889515Y-39417973D01*
X25841231Y-39323211D01*
X25739414Y-39183072D01*
X25616928Y-39060586D01*
X25546858Y-39009677D01*
X25476786Y-38958766D01*
X25382027Y-38910485D01*
X25331230Y-38862511D01*
X25314435Y-38794690D01*
X25336972Y-38728555D01*
X25382027Y-38689515D01*
X25476786Y-38641233D01*
X25476785Y-38641233D01*
X25476788Y-38641232D01*
X25616928Y-38539414D01*
X25739414Y-38416928D01*
X25841232Y-38276788D01*
X25889515Y-38182027D01*
X25937489Y-38131230D01*
X26005310Y-38114435D01*
X26071445Y-38136972D01*
G37*
%TD.AperFunction*%
%TA.AperFunction,Conductor*%
G36*
X25836289Y-36082737D02*
G01*
X25836289Y-36082736D01*
X25840803Y-36076525D01*
X25889234Y-35981475D01*
X25937208Y-35930679D01*
X26005029Y-35913884D01*
X26071164Y-35936421D01*
X26110204Y-35981475D01*
X26158768Y-36076788D01*
X26260586Y-36216928D01*
X26383072Y-36339414D01*
X26523212Y-36441232D01*
X26583509Y-36471954D01*
X26617973Y-36489515D01*
X26668769Y-36537490D01*
X26685564Y-36605311D01*
X26663027Y-36671445D01*
X26617973Y-36710485D01*
X26523211Y-36758768D01*
X26443256Y-36816859D01*
X26383072Y-36860586D01*
X26383070Y-36860588D01*
X26383069Y-36860588D01*
X26260588Y-36983069D01*
X26260588Y-36983070D01*
X26260586Y-36983072D01*
X26225194Y-37031785D01*
X26158768Y-37123211D01*
X26110485Y-37217973D01*
X26062510Y-37268769D01*
X25994689Y-37285564D01*
X25928555Y-37263027D01*
X25889515Y-37217973D01*
X25841231Y-37123211D01*
X25739414Y-36983072D01*
X25616928Y-36860586D01*
X25476788Y-36758768D01*
X25381475Y-36710204D01*
X25330679Y-36662230D01*
X25313884Y-36594409D01*
X25336421Y-36528274D01*
X25381475Y-36489234D01*
X25476525Y-36440803D01*
X25482736Y-36436289D01*
X24946447Y-35900000D01*
X24952661Y-35900000D01*
X25054394Y-35872741D01*
X25145606Y-35820080D01*
X25220080Y-35745606D01*
X25272741Y-35654394D01*
X25300000Y-35552661D01*
X25300000Y-35546448D01*
X25836289Y-36082737D01*
G37*
%TD.AperFunction*%
%TD*%
%TA.AperFunction,Conductor*%
%TO.N,/Client/GND*%
G36*
X44004418Y-20500816D02*
G01*
X44204561Y-20515130D01*
X44222063Y-20517647D01*
X44413795Y-20559355D01*
X44430760Y-20564336D01*
X44614611Y-20632909D01*
X44630694Y-20640253D01*
X44747495Y-20704032D01*
X44802908Y-20734290D01*
X44817791Y-20743855D01*
X44974864Y-20861438D01*
X44988235Y-20873024D01*
X45126975Y-21011764D01*
X45138561Y-21025135D01*
X45256144Y-21182208D01*
X45265709Y-21197091D01*
X45359743Y-21369300D01*
X45367093Y-21385394D01*
X45435661Y-21569234D01*
X45440645Y-21586209D01*
X45482351Y-21777931D01*
X45484869Y-21795442D01*
X45499184Y-21995580D01*
X45499500Y-22004427D01*
X45499500Y-59978821D01*
X45498761Y-59992337D01*
X45475097Y-60208145D01*
X45471685Y-60226445D01*
X45415951Y-60436394D01*
X45409838Y-60453976D01*
X45323304Y-60653215D01*
X45314627Y-60669684D01*
X45199242Y-60853725D01*
X45188198Y-60868711D01*
X45046564Y-61033402D01*
X45033402Y-61046564D01*
X44868711Y-61188198D01*
X44853725Y-61199242D01*
X44669684Y-61314627D01*
X44653215Y-61323304D01*
X44453976Y-61409838D01*
X44436394Y-61415951D01*
X44226445Y-61471685D01*
X44208145Y-61475097D01*
X43992339Y-61498761D01*
X43978823Y-61499500D01*
X36004428Y-61499500D01*
X35995582Y-61499184D01*
X35973622Y-61497613D01*
X35795442Y-61484869D01*
X35777931Y-61482351D01*
X35586209Y-61440645D01*
X35569234Y-61435661D01*
X35385394Y-61367093D01*
X35369300Y-61359743D01*
X35197091Y-61265709D01*
X35182208Y-61256144D01*
X35025135Y-61138561D01*
X35011764Y-61126975D01*
X34873024Y-60988235D01*
X34861438Y-60974864D01*
X34743855Y-60817791D01*
X34734290Y-60802908D01*
X34640256Y-60630699D01*
X34632909Y-60614611D01*
X34564336Y-60430760D01*
X34559354Y-60413790D01*
X34518600Y-60226445D01*
X34517647Y-60222063D01*
X34515130Y-60204556D01*
X34512358Y-60165802D01*
X34500816Y-60004418D01*
X34500500Y-59995572D01*
X34500500Y-59704893D01*
X34520185Y-59637854D01*
X34552261Y-59607272D01*
X34550863Y-59605450D01*
X34557307Y-59600503D01*
X34557314Y-59600500D01*
X34650500Y-59507314D01*
X34716392Y-59393186D01*
X34728290Y-59348778D01*
X34764655Y-59289119D01*
X34827502Y-59258590D01*
X34896877Y-59266885D01*
X34935746Y-59293192D01*
X35182984Y-59540430D01*
X35216469Y-59601753D01*
X35216920Y-59603920D01*
X35230261Y-59670989D01*
X35230264Y-59671001D01*
X35290602Y-59816672D01*
X35290609Y-59816685D01*
X35378210Y-59947788D01*
X35378213Y-59947792D01*
X35489707Y-60059286D01*
X35489711Y-60059289D01*
X35620814Y-60146890D01*
X35620827Y-60146897D01*
X35760030Y-60204556D01*
X35766503Y-60207237D01*
X35921153Y-60237999D01*
X35921156Y-60238000D01*
X35921158Y-60238000D01*
X36078844Y-60238000D01*
X36078845Y-60237999D01*
X36233497Y-60207237D01*
X36379179Y-60146894D01*
X36510289Y-60059289D01*
X36621789Y-59947789D01*
X36709394Y-59816679D01*
X36769737Y-59670997D01*
X36800500Y-59516342D01*
X36800500Y-59358658D01*
X36800500Y-59358655D01*
X36800499Y-59358653D01*
X36782245Y-59266885D01*
X36769737Y-59204003D01*
X36709397Y-59058328D01*
X36709397Y-59058327D01*
X36709390Y-59058314D01*
X36621789Y-58927211D01*
X36621786Y-58927207D01*
X36510292Y-58815713D01*
X36510288Y-58815710D01*
X36379185Y-58728109D01*
X36379172Y-58728102D01*
X36233501Y-58667764D01*
X36233489Y-58667761D01*
X36166420Y-58654420D01*
X36149663Y-58645655D01*
X36131184Y-58641635D01*
X36106145Y-58622890D01*
X36104509Y-58622035D01*
X36102930Y-58620484D01*
X36048208Y-58565762D01*
X36014723Y-58504439D01*
X36019707Y-58434747D01*
X36061579Y-58378814D01*
X36111693Y-58356465D01*
X36233497Y-58332237D01*
X36346166Y-58285567D01*
X36379172Y-58271897D01*
X36379172Y-58271896D01*
X36379179Y-58271894D01*
X36510289Y-58184289D01*
X36621789Y-58072789D01*
X36709394Y-57941679D01*
X36769737Y-57795997D01*
X36800500Y-57641342D01*
X36800500Y-57483658D01*
X36800500Y-57483655D01*
X36800499Y-57483653D01*
X36769738Y-57329010D01*
X36769737Y-57329003D01*
X36760546Y-57306814D01*
X36709397Y-57183327D01*
X36709390Y-57183314D01*
X36621789Y-57052211D01*
X36621786Y-57052207D01*
X36510292Y-56940713D01*
X36510288Y-56940710D01*
X36379185Y-56853109D01*
X36379172Y-56853102D01*
X36227870Y-56790432D01*
X36228879Y-56787994D01*
X36180008Y-56755916D01*
X36151598Y-56692083D01*
X36150500Y-56675621D01*
X36150500Y-51950569D01*
X36170185Y-51883530D01*
X36222989Y-51837775D01*
X36292147Y-51827831D01*
X36355703Y-51856856D01*
X36362181Y-51862888D01*
X43313181Y-58813888D01*
X43327884Y-58840815D01*
X43344477Y-58866634D01*
X43345368Y-58872834D01*
X43346666Y-58875211D01*
X43349500Y-58901569D01*
X43349500Y-58932564D01*
X43329815Y-58999603D01*
X43328603Y-59001454D01*
X43290608Y-59058317D01*
X43290602Y-59058328D01*
X43230264Y-59203998D01*
X43230261Y-59204010D01*
X43199500Y-59358653D01*
X43199500Y-59516346D01*
X43230261Y-59670989D01*
X43230264Y-59671001D01*
X43290602Y-59816672D01*
X43290609Y-59816685D01*
X43378210Y-59947788D01*
X43378213Y-59947792D01*
X43489707Y-60059286D01*
X43489711Y-60059289D01*
X43620814Y-60146890D01*
X43620827Y-60146897D01*
X43760030Y-60204556D01*
X43766503Y-60207237D01*
X43921153Y-60237999D01*
X43921156Y-60238000D01*
X43921158Y-60238000D01*
X44078844Y-60238000D01*
X44078845Y-60237999D01*
X44233497Y-60207237D01*
X44379179Y-60146894D01*
X44510289Y-60059289D01*
X44621789Y-59947789D01*
X44709394Y-59816679D01*
X44769737Y-59670997D01*
X44800500Y-59516342D01*
X44800500Y-59358658D01*
X44800500Y-59358655D01*
X44800499Y-59358653D01*
X44782245Y-59266885D01*
X44769737Y-59204003D01*
X44709394Y-59058321D01*
X44671396Y-59001453D01*
X44650520Y-58934776D01*
X44650500Y-58932564D01*
X44650500Y-58516689D01*
X44625502Y-58391022D01*
X44625501Y-58391021D01*
X44625501Y-58391017D01*
X44576465Y-58272634D01*
X44576463Y-58272630D01*
X44575983Y-58271911D01*
X44575983Y-58271912D01*
X44575971Y-58271894D01*
X44571107Y-58264614D01*
X44550232Y-58197936D01*
X44568719Y-58130556D01*
X44586529Y-58108048D01*
X44621789Y-58072789D01*
X44709394Y-57941679D01*
X44769737Y-57795997D01*
X44800500Y-57641342D01*
X44800500Y-57483658D01*
X44800500Y-57483655D01*
X44800499Y-57483653D01*
X44769738Y-57329010D01*
X44769737Y-57329003D01*
X44709394Y-57183321D01*
X44671396Y-57126453D01*
X44650520Y-57059776D01*
X44650500Y-57057564D01*
X44650500Y-53258308D01*
X44670185Y-53191269D01*
X44686817Y-53170628D01*
X44695277Y-53162169D01*
X44766466Y-53055626D01*
X44815501Y-52937243D01*
X44828195Y-52873431D01*
X44840500Y-52811569D01*
X44840500Y-48504935D01*
X44860185Y-48437896D01*
X44861366Y-48436090D01*
X44899394Y-48379179D01*
X44959737Y-48233497D01*
X44990500Y-48078842D01*
X44990500Y-47921158D01*
X44990500Y-47921155D01*
X44990499Y-47921153D01*
X44959737Y-47766503D01*
X44900157Y-47622662D01*
X44899397Y-47620827D01*
X44899390Y-47620814D01*
X44811789Y-47489711D01*
X44811786Y-47489707D01*
X44700292Y-47378213D01*
X44700288Y-47378210D01*
X44569185Y-47290609D01*
X44569172Y-47290602D01*
X44423501Y-47230264D01*
X44423489Y-47230261D01*
X44268845Y-47199500D01*
X44268842Y-47199500D01*
X44111158Y-47199500D01*
X44111155Y-47199500D01*
X43956510Y-47230261D01*
X43956498Y-47230264D01*
X43810827Y-47290602D01*
X43810814Y-47290609D01*
X43679711Y-47378210D01*
X43679707Y-47378213D01*
X43568213Y-47489707D01*
X43568210Y-47489711D01*
X43480609Y-47620814D01*
X43480602Y-47620827D01*
X43420264Y-47766498D01*
X43420261Y-47766510D01*
X43389500Y-47921153D01*
X43389500Y-48078846D01*
X43420261Y-48233489D01*
X43420264Y-48233501D01*
X43480602Y-48379172D01*
X43480606Y-48379179D01*
X43518602Y-48436044D01*
X43539480Y-48502721D01*
X43539500Y-48504935D01*
X43539500Y-52426691D01*
X43519815Y-52493730D01*
X43503181Y-52514372D01*
X43494727Y-52522825D01*
X43494726Y-52522826D01*
X43423534Y-52629374D01*
X43374499Y-52747755D01*
X43374497Y-52747761D01*
X43349500Y-52873428D01*
X43349500Y-56710953D01*
X43329815Y-56777992D01*
X43277011Y-56823747D01*
X43207853Y-56833691D01*
X43144297Y-56804666D01*
X43137819Y-56798634D01*
X36186819Y-49847634D01*
X36153334Y-49786311D01*
X36150500Y-49759953D01*
X36150500Y-42699097D01*
X36170185Y-42632058D01*
X36222989Y-42586303D01*
X36292147Y-42576359D01*
X36355703Y-42605384D01*
X36362181Y-42611416D01*
X37777336Y-44026571D01*
X37810821Y-44087894D01*
X37812128Y-44133648D01*
X37799500Y-44213389D01*
X37799500Y-44386611D01*
X37826598Y-44557701D01*
X37880127Y-44722445D01*
X37958768Y-44876788D01*
X38060586Y-45016928D01*
X38183072Y-45139414D01*
X38323212Y-45241232D01*
X38383509Y-45271954D01*
X38417973Y-45289515D01*
X38468769Y-45337490D01*
X38485564Y-45405311D01*
X38463027Y-45471445D01*
X38417973Y-45510485D01*
X38323211Y-45558768D01*
X38243256Y-45616859D01*
X38183072Y-45660586D01*
X38183070Y-45660588D01*
X38183069Y-45660588D01*
X38060588Y-45783069D01*
X38060588Y-45783070D01*
X38060586Y-45783072D01*
X38016859Y-45843256D01*
X37958768Y-45923211D01*
X37880128Y-46077552D01*
X37826597Y-46242302D01*
X37799500Y-46413389D01*
X37799500Y-46586610D01*
X37822012Y-46728751D01*
X37826598Y-46757701D01*
X37880127Y-46922445D01*
X37958768Y-47076788D01*
X38060586Y-47216928D01*
X38183072Y-47339414D01*
X38323212Y-47441232D01*
X38477555Y-47519873D01*
X38642299Y-47573402D01*
X38813389Y-47600500D01*
X38813390Y-47600500D01*
X38986609Y-47600500D01*
X38986611Y-47600500D01*
X39066349Y-47587870D01*
X39135639Y-47596824D01*
X39173426Y-47622662D01*
X39531284Y-47980520D01*
X39531286Y-47980521D01*
X39531290Y-47980524D01*
X39668209Y-48059573D01*
X39668216Y-48059577D01*
X39820943Y-48100501D01*
X39820945Y-48100501D01*
X39986654Y-48100501D01*
X39986670Y-48100500D01*
X41413331Y-48100500D01*
X41413347Y-48100501D01*
X41420943Y-48100501D01*
X41579054Y-48100501D01*
X41579057Y-48100501D01*
X41731785Y-48059577D01*
X41781904Y-48030639D01*
X41868716Y-47980520D01*
X41980520Y-47868716D01*
X41980520Y-47868714D01*
X41990728Y-47858507D01*
X41990730Y-47858504D01*
X44818713Y-45030521D01*
X44818716Y-45030520D01*
X44930520Y-44918716D01*
X44980639Y-44831904D01*
X45009577Y-44781785D01*
X45050501Y-44629057D01*
X45050501Y-44470943D01*
X45050501Y-44463348D01*
X45050500Y-44463330D01*
X45050500Y-28851560D01*
X45050501Y-28851547D01*
X45050501Y-28683444D01*
X45048190Y-28674818D01*
X45009577Y-28530716D01*
X44997783Y-28510288D01*
X44930524Y-28393790D01*
X44930518Y-28393782D01*
X44472073Y-27935337D01*
X44438588Y-27874014D01*
X44438137Y-27871847D01*
X44417184Y-27766510D01*
X44407237Y-27716503D01*
X44367602Y-27620814D01*
X44346897Y-27570827D01*
X44346890Y-27570814D01*
X44259289Y-27439711D01*
X44259286Y-27439707D01*
X44147792Y-27328213D01*
X44147788Y-27328210D01*
X44016685Y-27240609D01*
X44016672Y-27240602D01*
X43871001Y-27180264D01*
X43870989Y-27180261D01*
X43716345Y-27149500D01*
X43716342Y-27149500D01*
X43558658Y-27149500D01*
X43558655Y-27149500D01*
X43404010Y-27180261D01*
X43403998Y-27180264D01*
X43258327Y-27240602D01*
X43258314Y-27240609D01*
X43127211Y-27328210D01*
X43127207Y-27328213D01*
X43015713Y-27439707D01*
X43015710Y-27439711D01*
X42928109Y-27570814D01*
X42928102Y-27570827D01*
X42867764Y-27716498D01*
X42867761Y-27716510D01*
X42837000Y-27871153D01*
X42837000Y-28028846D01*
X42867761Y-28183489D01*
X42867764Y-28183501D01*
X42927975Y-28328865D01*
X42935444Y-28398334D01*
X42904168Y-28460813D01*
X42844079Y-28496465D01*
X42774254Y-28493971D01*
X42725733Y-28463998D01*
X42197074Y-27935339D01*
X42163589Y-27874016D01*
X42163138Y-27871849D01*
X42132238Y-27716510D01*
X42132237Y-27716503D01*
X42092602Y-27620814D01*
X42071897Y-27570827D01*
X42071890Y-27570814D01*
X41984289Y-27439711D01*
X41984286Y-27439707D01*
X41872792Y-27328213D01*
X41872788Y-27328210D01*
X41741685Y-27240609D01*
X41741672Y-27240602D01*
X41596001Y-27180264D01*
X41595991Y-27180261D01*
X41462808Y-27153769D01*
X41434677Y-27139054D01*
X41405797Y-27125865D01*
X41403940Y-27122975D01*
X41400897Y-27121384D01*
X41385184Y-27093791D01*
X41368023Y-27067087D01*
X41367362Y-27062493D01*
X41366323Y-27060668D01*
X41363000Y-27032152D01*
X41363000Y-26967847D01*
X41382685Y-26900808D01*
X41435489Y-26855053D01*
X41462809Y-26846230D01*
X41478791Y-26843050D01*
X41595997Y-26819737D01*
X41741679Y-26759394D01*
X41872789Y-26671789D01*
X41984289Y-26560289D01*
X42071894Y-26429179D01*
X42132237Y-26283497D01*
X42163000Y-26128842D01*
X42163000Y-25971158D01*
X42163000Y-25971155D01*
X42162999Y-25971153D01*
X42162944Y-25970873D01*
X42162957Y-25970723D01*
X42162403Y-25965093D01*
X42163470Y-25964987D01*
X42164821Y-25949889D01*
X42161823Y-25929035D01*
X42167873Y-25915787D01*
X42169171Y-25901282D01*
X42182095Y-25884643D01*
X42190848Y-25865479D01*
X42203099Y-25857605D01*
X42212034Y-25846104D01*
X42231902Y-25839094D01*
X42249626Y-25827705D01*
X42274209Y-25824170D01*
X42277924Y-25822860D01*
X42284561Y-25822682D01*
X42509585Y-25822682D01*
X42576624Y-25842367D01*
X42597266Y-25859001D01*
X42802925Y-26064660D01*
X42836410Y-26125983D01*
X42836861Y-26128149D01*
X42867761Y-26283491D01*
X42867764Y-26283501D01*
X42928102Y-26429172D01*
X42928109Y-26429185D01*
X43015710Y-26560288D01*
X43015713Y-26560292D01*
X43127207Y-26671786D01*
X43127211Y-26671789D01*
X43258314Y-26759390D01*
X43258327Y-26759397D01*
X43374011Y-26807314D01*
X43404003Y-26819737D01*
X43558653Y-26850499D01*
X43558656Y-26850500D01*
X43558658Y-26850500D01*
X43716344Y-26850500D01*
X43716345Y-26850499D01*
X43870997Y-26819737D01*
X44016679Y-26759394D01*
X44147789Y-26671789D01*
X44259289Y-26560289D01*
X44346894Y-26429179D01*
X44407237Y-26283497D01*
X44438000Y-26128842D01*
X44438000Y-25971158D01*
X44438000Y-25971155D01*
X44437999Y-25971153D01*
X44436794Y-25965093D01*
X44407237Y-25816503D01*
X44390046Y-25775000D01*
X44346897Y-25670827D01*
X44346890Y-25670814D01*
X44259289Y-25539711D01*
X44259286Y-25539707D01*
X44147792Y-25428213D01*
X44147788Y-25428210D01*
X44016685Y-25340609D01*
X44016672Y-25340602D01*
X43871001Y-25280264D01*
X43870991Y-25280261D01*
X43715649Y-25249361D01*
X43653738Y-25216976D01*
X43652160Y-25215425D01*
X43297272Y-24860537D01*
X43297270Y-24860534D01*
X43178399Y-24741663D01*
X43178398Y-24741662D01*
X43091586Y-24691542D01*
X43091586Y-24691541D01*
X43091582Y-24691540D01*
X43041467Y-24662605D01*
X42888739Y-24621681D01*
X42730625Y-24621681D01*
X42723029Y-24621681D01*
X42723013Y-24621682D01*
X41428459Y-24621682D01*
X41428443Y-24621681D01*
X41420847Y-24621681D01*
X41262732Y-24621681D01*
X41110004Y-24662605D01*
X41110002Y-24662605D01*
X41110002Y-24662606D01*
X40973070Y-24741664D01*
X39881981Y-25832753D01*
X39881979Y-25832756D01*
X39874273Y-25846104D01*
X39847379Y-25892686D01*
X39802923Y-25969686D01*
X39761999Y-26122414D01*
X39761999Y-26122416D01*
X39761999Y-26290517D01*
X39762000Y-26290530D01*
X39762000Y-28341515D01*
X39761999Y-28341533D01*
X39761999Y-28507239D01*
X39761998Y-28507239D01*
X39802924Y-28659974D01*
X39802925Y-28659975D01*
X39820112Y-28689743D01*
X39820113Y-28689744D01*
X39881977Y-28796897D01*
X39881981Y-28796902D01*
X40000849Y-28915770D01*
X40000855Y-28915775D01*
X42613181Y-31528101D01*
X42646666Y-31589424D01*
X42649500Y-31615782D01*
X42649500Y-39649902D01*
X42629815Y-39716941D01*
X42613181Y-39737583D01*
X42412181Y-39938583D01*
X42350858Y-39972068D01*
X42281166Y-39967084D01*
X42225233Y-39925212D01*
X42200816Y-39859748D01*
X42200500Y-39850902D01*
X42200500Y-39813389D01*
X42200000Y-39810232D01*
X42173402Y-39642299D01*
X42119873Y-39477555D01*
X42041232Y-39323212D01*
X41939414Y-39183072D01*
X41816928Y-39060586D01*
X41746858Y-39009677D01*
X41676786Y-38958766D01*
X41582027Y-38910485D01*
X41531230Y-38862511D01*
X41514435Y-38794690D01*
X41536972Y-38728555D01*
X41582027Y-38689515D01*
X41676786Y-38641233D01*
X41676785Y-38641233D01*
X41676788Y-38641232D01*
X41816928Y-38539414D01*
X41939414Y-38416928D01*
X42041232Y-38276788D01*
X42119873Y-38122445D01*
X42173402Y-37957701D01*
X42200500Y-37786611D01*
X42200500Y-37613389D01*
X42173402Y-37442299D01*
X42119873Y-37277555D01*
X42041232Y-37123212D01*
X41939414Y-36983072D01*
X41816928Y-36860586D01*
X41676788Y-36758768D01*
X41581475Y-36710204D01*
X41530679Y-36662230D01*
X41513884Y-36594409D01*
X41536421Y-36528274D01*
X41581475Y-36489234D01*
X41676525Y-36440803D01*
X41682736Y-36436289D01*
X41682737Y-36436289D01*
X41146448Y-35900000D01*
X41152661Y-35900000D01*
X41254394Y-35872741D01*
X41345606Y-35820080D01*
X41420080Y-35745606D01*
X41472741Y-35654394D01*
X41500000Y-35552661D01*
X41500000Y-35546448D01*
X42036289Y-36082737D01*
X42036289Y-36082736D01*
X42040803Y-36076525D01*
X42119408Y-35922257D01*
X42172914Y-35757584D01*
X42200000Y-35586571D01*
X42200000Y-35413428D01*
X42172914Y-35242415D01*
X42119408Y-35077742D01*
X42040801Y-34923471D01*
X42036290Y-34917262D01*
X42036289Y-34917261D01*
X41500000Y-35453551D01*
X41500000Y-35447339D01*
X41472741Y-35345606D01*
X41420080Y-35254394D01*
X41345606Y-35179920D01*
X41254394Y-35127259D01*
X41152661Y-35100000D01*
X41146447Y-35100000D01*
X41682737Y-34563709D01*
X41676525Y-34559196D01*
X41522259Y-34480592D01*
X41357584Y-34427085D01*
X41186571Y-34400000D01*
X41013429Y-34400000D01*
X40842415Y-34427085D01*
X40677740Y-34480592D01*
X40523480Y-34559193D01*
X40523463Y-34559203D01*
X40517261Y-34563708D01*
X40517261Y-34563709D01*
X41053554Y-35100000D01*
X41047339Y-35100000D01*
X40945606Y-35127259D01*
X40854394Y-35179920D01*
X40779920Y-35254394D01*
X40727259Y-35345606D01*
X40700000Y-35447339D01*
X40700000Y-35453552D01*
X40163709Y-34917261D01*
X40163708Y-34917261D01*
X40159203Y-34923463D01*
X40159192Y-34923481D01*
X40110764Y-35018525D01*
X40062789Y-35069321D01*
X39994968Y-35086115D01*
X39928833Y-35063577D01*
X39889795Y-35018523D01*
X39841233Y-34923213D01*
X39825937Y-34902160D01*
X39739414Y-34783072D01*
X39616928Y-34660586D01*
X39476788Y-34558768D01*
X39322445Y-34480127D01*
X39157701Y-34426598D01*
X39157699Y-34426597D01*
X39157698Y-34426597D01*
X39026271Y-34405781D01*
X38986611Y-34399500D01*
X38813389Y-34399500D01*
X38743897Y-34410506D01*
X38674604Y-34401551D01*
X38621152Y-34356555D01*
X38600513Y-34289803D01*
X38600500Y-34288033D01*
X38600500Y-32887597D01*
X38609143Y-32858159D01*
X38615666Y-32828174D01*
X38619422Y-32823156D01*
X38620185Y-32820558D01*
X38636816Y-32799919D01*
X38652159Y-32784575D01*
X38713479Y-32751090D01*
X38715650Y-32750638D01*
X38773585Y-32739113D01*
X38870997Y-32719737D01*
X39016679Y-32659394D01*
X39147789Y-32571789D01*
X39259289Y-32460289D01*
X39346894Y-32329179D01*
X39407237Y-32183497D01*
X39438000Y-32028842D01*
X39438000Y-31871158D01*
X39438000Y-31871155D01*
X39437999Y-31871153D01*
X39407238Y-31716510D01*
X39407237Y-31716503D01*
X39407235Y-31716498D01*
X39346897Y-31570827D01*
X39346890Y-31570814D01*
X39259289Y-31439711D01*
X39259286Y-31439707D01*
X39147792Y-31328213D01*
X39147788Y-31328210D01*
X39016685Y-31240609D01*
X39016672Y-31240602D01*
X38871001Y-31180264D01*
X38870989Y-31180261D01*
X38716345Y-31149500D01*
X38716342Y-31149500D01*
X38558658Y-31149500D01*
X38558655Y-31149500D01*
X38404010Y-31180261D01*
X38404007Y-31180262D01*
X38404006Y-31180262D01*
X38404003Y-31180263D01*
X38329432Y-31211151D01*
X38271953Y-31234959D01*
X38202483Y-31242427D01*
X38140004Y-31211151D01*
X38104352Y-31151062D01*
X38100501Y-31120397D01*
X38100501Y-31108445D01*
X38100501Y-31108443D01*
X38059577Y-30955715D01*
X38009676Y-30869285D01*
X37980520Y-30818784D01*
X37868716Y-30706980D01*
X37868715Y-30706979D01*
X37864385Y-30702649D01*
X37864374Y-30702639D01*
X37197074Y-30035339D01*
X37163589Y-29974016D01*
X37163138Y-29971849D01*
X37132238Y-29816510D01*
X37132237Y-29816503D01*
X37132235Y-29816498D01*
X37071897Y-29670827D01*
X37071890Y-29670814D01*
X36984289Y-29539711D01*
X36984286Y-29539707D01*
X36872792Y-29428213D01*
X36872788Y-29428210D01*
X36741685Y-29340609D01*
X36741672Y-29340602D01*
X36596001Y-29280264D01*
X36595989Y-29280261D01*
X36441345Y-29249500D01*
X36441342Y-29249500D01*
X36283658Y-29249500D01*
X36277566Y-29249500D01*
X36277566Y-29247488D01*
X36271789Y-29246391D01*
X36256853Y-29248539D01*
X36238160Y-29240002D01*
X36217973Y-29236167D01*
X36207024Y-29225783D01*
X36193297Y-29219514D01*
X36182186Y-29202226D01*
X36167278Y-29188086D01*
X36163076Y-29172490D01*
X36155523Y-29160736D01*
X36150500Y-29125801D01*
X36150500Y-28886878D01*
X36170185Y-28819839D01*
X36222989Y-28774084D01*
X36227930Y-28772215D01*
X36227869Y-28772068D01*
X36279940Y-28750500D01*
X36354209Y-28719737D01*
X36379172Y-28709397D01*
X36379172Y-28709396D01*
X36379179Y-28709394D01*
X36510289Y-28621789D01*
X36621789Y-28510289D01*
X36709394Y-28379179D01*
X36769737Y-28233497D01*
X36800500Y-28078842D01*
X36800500Y-27921158D01*
X36800500Y-27921155D01*
X36800499Y-27921153D01*
X36769738Y-27766510D01*
X36769737Y-27766503D01*
X36769735Y-27766498D01*
X36709397Y-27620827D01*
X36709390Y-27620814D01*
X36621789Y-27489711D01*
X36621786Y-27489707D01*
X36510292Y-27378213D01*
X36510288Y-27378210D01*
X36379185Y-27290609D01*
X36379172Y-27290602D01*
X36233501Y-27230264D01*
X36233489Y-27230261D01*
X36078845Y-27199500D01*
X36078842Y-27199500D01*
X36019808Y-27199500D01*
X35952769Y-27179815D01*
X35907014Y-27127011D01*
X35897070Y-27057853D01*
X35926095Y-26994297D01*
X35932127Y-26987819D01*
X36505272Y-26414674D01*
X36505272Y-26414673D01*
X36505277Y-26414669D01*
X36576466Y-26308126D01*
X36625501Y-26189743D01*
X36647173Y-26080794D01*
X36650500Y-26064071D01*
X36650500Y-24504935D01*
X36670185Y-24437896D01*
X36671366Y-24436090D01*
X36709394Y-24379179D01*
X36769737Y-24233497D01*
X36800500Y-24078842D01*
X36800500Y-23921158D01*
X36800500Y-23921155D01*
X36800499Y-23921153D01*
X36784990Y-23843186D01*
X36769737Y-23766503D01*
X36769735Y-23766498D01*
X36709397Y-23620827D01*
X36709390Y-23620814D01*
X36621789Y-23489711D01*
X36621786Y-23489707D01*
X36510292Y-23378213D01*
X36510288Y-23378210D01*
X36379185Y-23290609D01*
X36379172Y-23290602D01*
X36233501Y-23230264D01*
X36233489Y-23230261D01*
X36078845Y-23199500D01*
X36078842Y-23199500D01*
X35921158Y-23199500D01*
X35921155Y-23199500D01*
X35766510Y-23230261D01*
X35766498Y-23230264D01*
X35620827Y-23290602D01*
X35620814Y-23290609D01*
X35489711Y-23378210D01*
X35489707Y-23378213D01*
X35378213Y-23489707D01*
X35378210Y-23489711D01*
X35290609Y-23620814D01*
X35290602Y-23620827D01*
X35230264Y-23766498D01*
X35230261Y-23766510D01*
X35199500Y-23921153D01*
X35199500Y-24078846D01*
X35230261Y-24233489D01*
X35230264Y-24233501D01*
X35290602Y-24379172D01*
X35290606Y-24379179D01*
X35328602Y-24436044D01*
X35349480Y-24502721D01*
X35349500Y-24504935D01*
X35349500Y-25679191D01*
X35329815Y-25746230D01*
X35313181Y-25766872D01*
X34943670Y-26136382D01*
X34882347Y-26169867D01*
X34812655Y-26164883D01*
X34756722Y-26123011D01*
X34736215Y-26080797D01*
X34716392Y-26006814D01*
X34650500Y-25892686D01*
X34620495Y-25862681D01*
X34587010Y-25801358D01*
X34591994Y-25731666D01*
X34620495Y-25687319D01*
X34628623Y-25679191D01*
X34650500Y-25657314D01*
X34716392Y-25543186D01*
X34750500Y-25415892D01*
X34750500Y-25284108D01*
X34716392Y-25156814D01*
X34650500Y-25042686D01*
X34620495Y-25012681D01*
X34587010Y-24951358D01*
X34591994Y-24881666D01*
X34620495Y-24837319D01*
X34650500Y-24807314D01*
X34716392Y-24693186D01*
X34750500Y-24565892D01*
X34750500Y-24434108D01*
X34716392Y-24306814D01*
X34650500Y-24192686D01*
X34620495Y-24162681D01*
X34587010Y-24101358D01*
X34591994Y-24031666D01*
X34620495Y-23987319D01*
X34650500Y-23957314D01*
X34716392Y-23843186D01*
X34750500Y-23715892D01*
X34750500Y-23584108D01*
X34716392Y-23456814D01*
X34650500Y-23342686D01*
X34620495Y-23312681D01*
X34587010Y-23251358D01*
X34591994Y-23181666D01*
X34620495Y-23137319D01*
X34650500Y-23107314D01*
X34716392Y-22993186D01*
X34750500Y-22865892D01*
X34750500Y-22734108D01*
X34716392Y-22606814D01*
X34650500Y-22492686D01*
X34557314Y-22399500D01*
X34557311Y-22399498D01*
X34550865Y-22394552D01*
X34552675Y-22392192D01*
X34514280Y-22351920D01*
X34500500Y-22295107D01*
X34500500Y-22004427D01*
X34500816Y-21995581D01*
X34515130Y-21795443D01*
X34515131Y-21795434D01*
X34517646Y-21777938D01*
X34559356Y-21586200D01*
X34564335Y-21569242D01*
X34632911Y-21385382D01*
X34640251Y-21369310D01*
X34734294Y-21197083D01*
X34743850Y-21182214D01*
X34861443Y-21025128D01*
X34873017Y-21011771D01*
X35011771Y-20873017D01*
X35025128Y-20861443D01*
X35182214Y-20743850D01*
X35197083Y-20734294D01*
X35369310Y-20640251D01*
X35385382Y-20632911D01*
X35569242Y-20564335D01*
X35586200Y-20559356D01*
X35777938Y-20517646D01*
X35795436Y-20515130D01*
X35995582Y-20500816D01*
X36004428Y-20500500D01*
X36065892Y-20500500D01*
X43934108Y-20500500D01*
X43995572Y-20500500D01*
X44004418Y-20500816D01*
G37*
%TD.AperFunction*%
%TA.AperFunction,Conductor*%
G36*
X40700000Y-35552661D02*
G01*
X40727259Y-35654394D01*
X40779920Y-35745606D01*
X40854394Y-35820080D01*
X40945606Y-35872741D01*
X41047339Y-35900000D01*
X41053553Y-35900000D01*
X40517261Y-36436289D01*
X40517262Y-36436290D01*
X40523471Y-36440801D01*
X40618524Y-36489234D01*
X40669320Y-36537209D01*
X40686115Y-36605030D01*
X40663577Y-36671165D01*
X40618524Y-36710204D01*
X40523211Y-36758768D01*
X40443256Y-36816859D01*
X40383072Y-36860586D01*
X40383070Y-36860588D01*
X40383069Y-36860588D01*
X40260588Y-36983069D01*
X40260588Y-36983070D01*
X40260586Y-36983072D01*
X40216859Y-37043256D01*
X40158768Y-37123211D01*
X40110485Y-37217973D01*
X40062510Y-37268769D01*
X39994689Y-37285564D01*
X39928555Y-37263027D01*
X39889515Y-37217973D01*
X39841231Y-37123211D01*
X39739414Y-36983072D01*
X39616928Y-36860586D01*
X39546858Y-36809677D01*
X39476786Y-36758766D01*
X39382027Y-36710485D01*
X39331230Y-36662511D01*
X39314435Y-36594690D01*
X39336972Y-36528555D01*
X39382027Y-36489515D01*
X39476786Y-36441233D01*
X39476785Y-36441233D01*
X39476788Y-36441232D01*
X39616928Y-36339414D01*
X39739414Y-36216928D01*
X39841232Y-36076788D01*
X39889796Y-35981474D01*
X39937768Y-35930680D01*
X40005589Y-35913884D01*
X40071724Y-35936421D01*
X40110764Y-35981474D01*
X40159196Y-36076524D01*
X40163709Y-36082736D01*
X40163709Y-36082737D01*
X40700000Y-35546446D01*
X40700000Y-35552661D01*
G37*
%TD.AperFunction*%
%TD*%
M02*
