%TF.GenerationSoftware,KiCad,Pcbnew,10.0.4-10.0.4~ubuntu26.04.1*%
%TF.CreationDate,2026-07-08T21:58:59-05:00*%
%TF.ProjectId,magnetic-connector,6d61676e-6574-4696-932d-636f6e6e6563,rev?*%
%TF.SameCoordinates,Original*%
%TF.FileFunction,Profile,NP*%
%FSLAX46Y46*%
G04 Gerber Fmt 4.6, Leading zero omitted, Abs format (unit mm)*
G04 Created by KiCad (PCBNEW 10.0.4-10.0.4~ubuntu26.04.1) date 2026-07-08 21:58:59*
%MOMM*%
%LPD*%
G01*
G04 APERTURE LIST*
%TA.AperFunction,Profile*%
%ADD10C,0.050000*%
%TD*%
%TA.AperFunction,Profile*%
%ADD11C,0.100000*%
%TD*%
G04 APERTURE END LIST*
D10*
X20000000Y-22000000D02*
G75*
G02*
X22000000Y-20000000I2000000J0D01*
G01*
X20000000Y-60000000D02*
X20000000Y-22000000D01*
X22000000Y-20000000D02*
X30000000Y-20000000D01*
X22000000Y-62000000D02*
G75*
G02*
X20000000Y-60000000I0J2000000D01*
G01*
X22000000Y-62000000D02*
X30000000Y-62000000D01*
X30000000Y-20000000D02*
G75*
G02*
X32000000Y-22000000I0J-2000000D01*
G01*
X32000000Y-22000000D02*
X32000000Y-22500000D01*
X32000000Y-26500000D02*
X32000000Y-55500000D01*
X32000000Y-59500000D02*
X32000000Y-60000000D01*
X32000000Y-60000000D02*
G75*
G02*
X30000000Y-62000000I-2070600J70600D01*
G01*
X34000000Y-22000000D02*
X34000000Y-22500000D01*
X34000000Y-22000000D02*
G75*
G02*
X36000000Y-20000000I2000000J0D01*
G01*
X34000000Y-55500000D02*
X34000000Y-26500000D01*
X34000000Y-59500000D02*
X34000000Y-60000000D01*
X36000000Y-20000000D02*
X44000000Y-20000000D01*
X36000000Y-62000000D02*
G75*
G02*
X34000000Y-60000000I0J2000000D01*
G01*
X36000000Y-62000000D02*
X44000000Y-62000000D01*
X44000000Y-20000000D02*
G75*
G02*
X46000000Y-22000000I0J-2000000D01*
G01*
X46000000Y-22000000D02*
X46000000Y-60000000D01*
X46000000Y-60000000D02*
G75*
G02*
X44000000Y-62000000I-2070600J70600D01*
G01*
%TO.C,REF\u002A\u002A*%
D11*
X32000000Y-59500000D02*
G75*
G02*
X34000000Y-59500000I1000000J0D01*
G01*
X34000000Y-55500000D02*
G75*
G02*
X32000000Y-55500000I-1000000J0D01*
G01*
X32000000Y-26500000D02*
G75*
G02*
X34000000Y-26500000I1000000J0D01*
G01*
X34000000Y-22500000D02*
G75*
G02*
X32000000Y-22500000I-1000000J0D01*
G01*
%TD*%
M02*
