M48
; DRILL file KiCad 10.0.4-10.0.4~ubuntu26.04.1 date 2026-07-08T21:58:59
; FORMAT={-:-/ absolute / inch / decimal}
; #@! TF.CreationDate,2026-07-08T21:58:59-05:00
; #@! TF.GenerationSoftware,Kicad,Pcbnew,10.0.4-10.0.4~ubuntu26.04.1
; #@! TF.FileFunction,NonPlated,1,2,NPTH
FMAT,2
INCH
; #@! TA.AperFunction,NonPlated,NPTH,ComponentDrill
T1C0.0197
%
G90
G05
T1
X1.25Y-0.8976
X1.25Y-0.9311
X1.25Y-0.9646
X1.25Y-0.998
X1.25Y-1.0315
X1.25Y-2.1969
X1.25Y-2.2303
X1.25Y-2.2638
X1.25Y-2.2972
X1.25Y-2.3307
X1.3484Y-0.8976
X1.3484Y-0.9311
X1.3484Y-0.9646
X1.3484Y-0.998
X1.3484Y-1.0315
X1.3484Y-2.1969
X1.3484Y-2.2303
X1.3484Y-2.2638
X1.3484Y-2.2972
X1.3484Y-2.3307
M30
