M48
; DRILL file KiCad 10.0.4-10.0.4~ubuntu26.04.1 date 2026-07-08T21:58:59
; FORMAT={-:-/ absolute / inch / decimal}
; #@! TF.CreationDate,2026-07-08T21:58:59-05:00
; #@! TF.GenerationSoftware,Kicad,Pcbnew,10.0.4-10.0.4~ubuntu26.04.1
; #@! TF.FileFunction,Plated,1,2,PTH
FMAT,2
INCH
; #@! TA.AperFunction,Plated,PTH,ViaDrill
T1C0.0118
; #@! TA.AperFunction,Plated,PTH,ComponentDrill
T2C0.0315
; #@! TA.AperFunction,Plated,PTH,ComponentDrill
T3C0.0866
%
G90
G05
T1
X0.8268Y-1.8898
X0.8587Y-2.0069
X0.8661Y-2.2662
X0.8858Y-1.0276
X0.8858Y-1.1024
X0.8858Y-1.185
X0.9449Y-2.126
X0.9754Y-1.0276
X0.9754Y-1.1024
X1.0719Y-1.185
X1.1614Y-1.185
X1.1614Y-1.2224
X1.1614Y-1.2598
X1.1811Y-1.9094
X1.1811Y-2.2687
X1.2205Y-1.4173
X1.3976Y-2.0079
X1.4173Y-0.9449
X1.4173Y-1.1024
X1.4173Y-2.2662
X1.4173Y-2.3401
X1.4316Y-1.1831
X1.4316Y-1.2579
X1.437Y-2.1654
X1.5212Y-1.2579
X1.6284Y-1.0256
X1.6284Y-1.1004
X1.6535Y-2.126
X1.718Y-1.0256
X1.718Y-1.1004
X1.7323Y-2.2662
X1.7323Y-2.3401
X1.7398Y-1.8898
T2
X0.9803Y-1.3976
X0.9803Y-1.4843
X0.9803Y-1.5709
X0.9803Y-1.6575
X0.9803Y-1.7441
X0.9803Y-1.8307
X1.0669Y-1.3976
X1.0669Y-1.4843
X1.0669Y-1.5709
X1.0669Y-1.6575
X1.0669Y-1.7441
X1.0669Y-1.8307
X1.5315Y-1.3976
X1.5315Y-1.4843
X1.5315Y-1.5709
X1.5315Y-1.6575
X1.5315Y-1.7441
X1.5315Y-1.8307
X1.6181Y-1.3976
X1.6181Y-1.4843
X1.6181Y-1.5709
X1.6181Y-1.6575
X1.6181Y-1.7441
X1.6181Y-1.8307
T3
X1.0236Y-0.8858
X1.0236Y-2.3425
X1.5748Y-0.8858
X1.5748Y-2.3425
M30
