%TF.GenerationSoftware,KiCad,Pcbnew,10.0.4-10.0.4~ubuntu26.04.1*%
%TF.CreationDate,2026-07-05T20:44:36-05:00*%
%TF.ProjectId,pmw3610-xxs-compliant-narrow,706d7733-3631-4302-9d78-78732d636f6d,rev?*%
%TF.SameCoordinates,Original*%
%TF.FileFunction,Legend,Bot*%
%TF.FilePolarity,Positive*%
%FSLAX46Y46*%
G04 Gerber Fmt 4.6, Leading zero omitted, Abs format (unit mm)*
G04 Created by KiCad (PCBNEW 10.0.4-10.0.4~ubuntu26.04.1) date 2026-07-05 20:44:36*
%MOMM*%
%LPD*%
G01*
G04 APERTURE LIST*
%ADD10C,0.100000*%
%ADD11C,0.150000*%
%ADD12C,0.120000*%
G04 APERTURE END LIST*
D10*
X21500000Y-31000000D02*
X34500000Y-31000000D01*
X31152380Y-34620276D02*
X31152380Y-35120276D01*
X31152380Y-34644085D02*
X31104761Y-34620276D01*
X31104761Y-34620276D02*
X31009523Y-34620276D01*
X31009523Y-34620276D02*
X30961904Y-34644085D01*
X30961904Y-34644085D02*
X30938094Y-34667895D01*
X30938094Y-34667895D02*
X30914285Y-34715514D01*
X30914285Y-34715514D02*
X30914285Y-34858371D01*
X30914285Y-34858371D02*
X30938094Y-34905990D01*
X30938094Y-34905990D02*
X30961904Y-34929800D01*
X30961904Y-34929800D02*
X31009523Y-34953609D01*
X31009523Y-34953609D02*
X31104761Y-34953609D01*
X31104761Y-34953609D02*
X31152380Y-34929800D01*
X30699999Y-34953609D02*
X30699999Y-34620276D01*
X30699999Y-34667895D02*
X30676189Y-34644085D01*
X30676189Y-34644085D02*
X30628570Y-34620276D01*
X30628570Y-34620276D02*
X30557142Y-34620276D01*
X30557142Y-34620276D02*
X30509523Y-34644085D01*
X30509523Y-34644085D02*
X30485713Y-34691704D01*
X30485713Y-34691704D02*
X30485713Y-34953609D01*
X30485713Y-34691704D02*
X30461904Y-34644085D01*
X30461904Y-34644085D02*
X30414285Y-34620276D01*
X30414285Y-34620276D02*
X30342856Y-34620276D01*
X30342856Y-34620276D02*
X30295237Y-34644085D01*
X30295237Y-34644085D02*
X30271427Y-34691704D01*
X30271427Y-34691704D02*
X30271427Y-34953609D01*
X30080951Y-34620276D02*
X29985713Y-34953609D01*
X29985713Y-34953609D02*
X29890475Y-34715514D01*
X29890475Y-34715514D02*
X29795237Y-34953609D01*
X29795237Y-34953609D02*
X29699999Y-34620276D01*
X29557141Y-34453609D02*
X29247617Y-34453609D01*
X29247617Y-34453609D02*
X29414284Y-34644085D01*
X29414284Y-34644085D02*
X29342855Y-34644085D01*
X29342855Y-34644085D02*
X29295236Y-34667895D01*
X29295236Y-34667895D02*
X29271427Y-34691704D01*
X29271427Y-34691704D02*
X29247617Y-34739323D01*
X29247617Y-34739323D02*
X29247617Y-34858371D01*
X29247617Y-34858371D02*
X29271427Y-34905990D01*
X29271427Y-34905990D02*
X29295236Y-34929800D01*
X29295236Y-34929800D02*
X29342855Y-34953609D01*
X29342855Y-34953609D02*
X29485712Y-34953609D01*
X29485712Y-34953609D02*
X29533331Y-34929800D01*
X29533331Y-34929800D02*
X29557141Y-34905990D01*
X28819046Y-34453609D02*
X28914284Y-34453609D01*
X28914284Y-34453609D02*
X28961903Y-34477419D01*
X28961903Y-34477419D02*
X28985713Y-34501228D01*
X28985713Y-34501228D02*
X29033332Y-34572657D01*
X29033332Y-34572657D02*
X29057141Y-34667895D01*
X29057141Y-34667895D02*
X29057141Y-34858371D01*
X29057141Y-34858371D02*
X29033332Y-34905990D01*
X29033332Y-34905990D02*
X29009522Y-34929800D01*
X29009522Y-34929800D02*
X28961903Y-34953609D01*
X28961903Y-34953609D02*
X28866665Y-34953609D01*
X28866665Y-34953609D02*
X28819046Y-34929800D01*
X28819046Y-34929800D02*
X28795237Y-34905990D01*
X28795237Y-34905990D02*
X28771427Y-34858371D01*
X28771427Y-34858371D02*
X28771427Y-34739323D01*
X28771427Y-34739323D02*
X28795237Y-34691704D01*
X28795237Y-34691704D02*
X28819046Y-34667895D01*
X28819046Y-34667895D02*
X28866665Y-34644085D01*
X28866665Y-34644085D02*
X28961903Y-34644085D01*
X28961903Y-34644085D02*
X29009522Y-34667895D01*
X29009522Y-34667895D02*
X29033332Y-34691704D01*
X29033332Y-34691704D02*
X29057141Y-34739323D01*
X28295237Y-34953609D02*
X28580951Y-34953609D01*
X28438094Y-34953609D02*
X28438094Y-34453609D01*
X28438094Y-34453609D02*
X28485713Y-34525038D01*
X28485713Y-34525038D02*
X28533332Y-34572657D01*
X28533332Y-34572657D02*
X28580951Y-34596466D01*
X27985714Y-34453609D02*
X27938095Y-34453609D01*
X27938095Y-34453609D02*
X27890476Y-34477419D01*
X27890476Y-34477419D02*
X27866666Y-34501228D01*
X27866666Y-34501228D02*
X27842857Y-34548847D01*
X27842857Y-34548847D02*
X27819047Y-34644085D01*
X27819047Y-34644085D02*
X27819047Y-34763133D01*
X27819047Y-34763133D02*
X27842857Y-34858371D01*
X27842857Y-34858371D02*
X27866666Y-34905990D01*
X27866666Y-34905990D02*
X27890476Y-34929800D01*
X27890476Y-34929800D02*
X27938095Y-34953609D01*
X27938095Y-34953609D02*
X27985714Y-34953609D01*
X27985714Y-34953609D02*
X28033333Y-34929800D01*
X28033333Y-34929800D02*
X28057142Y-34905990D01*
X28057142Y-34905990D02*
X28080952Y-34858371D01*
X28080952Y-34858371D02*
X28104761Y-34763133D01*
X28104761Y-34763133D02*
X28104761Y-34644085D01*
X28104761Y-34644085D02*
X28080952Y-34548847D01*
X28080952Y-34548847D02*
X28057142Y-34501228D01*
X28057142Y-34501228D02*
X28033333Y-34477419D01*
X28033333Y-34477419D02*
X27985714Y-34453609D01*
X27223810Y-34953609D02*
X27223810Y-34620276D01*
X27223810Y-34667895D02*
X27200000Y-34644085D01*
X27200000Y-34644085D02*
X27152381Y-34620276D01*
X27152381Y-34620276D02*
X27080953Y-34620276D01*
X27080953Y-34620276D02*
X27033334Y-34644085D01*
X27033334Y-34644085D02*
X27009524Y-34691704D01*
X27009524Y-34691704D02*
X27009524Y-34953609D01*
X27009524Y-34691704D02*
X26985715Y-34644085D01*
X26985715Y-34644085D02*
X26938096Y-34620276D01*
X26938096Y-34620276D02*
X26866667Y-34620276D01*
X26866667Y-34620276D02*
X26819048Y-34644085D01*
X26819048Y-34644085D02*
X26795238Y-34691704D01*
X26795238Y-34691704D02*
X26795238Y-34953609D01*
X26485714Y-34953609D02*
X26533333Y-34929800D01*
X26533333Y-34929800D02*
X26557143Y-34905990D01*
X26557143Y-34905990D02*
X26580952Y-34858371D01*
X26580952Y-34858371D02*
X26580952Y-34715514D01*
X26580952Y-34715514D02*
X26557143Y-34667895D01*
X26557143Y-34667895D02*
X26533333Y-34644085D01*
X26533333Y-34644085D02*
X26485714Y-34620276D01*
X26485714Y-34620276D02*
X26414286Y-34620276D01*
X26414286Y-34620276D02*
X26366667Y-34644085D01*
X26366667Y-34644085D02*
X26342857Y-34667895D01*
X26342857Y-34667895D02*
X26319048Y-34715514D01*
X26319048Y-34715514D02*
X26319048Y-34858371D01*
X26319048Y-34858371D02*
X26342857Y-34905990D01*
X26342857Y-34905990D02*
X26366667Y-34929800D01*
X26366667Y-34929800D02*
X26414286Y-34953609D01*
X26414286Y-34953609D02*
X26485714Y-34953609D01*
X25890476Y-34953609D02*
X25890476Y-34453609D01*
X25890476Y-34929800D02*
X25938095Y-34953609D01*
X25938095Y-34953609D02*
X26033333Y-34953609D01*
X26033333Y-34953609D02*
X26080952Y-34929800D01*
X26080952Y-34929800D02*
X26104762Y-34905990D01*
X26104762Y-34905990D02*
X26128571Y-34858371D01*
X26128571Y-34858371D02*
X26128571Y-34715514D01*
X26128571Y-34715514D02*
X26104762Y-34667895D01*
X26104762Y-34667895D02*
X26080952Y-34644085D01*
X26080952Y-34644085D02*
X26033333Y-34620276D01*
X26033333Y-34620276D02*
X25938095Y-34620276D01*
X25938095Y-34620276D02*
X25890476Y-34644085D01*
X25438095Y-34620276D02*
X25438095Y-34953609D01*
X25652381Y-34620276D02*
X25652381Y-34882180D01*
X25652381Y-34882180D02*
X25628571Y-34929800D01*
X25628571Y-34929800D02*
X25580952Y-34953609D01*
X25580952Y-34953609D02*
X25509524Y-34953609D01*
X25509524Y-34953609D02*
X25461905Y-34929800D01*
X25461905Y-34929800D02*
X25438095Y-34905990D01*
X25128571Y-34953609D02*
X25176190Y-34929800D01*
X25176190Y-34929800D02*
X25200000Y-34882180D01*
X25200000Y-34882180D02*
X25200000Y-34453609D01*
X24747619Y-34929800D02*
X24795238Y-34953609D01*
X24795238Y-34953609D02*
X24890476Y-34953609D01*
X24890476Y-34953609D02*
X24938095Y-34929800D01*
X24938095Y-34929800D02*
X24961904Y-34882180D01*
X24961904Y-34882180D02*
X24961904Y-34691704D01*
X24961904Y-34691704D02*
X24938095Y-34644085D01*
X24938095Y-34644085D02*
X24890476Y-34620276D01*
X24890476Y-34620276D02*
X24795238Y-34620276D01*
X24795238Y-34620276D02*
X24747619Y-34644085D01*
X24747619Y-34644085D02*
X24723809Y-34691704D01*
X24723809Y-34691704D02*
X24723809Y-34739323D01*
X24723809Y-34739323D02*
X24961904Y-34786942D01*
D11*
X28773819Y-56393365D02*
X28811915Y-56431461D01*
X28811915Y-56431461D02*
X28926200Y-56469556D01*
X28926200Y-56469556D02*
X29002391Y-56469556D01*
X29002391Y-56469556D02*
X29116677Y-56431461D01*
X29116677Y-56431461D02*
X29192867Y-56355270D01*
X29192867Y-56355270D02*
X29230962Y-56279080D01*
X29230962Y-56279080D02*
X29269058Y-56126699D01*
X29269058Y-56126699D02*
X29269058Y-56012413D01*
X29269058Y-56012413D02*
X29230962Y-55860032D01*
X29230962Y-55860032D02*
X29192867Y-55783841D01*
X29192867Y-55783841D02*
X29116677Y-55707651D01*
X29116677Y-55707651D02*
X29002391Y-55669556D01*
X29002391Y-55669556D02*
X28926200Y-55669556D01*
X28926200Y-55669556D02*
X28811915Y-55707651D01*
X28811915Y-55707651D02*
X28773819Y-55745746D01*
X28469058Y-55745746D02*
X28430962Y-55707651D01*
X28430962Y-55707651D02*
X28354772Y-55669556D01*
X28354772Y-55669556D02*
X28164296Y-55669556D01*
X28164296Y-55669556D02*
X28088105Y-55707651D01*
X28088105Y-55707651D02*
X28050010Y-55745746D01*
X28050010Y-55745746D02*
X28011915Y-55821937D01*
X28011915Y-55821937D02*
X28011915Y-55898127D01*
X28011915Y-55898127D02*
X28050010Y-56012413D01*
X28050010Y-56012413D02*
X28507153Y-56469556D01*
X28507153Y-56469556D02*
X28011915Y-56469556D01*
X33638907Y-56438697D02*
X33677003Y-56476793D01*
X33677003Y-56476793D02*
X33791288Y-56514888D01*
X33791288Y-56514888D02*
X33867479Y-56514888D01*
X33867479Y-56514888D02*
X33981765Y-56476793D01*
X33981765Y-56476793D02*
X34057955Y-56400602D01*
X34057955Y-56400602D02*
X34096050Y-56324412D01*
X34096050Y-56324412D02*
X34134146Y-56172031D01*
X34134146Y-56172031D02*
X34134146Y-56057745D01*
X34134146Y-56057745D02*
X34096050Y-55905364D01*
X34096050Y-55905364D02*
X34057955Y-55829173D01*
X34057955Y-55829173D02*
X33981765Y-55752983D01*
X33981765Y-55752983D02*
X33867479Y-55714888D01*
X33867479Y-55714888D02*
X33791288Y-55714888D01*
X33791288Y-55714888D02*
X33677003Y-55752983D01*
X33677003Y-55752983D02*
X33638907Y-55791078D01*
X32915098Y-55714888D02*
X33296050Y-55714888D01*
X33296050Y-55714888D02*
X33334146Y-56095840D01*
X33334146Y-56095840D02*
X33296050Y-56057745D01*
X33296050Y-56057745D02*
X33219860Y-56019650D01*
X33219860Y-56019650D02*
X33029384Y-56019650D01*
X33029384Y-56019650D02*
X32953193Y-56057745D01*
X32953193Y-56057745D02*
X32915098Y-56095840D01*
X32915098Y-56095840D02*
X32877003Y-56172031D01*
X32877003Y-56172031D02*
X32877003Y-56362507D01*
X32877003Y-56362507D02*
X32915098Y-56438697D01*
X32915098Y-56438697D02*
X32953193Y-56476793D01*
X32953193Y-56476793D02*
X33029384Y-56514888D01*
X33029384Y-56514888D02*
X33219860Y-56514888D01*
X33219860Y-56514888D02*
X33296050Y-56476793D01*
X33296050Y-56476793D02*
X33334146Y-56438697D01*
X26764824Y-56399089D02*
X26802920Y-56437185D01*
X26802920Y-56437185D02*
X26917205Y-56475280D01*
X26917205Y-56475280D02*
X26993396Y-56475280D01*
X26993396Y-56475280D02*
X27107682Y-56437185D01*
X27107682Y-56437185D02*
X27183872Y-56360994D01*
X27183872Y-56360994D02*
X27221967Y-56284804D01*
X27221967Y-56284804D02*
X27260063Y-56132423D01*
X27260063Y-56132423D02*
X27260063Y-56018137D01*
X27260063Y-56018137D02*
X27221967Y-55865756D01*
X27221967Y-55865756D02*
X27183872Y-55789565D01*
X27183872Y-55789565D02*
X27107682Y-55713375D01*
X27107682Y-55713375D02*
X26993396Y-55675280D01*
X26993396Y-55675280D02*
X26917205Y-55675280D01*
X26917205Y-55675280D02*
X26802920Y-55713375D01*
X26802920Y-55713375D02*
X26764824Y-55751470D01*
X26002920Y-56475280D02*
X26460063Y-56475280D01*
X26231491Y-56475280D02*
X26231491Y-55675280D01*
X26231491Y-55675280D02*
X26307682Y-55789565D01*
X26307682Y-55789565D02*
X26383872Y-55865756D01*
X26383872Y-55865756D02*
X26460063Y-55903851D01*
X30296305Y-56416260D02*
X30334401Y-56454356D01*
X30334401Y-56454356D02*
X30448686Y-56492451D01*
X30448686Y-56492451D02*
X30524877Y-56492451D01*
X30524877Y-56492451D02*
X30639163Y-56454356D01*
X30639163Y-56454356D02*
X30715353Y-56378165D01*
X30715353Y-56378165D02*
X30753448Y-56301975D01*
X30753448Y-56301975D02*
X30791544Y-56149594D01*
X30791544Y-56149594D02*
X30791544Y-56035308D01*
X30791544Y-56035308D02*
X30753448Y-55882927D01*
X30753448Y-55882927D02*
X30715353Y-55806736D01*
X30715353Y-55806736D02*
X30639163Y-55730546D01*
X30639163Y-55730546D02*
X30524877Y-55692451D01*
X30524877Y-55692451D02*
X30448686Y-55692451D01*
X30448686Y-55692451D02*
X30334401Y-55730546D01*
X30334401Y-55730546D02*
X30296305Y-55768641D01*
X29915353Y-56492451D02*
X29762972Y-56492451D01*
X29762972Y-56492451D02*
X29686782Y-56454356D01*
X29686782Y-56454356D02*
X29648686Y-56416260D01*
X29648686Y-56416260D02*
X29572496Y-56301975D01*
X29572496Y-56301975D02*
X29534401Y-56149594D01*
X29534401Y-56149594D02*
X29534401Y-55844832D01*
X29534401Y-55844832D02*
X29572496Y-55768641D01*
X29572496Y-55768641D02*
X29610591Y-55730546D01*
X29610591Y-55730546D02*
X29686782Y-55692451D01*
X29686782Y-55692451D02*
X29839163Y-55692451D01*
X29839163Y-55692451D02*
X29915353Y-55730546D01*
X29915353Y-55730546D02*
X29953448Y-55768641D01*
X29953448Y-55768641D02*
X29991544Y-55844832D01*
X29991544Y-55844832D02*
X29991544Y-56035308D01*
X29991544Y-56035308D02*
X29953448Y-56111498D01*
X29953448Y-56111498D02*
X29915353Y-56149594D01*
X29915353Y-56149594D02*
X29839163Y-56187689D01*
X29839163Y-56187689D02*
X29686782Y-56187689D01*
X29686782Y-56187689D02*
X29610591Y-56149594D01*
X29610591Y-56149594D02*
X29572496Y-56111498D01*
X29572496Y-56111498D02*
X29534401Y-56035308D01*
X31824515Y-56399089D02*
X31862611Y-56437185D01*
X31862611Y-56437185D02*
X31976896Y-56475280D01*
X31976896Y-56475280D02*
X32053087Y-56475280D01*
X32053087Y-56475280D02*
X32167373Y-56437185D01*
X32167373Y-56437185D02*
X32243563Y-56360994D01*
X32243563Y-56360994D02*
X32281658Y-56284804D01*
X32281658Y-56284804D02*
X32319754Y-56132423D01*
X32319754Y-56132423D02*
X32319754Y-56018137D01*
X32319754Y-56018137D02*
X32281658Y-55865756D01*
X32281658Y-55865756D02*
X32243563Y-55789565D01*
X32243563Y-55789565D02*
X32167373Y-55713375D01*
X32167373Y-55713375D02*
X32053087Y-55675280D01*
X32053087Y-55675280D02*
X31976896Y-55675280D01*
X31976896Y-55675280D02*
X31862611Y-55713375D01*
X31862611Y-55713375D02*
X31824515Y-55751470D01*
X31367373Y-56018137D02*
X31443563Y-55980042D01*
X31443563Y-55980042D02*
X31481658Y-55941946D01*
X31481658Y-55941946D02*
X31519754Y-55865756D01*
X31519754Y-55865756D02*
X31519754Y-55827661D01*
X31519754Y-55827661D02*
X31481658Y-55751470D01*
X31481658Y-55751470D02*
X31443563Y-55713375D01*
X31443563Y-55713375D02*
X31367373Y-55675280D01*
X31367373Y-55675280D02*
X31214992Y-55675280D01*
X31214992Y-55675280D02*
X31138801Y-55713375D01*
X31138801Y-55713375D02*
X31100706Y-55751470D01*
X31100706Y-55751470D02*
X31062611Y-55827661D01*
X31062611Y-55827661D02*
X31062611Y-55865756D01*
X31062611Y-55865756D02*
X31100706Y-55941946D01*
X31100706Y-55941946D02*
X31138801Y-55980042D01*
X31138801Y-55980042D02*
X31214992Y-56018137D01*
X31214992Y-56018137D02*
X31367373Y-56018137D01*
X31367373Y-56018137D02*
X31443563Y-56056232D01*
X31443563Y-56056232D02*
X31481658Y-56094327D01*
X31481658Y-56094327D02*
X31519754Y-56170518D01*
X31519754Y-56170518D02*
X31519754Y-56322899D01*
X31519754Y-56322899D02*
X31481658Y-56399089D01*
X31481658Y-56399089D02*
X31443563Y-56437185D01*
X31443563Y-56437185D02*
X31367373Y-56475280D01*
X31367373Y-56475280D02*
X31214992Y-56475280D01*
X31214992Y-56475280D02*
X31138801Y-56437185D01*
X31138801Y-56437185D02*
X31100706Y-56399089D01*
X31100706Y-56399089D02*
X31062611Y-56322899D01*
X31062611Y-56322899D02*
X31062611Y-56170518D01*
X31062611Y-56170518D02*
X31100706Y-56094327D01*
X31100706Y-56094327D02*
X31138801Y-56056232D01*
X31138801Y-56056232D02*
X31214992Y-56018137D01*
X25259051Y-56383750D02*
X25297147Y-56421846D01*
X25297147Y-56421846D02*
X25411432Y-56459941D01*
X25411432Y-56459941D02*
X25487623Y-56459941D01*
X25487623Y-56459941D02*
X25601909Y-56421846D01*
X25601909Y-56421846D02*
X25678099Y-56345655D01*
X25678099Y-56345655D02*
X25716194Y-56269465D01*
X25716194Y-56269465D02*
X25754290Y-56117084D01*
X25754290Y-56117084D02*
X25754290Y-56002798D01*
X25754290Y-56002798D02*
X25716194Y-55850417D01*
X25716194Y-55850417D02*
X25678099Y-55774226D01*
X25678099Y-55774226D02*
X25601909Y-55698036D01*
X25601909Y-55698036D02*
X25487623Y-55659941D01*
X25487623Y-55659941D02*
X25411432Y-55659941D01*
X25411432Y-55659941D02*
X25297147Y-55698036D01*
X25297147Y-55698036D02*
X25259051Y-55736131D01*
X24992385Y-55659941D02*
X24497147Y-55659941D01*
X24497147Y-55659941D02*
X24763813Y-55964703D01*
X24763813Y-55964703D02*
X24649528Y-55964703D01*
X24649528Y-55964703D02*
X24573337Y-56002798D01*
X24573337Y-56002798D02*
X24535242Y-56040893D01*
X24535242Y-56040893D02*
X24497147Y-56117084D01*
X24497147Y-56117084D02*
X24497147Y-56307560D01*
X24497147Y-56307560D02*
X24535242Y-56383750D01*
X24535242Y-56383750D02*
X24573337Y-56421846D01*
X24573337Y-56421846D02*
X24649528Y-56459941D01*
X24649528Y-56459941D02*
X24878099Y-56459941D01*
X24878099Y-56459941D02*
X24954290Y-56421846D01*
X24954290Y-56421846D02*
X24992385Y-56383750D01*
X23759002Y-56429491D02*
X24025669Y-56048538D01*
X24216145Y-56429491D02*
X24216145Y-55629491D01*
X24216145Y-55629491D02*
X23911383Y-55629491D01*
X23911383Y-55629491D02*
X23835193Y-55667586D01*
X23835193Y-55667586D02*
X23797098Y-55705681D01*
X23797098Y-55705681D02*
X23759002Y-55781872D01*
X23759002Y-55781872D02*
X23759002Y-55896157D01*
X23759002Y-55896157D02*
X23797098Y-55972348D01*
X23797098Y-55972348D02*
X23835193Y-56010443D01*
X23835193Y-56010443D02*
X23911383Y-56048538D01*
X23911383Y-56048538D02*
X24216145Y-56048538D01*
X22997098Y-56429491D02*
X23454241Y-56429491D01*
X23225669Y-56429491D02*
X23225669Y-55629491D01*
X23225669Y-55629491D02*
X23301860Y-55743776D01*
X23301860Y-55743776D02*
X23378050Y-55819967D01*
X23378050Y-55819967D02*
X23454241Y-55858062D01*
%TO.C,C2*%
D12*
X28136870Y-53991233D02*
X28136870Y-54283767D01*
X29156870Y-53991233D02*
X29156870Y-54283767D01*
%TO.C,C5*%
X32990000Y-54283767D02*
X32990000Y-53991233D01*
X34010000Y-54283767D02*
X34010000Y-53991233D01*
%TO.C,C1*%
X26136870Y-54283767D02*
X26136870Y-53991233D01*
X27156870Y-54283767D02*
X27156870Y-53991233D01*
%TO.C,C9*%
X29636870Y-53991233D02*
X29636870Y-54283767D01*
X30656870Y-53991233D02*
X30656870Y-54283767D01*
%TO.C,REF\u002A\u002A*%
D10*
X29804888Y-29999886D02*
X30660581Y-30493459D01*
X30394425Y-30001902D02*
X34520000Y-32383804D01*
X31648338Y-28935916D02*
X29804888Y-29999886D01*
X32963187Y-31815689D02*
X34806346Y-32880161D01*
X34520000Y-27620000D02*
X30394425Y-30001902D01*
X34520000Y-32383804D02*
X34520000Y-27620000D01*
X34793386Y-29258744D02*
X34793686Y-27130285D01*
X34793686Y-27130285D02*
X33938393Y-27624551D01*
X34806346Y-32880161D02*
X34805976Y-31892323D01*
%TO.C,C8*%
D12*
X31136870Y-53991233D02*
X31136870Y-54283767D01*
X32156870Y-53991233D02*
X32156870Y-54283767D01*
%TO.C,C3*%
X24636870Y-53991233D02*
X24636870Y-54283767D01*
X25656870Y-53991233D02*
X25656870Y-54283767D01*
%TO.C,R1*%
X23124370Y-54392224D02*
X23124370Y-53882776D01*
X24169370Y-54392224D02*
X24169370Y-53882776D01*
%TD*%
M02*
